<?xml version="1.0" encoding="UTF-8"?>
<svg id="_レイヤー_2" data-name="レイヤー 2" xmlns="http://www.w3.org/2000/svg" xmlns:xlink="http://www.w3.org/1999/xlink" viewBox="0 0 254.75 350.72">
  <defs>
    <style>
      .cls-1 {
        fill: #4eb5e8;
      }

      .cls-2 {
        fill: url(#_名称未設定グラデーション_42);
      }
    </style>
    <linearGradient id="_名称未設定グラデーション_42" data-name="名称未設定グラデーション 42" x1="98.61" y1="256.02" x2="298.4" y2="-44.39" gradientUnits="userSpaceOnUse">
      <stop offset="0" stop-color="#81cef1"/>
      <stop offset="1" stop-color="#2950a2"/>
    </linearGradient>
  </defs>
  <g id="Icon_04_512x512px" data-name="Icon 04 512x512px">
    <g id="Graphic_Elements" data-name="Graphic Elements">
      <path class="cls-2" d="M0,235.79c0,63.47,51.45,114.92,114.92,114.92s114.92-51.45,114.92-114.92c0-53.98-83.11-168.97-107.98-202.16-3.47-4.64-10.42-4.64-13.89,0C83.11,66.83,0,181.82,0,235.79Z"/>
      <path class="cls-1" d="M254.75,97.91c-16.57,9.85-21.9,17.83-28.49,42.6-6.58-24.78-11.92-32.76-28.49-42.6,16.57-9.85,21.9-17.83,28.49-42.6,6.58,24.78,11.92,32.76,28.49,42.6Z"/>
      <path class="cls-1" d="M209.69,42.6c-16.57,9.85-21.9,17.83-28.49,42.6-6.58-24.78-11.92-32.76-28.49-42.6,16.57-9.85,21.9-17.83,28.49-42.6,6.58,24.78,11.92,32.76,28.49,42.6Z"/>
    </g>
  </g>
</svg>