<?xml version="1.0" encoding="UTF-8"?>
<svg id="_レイヤー_2" data-name="レイヤー 2" xmlns="http://www.w3.org/2000/svg" viewBox="0 0 16.08 12.98">
  <defs>
    <style>
      .cls-1 {
        fill: #fff;
      }
    </style>
  </defs>
  <g id="_レイヤー_1-2" data-name="レイヤー 1">
    <g>
      <polygon class="cls-1" points="11.13 8.26 11.13 11.13 1.86 11.13 1.86 1.86 10.92 1.86 12.79 0 0 0 0 12.98 12.98 12.98 12.98 6.42 11.13 8.26"/>
      <path class="cls-1" d="M7.56,9.67c-.3,0-.6-.11-.83-.34l-2.74-2.72c-.46-.46-.46-1.2,0-1.66.46-.46,1.2-.46,1.66,0l1.91,1.9L14.08.37c.46-.46,1.2-.45,1.66,0,.46.46.45,1.2,0,1.66l-7.35,7.29c-.23.23-.53.34-.83.34Z"/>
    </g>
  </g>
</svg>