<?xml version="1.0" encoding="UTF-8"?>
<svg id="_レイヤー_2" data-name="レイヤー 2" xmlns="http://www.w3.org/2000/svg" viewBox="0 0 371.61 104.9">
  <defs>
    <style>
      .cls-1 {
        fill-rule: evenodd;
      }

      .cls-1, .cls-2, .cls-3 {
        stroke-width: 0px;
      }

      .cls-1, .cls-3 {
        fill: #fff;
      }

      .cls-2 {
        fill: #1f4098;
      }
    </style>
  </defs>
  <g id="_レイヤー_1-2" data-name="レイヤー 1">
    <g>
      <path class="cls-3" d="m330.99,102.73c-.03.08-.1.11-.09.23.11,0,.2.03.26.08.02-.16.03-.32-.18-.3Z"/>
      <path class="cls-3" d="m351.35,61.86s.04-.04.06-.06c-.09,0-.16.02-.06.06Z"/>
      <path class="cls-3" d="m319.31,88.85c.06,0,.04-.07.06-.11-.02.02-.04.06-.06.11Z"/>
      <path class="cls-3" d="m351.48,61.81s-.03-.01-.03-.02c-.02,0-.03,0-.03.02.03,0,.05,0,.07,0Z"/>
      <path class="cls-3" d="m325.42,69.25c-.48-.08-.35-.43-.41-.73.16-.09.3-.2.49-.27-.2-.05-.14-.3-.31-.37.08-.05.18-.07.33-.04.01-.18.03-.35.04-.53.19-.04.34-.13.48-.2-.23-.09-.12-.1-.17-.31.37.06.18-.04.23-.28.1-.14.19.12.27-.04-.1-.09-.15-.21-.17-.37.31.05.16-.37.37-.44.39.2.09-.16.41-.21.17.4.61-.34.66.16.37-.08.2-.26.24-.51.33.04.38-.09.2-.11.06-.09.18-.12.34-.1.38.26.76-.24,1.33.02.05-.08-.05-.3.09-.29.21.06.26-.03.34-.1.22.22.57.02.85.17.2-.29.45-.11.81-.13,0-.24.24-.22.36-.33,0,.11.23.05.26.13,0-.52,1.09-.16,1.04-.53.16.1.2.29.51.27,0-.25.25-.15.22-.28.48.16.93-.38,1.4-.09.02-.07,0-.17.08-.18.24-.06.18.41.38.2-.11.02-.08-.32.03-.29.23-.02.14.22.38.2.12-.1.22-.2.48-.15.07-.28-.25.06-.26-.13.05-.16.33-.09.48-.14-.16.24.18.13.23.42.16-.07,0-.46.17-.51.16.4.47.03.54-.09-.08.27.29.17.4-.03.09.04.12.13.12.24.25-.08.44-.25.67-.02-.08-.25.41-.29.57-.49,0,.15.21.13.39.14,0-.17.19-.14.28-.22.28.26.3.08.78.23.12-.2.3-.32.51-.44.06.21.18.12.31.19-.03-.26.51-.26.47-.03.16,0,.2-.09.4-.03-.01-.14.03-.22.15-.23-.01.08.02.13.06.18.99-.1,1.39-.56,2.48-.32.28-.27.99-.43,1.33-.1.13-.43.58-.04,1.07-.06.42,0,.87-.42,1.07-.05.04-.19.39-.07.42-.27.12.13-.04.12-.09.23.27-.03.52-.17.8-.01.19-.19.57-.21.56-.43.29.09.35.09.55.19.39-.22,1.33.13,1.12-.15.23.14.5-.06.65.16-.03-.32.42-.16.62-.26,0,.14.2.27.26.08-.08-.01-.19,0-.19-.07.52-.05.41.02.86-.06.18.1-.16.25.11.24.23,0,.01-.16.15-.17.11,0,.22.02.33.02.14.09-.09.14.05.18,0-.03.06-.07.07,0,.28-.2.99.12.89.53.2,0,.24-.14.42-.16.73.45,1.14-.28,1.86-.12.09-.23.6-.35.82-.24-.02.11-.22.03-.21.17.09,0,.18.01.26.02,0-.26.01-.27-.03-.41.14-.02.2-.13.4-.09,0,.06,0,.12,0,.17.14-.03.43.1.46-.03-.15,0-.24-.03-.26-.13.12-.03.38.09.4-.04-.19-.08.1-.2.03-.35.87-.37.74-1.08,1.26-1.74-.38.01-.41-.18-.3-.43-.09-.02-.24,0-.26-.08.32-.27-.28-.68-.46-.9-.04-.58-.62-1.51-1.34-1.55-.12-.12,0-.15.02-.29-.45.12-.3-.43-.65-.21-.05-.07-.07-.16-.04-.3-.2-.06-.1.19-.34.1.1-.28-.08-.34-.23-.43.36-.09.36-.55.78-.6-.08-.22-.04-.23-.17-.36.22-.17.35-.45.52-.67.12.03.28.03.25.19.56-.05.32-1.07-.23-1.18.13-.37-.26-.73-.31-1.14.12,0,.14.08.26.08-.07-.34.1-.46.12-.7-.39-.02-.55-.43-.54-.73-.34.09-.11-.03-.33-.08-.1.02-.07.18-.27.1.19-.14-.11-.1-.18-.19-.02.07,0,.17-.09.17-.3-.11-.05-.36-.15-.54-.16-.09-.23.21-.27.04.22-.31-.36-.42-.07-.82-.19,0-.06.3-.35.33-.09-.11-.27-.16-.31-.31.08,0,.19.02.2-.05-.05-.13-.43,0-.45-.15,0-.15.26-.03.22-.22-.23-.12-.88-.23-.56-.44-.21-.04-.25.09-.47.03.04-.24-.17-.31-.3-.43,0,.28-.15.07-.54.09.03-.08.1-.09.02-.18-.32-.07-.27.23-.55.2-.17-.2-.26-.46-.7-.45-.09.03-.02.22-.15.22-.31-.01-.12-.18-.04-.29-.26-.15-.42-.01-.55.14-.04-.17-.04-.18.04-.35-.36.03-.13.51-.51.62,0-.11.03-.18.08-.23-.32-.05-.91-.4-.67.02-.16.01-.13-.12-.32-.08-.11.13.15.23-.02.23-.1-.15-.31-.06-.44-.26-.1.13.15.23-.02.23-.01-.07-.18-.29-.26-.13.12.16-.44.65-.57.37-.14.26.26.1.18.31-.77-.34-.69.72-1.32.74-.03.14.11.14.05.3-.2.07-.32-.18-.4-.02.03.1-.49.35-.25.68-.28.06-.06.24-.35.27.03.49-.18.65-.3,1.27.4.2.36.62,0,.93.04.21.19.33-.03.47.08.06.24.07.25.19-.14.29-.17.69-.15.98.22.01.34.1.45.2-.16.04.19.25-.02.35.38-.05.29.26.65.22-.1.11-.02.41.23.42.15-.01.14-.19.34-.15-.07.37.12.53.42.61-.15.01-.02.32-.22.28-.14-.25-.57.03-.68.2.04-.16-.12-.16-.25-.2-.18.54-1.05.38-1.68.2,0,.18-.05.32-.16.4-.38.11-.52-.03-.8,0,.16.06-.15.17-.28.16-.1.14.24.2.05.23-.11-.06-.19-.15-.32-.19.02.21-.68-.05-.35.21-.29-.1-.6.1-.67.02.03-.12.29,0,.28-.16-.31-.07-1.07.43-1.13,0-.29.96-1.14.16-1.97.4-.07-.06,0-.22-.18-.19.02.14-.38.27-.37.39-.1,0-.03-.16-.12-.18-.19.14.07.23.11.36-.24-.07-.08.26-.29.22.09-.17.04-.2-.04-.35.07,0,.14.11.2,0-.29-.14-.25-.19-.57-.32-.08.24.33.4.16.53-.11-.06-.1-.21-.17-.3-.2-.02-.32.05-.47.09.02-.08.11-.09.14-.16-.27-.15-.53.26-.8-.05-.17.03-.09.33-.29.33-.01-.18.2-.28-.04-.36-.31.08-.13.31-.43.33.21-.42.63-1.02.72-1.54.44.17.39-.53.61-.19-.09-.38.32-.5.14-.88.3-.03.1-.51.63-.43-.19-.51.25-.7.57-.61-.13-.13.5-.2.17-.39.09-.1.39.02.4-.15-.32-.32.59-.61.41-.97.35-.01.04-.32.42-.32.06-.16-.08-.15-.04-.29.49-.14.41-.85.94-.94.28-.63.83-.97,1.13-1.57.08,0,.08.08.19.07-.03-.3.4-.35.25-.57.72-.24.31-1.11,1.09-1.23-.03-.06-.08-.27.09-.34.2,0,.4.02.6.03.18-.32.72-.41.53-.9.55.07.61-.6,1.09-.4.11-.47.57-.49.93-.82.09-.07.24-.35.44-.5.15-.01.25.02.32.07.35-.18.05-.65.58-.66.04-.21.11-.32.05-.58.16.01.2-.09.4-.04.06-.15.06-.36.36-.27,0-.25-.07-.51.18-.64.04.08.13.12.26.14.14-.36.26-.86.81-.95.1-.42-.02-.68.27-.87-.19-.77.78-1.05.2-1.68.12-.23.37-.52.26-.81-.2.07-.32-.02-.45-.14.21-.09-.12-.51-.14-.77-.43.04-.37-.3-.36-.6-.35-.12-.56-.34-.82-.52.16,0,.17-.14.09-.23-.16.03-.34.03-.47.09,0-.08-.03-.13-.06-.18.06.04.24.15.21-.05-.04-.14-.38-.04-.32-.25-.11-.04-.28.15-.33-.02.27,0-.32-.2-.23-.43-.24-.07-.15.19-.28.22-.1-.14-.15-.14-.27-.02.08-.34-.27-.23-.37-.32.16.1.21-.19.08-.17-.18.23-.39.02-.49.32-.05-.14.02-.47-.29-.55.01.35-.11.56-.44.56.15-.27.09-.18.1-.4.08,0,.19.01.2-.05-.28-.1.14-.12.03-.41-.26,0-.78-.15-.69.26-.36-.05-.49-.02-.72-.22-.09.02-.33.2-.34.09-.09-.47.27-1.42-.68-1.45.11,0,.33.08.27-.1-.16-.02-.32-.03-.4.04-.06-.18-.01-.15.09-.29-.29-.03-.26-.31-.36-.49.02.07-.21.19-.2.05.28-.31-.27-.82.21-.99-.02-.29-.19-.63-.51-.38.07-.52-.52-.79-.52-1.08-.27-.04-.56-.08-.5-.38-.3.02-.57-.23-.85-.28.4-.12.11-.32-.03-.53-.67-.13-1.2-.06-1.35-.61-.3-.08-.41.05-.6.08-.08-.03-.15-.07-.2-.12.13-.08.26.05.41-.1-.14-.11-.36-.01-.39-.08.15-.04-.04-.26-.04-.35-.31-.12-.92-.18-.89-.52-.36.12-.64-.32-.93-.06-.13-.15-.44-.26-.56-.56-.33.11-.83-.25-.97-.29-.22-.07-.33.07-.46.03-.11-.03-.06-.18-.19-.25-.35-.17-.21.03-.38-.2-.09-.12-.59-.07-.47.03-.17-.05-.14-.25-.38-.26-.18-.01-.19.15-.28.22-.12-.03-.04-.23-.25-.19-.09.39-.38-.06-.6.02-.11.32-.41.08-.54.14-.03.2.13.56-.06.76,0-.16-.33-.09-.39-.2.21.03.44-.24.22-.27.01.24-.33.06-.33-.02-.14.1-.04.21-.03.35-.16.04-.18.03-.47.03.05-.2-.31-.31-.19-.13,0-.03.02-.06.07-.05-.1.07-.11.27-.02.35-.13-.1-.09,0-.27-.02-.06-.14-.13-.27-.24-.37.02.36-.42.51-.19.75-.28.04-.22-.11-.47.09.02-.11-.04-.13-.13-.06.03-.08.1-.11.09-.23-.26.08-.11-.04-.33-.08.18.34-.23.42-.38.62-.05-.14.18-.42.02-.29-.15.22-.21.15-.23.46.11.02.17-.08.2,0-.21.05-.34.13-.23.34-.28-.09-.24-.03-.15.16-.16,0-.31,0-.39-.08-.05.17-.34.24-.1.35-.16,0-.25-.02-.33-.08.28.2-.23.5.09.54-.18-.05.03.28-.15.23-.12-.16-.25-.06-.38-.14-.1.19.21.06.11.24-.5,0-.4.55-.52.73.02-.09.17-.04.27-.04.01.12.12.16.18.24-.22-.08-.45.05-.48.21-.21-.04-.12-.31-.44-.26-.02.17-.03.36-.23.34-.11.21.25.35.1.41-.05-.27-.2.15-.39-.08.11.23.13.32.16.53-.17,0-.24.1-.34.15.24.29-.09.66.07.77-.12-.12-.12.02-.34-.02,0,.21-.21.2-.23.4.27.11.27.57.49.56.04.17.05.36.09.53-.21.02-.26-.15-.33.04.19.05-.06.12-.02.22,0,0,0,0,.01,0,.16,0,.31.01.31.14-.15.03-.24-.06-.31-.14h-.01c-.07-.07-.12-.13-.19-.07,0,.27-.12.68.11,1.12.16.09.23-.21.27-.04-.17.13.06.14.11.24-.29.15.23.49.49.56-.08,0-.05.06,0,.11-.09,0-.18,0-.27-.02,0,.35.15.44-.06.7.21.15.47.26.49.56-.3-.06-.16.09-.15.23-.16-.02-.32-.03-.34.1.22-.07.29.35.05.29.02.22.18.33.36.44-.13.11-.24,0-.4-.03-.11.23.13.19.11.36.02.11-.32.17-.34.03.06,0,.13,0,.14-.05-.14.01-.13-.08-.19-.13-.05.08-.12.14-.22.16-.06.17.18.12.11.3-.11,0-.22-.01-.33-.02-.16.21-.04.4.09.54-.25-.17-.43.16-.62.25.12,0,.15.07.12.19-.2-.02-.19.12-.48.14.02-.11-.06-.13-.05-.23-.78-.37-1.02.38-1.62.31.09.29-.25.16-.35.28.17.11-.18.23-.23.33,0-.11-.22-.05-.26-.13-.05.38-.36.48-.76.36-.14.09-.2.26-.3.39-.09-.02-.12-.09-.26-.07.15.23-.14.2-.27.1-.17.22-.21.34-.37.45-.09-.02-.13-.08-.12-.18-.56-.14-.48.35-.89.36-.02.65-.57.59-.87.94.14-.04.23.21.12.19-.16-.05-.12-.28-.44-.32,0,.14.12.19-.08.23-.17-.39-.34.22-.61.14-.06.28-.06.3-.05.59-.13,0-.07-.17-.25-.14-.1.14.29.16.05.24-.08-.14-.33-.2-.2.05-.09,0-.15.02-.21.05,0-.06.01-.12.02-.18-.36.11-.18.22-.55.2.12,0,.16.06.19.13-.33-.06-.35.19-.43.39.13.02.14-.07.2-.1-.07.18-.06.12.05.24-.21.04-.24-.07-.32-.14-.12.13-.08.42-.3.45-.06-.3.47-.44.17-.57-.11.03-.01.28-.15.28,0-.07-.07-.04-.14,0,.03-.13,0-.22-.1-.24-.05.14-.28.09-.49.2-.03.24.09.33-.11.46-.06,0-.08.04-.14.05.01-.07.05-.42-.05-.24-.09.14.03.19-.08.23-.11-.08-.16-.2-.39-.19-.44.24-.26.38-.4.91,0-.1.09-.28-.11-.24-.1.14.12.29-.03.29-.2-.05-.25.05-.4.04.09-.18.05-.16-.11-.24-.03.28.1.39-.04.53-.11-.01-.03-.16-.12-.19.11.23-.85.3-.44.44-.26.05-.23.23-.1.4-.09-.03-.15-.09-.25-.13.15.22.04.37-.11.58.2-.05.25-.02.32.14-.1-.17-.3.23-.22.22,0-.08.19-.06.19,0-.04.09-.1.14-.15.23.31,0,.16.35.37.43-.08,0-.16,0-.15.11.39.05-.02.25.17.42-.05-.12.19-.25.21-.1-.26.16.12.47.13.83.23.06.26-.07.47-.03-.02.29.36.28.43.49-.11,0-.17.04-.2.1.64-.06.85.36,1.37.32,0-.08-.02-.13-.06-.18.61-.06-.14.15.51.21-.07-.24,0-.16.21-.11.06-.17.28-.19.36-.33,0,.1.1.14.26.13.03-.11-.09-.12-.12-.18.07,0,.09-.04.14-.05.13.02.17.13.25.18.03-.12.3-.32.41-.15-.14-.02-.25,0-.27.1.29.07.36-.29.54-.14-.03-.14-.11-.31.16-.28.08.03.13.09.12.19-.11-.01-.04-.16-.19-.13-.06.21.22.16.17.37.26-.01.24-.05.39.08-.01-.14-.12-.26.09-.29-.06.19.1.22.24.25-.08-.24-.09-.22-.23-.42.34.03.12.45.44.32-.23-.11.1-.33.23-.33-.13,0,.03-.17.08-.18,0,.26-.11.29-.03.47.24.06.16-.21.35-.21.05.18.35.16.3.43.2-.05.2-.26.35-.22-.08-.03-.15-.07-.2-.13.31.06.11-.21.22-.22.11.12.2-.01.34-.03-.11.12-.07.31-.03.35.06-.04.36.19.44.32.02-.34.53-.41.25-.69.04.09.26.02.26.14-.14.14.05.21-.16.28.13.03.12.17.25.19.19-.1.27-.32.5-.38-.18.17.05.29.25.19-.02.19.06.28.25.31.09-.14-.27-.22-.05-.3.18,0,.13.19.32.2.14-.14,0-.33.1-.41.04.09.26.02.26.13-.16.03.07.1-.08.17.21-.02.16.17.32.19-.05-.12.19-.25.22-.1-.06,0-.14,0-.14.05.29-.06.4.06.58.21,0-.07.03-.14.14-.11.05-.16-.16-.38.03-.47.15.16.43.11.37.31.04-.1.09.02.2.02.12-.2-.04-.32.23-.4,0,.28.19-.08.27-.1.24.24.35.1.44.32,0-.21.18-.24.29-.34-.04.03-.17.27-.02.29,0-.11.05-.12.14-.05-.02-.22.16-.23.35-.22.02-.11-.08-.12-.12-.18.25.11.15-.14.28-.16.22.17.41-.06.52.21.15-.12.21-.33.36-.45-.11.2.02.27-.1.47.32,0,.39-.27.63-.37.08.08.07.27-.03.35.38-.07.16.27.39.14-.1-.07.2-.27.04-.46.24,0,.14-.19.22-.22-.01.06.05.07.06.11-.11.11-.36.28-.03.35.02-.11-.06-.13-.05-.24.25-.07.37.09.47-.09-.02-.1-.07-.15-.19-.19.02-.14.11-.22.28-.22,0,.19.42.05.31.32.17-.07.25-.08.34-.1-.08-.01-.07-.09-.06-.18.14.12.37-.05.48-.15-.09,0-.15.02-.21.05.07-.11-.18-.2.02-.23.12.21.68.24.86.11.09.23.35.22.6.09-.28-.02-.01-.04,0-.12-.22-.08-.06-.39-.03-.47-.03.24.25.1.25.19,0,.23.1.26.23.48-.21-.07-.23.07-.21.22-.09,0-.09-.08-.19-.07-.07.12.04.36-.36.27-.1.17-.12.46-.05.64-.09-.02-.12-.09-.27-.08,0,.22-.19.27-.23.45.11,0,.16.06.19.13-.38-.05-.39.17-.64.49-.11-.12-.17.04-.39-.02-.14.21.03.41-.12.63-.26-.04.13-.3-.24-.31-.07.14.02.22-.22.28.25.1.09.22-.07.06.02.16.14.25.16.41-.14,0-.27.31-.35.16,0-.04,0-.07-.06-.06.16.17-.14.38-.04.47.21-.11.31-.33.44-.5-.05.44-.65.86-.94.93-.1.14.24.2.05.24-.08,0-.09-.08-.19-.07-.21.17,0,.38-.3.39.04.22-.02.27.03.41-.42.01-.28.38-.7.48.29.01-.05.16.11.24-.56.06-.44.86-.87.88-.04.23.06.61-.3.51-.06.19.03.27.03.41-.47.2-.54.8-.95,1.06-.14.65-.51,1.18-.48,1.78-.33-.05-.02.21-.28.16.28.52-.34.84.04,1.17-.23.03-.27-.13-.39-.03.05.24-.09.28.1.41-.09,0-.07.1-.14.11.15-.22-.32-.22-.11-.3.04,0,.07,0,.07-.05-.28.07-.31.4-.63.43.15.09.27-.14.27.01-.07.23-.47.15-.56.37-.2-.16-.35-.05-.59-.21-.06.41-.97.37-.59.84-.15-.02-.11-.21-.32-.19.05.21-.22.09-.27.04-.1.14.17.26-.02.29.02-.11-.22-.29-.32-.14.3.06-.09.17-.2.05.05.18-.16.1-.28.1-.16.3.4.35.16.54.02-.23-.06-.02-.19-.07.1-.08.06-.18-.12-.18-.09.18-.05.15.04.3-.24-.02-.1.29-.27.04-.06.15.24.28.04.36-.11-.18-.18-.38-.5-.38.05.19-.11.18-.28.15-.08.15.18.29-.03.35-.1-.01-.04-.15-.19-.13.03.24-.23.19-.17.46.13.02.22.05.26.14-.11.19-.36.08-.48.14.08.27-.06.2-.16.4.05.02.28.18.12.18-.15-.16-.07.12-.28.16-.05-.1-.2-.14-.39-.14.09.22-.16.4-.43.44.14.44-.47.38-.31.63-.39.04-.53.05-.76.3-.48-.27-.64.15-.63.43,0,.39-.69.4-.99.71.07.06.02.11.05.29-.11,0-.22-.01-.33-.02-.07.29.24.28.15.59-.12-.03-.13.07-.2.11-.1-.03-.04-.19-.26-.13.11.38-.65.3-.52.67-.35-.04-.47.15-.69.25.11.01.23,0,.19.13-.13,0-.14-.08-.26-.08-.01.27-.12.1-.29.33,0-.16-.31-.15-.27.05.23-.09.55.08.45.2-.21-.02-.23-.19-.52-.15.09.28.08.33.22.59-.08-.08-.31-.05-.39-.14.12.41-.02.75-.26.75.04.07.07.3-.1.4.17.08.4-.09.4.02-.13.09-.4.08-.15.22-.19.02-.37.05-.41.2.11.03.18-.07.19.02-.17.2-.34.02-.42.27.14-.02.33.17.19.18-.06-.17-.08.09,0,.12-.12-.02-.15.05-.27.04,0,.14-.02.27-.03.41-.15-.04-.15.1-.33.04.07.27-.25.65-.07.81-.07,0-.13,0-.19,0,0,.62-.03.89-.38,1.38.21.03.09.3-.15.22.04.6-.71,1.04-.59,1.55-.24-.05-.16-.11-.14.1-.12.02-.28.02-.34.1.35.04-.09.39.1.47-.42.15-.29.51-.33.8-.13-.02-.15.06-.27.05.06.26-.28.41-.06.76-.38.08-.18.44-.56.37.08.03.13.09.12.18-.6,1.33-.93,2.11-1.34,3.55-.15-.03-.25,0-.34.04.05.17.22.36-.16.34-.06.18.17.12.11.3-.12.02-.07.22-.28.15-.1.19.21.06.12.24-.19.09-.32.27-.23.45-.33.25-.72.94-.72,1.48-.1,0-.14.07-.28.04.03.14.08.28-.15.28-.05.21.06.28.1.41-.36-.06-.07.15-.16.35-.74.31-.22,1.71-1.05,1.57.05.23-.08.28.1.41-.2.16-.25.3-.11.52-.13.02-.18.12-.34.1.18.29-.2.5-.06.76-.21-.09-.07.19-.27.1-.03.11.08.12.12.19-.2-.02-.25.2-.15.28-.34-.06-.05.19-.35.21-.01.14.1.18.03.36-.09-.07-.15-.07-.2.04.23.38-.42.74-.14,1.1-.45.16-.38.84-.81,1.01.09.74-.71,1.26-.48,1.84-.1.03-.34-.09-.33.04.23.2-.17.51,0,.82-.09,0-.09-.08-.19-.07.06.33-.22.33-.25.57.44.42-.4.79-.03,1.35-.23.16-.38.37-.18.57.01,0,.02-.02.03-.02,0-.04.02-.08.03-.12-.03-.1-.1-.21.04-.26,0,.09-.03.18-.04.26.01.05,0,.09-.03.12-.09.32-.25.62-.37,1,.39.21,0,.36.28.6-.06,0-.13-.01-.2-.01-.03.7.34.9.27,1.59.3-.1.18.08.11.24.31.14.21.25.22.6.1.19.22-.14.26.02-.09.03-.03.33-.02.35.22-.14.38.32.23.48.17.01.44,0,.26.14.69.41,1.24.54,2.23.36q.11.18.25.25c.2.03-.15-.18.09-.17,0,.28.53.17.71.34-.05.21.02.34.23.36.13-.02.07-.22.28-.15-.05.18.07.23.1.36,1.3-.37,2.11.91,3.58.27.28.28.64.05,1.18.25.1-.13.28-.18.23-.45.25.08.2-.14.42-.1.05.07.24.03.18.19.43-.07.84-.16,1.03-.46.11.11.26.26.39.08-.1-.45.75-.4.95-.35-.1-.03.02-.09.14-.05,0,.14-.12.17-.09.35.38.09.51-.23.88-.3,0,.14.29.32.38.2-.13-.12.34-.17.42-.27,0-.26.11-.28.04-.47.58-.31.44-1.19.42-1.91.06,0,.13,0,.2.01-.25-.42.02-.98-.3-1.26.1-.08.02-.34.3-.39.08-1.07.11-1.8.61-2.77.07,0,.13,0,.2,0-.13-.31.14-.61-.07-.82.43-.1-.13-.59.33-.74-.08-.21-.36-.27-.5-.44-.04-.3.23-.23.11-.46.18.05.14-.11.28-.1-.06-.47.2-.64.4-.86-.26-.32-.08-.78.28-1.03-.45-.31-.17-.67-.24-1.13.14-.02.22-.11.35-.15.06.12.09.25.24.31.02-.06.08-.09.14-.11.05-.22-.3-.14-.16-.41-.21-.05-.28.12-.33-.08.05-.09.12-.14.15-.23-.12-.03-.28-.04-.25-.19.18-.09.05-.09.15-.22-.37-.23.05-1.09.26-1.45h0c.03-.14.12-.22.1-.41.45,0,.44-.4.32-.68.18-.05.08.37.18.19-.02-.22-.1-.43-.23-.43.19,0,.25-.73.04-.41.02-.14.11-.21.09-.41.36.06.37-.74.61-1.01.02.04,0,.11.06.11.11-.15-.04-.28.1-.46-.08,0-.19,0-.19-.07.17,0-.08-.11.02-.24.1-.02.11-.06.2.02.07-.19-.22-.1-.18-.25.34-.28.5-.81.5-1.26-.38-.22.07-.48.13-.75.1-.51-.2-1.14.37-1.38-.25-.3.12-.74-.12-1.06.2-.07.24-.23.09-.35.39.07-.04-.3.29-.27.03-.16-.21-.13-.1-.36.15,0,.2-.09.4-.04.04-.11-.19-.26.09-.23-.15-.45.11-.58-.06-.94.09-.18.36-.18.49-.32-.22-.11.05-.26-.17-.36.13-.01.14-.15.28-.16-.16-.28.1-.61-.13-.89.35-.24.23-.93.56-1.2-.22.04-.08-.19-.18-.24.23-.16.15-.27.31-.51-.19.03-.12-.13-.19-.18.11.01.21,0,.27-.05,0-.52.72-.76.51-1.37.51.03.05-.64.45-.62.07-.24-.31-.12-.24-.36.22-.46.37-.99.64-1.36-.18-.02-.27-.12-.24-.31.41.14-.04-.09.15-.17.08.05.11.13.11.24.38-.02.31-.36.38-.56.1,0,.24.04.27-.05-.1-.13.03-.29.17-.45Zm23.61-31.99c-.03.08-.13.09-.15.17-.08-.02-.1-.11-.18-.13.01-.15.25-.12.33-.04Zm-1.06-.12c-.08.13-.22.2-.42.21.03-.19.17-.25.42-.21Zm-.72.72c-.11,0-.22-.01-.33-.02,0,.04,0,.08-.01.12-.2-.13.38-.49.34-.1Zm-12.68-11.62c.26.13.13.28.1.48-.2-.03-.09-.3-.1-.48Zm-12.11,23.04c-.18-.19-.12-.44.18-.52-.16.21-.12.21-.18.52Zm2.49-8.87c-.11.02-.07.18-.28.1.06-.1.37-.18.09-.28.09-.17.22.08.19.18Zm2.39,8.57c0-.17.17-.17.16-.34.25.08-.23.38.11.36-.06.17-.14-.06-.27-.02Zm2.05-10.82c-.14-.06-.19-.19-.18-.36.18.03.32.24.18.36Z"/>
      <path class="cls-3" d="m371.43,99.44c.6-.65-.52-.67-.51-1.2-.28,0-.23-.27-.44-.33.17-.27-.49-.39-.47-.73-.38.04-.27-.33-.53-.09-.06-.25-.34-.33-.42-.55-.14.13-.16-.18-.4-.02,0-.07.09-.08.08-.17-.26,0-.38-.11-.45-.26-.08.16-.11.14-.15.22-.03-.12-.1-.24-.25-.13.08-.08.08-.14.02-.23-.21-.06-.21.08-.34.1-.2-.41-.57-.04-.83-.4-.24.26-.5-.14-.92-.17-.06-.19.03-.16-.04-.29-.25.1-.16-.05-.25-.19-.16-.02-.31-.02-.4.04-.4-.6-1.26-.25-1.6-.8-.02.09,0,.21-.08.23-.43-.18-1.09-.03-1.57-.33-.33.3-1.06-.32-1.4-.03-.06-.08-.16-.12-.25-.19-.05.18-.39.07-.54.14-.71-.36-1.61.14-2.37-.32-.61.38-1.31-.06-1.87.24-.59-.24-1.52.18-2.33-.08-.29.19-.65.14-1.06,0,0,.15-.16.14-.22.22.02-.33-.35.2-.38-.14.19.07.12-.12.14-.23-.12-.01-.22-.05-.26-.13.08-.32.22-.4.12-.75.45.04.28-.62.77-.37.15-.26.49-.53.77-.48.27-.38.95-.87,1.32-.74-.01-.26.21-.11.09-.35.51.02.8-.38,1.11-.57.44-.28.92-.52,1.4-.85.26-.19.57-.73,1.12-.75-.04-.23.12-.25.22-.34.33.19.67-.16.83-.36-.02.1.06.14.19.13.15-.3.34-.86.66-.78-.05-.3.34-.12.35-.22.04-.25,1.03-.9.9-1.29.16-.11.25-.29.24-.57.15.02.24,0,.27-.1-.1-.44-.25-.73-.57-1.21.08.01.14.11.2.01-.15-.2-.18-.48-.28-.72-.03.12-.18.11-.28.16-.2-.4-.73-.42-.81-.81-.17.04-.31.07-.39-.08,0-.15,0-.33.09-.4-.44.06-.21-.28-.59-.15.13-.26-.19-.3-.03-.41-.51.14-.39-.18-.64-.39.05.18-.16.09-.28.1-.07-.35-.51-.29-.91-.29-.19-.51-1.08-.32-1.27-.72-.09.12-.16.25-.36.28-.45-.23-1.19-.05-1.64-.34-.28.4-.63-.18-1.07.11.05-.22-.13-.39-.32-.25.03-.41.06-.57.27-.8-.09-.06-.12-.16-.18-.24.24.06.16-.22.35-.22-.17-.5-.06-.78-.04-1.17.18-.05.29-.17.42-.27-.22-.51.95-.39,1.2-.81.11.01.23.01.33.02.09-.31.54-.25.89-.29.17-.1.13-.41.49-.32,0-.16.12-.11.02-.24.18-.05.34-.12.6-.08.1-.32.29-.5.7-.36,0-.27.45-.52.85-.59-.01.08-.04.13-.08.17.27,0,.41-.34.61-.2-.06-.27.16-.44.36-.27-.06-.31.32-.1.48-.15.57-.17.92-.6,1.33-.92.12,0,.21.02.26.07.04-.16-.01-.27.18-.51.01.16.16.21.31.26.19-.22.45-.28.71-.54.66.14.91-.69,1.65-.66.43-.98-.85-1.42-.9-2.16-.62-.1-.56-.57-1.29-.48.04-.24-.25-.44-.55-.56.15-.45-.68-.35-.59-.97-.37-.08-.14.08-.28.16-.07,0-.13,0-.2-.01.09-.08.09-.14.02-.23-.73-.31-.9.13-1.55.2.02.37-.49.19-.31.57-.4.09-.76.13-.7.48-.31-.01-.32.42-.68.19-.03.16-.34.51-.9.47-.03.29-.39.41-.62.31,0,.17-.12.19-.21.1-.01.08-.01.16-.02.23-.16,0-.28.1-.4-.02-.04.34-.36.19-.69.31.05,0-.19.27-.3.34-.21-.2-.22.02-.28.1-.16-.25-.13.03-.33.04.02-.26-.26-.28-.37-.44.07.01.14.01.2.02.03-.24-.29-.13-.11-.36-.12-.03-.16.06-.27.04.11-.34-.02-.33-.16-.54.17-.06.31.15.33.02-.09-.15-.67-.26-.3-.43-.29-.05-.13-.34-.51-.2.13-.21-.13-.36-.02-.7-.14-.15-.13.08-.33.04,0-.08.01-.15.02-.23-.11,0-.2-.02-.26-.07-.07.05-.04.21-.21.16.06-.46-.41-.8-.69-.75.06-.02-.12-.12-.03-.23-.15,0-.19-.11-.38-.08.05-.21-.13-.23-.11-.42-.09,0-.14.02-.2.05-.01-.19-.13-.3-.24-.42-.13.08.1.25-.15.28-.26-.27-.31-.77-.95-.59.02-.07.13-.13.01-.18-.12.49-1.13-.09-.88.18-.24.03-.28-.11-.24-.31-.22.04-.34.2-.49.32-.03-.14-.46.03-.38-.2-.21-.06-.16.14-.29.16-.18-.21-.19-.02-.46-.02,0-.08.04-.13.09-.17-.51.02-.66.12-1.09.29-.12-.03-.04-.23-.25-.19.13.23-.17.14-.23.34-.03-.08-.13-.12-.25-.13-.03.07-.1.11-.21.1-.05.19,0,.3.1.36-.15.08.07.15-.08.18-.09-.03-.12-.09-.26-.08-.1.35-.47.62-.69.37-.08.22-.28.31-.37.5.18.09.19-.3.28-.09-.1.05-.15.15-.22.22.14,0,.21.06.19.19-.1.01-.13.08-.28.04-.39.47.15.96-.17,1.34.03-.02-.09-.09-.13,0-.09.17-.24.39-.25.69-.18.02-.18.24-.42.21-.06-.58-.56-.63-.79-.99-.5.15-.48.02-.87.07-.06.18,0,.24-.08.29-.34-.17-.65.38-.95.24-.29.57-.76.46-1.11.63-.1-.05-.09-.19-.26-.19-.07.18-.07.45-.35.27-.19.14-.3.37-.51.5.02-.22.21-.25.3-.39-.25.03-.35.24-.61.08.04.31-.26.28-.43.38-.03.11.08.12.12.19-.22.11-.48.18-.87.12.03.27-.09.23-.28.16-.12.22.28.03.25.19-.23.02-.24.26-.49.26.04-.08.09-.09.02-.17-.37-.06-.27.18-.36.27-.13-.03-.11-.17-.32-.13.02.45-.61.1-.9.41-.02.18.12.24.17.36-.51,0-.58.13-.93-.12-.1.43-.45.36-.33.8-.09-.01-.48-.04-.27.04.15,0,.24.03.25.14-.19.04-.05.19-.15.22-.18,0-.21-.09-.18-.24-.24-.03-.37.04-.54.08-.11.16.16.31-.02.35-.1-.01-.04-.15-.19-.13-.06.12-.19.19-.16.4-.15-.14-.23.14-.54.03.14.51-.17.64-.46.84.38.31-.68.37-.4.8-.07,0-.19-.02-.2.04.08.02.19,0,.2.07-.32-.11-.28.43-.69.25-.25.93-.37,1.03-.35,1.97.38-.08.05.31.18.3.14.02.59.28.62.56.12.02.44-.16.39.08-.05-.12-.29.01-.14.05.28.07.87-.12,1.05.24.26.1.23-.09.34-.15.11.11-.04.17-.09.28.37-.32.2.41.59.1-.08.32.41.03.18.24.25.06.07-.31.35-.21-.03.23.07.23.26.19-.05.22.12.27.24.36.01-.07.03-.13.14-.11-.06.19.12.2.18.3.1-.22.59-.19.66.04-.14-.02-.24,0-.27.1.13,0,.26.02.39.03.07.18,0,.2-.1.34.23.11.06-.19.22-.16.13.23.41.34.56.56.32-.09.34.06.51.2.2-.31.19.07.33.08,0-.32.22-.52-.09-.65.21.19.81-.27.59.21.22.04.21-.16.35-.21.11.12.24.03.4.02-.15.11.02.12.05.24-.11-.01-.17.03-.21.11.16.03.45.09.25.24.26-.02.54-.06.53.1.02-.05.06-.07.13-.05.04-.17-.1-.21-.17-.31.28,0,.25.22.38.32.01-.07.08-.09.13-.11.02.11.14.15.11.3.15.06.52-.07.45.15.27.06.14-.27.42-.21.08.23.3.35.42.56-.16.02-.3.07-.53.02-.31.45-.66.37-.95.29-.48.17-.61.5-1.22.34-.39.34-.53.37-1.16.34-.23.23-.6.31-.84.54-.09,0-.06-.11-.13-.13-.15.08.08.15-.08.17-.13,0-.07-.16-.25-.13.04.35-.25-.02-.29.22.25.4-.34.16-.37.56.07.02.19,0,.19.07-.28.02-.17.11-.36.39.08.01.18,0,.19.07-.23.21-.05.31.03.53-.07,0-.14,0-.21-.01.09.23.14.23-.03.41.14.13.07,0,.2-.04-.1.69.64.99.48,1.55.16.05.29.15.24.36.14.02.14-.07.21-.1-.02.11.06.13.05.23.21.08.42-.15.53.04-.29-.03,0,.14-.09.28.2.07.15-.14.28-.16.07.1.27.09.24.25.23-.05.23.03.47-.03-.21.17.17.19.17.36.08-.17.22.04.26.08.09-.03.03-.22.15-.22.39.31.75.02,1.17.36.18-.22.43-.55.82-.36.22-.15.29-.43.76-.31-.09.08-.2.13-.22.28.52.22-.55.94.1,1.29-.11,0-.23-.02-.21.1.08.02.19,0,.2.07-.09,0-.1.07-.2.05-.01.47.43.84.16,1.3.12.01.22.05.26.13-.16.37.14,1.01.42,1.43-.09.03-.16.05-.21.11.25.21.28.31.48.61.09-.12.26.11.34-.09.2.16.58.17.63.45.32-.26.46.15.73.04.07.25.1.19.1.48.38.04.13-.23.35-.27-.03.32.22.34.16.55.07-.08.23-.07.27-.16.19.38-.3.7-.57.61.03.28-.37.14-.43.32-.12-.01-.03-.19-.19-.19-.07.31-.41.38-.69.31-.19.3-.74.3-1,.06-.08.44-.68-.02-.83.36-.15-.06-.32-.12-.52-.15.09-.26-.31-.31-.39-.14-.24-.09-.34-.29-.5-.44-.05.07-.15.1-.28.1.13-.09-.01-.17-.04-.29-.2-.06-.14.15-.34.09-.13-.15-.09-.13-.04-.36-.5.06-.65-.28-.99-.05-.08.23-.82.23-1.17.51.01.31-.15.44-.49.38.09.21-.06.14-.1.35.05.02.13,0,.13.07-.21.11-.06.44-.31.62-.2.03-.11-.17-.32-.14-.08.11-.19.19-.29.27.08.03.13.08.12.19-.21-.09-.07.18-.28.1-.1-.01-.04-.15-.19-.13.11.57-.87,1.02-1.79.77-.14.26-.42.37-.7.49.15,0,.24.03.25.13-.32-.08-.4.09-.61.14-.05-.11.22-.18.02-.23-.13.16-.32.19-.5.19.11.03.17.21.07.19-.24-.22-.33.08-.47.15-.1-.02-.1-.1-.19-.13-.32.15-.55.31-.88.3.02.32-.52.33-.69.25-.07.08-.07.22-.28.16.03.3-.35.45-.61.25.06.16-.07.35-.3.4-.13.48-.63,1.03-.12,1.45.12-.2.25,0,.53-.03-.12.11,0,.08-.02.23.21-.1.55.14.8,0,.06.07.08.16.05.29.27-.01.48.29.78.11-.02.15-.14.18.05.24.05-.13.15-.17.22-.28.17.04.26.13.32.25.24-.11.19-.23.36-.32,0,.18-.11.45.1.47.13-.08.02-.4.29-.33-.04.08-.11.14-.15.23.11,0,.2-.09.28-.16h0,0c.1-.07.2-.11.33.02-.11,0-.22-.01-.33-.02h0c.08.19.82.09,1.12.07-.06.16.09.16.05.3.34.05.49-.08.68-.19.07.15.2.24.38.31.06-.08.11-.18.28-.16-.05.05-.32.28-.03.29.05-.14-.05-.22.17-.4-.1.23.14.19.32.19-.02.14-.04.28.11.3-.09-.36.47-.16.57-.49.03.08-.1.29.04.29.11-.11.35-.28.1-.4.16.04.4.03.38.2.25-.04.18-.11.47-.03.02-.09,0-.22.09-.23.06.09.09.19.25.19.02-.1.06-.19.16-.23.16.14.15.08.38.14-.11-.26.08-.15.28-.1-.05-.18.16-.09.28-.1.07-.19-.21-.1-.18-.25.13.13.18.03.27-.04.12.19.33.15.11.36.24-.14.45.02.48-.15.1.05.08.19.25.19.02-.09,0-.22.08-.23.24-.02.14.22.38.19.23-.08.85-.14.57-.43,0,.06-.04.15-.07.05.07-.05.03-.21.21-.16-.08.08-.08.14.05.18.18-.2.84-.02.43-.32.58.18.9-.33,1.2-.04.17-.07-.05-.23.09-.23.8-.12,2.07-.43,2.95-.41-.05-.02-.13-.01-.12-.06.4-.03.55-.06.87-.07.13-.09-.08-.19.14-.23.44.18.79-.2.99.18.27-.09.29-.32.6-.08.04-.1-.09-.16.02-.17.21-.03.11.16.32.14.37-.28.99-.14,1.29-.39.11.12.24.03.4.02,0,.09-.04.22.05.24.06-.38.65,0,.9-.41.05.24.35.21.47.03.09.34.47.14.63.39.02-.22.14-.16.2-.05.1-.03.03-.22.15-.22.12.23.18.03.34-.03-.03.16.14.18.31.19.03-.3.3-.07.1-.35.15.22.64.01.27-.1.82.13,1.8-.02,2.48-.15-.04,0-.08-.05,0-.06.18-.03-.07.27.12.24.2-.09.42-.01.73.04-.03-.3.45-.09.55-.26.32.23.72-.06,1.12.19.03-.13.15-.18.22-.28.09.32.51.11.64.33.11-.24.25-.08.49-.2.04.27.25.07.45.2.17-.07-.1-.18.09-.23.08.1.37.04.45.15.04-.07.09-.14.15-.17.06.16.58-.04.52.2.2-.07.45-.09.61-.2,0,.11.03.2.11.24,0-.13.07-.18.22-.16.05.33.47,0,.64.33.09-.18.75-.14.29-.33.48-.02.6.23.9.35,0-.24.37-.26.54-.09.09-.23.18-.07.35-.21.02.16.11.28.23.36,0-.13.06-.18.21-.16.06.15-.23.24.05.23-.03-.21.13-.25.35-.21.05.07.07.16.04.29.23.06.13-.2.28-.22.03.08.1.15.19.19.02-.1.01-.21.15-.17.17.15.61.29.65.09.04.08.13.12.26.14.11-.08.14-.24.28-.27.16.13.59.1.38.37.12.11.07,0,.26.02,0,.06-.06.07-.07.11.37-.08.19.26.45.26.07-.1-.19-.21.02-.23,0,.12.18.09.11.24.18.05.14-.11.28-.1-.06.2.54.3.65.16.18.32.64.09.9.35.07-.1-.19-.21.02-.23.5.15.58-.04,1.01-.11,0,.07-.09.07-.08.17.6,0,.92-.29,1.49-.32-.11-.22.06-.4.24-.51.2.18.52-.06.55-.26.28-.05.52-.03.79.05-.02-.15.05-.21.21-.16.11-.36-.06-.5-.14-.71Zm-10.31-26.44c.07,0,.13,0,.2.01.02.12-.05.15-.08.23-.12-.02-.15-.1-.12-.24Zm-23.64,8.76c.02-.1-.07-.13-.04-.23.07.05.17.09.32.08-.06.08-.07.22-.28.16Zm1.71-.6c.25.06.19.35-.09.35.04-.21.19-.13.09-.35Zm-.69.31c-.23-.05-.34.03-.41.15-.05-.1-.2-.1-.18-.24.12,0,.17.05.19.13.04-.24.16-.07.41-.21,0,.05,0,.11-.01.17Zm.07,0c.02-.18.14-.27.35-.27-.18.03-.1.32-.35.27Zm.96.47c-.12.19-.45.17-.56.37-.25-.06.02-.22-.09-.34.07,0,.39-.18.67-.21,0,.1-.13.14-.02.18Zm1.88-7.85c-.14.02-.17-.05-.27-.08.08.26-.35.24-.23.51-.44-.13.19-.52.13-.87.2.08.15.02.4.03-.02.26.07.24-.03.41Zm10.11,15.37c-.13-.19-.26-.55.06-.7-.23-.2.09-.57.26-.74-.16-.07-.07-.32-.39-.26.26-.2-.05-.89.65-.6.04-.27,0-.46,0-.76-.21-.04-.2.19-.34.04.04-.35.49-.14.57-.55.4.05.93,0,1.16-.28.7.15,1.73.1,2.07-.11.1-.1.28.18.59.1-.19.33-.5.54-.48,1.08-.38.05-.18.35-.69.31.19.16.1.61-.19.75-.3.14-.54.55-.76.42-.02.2-.28.3-.38.51-.09-.03.03-.07.02-.18-.52.44-1.18.74-1.51,1.37-.26-.15-.4.07-.74.01-.02-.08-.08-.15-.11-.24,0-.12.07-.18.21-.16Zm19.4,9.78c.12-.26.28.06.53.03-.08.23-.42.05-.53-.03Z"/>
    </g>
    <path class="cls-1" d="m128.37,42.33v-.39c-.09-.04-.17-.09-.26-.13v-.26c-.35-.3-.69-.61-1.04-.91-.09-.26-.17-.52-.26-.78h-.13c-.19-.24-.31-.41-.39-.78h-.26c-.08-.37-.15-.45-.39-.65v-.13c-.19-.12-.41.06-.52-.13v-.65h-.13c-.09-.13-.17-.26-.26-.39h-.26c-.09-.13-.17-.26-.26-.39h-.26v-.26h-.39v-.39c-.13-.04-.26-.09-.39-.13v-.13h-.26v-.13h-.65v-.13h-.26v-.13h-.13v.13h-.39v.13h-.39v.13h-1.3v.13h-.52v.13h-.26v.13h-.26c-.04.09-.09.17-.13.26h-1.82v-.13c-.3-.04-.61-.09-.91-.13h-.13v.13c-.35,0-1.3-1.2-1.64-1.2v.13c-.22.03-.23-.12-.26-.13-.19.01-.25-.13-.41-.14-.16,0-.42-.07-.58-.08-.15,0-.2.01-.38.03,0-.04-.16.09-.16.05-.09,0-.11,0-.2,0,0-.04-.08-.09-.08-.13-.18-.06-.18.03-.46.03-.1,0-.2.02-.33-.03s-.35,0-.45,0c-.23.02-.91.19-1.03.21-.04.22-.27.22-.32.44-.8-.31-.79.18-1.27.31-.04.09-.15-.08-.19,0-.09,0-.15.02-.23.02v.13c-.33.12-.31.09-.48.07v.13c-.16.04-.41.31-.65.64v.26h-.13c-.09.13-.17.26-.26.39-.09.04-.17.09-.26.13v.26c-.22.17-.26.35-.48.53,0,.03.08,1.02-.08,1.36-.06.12-.06.55-.12.69-.08.17.13.43.04.59-.24.46-.55.67-.65.76-.04.13-.09.26-.13.39-.39.09-.78.17-1.17.26v.13h-.26v.13h-.52v.13h-.65v.13h-.26v.13h-.52v.13h-.39v.13h-.39c-.04.09-.09.17-.13.26-.26.04-.52.09-.78.13-.04.09-.09.17-.13.26-.13-.04-.26-.09-.39-.13-.04.09-.09.17-.13.26-.91.26-1.82.52-2.73.78-.04.09-.09.17-.13.26-.39.09-.78.17-1.17.26v.13c-.17.04-.35.09-.52.13v.13h-.26c-.04.09-.09.17-.13.26h-.52v.13c-.17.04-.35.09-.52.13v.13h-.39c-.04.09-.09.17-.13.26h-.26v.13h-.26v.13h-.39c-.39.18-.39.38-1.04.39v.26c-1.34.61-2.69,1.21-4.03,1.82-.17.22-.35.43-.52.65h-.26l-.26.26h-.26v.13h-.26v.13h-.26v.13h-.26c-.04.09-.09.17-.13.26-.13.04-.26.09-.39.13v.13h-.39c-.04.09-.09.17-.13.26-.17.04-.35.09-.52.13-.09.13-.17.26-.26.39h-.26c-.13.17-.26.35-.39.52h-.26v.13h-.26v.13c-.13.04-.26.09-.39.13v.26c-.53.15-.28.32-.91.39-.14.52-.49.57-.78.91h-.26v.39h-.39v.13h-.13v1.17h.13c.3.35.61.69.91,1.04h.39v.13c.24.18.3.31.65.39.04.24.13.26.13.26v.91h.13c.09.26.17.52.26.78h.13v.26h.13v.26c.13.09.26.17.39.26v.26l.26.26h.26c.33.24.25.51.78.65.08.26-.02.11.13.26v.13c.12-.05.27-.23.52-.13.04.09.09.17.13.26.44.23.33-.14.65.39h.39c-.08-.2-.1-.21-.13-.52.57.07.87.28,1.3.52v.13h.26v.13h.26v.13h.52c.04.09.09.17.13.26.13.04.26.09.39.13v.13c.28.17.55,0,.91.13v.13h.26v.13c.3-.04.61-.09.91-.13v-.13c.54-.15.89.21,1.17.26.22-.04.43-.09.65-.13v.13h.52v.13c.17,0,.33-.22.65-.13v.13h1.04v-.13c.26-.09.52-.17.78-.26v-.13c.39-.09.78-.17,1.17-.26.04-.09.09-.17.13-.26h.65c.09-.13.17-.26.26-.39.13.04.26.09.39.13.09-.17.17-.35.26-.52h.39c.29-.12.54-.31.91-.39v-.26c.38-.09.68-.23,1.04-.39v-.13h.65c.22-.26.43-.52.65-.78h.91v-.13h.13v.13h.13c.13-.22.26-.43.39-.65.17-.04.35-.09.52-.13.04-.09.09-.17.13-.26h.26c.09-.13.17-.26.26-.39.26-.04.52-.09.78-.13v-.26c.13-.04.26-.09.39-.13v.13h.26c.15.09.17.48.26.65h.13v.39c.09.04.17.09.26.13v.39h.13v.39h.13v.39h.13v.52h.13v.26h.13c.3,1.3.61,2.6.91,3.9.04,1.34.09,2.69.13,4.03.15.51.47,1.52.26,2.34h-.13l.13.13v.13h-.13v.39h-.13c-.15.21-.18.22-.26.52-.26-.08-.11.02-.26-.13-.4.05-.41.09-.65.26v.13c-.64.36-1.35.34-1.82.91h-.13c.04.09.09.17.13.26-.13.04-.26.09-.39.13-.09.13-.17.26-.26.39-.3.09-.61.17-.91.26v.13h-.26c-.04.09-.09.17-.13.26-.17.04-.35.09-.52.13-.04.09-.09.17-.13.26-.13.04-.26.09-.39.13.04.09.09.17.13.26.24.17.39-.16.52.26-.14.11-.11-.05-.13.13,1.17.01,2.27.2,3.38,0v.26c-.52.09-1.04.17-1.56.26v.13c.76.29,1.35.41,2.6.39-.11.15.02.02-.13.13v.13h-.78v.13c.17.04.35.09.52.13,0,0,.12-.2.39-.13v.13c.3.04.61.09.91.13v.13c-.87.13-1.73.26-2.6.39v.26c.28.06.37.08.52.26h1.95c-.04.13-.09.26-.13.39.47,0,.81.03,1.04.26h.13c.18.2-.24.11-.26.13v.13c.13.04.26.09.39.13.22.69.14.16.65.39.25.11.51.42.65.65h.13v.13h-.39v.26c.48.04.95.09,1.43.13.04.09.09.17.13.26h1.56v.13h.39v.13h.65v.13h.39v.13c.22.04.43.09.65.13.04.09.09.17.13.26h.39c.17.1.42.57.52.78.43-.04.87-.09,1.3-.13,0,0,.12.21.39.13v-.13h.26v-.13h.52c.43-.16.37-.55.78.13.23-.19.53-.62.65-.91.04-.22.09-.43.13-.65.17-.13.35-.26.52-.39v-.26c.17-.13.35-.26.52-.39v-.26c.13-.09.26-.17.39-.26.26-.39.52-.78.78-1.17v-.52h.13v-.39h.13c.04-.3.09-.61.13-.91h.13v-.78h.13v-1.43h.13c.12-.36.28-1.71.13-2.21h-.13v-.65c-.09-.04-.17-.09-.26-.13-.04-.26-.09-.52-.13-.78h-.13v-.91c-.09-.04-.17-.09-.26-.13v-.39c-.09-.04-.17-.09-.26-.13v-.26h-.13v-.26h-.13v-.78h-.13v-.26h-.13v-1.04h-.13c.04-.13.09-.26.13-.39h-.13v-1.04c-.2-.66-.46-1.81-.91-2.21-.1-.35-.03-.3-.39-.39.04-.56.09-1.13.13-1.69h-.13v-1.17h-.13v-.65h-.13c-.04-.17-.09-.35-.13-.52-.09-.04-.17-.09-.26-.13-.21-.24-.27-.43-.39-.78h-.13v-.13h.13v-.26h.39c.04-.22.09-.43.13-.65h-.13c-.13-.56-.26-1.13-.39-1.69h.26c-.08-.38-.36-.9-.13-1.17.03-.68.22-.79.78-.91h.65v-.13h.26c.04-.09.09-.17.13-.26h.26v-.13h.52v-.13h.26v-.13h.39v-.13h.39c.13-.17.26-.35.39-.52.16-.11.83-.35,1.04-.39v-.26c.35-.09.29-.18.65-.26v-.26h.13c.04-.09.09-.17.13-.26h.26c.22-.26.43-.52.65-.78h.26v-.13c.13-.09.26-.17.39-.26v-.26c.09-.04.17-.09.26-.13v-.26c.17-.09.35-.17.52-.26v-.39h.13v-.26c.09-.04.17-.09.26-.13v-.26h.13v-1.04h.13v-.39h.13v-.52h.13c.04-.17.09-.35.13-.52h.13c.04-.17.09-.35.13-.52.09-.04.17-.09.26-.13v-.26h.13c.04-.3.09-.61.13-.91h.13c-.03-.6-.12-.84-.39-1.17-.09-.04-.17-.09-.26-.13Zm-25.99,49.51h-.13v-.78h.13c.08-.29-.05-.73-.13-.91h-.13v-.52h-.13c-.04-.17-.09-.35-.13-.52-.09-.04-.17-.09-.26-.13v-.26c-.09-.04-.17-.09-.26-.13v-.13h.13v-.13h-.13v-.65h-.13v-.26h-.13v-.39c-.26-.3-.52-.61-.78-.91h-.39c-.09-.13-.17-.26-.26-.39h-.52c-.04-.09-.09-.17-.13-.26-.13.04-.26.09-.39.13,0,0-.04-.17-.39-.13v.13h-.13c-.04-.09-.09-.17-.13-.26-.3-.12-.51.15-.65.13v-.13h-.39c-.04-.09-.09-.17-.13-.26h-.52c-.29-.11-.54-.32-.91-.39v-.26h-.39v-.26h-.26c-.22-.26-.43-.52-.65-.78h-.13v-.39h-.13v-.52s-.3-.22-.39-.39c.48-.17.95-.35,1.43-.52h.52c.69-.28,1.35-.76,2.21-.91v-.26c-.38.03-.76.18-1.04.26h-.91v.13h-.26v.13h-.52v.13c-.13-.04-.26-.09-.39-.13v.13h-.26c.1-.13.16-.13.26-.26-.17-.11-.15-.09-.26-.26-.22.04-.43.09-.65.13v-.39h-.13v-.13c-.17.04-.35.09-.52.13v-.39c-.13.04-.26.09-.39.13v.39c-.13-.04-.26-.09-.39-.13v.13h-.65v-.13c-.26-.08-.11.02-.26-.13.56-.17,1.13-.35,1.69-.52v-.26c-.69.17-1.39.35-2.08.52-.08-.26.02-.11-.13-.26v-.13c.39-.13.78-.26,1.17-.39.43-.04.87-.09,1.3-.13.04-.09.09-.17.13-.26h.39c.04-.09.09-.17.13-.26.39-.13.78-.26,1.17-.39v-.26c-.43.13-.87.26-1.3.39h-1.04v.13h-1.04v.13c-.09-.04-.17-.09-.26-.13v.13h-.52c-.61.22-1.23.52-2.08.52v-.26c.55-.13.95-.46,1.43-.65.3-.04.61-.09.91-.13.1-.05,0-.17.39-.26v-.26c-.68.03-1.18.24-1.69.39h-.91v.13h-.52v.13h-.39v.13h-.52v-.13c.26-.04.52-.09.78-.13.04-.13.09-.26.13-.39-.48.04-.95.09-1.43.13,0,0-.11-.2-.39-.13v.13h-.39v.13c-.52.09-1.04.17-1.56.26.25-.9,1.43-.6,1.69-1.43-.56.09-1.13.17-1.69.26v-.13h-.91v-.13c-.51-.15-1.88.08-2.08.26h-2.47c-.5.28-.04,2.06.26,2.34.15.22.08.18.39.26.1.34.21.41.39.65h.13v.39c.13.09.26.17.39.26v.26h.13c.13.39.26.78.39,1.17.13.04.26.09.39.13.11.51.35.89.52,1.3v.39c.13.09.26.17.39.26v.26h.13v.26h.13c.04.35.09.69.13,1.04.09.04.17.09.26.13.04.22.09.43.13.65h.13c.04.13.09.26.13.39.09.04.17.09.26.13.09.26.17.52.26.78.13.09.26.17.39.26v.13c.13.04.26.09.39.13.04.43.09.87.13,1.3.09.04.17.09.26.13.04.17.09.35.13.52.32.09.21.07.39.26h.13v.26c.17.13.35.26.52.39v.26c.09.04.17.09.26.13v.13c.87.82,1.73,1.65,2.6,2.47.39.43.78.87,1.17,1.3h.26c.04.09.09.17.13.26.13.04.26.09.39.13v.13h.26c.09.13.17.26.26.39h.39v.13h.39v.13h.26v.13c.26.04.52.09.78.13v.13c.17.04.35.09.52.13v.13h.39v.13h.26v.13h.39v.13h.26v.13h1.17v.13h.39c.09.13.17.26.26.39.35-.04.69-.09,1.04-.13v.13h.39v.13c.22.04.43.09.65.13.03.02.13.19.26.26.12-.2.31-.56.65-.52,0,0,.18.24.39.13v-.13h.13c-.04-.17-.09-.35-.13-.52h.39c.17-.3.35-.61.52-.91h.26v-.39c.13-.04.26-.09.39-.13v-.26c.09-.04.17-.09.26-.13v-2.21h.13c.09-.43.17-.87.26-1.3h-.13c-.09-.26-.17-.52-.26-.78Zm-18.32-12.99h-.13c.04-.13.09-.26.13-.39h.13c-.04.13-.09.26-.13.39Zm10.66.39s-.02.51-.13.26c-.18-.03.05-.12-.13-.13v.39c.33-.14.55-.25,1.04-.26-.15.17-.24.21-.52.26v.26c.91-.26,1.82-.52,2.73-.78v-.26c-.81.09-1.3.46-2.08.52v-.26h-.91Zm76.39,8.28c-.08-.65-.4-1.1-.52-1.69h.26c-.04-.22-.09-.43-.13-.65h-.13v-.91h-.13v-.52h.13c-.04-.52-.09-1.04-.13-1.56h-.13v-.39c-.09-.04-.17-.09-.26-.13v-.26h-.13c-.04-.17-.09-.35-.13-.52h-.13v-.52h-.13v-.39h-.13v-.26h-.13v-.52c-.09-.04-.17-.09-.26-.13v-.52h-.13c-.29-.39-.12-.24-.52-.13-.04-.17-.09-.35-.13-.52-.17-.04-.35-.09-.52-.13v-.13c-.22.04-.43.09-.65.13-.08-.26.02-.11-.13-.26v-.13c-.3-.04-.61-.09-.91-.13-.04-.09-.09-.17-.13-.26-.13-.04-.26-.09-.39-.13v-.13c-.3-.09-.61-.17-.91-.26-.09-.13-.17-.26-.26-.39h-.26c-.04-.09-.09-.17-.13-.26-.22-.04-.43-.09-.65-.13v-.13h-.39c-.04-.09-.09-.17-.13-.26h-.39v-.13h-.26v-.13h-.39v-.13c-.26-.09-.52-.17-.78-.26v-.13h-.26v-.13h-.26v-.13h-.39v-.13h-.26v-.13h-.39v-.13h-.26v-.13h-.26c-.04-.09-.09-.17-.13-.26h-.39c-.04-.09-.09-.17-.13-.26h-.26c-.04-.09-.09-.17-.13-.26h-.39c-.09-.13-.17-.26-.26-.39-.13.04-.26.09-.39.13v-.13c-.3-.04-.61-.09-.91-.13v-.52c-.22.04-.43.09-.65.13v.13c-.82-.13-1.65-.26-2.47-.39.19-.78.82-.94.91-1.82.26.08.11-.02.26.13.64-.07.44-.16.65-.65h.13v-.39h.13v-.13h.52c.1-.44.3-.6.39-1.04.43-.13.87-.26,1.3-.39v-.13h.26v-.13c.17.04.35.09.52.13h.52v.13h.26v.13c.43.09.87.17,1.3.26v.13c.13.04.26.09.39.13.04.09.09.17.13.26.3.04.61.09.91.13.09.13.17.26.26.39h1.3v.13h.78v.13h.13v-.13h.26v-.13h.78v-.13h.39c.04-.09.09-.17.13-.26.17-.04.35-.09.52-.13.22-.26.43-.52.65-.78.09-.04.17-.09.26-.13v-.26c.09-.04.17-.09.26-.13v-.26h.13c.15-.19.19-.23.26-.52h.13v-.39c.26-.08.11.02.26-.13.27-.34-.12-.49.13-.91.13-.09.26-.17.39-.26v-.26h.13v-1.56c.09-.04.17-.09.26-.13-.13-.95-.26-1.91-.39-2.86-.09-.04-.17-.09-.26-.13-.04-.35-.09-.69-.13-1.04h-.13c-.04-.17-.09-.35-.13-.52h-.13c-.09-.39-.17-.78-.26-1.17h-.13v-.26h-.13v-.52c-.09-.04-.17-.09-.26-.13v-.52h-.13v-.26h-.13v-.39h-.13c-.04-.3-.09-.61-.13-.91-.09-.04-.17-.09-.26-.13v-.26h-.13c-.04-.13-.09-.26-.13-.39-.46-.1-.71-.3-.91-.65-.47.05-.55.1-.65.52-.37-.1-.37-.23-.65-.39-.08.22-.13.41-.13.78-.13-.09-.26-.17-.39-.26v.26h-.26c-.04-.17-.09-.35-.13-.52-.13-.04-.26-.09-.39-.13v.26h-.52v.39h-.26v-.26c-.13.04-.26.09-.39.13v.52c-.22.3-.43.61-.65.91h-.26c-.19.66-.26.19-.65.52-.09.13-.17.26-.26.39-.17.04-.35.09-.52.13l-.26.26h-.26c-.04.09-.09.17-.13.26-.26.04-.52.09-.78.13v.13h-.39v.13h-.26v.13h-.52v.13c-.22.04-.43.09-.65.13v.13c-.17.04-.35.09-.52.13v.13c-.3.04-.61.09-.91.13v.13h-.26v.13h-.39v.13h-.39v.13h-.39v.13h-.39v.13c-.22.04-.43.09-.65.13v.13h-.26v.13h-.39v.13h-.26v.13h-.52v.13h-.39v.13h-.52v.13h-.78v.13c-.3.04-.61.09-.91.13v.13h-.52v.13h-.26v.13h-.52v.13h-.26v.13c-.26.04-.52.09-.78.13v.13h-.26c-.04.09-.09.17-.13.26h-.39c-.04.09-.09.17-.13.26-.17.04-.35.09-.52.13-.04.09-.09.17-.13.26-.26.09-.52.17-.78.26-.09.13-.17.26-.26.39-.27.19-.56.32-.91.39v.26c-.52.12-.64.41-1.17.52v.26c-.29.08-.33.11-.52.26v.13h-.26c-.04.09-.09.17-.13.26h-.26v.13h-.26v.13h-.39v.13h-.26c-.04.09-.09.17-.13.26h-.26v.13h-.39c-.04.09-.09.17-.13.26h-.26c-.04.09-.09.17-.13.26-.17.04-.35.09-.52.13-.04.09-.09.17-.13.26h-.26v.13h-.26v.13c-.8.43-1.26.3-1.69,1.17h-.26c-.16.53-.1.14-.39.39v.13h-.13v.26c-.09.04-.17.09-.26.13v.26c-.09.04-.17.09-.26.13v.39h-.13v.26c-.04.06-.18.11-.26.26h-.26c-.05.47-.1.55-.52.65-.1.46-.34.58-.52.91-.09.26-.17.52-.26.78h-.13v.26h-.13v.65h-.13v.13c.1.15.16-.05.13.13h-.13c.09.69.17,1.39.26,2.08h.13v.52h.13v.52h.13v.65h.13c-.04.26-.09.52-.13.78.09.04.17.09.26.13.04.43.09.87.13,1.3h.26c.13.65.46.91.52,1.56h.26c.05.28.13.25.13.26v.65c.13.09.26.17.39.26v.26h.13v.39c.13.04.26.09.39.13v.13c.13.09.26.17.39.26.04.17.09.35.13.52.17.13.35.26.52.39.04.09.09.17.13.26.13.04.26.09.39.13v.26h.13c.17.22.35.43.52.65h.26c.17.22.35.43.52.65h.13c.04.09.09.17.13.26h.26c.26.3.52.61.78.91.31.3.79.4,1.04.78,1.48,0,2.11.06,3.25.39.65.04,1.3.09,1.95.13,1.19.36,2.54.56,3.77.91h1.82v.13h.13c.22-.15,1.14-.25,1.56-.13v.13h1.17v.13h.52v.13c.15.02.34-.23.65-.13v.13h.39v.13h.78v.13h.39v.13h.26v.13c.22.04.43.09.65.13.04.09.09.17.13.26h.65v.13h.39v.13h.39v.13h.26c.04.09.09.17.13.26.17.04.35.09.52.13v.13h.39v.13h.26v.13h.65v.13c.26.04.52.09.78.13v.13h.26v.13h.52v.13c.3.09.61.17.91.26.19.74.97.97,1.56,1.3h.26c.09.13.17.26.26.39h.26c.04.09.09.17.13.26.16.15.38.22.52.39.73,0,.76-.15,1.17-.39v-.52c.28-.06.37-.08.52-.26h.13v-.39c.35-.09.58-.26.91-.39v-.65h.52v.13h.39c-.22-.37-.46-.35-.52-.91.88-.03,1.28-.38,1.95-.65.04-.13.09-.26.13-.39h-.13v-.52c.13-.09.26-.17.39-.26.29-.75-1.1-1.55,0-2.21Zm53.79-7.93c-.09-.04-.17-.09-.26-.13-.04-.17-.09-.35-.13-.52-.09-.04-.17-.09-.26-.13-.04-.13-.09-.26-.13-.39h-.13c-.19-.23-.29-.31-.39-.65-.32-.09-.21-.07-.39-.26h-.13v-.26c-.13-.04-.26-.09-.39-.13-.04-.13-.09-.26-.13-.39-.07-.08-.66-.45-.78-.52v-.39c-.48-.12-.66-.44-1.04-.65v-.26c-.29-.08-.33-.11-.52-.26v-.13h-.26c-.04-.09-.09-.17-.13-.26-.22-.04-.43-.09-.65-.13-.09-.13-.17-.26-.26-.39-.13-.04-.26-.09-.39-.13v-.13c-.26-.09-.52-.17-.78-.26v-.13h-.26v-.13h-.26v-.13c-.26-.09-.52-.17-.78-.26v-.13h-.39v-.13h-.26v-.13h-.52v-.13h-.26c-.04-.09-.09-.17-.13-.26h-.65v-.13c-.3-.04-.61-.09-.91-.13v-.13c-.17-.04-.35-.09-.52-.13v-.26c-.78-.13-1.56-.26-2.34-.39-.21-.04-.24.13-.26.13-.61-.04-1.21-.09-1.82-.13v-.13h-1.95v-.13h-.13v.13c-.17,0-.22-.23-.52-.13l-.13.13v-.26h-1.69v.13c-.18,0,.05-.1-.13-.13h-1.04v.13c-.42.11-.65-.18-.91-.13v.13c-.91.04-1.82.09-2.73.13-.07.03-.02.17-.39.26-.15-.15,0-.06-.26-.13v.26c-.5-.04-.67-.19-1.17,0v.13h-.39v.13h-.39c-.04.09-.09.17-.13.26-.28.12-.39-.18-.52-.13-.04.09-.09.17-.13.26-.09-.04-.17-.09-.26-.13v.13c-.2.11-.32.12-.65.13v.26c-.45.04-1.45.15-1.69.39h-.13v-.52h-.13v-.65h-.13v-.52h-.13c.04-.13.09-.26.13-.39h-.13v-1.56h-.13c-.11-.34.04-.65-.13-.91-.22-.17-.43-.35-.65-.52-.09-.69-.17-1.39-.26-2.08-.09-.04-.17-.09-.26-.13v-.39h-.13v-.26h-.13c-.04-.3-.09-.61-.13-.91h-.13v-.39h-.13v-.39h-.13v-.52h-.13v-1.43h-.13v-.52h-.13v-.39h-.13v-.65h.13c.07-1.08,1-1.13,1.43-1.82h.26c.17-.63.66-.63,1.17-.91v-.13h.26v-.13h.39v-.13c.26.04.52.09.78.13v.13h.65c.04.09.09.17.13.26h.26v.13c.2.06.26-.13.26-.13.13.04.26.09.39.13v-.13c.17.04.35.09.52.13.04-.09.09-.17.13-.26h.26c-.08.31-.04.24-.26.39.45.73.89.13,1.43.52.04.13.09.26.13.39.09.04.17.09.26.13.26.3.52.61.78.91h.39v.13c.17.04.35.09.52.13v.13c.65.04,1.3.09,1.95.13v.13c.22.04.43.09.65.13v-.26c.43-.04.87-.09,1.3-.13.19.05.78.24,1.17.13v-.13h.39c.29-.66.48-.9,1.3-1.04.08-.36.2-.54.39-.78h.13v-.26h.13v-.13c.13-.04.26-.09.39-.13v-.13h.52v-.13c.13-.04.26-.09.39-.13v-1.82h.13v-.26h.13c-.04-.39-.09-.78-.13-1.17h.13c.18-.72.02-1.17-.13-1.69v-.91c-.09-.04-.17-.09-.26-.13v-.39c-.09-.04-.17-.09-.26-.13v-.26h-.13v-.39h-.13c-.04-.17-.09-.35-.13-.52h-.13v-.52c-.09-.04-.17-.09-.26-.13-.04-.22-.09-.43-.13-.65-.09-.04-.17-.09-.26-.13v-.39c-.09-.04-.17-.09-.26-.13v-.26c-.09-.04-.17-.09-.26-.13-.04-.17-.09-.35-.13-.52-.09-.04-.17-.09-.26-.13v-.26c-.19-.33-.43-.58-.52-1.04h-.39c-.04-.13-.09-.26-.13-.39h.13v-.26c-.32-.27-.3-.64-.78-.78v-.39c-.61-.18-.26-.47-.91-.65v-.26c-.48.48-.26-.42-.39-.65h-.13c-.09-.13-.17-.26-.26-.39h-.26c-.17-.22-.35-.43-.52-.65h-.13v-.39h-.13c-.24-.28-.29-.25-.65-.39v-.26c-.28-.03-.78-.11-.91-.26v-.26c-.09-.04-.17-.09-.26-.13v-.13h-.39v-.13h-.26v-.13h-.26c-.04-.09-.09-.17-.13-.26h-.39v-.13c-.18-.04.01.03-.13.13-.26-.04-.52-.09-.78-.13,0,0,0,.17-.26.13v-.13c-.26.04-.52.09-.78.13v-.13h-1.04v.13c-.13.04-.26.09-.39.13v-.13c-.26-.04-.52-.09-.78-.13v.26c-.13-.04-.26-.09-.39-.13-.04.09-.09.17-.13.26h-.52v.26c-.71.09-.8.61-1.3.91-.09.69-.17,1.39-.26,2.08h.13v.39h.13v.65h.13v.26h.13v.78c.04.08.31.07.26.26-.02.09-.22-.03-.13.13.13.09.26.17.39.26v.26c.09.04.17.09.26.13.04.17.09.35.13.52.3.55.72,1.02.78,1.82h.26c.11.46.37.78.52,1.17v.52c.09.04.17.09.26.13v.65c.11.28.53.5.39,1.04h-.13v.39h-.13v.52h-.13v.65c-.13.09-.26.17-.39.26v.26c-.13.09-.26.17-.39.26v.26h-.13c-.09.13-.17.26-.26.39h-.26v.13h-.26v.26c-.4.1-.77.4-1.04.65-.04.09-.09.17-.13.26h-.26l-.26.26v.26c-.22.17-.43.35-.65.52-.04.09-.09.17-.13.26h-.26c-.22.26-.43.52-.65.78h-.26c-.17.22-.35.43-.52.65h-.26c-.04.09-.09.17-.13.26h-.26c-.04.09-.09.17-.13.26h-.52v.13h-.26v.13c-.3.04-.61.09-.91.13v.13c-.69.21-1.59-.12-2.21.13v.13h-.26c-.04.09-.09.17-.13.26h-.39c-.04.09-.09.17-.13.26h-.26c-.04.09-.09.17-.13.26h-.26c-.09.13-.17.26-.26.39h-.26c-.04.09-.09.17-.13.26h-.39c-.04.09-.09.17-.13.26h-.13c-.09.26-.17.52-.26.78l-.39.26v.26h-.13v.39h-.13v.13h.13v.13h-.13v.39h-.13v.26h-.13v1.17c-.21.67-.62,1.06-.65,1.95-.35.09-.29.18-.65.26-.04.39-.09.78-.13,1.17-.09.04-.17.09-.26.13v.91h-.13v.26h-.13c.04.13.09.26.13.39h-.13v.65h-.13v.39h-.13v.52h-.13v.26h-.13v.26c-.09.04-.17.09-.26.13v.39c-.09.04-.17.09-.26.13v.52h-.13v.39h-.13v.91h-.13v.65h-.13v.78h-.13v.91h-.13v1.3h-.13v1.69h.13v.91h.13v.78h.13v.52h.13c.04.22.09.43.13.65h.13v.26h.13v.39h.13v.26c.09.04.17.09.26.13.13.17.26.35.39.52h.13c.04.17.09.35.13.52.09.04.17.09.26.13v.39c.47.12.57.41,1.04.52.1.35.03.3.39.39v.26c.43.12.61.4.91.65v.13h.26c.04.09.09.17.13.26h.26c.13.17.26.35.39.52.13.04.26.09.39.13.36.33.48.76,1.04.91.16.57.46.53.91.78v.13h.26v.13h.91v.13h.65v.13h.26v.13c.19.05.26-.13.26-.13.22.04.43.09.65.13h1.95c.04-.09.09-.17.13-.26h.26v-.13c.26-.04.52-.09.78-.13.04-.09.09-.17.13-.26h.39c.04-.09.09-.17.13-.26h.39c.13-.17.26-.35.39-.52.17-.04.35-.09.52-.13v-.13c.13-.04.26-.09.39-.13.04-.09.09-.17.13-.26h.26c.22-.26.43-.52.65-.78.13-.04.26-.09.39-.13v-.26l.26-.26c.17-.04.35-.09.52-.13v-.13c.09-.04.17-.09.26-.13v-.26c.13-.09.26-.17.39-.26v-.13h.26c.14-.11.6-.92.65-1.17h.26v-.13c.35-.3.69-.61,1.04-.91v-.78h.13v-.26c.13-.09.26-.17.39-.26v-.39h.13v-.13h.26c.08.26-.02.11.13.26.35-.88.55-1.08,1.43-1.43h.39v-.13h.65c.04-.09.09-.17.13-.26h.39c.04-.09.09-.17.13-.26h.39v-.13c.56-.04,1.13-.09,1.69-.13.04.09.09.17.13.26.17.07.05-.07.13-.13.19.01.21.19.52.13.03,0,.05-.17.26-.13v.13c.52.04,1.04.09,1.56.13v.13h.39v.13c.13-.04.26-.09.39-.13.04.09.09.17.13.26h.65v.13c.17.04.35.09.52.13v.13c.11.04.22-.19.52,0,.04.09.09.17.13.26.13.04.26.09.39.13.19.15.08.32.39.52-.04.67-.28.89-.39,1.43h-.26v.39c-.13.04-.26.09-.39.13v.13c-.13.04-.26.09-.39.13-.04.09-.09.17-.13.26h-.26v.13c-.13.04-.26.09-.39.13-.04.09-.09.17-.13.26h-.26c-.17.22-.35.43-.52.65-.17.04-.35.09-.52.13v.13h-.26c-.04.09-.09.17-.13.26-.69.22-1.39.43-2.08.65-.04.13-.09.26-.13.39-.45.04-1.11.3-1.43,0h-.13v.39c.95.22,1.91.43,2.86.65.32.09.49-.14.65-.13v.13c.26.04.52.09.78.13v.13h.52v.13c.09.04.17.09.26.13v.26c.3.22.61.43.91.65v.26c.37.1.37.23.65.39v.26c.13.04.26.09.39.13v.13h.13v-.13h.13v.13c.22.15.18.08.26.39.35.09.29.18.65.26.22.84,1.22.95,1.82,1.43.04.13.09.26.13.39.13.09.26.17.39.26v.26c.13.09.26.17.39.26v.26c.39.11.51.3.78.52v.13c.43.09.87.17,1.3.26v-.91h1.43v-.13h.39v-.13h.39v-.13h.39v-.13h1.17v-.13h.52v-.13h.39v-.13h.52v-.13h.13l.13.13c.18-.29.43-.41.65-.65h.13v-.26c.13-.09.26-.17.39-.26v-.26c.13-.09.26-.17.39-.26v-.26c.22-.17.43-.35.65-.52.04-.26.09-.52.13-.78h.13v-.26h.13v-.26c.09-.04.17-.09.26-.13v-.52h.13v-.26h.13c.09-.87.17-1.73.26-2.6h.13v-.26h.13v-.65h.13v-.52h.13c.09-.82.17-1.65.26-2.47-.17-.52-.35-1.04-.52-1.56Zm-19.75,6.76h-.52v.13h-.52c.04-.09.09-.17.13-.26h.91v.13Z"/>
    <path class="cls-1" d="m259.47,40.37h.39c.03.31.05.32.13.52l.39-.13.13.39h.13l.13.26h.26l.26.39.13-.13c.15-.15.05,0,.13-.26.31.03.76.14,1.04.26v.13h.26v.13h.65l.13.52h.26c.08.66.43.72.52,1.43.39.07.22.11.52,0l.13.39.39.26v.26l.26.13v.26h.13l.13.52.78.39.13.91h.13l.13.52h.13l.13.78h.13l-.13.91h.13l.13.65h.13l.13.52h.13v.65h.13v.26h.13l.13.78h.13v.26h.13v.52h.13c.05.22-.12.23-.13.26l.13,1.04h-.13v.13h.13v.26h.13v.13h-.13v.52h.13l-.13.65h.13v.26h.13l-.39,2.21c.2.07.21.1.52.13.15-.22.08-.18.39-.26v.26h.52v.26c.55,0,.7-.11,1.04-.26v.39h.26v-.39h.52c.05-.18.05.04.13-.13l-.13-.39.65-.78.39.13s.07-.16.26-.13c.02,0,.05.17.26.13v-.13c.26-.06.41.17.52.13v-.13c.33-.2.23-.22.78-.26l.13.39,1.04.26v.26c.44-.11.45-.36.78-.52h.39l.39-.52.52-.13.26-.39h.26v-.13l.39-.26.26-.78h.13c.18-.23.3-.31.39-.65.36-.09.29-.04.39-.39.66-.17.84-.74,1.56-.91v.26c.15-.15.05,0,.13-.26h.26v.39c.36-.08.67-.3.91-.52l.13-.26c.81-.55,1.78-.01,1.82-1.43l.65-.13.13.26,1.04-.13c-.07.36-.1.01,0,.39.36-.08.3-.17.65-.26.05-.28.09-.37.26-.52v.13c.4.27.07.14.26.52h.13v.26l.26.13c.21.25.34.5.39.91l.78.13c.18.69.79.71.91,1.56h.26c.04.46.17.51.26.91h.26l.26.78h-.13c-.42.72-1.24,1.24-1.82,1.82-1.3,1.3-2.6,2.6-3.9,3.9-.5.5-1.44,1.85-2.21,1.95v-.65h-.13v.13c-.12.1-.55.1-.65.26v.39h-.13v.13l-.65-.13c-.18,0,.05.14-.13.13l-.13-.13.13.13-.13.39h.39v.26l.26.13v.26h.13v.13l.39-.13.13.39.26.13c.29.3.34.47.91.52v.26l.52-.13.13.39c.16.18.42.14.65.26v.13h.39v.13h.26v.13l.78.13.13.26h.39l1.3.78v.26l1.17.39v.13l.13-.13.91.13.13.26h.26v.13h.65l.13.26h.52v.13c-.05.08-.21.02-.13.26h.13c.11-.08,0-.16.26-.13v.13l.26-.13c.11.04,0,.32.39.26v-.13h1.04v.13h.52l.13-.26,1.3.13.13-.26h1.17v-.26h.26v.13c.23.09.02-.24.26-.26v.13l.52.13.26-.52.65.13v-.13c.15-.15.05,0,.13-.26h.26v.26c.24-.04.26-.13.26-.13l.39.13v-.13c.2-.1.31-.11.65-.13v-.26h.39v-.13l.52.13.26-.39h.78s0-.08.26-.13v-.26c.6-.06.59-.31,1.17-.39.05.1.26.26.26.26.08.17.51,2.19.39,2.47l-.26.13v.52h-.13c0,.05.22.49.13.78h-.13v.52h-.13v.65h-.13l-.13.78.13.13h-.13v.39l-.26.13-.13,1.04h-.13v.26h-.13v.78h-.13v.39h-.13v.26h-.13c-.12.18-.09.23-.13.52h-.26l-.13,1.43h-.39v.13h-.13v.52h-.13v.13h-.39v.52h-.26c-.07.3-.12.32-.26.52h-.13l-.13.65-.26.13v.39l-.39.13c-.15.15,0,.05-.26.13v.39c-.36.08-.3.17-.65.26v.26h-.78v.13h-.26v.13h-.65v.13c-.41.12-.67-.19-.91-.13-.04,0-.03.27-.26.26v-.13h-.26v-.13c-.15-.03-.24.26-.52.13l-.13-.39c-.07-.05-.28.24-.52.13l-.26-.39h-.78v-.13h-.26v-.13h-.52l-.39-.52h-.13v.13c-.26.07-.39-.13-.39-.13l-.78.13-.26-.39c-.35-.11-.3.22-.39.26h-.26c-.07-.32-.14-.29-.26-.52l-.39.13v-.26l-.65-.13-.13-.26h-.52v-.13h-.39v-.13h-.13c-.07.03-.02.2-.26.13v-.13h-.13v.13h-.13v-.26c-.39.03-.27.16-.65,0v-.13h-.52l-.26-.39-1.04-.13s-.04.2-.26.13l-.13-.26h-.65v-.39h-.13v-.13l-.65.13-.26-.39h-.52l-.13-.39-.39.13v-.13h-.52l-.13-.26h-.52c-.29-.11-.54-.31-.91-.39v-.39c-.41.01-.24.25-.39-.13-.45-.09-.57-.24-1.17-.26v-.26c-.3-.13-.61-.25-.78-.52l-.39.13c-.15-.58-.49-.46-.65-1.04h-.52l-.13-.39h-.52c-.18-.34-.23-.22-.26-.78h-.39c-.18-.66-.44-.34-.65-.65v-.39h-.13l-.13-.39c-.26-.02-.39,0-.52-.13v-.26l-.39.13v-.13h-.13v-.39c-.39-.1-.34-.08-.39-.52.15-.15.05,0,.13-.26-.37,0-.43.08-.65.13v-.13c-.21-.14-.21-.19-.52-.26v-.26c-.62-.18-.13-.15-.39-.52h-.13c-.12.15-.09.15-.26.26v-.13c-.27-.16-.3-.45-.52-.65l-.26.13v-.13c-.27-.21-.42-.25-.52-.65h-.26v-.26c-.46-.12-.37-.32-.91-.39v-.26c-.2-.12-.27-.19-.39-.39h-.13v.26c-.29.34.01,1.04-.13,1.56-.08.3-.23.78-.26,1.17h-.26l-.13,1.04-.26.13.13,1.04c-.05.12-.31,0-.26.39h.13v.52h.13c.04.23-.25,1.06-.13,1.56h.13c.06.28-.13.39-.13.39-.23.91.16,2.12,0,2.73h-.13v.65h.13l-.13.78s.17.03.13.26h-.13v1.17h.13v.26h.13v.65h.13v.13h-.13v1.56l-.26.13v.26h-.13v.65l.13,1.69h-.13v.91l-.91,1.82-.26.13v.26l-.39.26-.13.52-.26.13v.39l-.26.13-.13.65h-.13c-.18.23-.29.31-.39.65l-.78.26v.13l-.52-.13-.13.26c-.16,0-.34-.24-.65-.13l-.91.65v-.13c-.26-.15-.3-.18-.39-.52-.15,0-.52.13-.52.13v-.26c-.15-.14-.25-.09-.52-.13v-.52l-.39-.13c-.07-.06-.86-.12-1.17,0v.13h-.26v.13l-.26-.13v.13h-.13v-.65c-.41-.27-.06-.18-.26-.52h-.13c-.23-.32-.25-.34-.26-.91-.41-.07-.71-.24-1.04-.39l-.39-1.82h-.13v-.26h-.13c-.01-.15.23-.33.13-.65h-.13v-.39h-.13l-.13-.52h-.13v-.13h.13v-.78h.13l-.26-1.56c.69-.12.69-.47.65-1.3h-.13l.13-1.04.26-.13-.26-.78h.26c.11.59.39.69.52,1.17h.13c0-1.1.15-.6.52-1.17-.15-.11-.02.02-.13-.13l-.26.13v-.13h-.13l-.13-.65-.26-.13-.52-1.69c.45-.04.41,0,.52-.39h-.13l-.13-.78-.26-.13v-.26h-.13l-.13-.65-.26-.13v-.26l-.39-.26v-.26l-.39-.26v-.26l-.52-.26v-.39l-.65-.52-.13-.39h-.26v-.13h-.39v.39h-.26l-.39,1.3-.39.26v.39h-.13v.39h-.13v.65h-.13v.39h-.13v.26h-.13v.26l-.26.13v.39h-.13v.26h-.13v.39l-.26.13v.39l-.26.13v.78h-.26l-.13.52h-.13v.52h-.13l-.13.52h-.13l-.13.91-.26.13.13.65h-.13v.52h-.13v.39h-.13v.39h-.13v.26l-.39.26.13.78-.39.26-.13,1.3h-.13v.26h-.13v.65h-.13l-.13.91h-.13l.13.78h-.13v1.17h.13c.06.26-.13.39-.13.39l.13.52h-.26l-.13.78-.65.13-.13,1.56c-.23.12-.2.18-.52.26v-.26l-.52.13v.65h-.65l-.13.26h-.13v-.13h-.52v-.13c-.21-.14-.22-.18-.52-.26-.09.36-.04.29-.39.39v-.26c-.22-.3-.43-.61-.65-.91l-.39.13v-.26c-.97.37-.73-.19-1.43-.39v.26l-.26-.13-.13-.39h-.26v-.39c-.31-.18-.76-.57-.91-.91h.13c.07-.25-.56-.41-.65-.52v-.26l-.26-.13v-.39h-.13v-.26h-.13v-.39h-.13v-.26h-.13v-.39h-.13v-.39h-.13v-.26h-.13l-.13-1.43h-.13v-1.3h-.13c-.23-.74.11-2.14.26-2.6v-.78h.13v-.39h.13v-.26h.13v-.39h.13v-.26h.13v-.52h.13v-.26h.13l.13-1.04h.13l.13-.52h.13v-.52h.13v-.26h.13l.13-1.04h.13v-.39c.19-.48.37-.7.39-1.43h-.26c-.08-.36-.17-.3-.26-.65-.47-.13-.44-.26-.65-.65h-.13v-.39l-.52-.39v-.13h-.26l-.13-.26-.52-.39v-.26l-.52-.39v-.26h-.13v-.26l-.39-.26-.13-.39h-.39c-.15.15,0,.05-.26.13-.09-.54-.25-1.23-.39-1.69-.12-.41.14-1.12.13-1.3h-.13v-.26h-.13l.13-.78c-.18-.68-.26-1.63-.26-2.47.28-.16.28-.29.65-.39v-.26c.36-.09.29-.04.39-.39h.26l.13-.52h.26l.26-.39.39-.13.26-.78.39-.13-.13-.26h.13l.13-.78.39-.13.13-.26h.26v-.13h.26l.39-.52h.26l.13-.26.39-.13v-.13h.26l.26-.39.65-.13.26-.39h.39c.12-.06.05-.23.26-.26.06.03.03.23.26.13l.26-.39.39.13.13-.26h.39v-.13l.52-.13v-.13c.15-.02.25.27.52.13v-.13c.13-.11.18-.22.26-.39l.39.13v.13l.65.13v.13h.26v.13h.26v.13l2.21-.26v.26c.52.2.79.31.91.91.4.09.55.25.65.65.44.11.56.33.65.78.31-.01.33-.04.52-.13v.13h.26l.39.52h.13v.52h.13v.26l.26.13v.26h.13v.26l.26.13v.26l.39.26v.26h.13l.13.52h.13l.13,1.3h.13v.26h.13v.65h.13l.13.52h.13v.52c.05.18.11-.05.13.13-.03.07-.2.02-.13.26h.13v.26h.13l-.13.39.13.13h-.13c.04.78.09,1.56.13,2.34h-.13v.52h-.13v.26l-.26.13-.13.91,1.04.78.26.39h.26l.26.39h.26v.13c.19.18.17.07.26.39h.39v.26c.33.08,1.12.55,1.3.78v.26l.26-.13.13.26.65.13.13-.39h.13l-.13-.78s.16-.07.13-.26h-.13v-.52h.13l-.13-.52h.13l.13-.78-.26-.13c-.06-.22.24-.51.13-.91h-.13v-.65s-.18-.04-.13-.26h.13v-.26h.13v-1.04l.26-.13s-.2-.66-.13-.91h.13v-.65h.13v-.91h.13l-.13-1.82h.13v-.52h.13v-.39h.13l-.13-1.69h.13v-.65h.13v-.26h.13v-1.3h.13v-.52h.13v-2.86h-.13v-.78l-.26-.13v-.52h-.13l.13-1.95-.26-.13v-.26h-.13v-.26h-.13c-.05-.22.13-.24.13-.26l-.13-.78h.13v-.91h.13v-.13h-.13v-.39h-.13l.13-1.04h-.26v-.78s-.15.02-.13-.26c0,0,.18-.07.13-.26h-.13l-.13-.65c-.4-.08-.3-.22-.39-.26l-.39.13v-.13c-.14-.11-.02.01-.13-.13h-.13v-1.95h.13l.13-.78h.52l.52-.91v-.13h-.13v-.91l1.3-.13v-.39h.39l.13-.65Z"/>
    <path class="cls-1" d="m309.71,78.39c-.04.1-.08.19-.12.29.03,0,.07,0,.1,0,.04-.1.08-.19.12-.29-.03,0-.07,0-.1,0Zm-.43.37c0,.07,0,.13-.01.2.05-.05.16,0,.11-.19-.03,0-.07,0-.1,0Zm-3.38,18.37c.22.17.35-.13.41-.17-.06-.04-.13-.08-.19-.11-.07.09-.15.19-.22.28Zm-.48,1.17c-.1.03-.2.05-.31.08-.01.17-.02.33-.03.5.1,0,.2.01.3.02,0-.03,0-.07,0-.1.03,0,.07,0,.1,0,0-.13.02-.27.03-.4-.03,0-.07,0-.1,0,0-.03,0-.07,0-.1Z"/>
    <path class="cls-3" d="m65.98,64.25c0,18.22-14.77,32.99-32.99,32.99S0,82.47,0,64.25,14.77,31.26,32.99,31.26s32.99,14.77,32.99,32.99"/>
    <path class="cls-2" d="m32.99,97.24C14.8,97.24,0,82.44,0,64.25S14.8,31.26,32.99,31.26s32.99,14.8,32.99,32.99-14.8,32.99-32.99,32.99m0-61.32c-15.62,0-28.33,12.71-28.33,28.33s12.71,28.33,28.33,28.33,28.33-12.71,28.33-28.33-12.71-28.33-28.33-28.33"/>
    <path class="cls-2" d="m56.71,58.39s-.04-.02-.07-.04c0,0-.02,0-.03-.01-.02,0-.07-.03-.14-.05-.04-.02-.08-.04-.14-.06-.31-.13-.8-.33-1.24-.51-.06-.02-.11-.04-.16-.07-.05-.02-.1-.04-.15-.06-.07-.03-.13-.05-.19-.08-.05-.02-.11-.05-.15-.06.08-.14.19-.32.31-.52.4-.66.91-1.52.91-1.52.11-.18.07-.41-.09-.55-.12-.1-.24-.19-.35-.28-.08-.06-.16-.12-.23-.18-.08-.06-.15-.11-.23-.17-.19-.14-.39-.27-.58-.39-1.1-.7-2.19-1.14-3.27-1.39-.05-.01-.1-.02-.15-.04-.05-.01-.09-.02-.14-.03-3.79-.77-7.34.84-9.97,2.69-.72.51-1.43,1.07-2.11,1.67.42-.99.78-2.01,1.05-3.03,1.59-6,0-10.71-4.59-13.63-.04-.03-.09-.05-.13-.08-.18-.11-.42-.07-.55.09,0,0-1.1,1.29-1.54,1.81-.45-.52-1.56-1.79-1.56-1.79-.03-.03-.06-.06-.09-.08-.14-.09-.32-.09-.46,0-6.09,3.83-5.76,9.88-4.41,14.28.26.84.58,1.68.94,2.5-.81-.7-1.67-1.36-2.56-1.93-.05-.03-.1-.06-.15-.1-1.53-.98-3.05-1.64-4.53-2.02-.11-.03-.22-.06-.33-.09-.11-.02-.22-.04-.32-.06-.68-.13-1.35-.2-2.01-.21-.11,0-.23,0-.35,0-.11,0-.23.01-.34.02-2.3.13-4.48,1.03-6.48,2.72-.16.14-.2.37-.09.55,0,0,.89,1.44,1.25,2.02-.63.27-2.19.93-2.19.93-.2.08-.3.29-.25.5,1.17,4.63,4.14,6.87,7.36,7.87.12.04.23.08.35.11.12.03.24.06.35.09.69.18,1.38.3,2.07.38.11.02.22.04.33.05.12.01.23.02.34.03.48.04.95.07,1.42.08.87.01,1.76-.03,2.65-.12-.9.55-1.78,1.16-2.59,1.82-.41.34-.79.68-1.15,1.02-.1.1-.2.19-.3.29-.1.1-.2.19-.29.29-.67.7-1.24,1.42-1.71,2.17-.09.15-.18.29-.26.44-.09.15-.18.3-.26.45-1.5,2.86-1.61,5.97-.28,9.22.03.08.09.15.17.2.1.06.21.08.33.05,0,0,1.3-.32,2.06-.5.09-.02.18-.05.25-.06.02.28.06.72.1,1.15.05.63.11,1.22.11,1.22.01.14.09.26.2.33.06.04.13.06.2.07h.08c.12.01.24,0,.36,0,.13,0,.25,0,.37,0,.74,0,1.44-.05,2.1-.16.11-.02.22-.04.33-.06.11-.02.23-.05.34-.06,5.41-.75,7.49-6.08,8.39-8.7.28-.83.52-1.7.71-2.57.25,1.04.55,2.08.94,3.06,2.25,5.85,6.36,8.73,11.88,8.32.21-.01.38-.18.4-.4,0,0,.13-1.69.18-2.37.66.15,2.31.54,2.31.54.2.05.42-.06.5-.26,2.67-6.68-1.15-11.38-4.84-14.15-.48-.35-.97-.7-1.49-1.02-.24-.15-.49-.3-.73-.45,1.07.09,2.15.11,3.2.06,4.48-.24,7.79-1.86,9.81-4.73.01-.02.03-.05.04-.06.02-.04.05-.07.08-.11.02-.03.05-.07.07-.1.25-.38.48-.78.68-1.21.02-.05.04-.09.06-.14.02-.04.04-.09.06-.13.09-.2.18-.4.26-.61.04-.1.08-.2.11-.3.03-.09.07-.17.1-.26.12-.35.23-.71.32-1.08.04-.18-.03-.37-.19-.47m-14.04-1.44c.9-.19,1.8-.44,2.72-.55,1.03-.12,1.05-.07,1.8,1.71.04.1.1.19.16.29.17.37.18.62.02.82-.35.45-.68.94-1.03,1.39-.13.17-.33.16-.54-.01-1.01-.85-2.03-1.72-3.04-2.59-.19-.16-.34-.4-.37-.74-.02-.32.15-.31.28-.34m-4.45,5.68c1.18-.29,2.28-.82,3.37-1.4.66-.35,1.32-.71,1.98-1.04.37-.18.58.49.84.9.16.27.12.45,0,.51-.46.2-.78.77-1.29.87-1.21.23-2.41.5-3.62.76-.06.02-.11.04-.17.05-.09.01-.19.03-.28.04-.15.02-.31.04-.46.06-.05,0-.09,0-.14,0-.2-.03-.48.04-.59-.4-.11-.46.22-.32.38-.36m-4.77-3.75c.01.16.25.44-.22.47-.45.03-.47-.25-.56-.44-.02-.05-.03-.09-.04-.14-.03-.15-.06-.31-.08-.46-.02-.09-.03-.19-.05-.28,0-.06,0-.12,0-.18-.14-1.22-.26-2.45-.42-3.67-.07-.52.37-.99.42-1.5.01-.14.17-.24.48-.17.47.11,1.18.1,1.12.51-.11.74-.23,1.47-.36,2.21-.21,1.21-.37,2.42-.27,3.64m-1.53-1.19c.02.3.05.59.04.89,0,.18-.14.26-.46.12-.04-.05-.08-.11-.12-.16-.04-.05-.08-.1-.11-.15-.1-.19-.2-.39-.3-.58-.04-.17-.08-.33-.13-.5-.32-.92-.44-1.86-1.05-2.75,0-.07,0-.13-.01-.2.2-.16.18-.34.15-.51.1-.15.17-.3.11-.47,0-.09.02-.18.02-.27,0-.25,0-.49.02-.74,0-.18-.01-.37-.02-.55,0-.2.01-.39.02-.59.03-.05.06-.1.09-.15.02-.11.04-.22.07-.33.18-.09.16-.21.12-.32.09-.09.21-.17.16-.28,0-.03.01-.06.02-.09.06-.35.3-.69.23-1.05.12-.04.13-.09.11-.16,0-.01.01-.03.03-.04.16-.16-.04-.44.47-.49.34-.03.87.48.83.69-.28,1.36-1.05,2.7-1.07,4.07-.02,1.55.12,3.1.78,4.61m1.07-6.64c-.23-.14-.3-.33-.18-.51.32-.48.68-.94,1-1.42.14-.22.38-.29.78-.24.11.02.21.05.33.05,1.93.16,1.98.16,2.19,1.18.19.91.23,1.84.33,2.76.02.14.08.29-.23.37-.33.08-.61,0-.82-.12-1.14-.69-2.28-1.38-3.41-2.07m2.96,17.98c.4-.25.37.11.46.25.64,1.04,1.49,1.91,2.38,2.76.54.52,1.08,1.03,1.6,1.56.29.3-.28.71-.6,1.08-.2.24-.39.26-.48.15-.34-.38-.97-.5-1.22-.96-.6-1.08-1.23-2.14-1.84-3.2-.03-.05-.07-.1-.11-.15-.04-.08-.08-.17-.13-.25-.07-.14-.14-.28-.2-.42-.02-.04-.04-.08-.05-.13-.03-.21-.19-.44.19-.68m-.8-27.03c.49-.03,1.03.54,1.06,1.09.02.39-.39.78-.82.79-.65.02-1.07-.32-1.08-.87,0-.24.63-1,.84-1.01m-6.59,3.71c.06.01.13.02.19.04.05.03.11.05.16.08.05.02.1.04.15.05.23.09.47.19.7.28.78.32,1.64.58,2.57.75,1.16.21,2.24-.06,3.28-.31.63-.15,1.25-.27,1.94-.23.23.01.51-.01.59.13.07.15-.23.2-.41.27-.98.35-1.97.69-2.94,1.04-.22.08-.43.08-.67.05-.25-.03-.53-.08-.77-.06-1.59.16-2.57-.32-3.53-.85-.52-.28-1.08-.54-1.62-.81-.08-.18-.09-.35.36-.42m-.5,6.41c.1-.23.15-.46.08-.7.13-.13.17-.25,0-.37.14-.23.16-.46.08-.69.02-.03.04-.06.07-.09.11-.02.23-.03.34-.05.23.05.46.11.69.16.05.03.09.05.14.07h.03c.01.06.03.11.04.16,0,.06,0,.12,0,.18-.04.02-.05.04-.02.06-.16.09-.14.2-.07.3-.15.41-.17.83-.1,1.25-.09.04-.1.09-.05.14,0,.25,0,.5,0,.75-.31,1.65.25,3.26.78,4.87-.02.1.02.26-.08.29-.22.06-.3-.09-.43-.15-.13-.28-.24-.56-.38-.84-.34-.72-.92-1.43-.99-2.16-.09-1.06-.34-2.12-.12-3.19m1.98,17.59s-.03.09-.05.13c-.07.14-.14.28-.2.42-.04.08-.09.17-.13.25-.04.05-.07.1-.11.15-.62,1.07-1.25,2.12-1.84,3.2-.25.46-.89.58-1.23.96-.09.11-.28.09-.48-.15-.31-.37-.89-.78-.6-1.08.52-.53,1.06-1.05,1.6-1.56.89-.85,1.74-1.73,2.38-2.76.09-.14.06-.5.46-.25.39.24.23.48.19.68m-2.47-7.09c.16.04.49-.1.38.36-.11.44-.39.36-.59.4-.05,0-.09,0-.14,0-.15-.02-.31-.04-.46-.06-.09-.01-.19-.03-.28-.04-.06-.02-.12-.04-.17-.05-1.21-.26-2.41-.53-3.62-.76-.51-.1-.83-.66-1.29-.87-.13-.06-.17-.24,0-.51.25-.41.46-1.09.84-.9.67.33,1.32.69,1.98,1.04,1.08.58,2.18,1.11,3.37,1.4m-9.14-4.22c.05-.1.11-.19.15-.29.76-1.78.77-1.84,1.8-1.71.93.11,1.82.36,2.72.55.14.03.3.02.28.34-.02.34-.18.58-.37.74-1.01.87-2.02,1.73-3.04,2.59-.21.17-.41.18-.54.01-.35-.45-.68-.94-1.03-1.39-.16-.2-.16-.45.02-.82m-5.66-1.57c-.23-.07-.75-.91-.69-1.12.13-.47.83-.81,1.36-.66.37.11.62.61.5,1.03-.18.62-.64.92-1.17.75m2.32,5.49c-.43.4-.85.86-1.28,1.29-.2.02-.36-.03-.28-.48.03-.06.06-.11.09-.17.04-.04.08-.08.12-.13.03-.04.06-.08.1-.13.16-.19.32-.38.48-.58.55-.64,1.06-1.37,1.52-2.21.56-1.03.64-2.14.73-3.21.05-.65.13-1.27.39-1.92.08-.22.15-.49.31-.52.17-.02.12.28.13.47.03,1.04.04,2.09.06,3.12,0,.24-.06.43-.16.65-.11.23-.24.48-.3.72-.35,1.56-1.11,2.34-1.91,3.08m2.14-.41s-.03-.02-.03-.04c-.1-.21-.43-.1-.31-.6.08-.33.73-.68.92-.57,1.2.69,2.23,1.84,3.53,2.29,1.46.51,2.98.86,4.62.71.29.08.58.14.86.24.17.06.21.22-.03.47-.06.02-.13.04-.19.06-.06.02-.12.04-.17.06-.22.03-.43.07-.64.1-.17-.01-.34-.03-.51-.03-.97.02-1.91-.16-2.94.14-.06-.02-.13-.03-.19-.05-.09-.24-.26-.28-.44-.31-.11-.14-.24-.26-.41-.25-.08-.04-.17-.07-.25-.11-.23-.08-.46-.16-.7-.25-.18-.05-.35-.1-.53-.16-.18-.07-.37-.14-.55-.21-.04-.04-.08-.09-.11-.13-.1-.06-.2-.11-.3-.17-.03-.2-.14-.22-.27-.22-.05-.11-.1-.26-.22-.24-.03-.02-.05-.03-.08-.05-.31-.17-.56-.5-.92-.54,0-.12-.05-.15-.12-.15m5.3,4.6c-1.03-.25-2.12-.34-3.07-.89-.19-.17-.4-.28-.64-.3-.08-.17-.19-.24-.35-.11-.17-.21-.38-.3-.63-.29-.02-.03-.04-.06-.06-.09.02-.11.04-.23.06-.34.12-.2.24-.4.37-.6.04-.04.08-.07.11-.11l.02-.02s.1,0,.15,0c.06.02.12.04.18.06,0,.04.02.05.05.04.04.19.14.19.26.16.35.27.74.42,1.16.48,0,.1.05.12.12.09.24.08.48.16.71.25,1.47.82,3.17.78,4.87.79.09.05.25.07.25.17,0,.23-.17.25-.28.36-.31.03-.61.05-.92.09-.79.1-1.65.43-2.36.26m-1.3,7.64c.39-.85.91-1.61,1.37-2.42.07-.12.11-.28.41-.16.32.13.49.35.59.58.51,1.23,1.02,2.46,1.51,3.69.1.25.05.44-.16.52-.54.19-1.11.35-1.65.55-.24.09-.48,0-.78-.27-.08-.08-.14-.17-.23-.24-1.46-1.27-1.5-1.3-1.07-2.25m-1.95,7.38c-.14.2-1.1.43-1.28.31-.41-.27-.52-1.05-.21-1.5.22-.32.77-.4,1.14-.15.53.36.67.9.35,1.34m6.22,1.24s-.09-.09-.13-.14c-.03-.05-.06-.1-.08-.16-.03-.04-.06-.09-.09-.13-.13-.21-.27-.43-.4-.64-.44-.72-.98-1.44-1.62-2.13-.81-.86-1.84-1.28-2.82-1.7-.6-.25-1.16-.52-1.7-.97-.18-.15-.42-.29-.39-.45.03-.17.3-.03.49.03.99.3,1.99.61,2.99.91.23.07.39.19.57.35.19.18.38.38.59.51,1.37.82,1.87,1.79,2.33,2.78.25.53.55,1.08.82,1.62-.05.19-.14.34-.54.12m1.88-5.28c-.08.08-.17.15-.25.23-.2-.03-.25.07-.29.19-.13.02-.27.01-.29.13-.02.02-.05.04-.07.06-.26.24-.65.38-.8.71-.12-.04-.16,0-.18.06-.02,0-.03.02-.05.02-.23.03-.23.38-.67.11-.29-.18-.42-.9-.25-1.05,1.03-.93,2.45-1.55,3.28-2.64.94-1.23,1.74-2.56,2.11-4.17.16-.25.32-.51.49-.74.11-.14.27-.13.44.18,0,.07,0,.13,0,.2,0,.06,0,.12,0,.18-.04.22-.07.43-.11.64-.06.16-.14.31-.19.48-.29.93-.75,1.76-.79,2.84-.04.06-.07.11-.11.17-.25.01-.34.16-.43.32-.17.06-.32.14-.37.31-.06.07-.12.14-.18.21-.15.2-.3.39-.45.59-.1.15-.21.3-.31.45-.12.15-.24.31-.37.46-.05.02-.11.04-.16.07m4.62-4.55c-.15.79-.11,1.7-.49,2.32-.55.91-.98,1.91-1.8,2.64-.22.13-.39.29-.48.52-.18.02-.28.1-.22.3-.25.1-.4.27-.47.51-.04.01-.07.02-.11.03-.1-.06-.2-.11-.31-.17-.15-.18-.3-.36-.46-.54-.02-.05-.04-.09-.07-.14l-.02-.03s.04-.09.06-.14c.04-.05.07-.1.11-.15.04,0,.06,0,.05-.04.19.02.23-.08.23-.2.37-.24.63-.57.82-.95.1.02.13-.01.12-.08.15-.2.3-.4.46-.6,1.23-1.15,1.73-2.77,2.26-4.38.08-.07.14-.22.24-.19.22.08.19.25.25.38-.07.3-.14.6-.2.9m6.19,5.48s-.05.09-.07.14c-.15.18-.3.36-.46.54-.1.06-.2.11-.3.17-.04-.01-.07-.02-.11-.03-.07-.24-.22-.41-.47-.51.07-.2-.03-.28-.22-.3-.09-.23-.26-.39-.48-.52-.81-.73-1.24-1.73-1.8-2.64-.38-.62-.34-1.54-.49-2.32-.06-.3-.13-.6-.2-.9.06-.13.04-.3.25-.38.1-.04.16.12.24.19.53,1.6,1.03,3.23,2.26,4.38.15.2.3.4.46.6,0,.07.03.1.12.08.18.38.45.7.82.95,0,.13.05.22.23.2,0,.03,0,.04.05.04.04.05.07.1.11.15.02.05.04.09.06.14v.03Zm1.06-.39c-.02-.12-.17-.12-.29-.13-.04-.12-.09-.22-.29-.19-.08-.08-.17-.15-.25-.23-.05-.02-.11-.04-.16-.07-.12-.15-.25-.31-.37-.46-.11-.15-.21-.3-.31-.45-.15-.2-.3-.39-.45-.59-.06-.07-.12-.14-.18-.21-.05-.16-.2-.25-.37-.31-.08-.16-.17-.31-.43-.32-.04-.06-.07-.11-.11-.17-.04-1.07-.5-1.91-.79-2.84-.05-.16-.12-.32-.19-.48-.04-.22-.07-.43-.11-.64,0-.06,0-.12,0-.18,0-.07,0-.14,0-.2.17-.31.33-.32.44-.18.18.24.33.49.49.74.37,1.61,1.17,2.94,2.11,4.17.83,1.09,2.24,1.71,3.28,2.64.17.15.03.87-.25,1.05-.44.27-.44-.08-.67-.11-.02,0-.03-.01-.05-.02-.02-.07-.07-.1-.18-.06-.15-.33-.55-.46-.8-.71-.02-.02-.05-.04-.07-.06m8.75,2.3c.31.46.2,1.23-.21,1.5-.18.12-1.13-.12-1.28-.31-.33-.44-.19-.98.35-1.34.36-.25.92-.17,1.13.15m-.94-3.85c.18-.05.46-.19.49-.03.03.16-.21.3-.39.45-.54.44-1.1.71-1.7.97-.99.42-2.02.84-2.83,1.7-.65.69-1.18,1.41-1.62,2.13-.13.21-.27.43-.4.64-.03.04-.06.09-.09.13-.03.05-.06.1-.08.16-.04.05-.09.1-.13.14-.4.22-.49.07-.54-.12.28-.54.58-1.08.82-1.62.46-.99.96-1.96,2.33-2.78.21-.13.4-.33.59-.51.18-.16.34-.28.57-.35.99-.3,1.99-.61,2.99-.91m-4.86-4.33c.09-.23.27-.45.59-.58.3-.12.34.04.41.16.46.8.98,1.57,1.37,2.42.44.94.39.97-1.07,2.25-.08.07-.15.16-.23.24-.29.28-.53.36-.77.27-.54-.2-1.11-.35-1.65-.55-.2-.07-.26-.27-.16-.52.49-1.23,1-2.46,1.51-3.69m5.76-7.23c-.25-.01-.46.08-.63.29-.17-.13-.28-.06-.35.11-.24.01-.45.13-.64.3-.94.55-2.03.64-3.07.89-.71.17-1.57-.16-2.36-.26-.31-.04-.61-.06-.92-.09-.11-.1-.27-.13-.28-.36,0-.1.16-.12.25-.17,1.69,0,3.39.03,4.87-.79.24-.08.48-.16.71-.25.07.03.11,0,.12-.09.42-.06.81-.21,1.16-.48.12.03.23.03.26-.16.03.02.05,0,.05-.04.06-.02.12-.04.18-.06.05,0,.1,0,.15,0l.02.02s.08.07.11.11c.12.2.25.4.37.6.02.11.04.23.06.34-.02.03-.04.06-.06.09m.64-3.06s-.02.03-.03.04c-.07,0-.12.03-.12.15-.36.04-.61.38-.92.54-.03.02-.05.04-.08.05-.12-.02-.16.12-.22.24-.12,0-.23.02-.26.22-.1.05-.2.11-.3.17-.04.04-.08.09-.11.13-.18.07-.37.14-.55.21-.18.05-.35.11-.53.16-.23.08-.46.16-.7.25-.08.04-.17.07-.25.11-.17,0-.29.11-.41.25-.18.03-.35.07-.44.31-.06.02-.13.04-.19.05-1.03-.3-1.97-.12-2.94-.14-.17,0-.34.02-.51.03-.22-.03-.43-.07-.64-.1-.06-.02-.12-.04-.17-.06-.06-.02-.13-.04-.19-.06-.24-.26-.2-.41-.03-.47.28-.1.57-.16.86-.24,1.64.15,3.15-.2,4.62-.71,1.3-.45,2.32-1.6,3.53-2.29.19-.11.84.24.92.57.12.5-.21.39-.31.6m3.38,1.74c-.43-.43-.85-.89-1.28-1.29-.8-.75-1.56-1.53-1.91-3.08-.05-.24-.19-.48-.3-.72-.1-.22-.16-.41-.16-.65.03-1.04.04-2.08.06-3.12,0-.19-.04-.49.13-.47.16.02.22.3.31.52.25.65.33,1.27.39,1.92.09,1.07.17,2.18.73,3.21.45.83.97,1.56,1.52,2.21.16.19.32.39.48.58.03.04.07.09.1.13.04.04.08.09.12.13.03.06.06.11.09.17.08.45-.08.49-.28.48m1.04-6.78c-.52.17-.99-.13-1.17-.75-.12-.42.12-.92.5-1.03.53-.15,1.23.19,1.36.66.06.21-.46,1.04-.69,1.12"/>
    <path class="cls-2" d="m32.99,91.65c-15.11,0-27.4-12.29-27.4-27.4s12.29-27.4,27.4-27.4,27.4,12.29,27.4,27.4-12.29,27.4-27.4,27.4m0-53.4c-14.34,0-26,11.66-26,26s11.66,26,26,26,26-11.67,26-26-11.66-26-26-26"/>
    <g>
      <path class="cls-3" d="m171.07,7.56c-.2-.14-.09-.26.11-.29,2.37-.17,4.79.69,5.31,2.48.34,1.2-.51,2.77-1.74,2.77-.8,0-1.54-.2-1.77-1.17-.29-1.31-.8-2.97-1.91-3.79Zm5.36,10.1c-.43,1.88-.14,2.68.43,4.05.17.4.34,1.03.34,1.77.03,1.85-1.23,2.62-2.43,2.65-1.34,0-2-1.06-2-1.94-.03-.57.31-1.37.68-2,.37-.68.37-1.97-1.23-3.02-.43-.26-.31-.57.17-.49.83.2,1.03,0,1.26-.46l5.05-10.07c.2-.46.54-.49.37.09-1.51,4.57-2.06,6.68-2.65,9.42Zm-2.71-17.06c2.6-.2,4.76.83,5.22,2.65.31,1.2-.51,2.68-1.83,2.71-.77,0-1.57-.31-1.71-1.31-.23-1.34-.71-2.91-1.8-3.77-.2-.14-.03-.26.11-.28Zm23.68,13.67c-.11.17-.17.2-.51.2l-2.57.03c-.11,2.54-.29,4.71-.4,6.25h.29c.29-.54.54-1.03.71-1.31.2-.34.29-.37.6-.17.54.37,1.23.88,1.71,1.26.2.17.2.31.08.51-.11.2-.17.23-.57.23h-2.88c-.06.83-.11,1.37-.14,1.6-.43,2.34-2.51,3.4-4.19,3.4-.66,0-1-.23-1-.74-.03-1.14-1.06-2-2.28-2.31-.31-.09-.29-.37.06-.37.91.03,1.85.03,2.54.03,1.11,0,1.31-.34,1.48-1.6h-7.22l-.09.63c-.06.71-.09.83-.63,1.2-.57.34-1.54.54-2.08.54-.46.03-.66-.23-.63-.71l1-8.36c-.8.03-1.54.06-2.03.09l-.37-.77c.74.03,1.63.03,2.48.06l.57-5.05c-.83.97-1.77,1.91-2.8,2.85-.29.26-.49.09-.34-.11,1.94-2.6,3.28-7.45,4.02-11.61,1.2.34,2.51.66,3.45.91,1.43.37,1.2.86.06,1.4-.31.6-.63,1.14-.94,1.68h7.5c.46-.68.88-1.31,1.17-1.71.31-.43.43-.46.91-.2.86.43,1.91,1.08,2.62,1.54.34.23.34.4.17.63-.2.26-.26.31-.88.31l-11.81-.03c-.46.8-.94,1.51-1.46,2.2.63.2,1.26.43,1.88.63h5.91c.34-.46.8-1,1.08-1.28.43-.4.6-.43.97-.23.71.43,1.97,1.17,2.6,1.68.31.26.4.71.11.88-.37.29-1.08.71-1.08.71-.03,1.65-.09,3.28-.14,4.82h.29c.23-.46.46-.88.6-1.11.2-.31.26-.34.54-.17.49.31,1.11.8,1.51,1.14.2.17.2.29.11.46Zm-11.76.23h-1.71l-.77,6.25h2l.49-6.25Zm.49-6.59h-1.4l-.74,6.05h1.68l.46-6.05Zm4.65,6.59h-1.88l-.51,6.25h2c.14-1.26.29-3.51.4-6.25Zm.2-6.59h-1.51l-.51,6.05h1.86c.06-1.8.14-3.85.17-6.05Z"/>
      <path class="cls-3" d="m217.43,9.3v7.45c0,.54-.17.83-.49.97-.57.26-1.37.46-1.88.46-.46,0-.63-.29-.63-.66v-.49h-4.94v.86c0,.31-.14.46-.49.6-.43.17-.97.29-1.43.29-.31,0-.71-.03-.77-.46v-9.1c-.46.43-.94.83-1.46,1.23-.14.09-.34-.03-.17-.23,1.88-2.91,2.88-5.51,3.62-9.87,1.08.2,2.2.43,3.08.63,1.14.23,1.31,1,.09,1.43-.14.31-.31.6-.49.88h1.46c.26-.43.6-.91.83-1.26.29-.37.51-.4.8-.23.94.54,1.71,1.08,2.28,1.57.8.66.63,1.31-.89,1.4-1.03.91-2.23,1.85-3.2,2.77h1.31c.29-.37.6-.83.8-1.06.29-.34.43-.34.74-.17,1.03.51,1.37.77,2.05,1.31.83.66.71.94-.26,1.68Zm-8.96,9.64c1.37,1.83,1.57,5.08-.06,6.56-1.11,1-2.71.88-3.11-.26-.43-1.11.4-2.23.97-2.54.83-.49,1.71-2.08,1.8-3.68.03-.37.23-.31.4-.09Zm3.42-11.41c.51-1.31.83-2.43,1.2-3.71h-1.91c-.77,1.26-1.57,2.4-2.48,3.48.2.09.4.17.6.23h2.6Zm-1.2.54h-1.2v3.71h1.2v-3.71Zm0,4.28h-1.2v4.14h1.2v-4.14Zm2.68,10.9c.09,1.31-.88,2.54-1.74,2.54-1.23,0-1.63-.88-1.46-1.77.29-1.68.37-3.68-.51-5.05-.17-.23.03-.34.2-.26,2.25,1.14,3.37,2.68,3.51,4.54Zm3.6-.57c0,.74-.49,1.66-1.66,1.68-.74.03-1.17-.8-1.26-1.31-.23-1.46-.57-3.2-1.91-4.08-.14-.09-.06-.31.2-.23,3.68.97,4.59,2.65,4.62,3.94Zm-2.54-14.61h-1.17v3.71h1.17v-3.71Zm0,4.28h-1.17v4.14h1.17v-4.14Zm6.11,10.1c.03.74-.49,1.68-1.65,1.71-.74,0-1.23-.8-1.26-1.34-.03-1.68-.57-2.97-1.77-3.91-.14-.09-.06-.29.2-.23,3.68.97,4.48,2.48,4.48,3.77Zm11.24-5.28c-.2.29-.29.31-.88.31h-5.31v6.65c0,.74,0,.88-.63,1.26-.6.37-1.65.57-2.25.6-.51,0-.8-.26-.8-.77v-7.73h-.83s-1.74.11-3.2.17l-.34-.77c2.08.06,3.59.06,3.59.06h.77v-4.85h-.37s-1.74.11-3.2.14l-.34-.74c2.08.06,3.6.06,3.6.06h.31v-4.85h-.68s-1.77.11-3.2.17l-.34-.74c2.08.03,3.6.03,3.6.03h3.02c.43-1.65.8-3.91,1.11-6.16,1.17.17,2.74.49,3.59.74,1.4.43,1.11,1.03.11,1.31-1.37,1.43-2.68,2.77-4.22,4.11l2.2.03c.43-.77.83-1.48,1.11-1.91.29-.46.4-.49.86-.23.77.46,1.74,1.17,2.4,1.68.31.23.31.4.14.66-.17.29-.23.31-.8.31h-4.37c.03.28-.26.63-.83.83v4.02h1.14c.4-.74.83-1.48,1.08-1.91.31-.46.4-.49.86-.2.77.46,1.74,1.14,2.4,1.65.31.23.31.4.14.66-.17.29-.23.34-.8.34h-4.82l-.03,4.85h1.31c.43-.74.88-1.43,1.17-1.85.34-.46.46-.49.94-.2.83.46,1.88,1.14,2.6,1.63.34.23.34.43.17.66ZM218.17.14c3.14.26,4.77,1.68,4.99,3.17.17,1.08-.6,2.34-1.94,2.31-.86-.03-1.51-.31-1.6-1.43-.09-1.54-.46-3-1.6-3.74-.2-.14-.11-.34.14-.31Z"/>
      <path class="cls-3" d="m265.65,21.69c-.63.77-.8,1.85-.97,2.94-.11.74-.83.88-1.43.88-3.22,0-5.54-.03-8.02-.17-4.31-.26-7.19-1.8-9.02-4.57-1.57,2.14-3.54,3.94-5.91,5.51-.14.11-.31-.14-.11-.34,2.25-2.2,3.8-4.82,4.82-7.59-.77-2.05-1.17-4.57-1.31-7.48-.94,2.17-2.14,4.25-3.8,6.05-.29.31-.51.29-.37-.06,2.23-5.14,2.37-11.5,2.6-16.52.97.06,2.34.29,3.42.43,1.6.2,1.46.74.51,1.48-.14.97-.34,1.97-.57,2.97h1.63c.31-.46.71-.97,1-1.34s.57-.34.86-.14c1,.6,1.91,1.34,2.45,1.83s.37,1-.6,1.54c-.4,4.59-1.46,8.36-3.22,11.5,1.91,2,4.57,2.77,8.02,2.77,2.51,0,6.16-.11,9.87-.26.31,0,.54.11.14.57Zm-19.83-5.79c.97-3.48,1.31-7.08,1.51-10.13h-1.94c-.31,1.26-.68,2.54-1.17,3.79.31,2.6.83,4.68,1.6,6.33Zm20.12,1c-.51,1.94-1.94,2.54-4.65,2.54-3.45,0-3.82-.31-3.82-3.02V3.31h-1.63v3.28c0,6.73-.94,9.96-5.76,13.04-.26.17-.51,0-.23-.29,2.51-2.54,2.71-5.99,2.71-12.58V1.91c1,.2,2.11.51,3.2.86h1.6c.4-.51.74-.91.94-1.17.31-.37.49-.34.83-.17,1.11.54,1.54.91,2.28,1.48.94.68.83,1-.26,1.77l-.26.17v10.7c0,.49.09.8.74.83,1.2-.09,1.46-1.08,1.88-4.08.03-.26.31-.23.29-.03,0,2,.77,2.85,1.68,3.28.4.29.68.77.46,1.34Z"/>
    </g>
  </g>
</svg>