<svg fill="none" height="42" viewBox="0 0 129 42" width="129" xmlns="http://www.w3.org/2000/svg"><g fill="#c4d700"><path d="m.00692401 41.8079v-41.8079h17.84647599v5.63849h-11.86306v12.13491h10.33436v5.6385h-10.33436v18.396h-5.99034z"/><path d="m26.7754 41.8047v-31.1328h17.8465v5.6385h-11.8631v7.0706h10.3344v5.6385h-10.3344v6.7938h11.8631v5.9914z"/><path d="m54.3691 41.8047v-31.1328h17.8465v5.6385h-11.8631v7.0706h10.3344v5.6385h-10.3344v6.7938h11.8631v5.9914z"/><path d="m81.9707 41.8047v-31.1328h17.8465v5.6385h-11.8631v7.0706h10.3344v5.6385h-10.3344v6.7938h11.8631v5.9914z"/><path d="m109.562 41.8079v-41.8079h8.986c1.646 0 3.092.214465 4.344.643406 1.252.428944 2.387 1.196884 3.403 2.289994 1.017 1.10002 1.723 2.37992 2.117 3.84663.394 1.4667.588 2.42143.588 4.92587 0 1.8818-.111 2.5875-.325 3.8743-.214 1.2938-.678 2.5045-1.383 3.6391-.824 1.3699-1.917 2.4353-3.286 3.2032-1.37.7611-3.168 1.1485-5.403 1.1485h-3.05v18.2438h-5.991zm5.991-36.16941v12.29401h2.877c1.211 0 2.152-.173 2.816-.5258s1.155-.8441 1.466-1.4667c.312-.5881.498-1.3145.554-2.1724.062-.8579.069-2.8711.027-3.7498-.041-.8786-.214-1.65345-.525-2.31761-.312-.66417-.782-1.17615-1.412-1.52899-.622-.35284-1.528-.52578-2.697-.52578h-3.113z"/></g></svg>