<?xml version="1.0" encoding="utf-8"?>
<!-- Generator: Adobe Illustrator 24.1.0, SVG Export Plug-In . SVG Version: 6.00 Build 0)  -->
<svg version="1.1" id="レイヤー_1" xmlns="http://www.w3.org/2000/svg" xmlns:xlink="http://www.w3.org/1999/xlink" x="0px"
	 y="0px" viewBox="0 0 272.4 101.8" style="enable-background:new 0 0 272.4 101.8;" xml:space="preserve">
<style type="text/css">
	.st0{fill:#FFFFFF;}
	.st1{fill:none;stroke:#000000;stroke-miterlimit:10;}
	.st2{fill:#D70C18;}
	.st3{fill:#231815;}
</style>
<g id="flame">
	<rect class="st0" width="272.4" height="101.8"/>
	<rect x="5.2" y="3.8" class="st1" width="262" height="94.2"/>
</g>
<g>
	<g>
		<g>
			<path class="st2" d="M158.9,81.3c-0.1,0-0.2,0-0.3,0.1c-0.1,0-0.2,0.1-0.3,0.1c0,0-0.1,0,0,0.1c0,0,0,0.1,0,0.1c0,0,0,0,0.1,0
				c0.2-0.1,0.3-0.1,0.4-0.1c0.1,0,0.1,0,0.1,0C159,81.3,159,81.3,158.9,81.3C159,81.2,159,81.2,158.9,81.3z"/>
			<path class="st2" d="M162.5,81.6c0-0.1-0.1-0.3-0.1-0.4c0-0.1-0.1-0.3-0.1-0.5c0.1-0.2-0.1-0.4-0.1-0.5c0-0.1-0.1-0.3-0.1-0.4
				c0-0.1,0-0.3-0.1-0.4c-0.1-0.1-0.2-0.7-0.2-0.9c0-0.2-0.1-0.6-0.2-0.7c-0.1-0.2-0.2-0.1-0.3-0.1c-0.1,0-0.4,0.1-0.5,0.1
				c-0.1,0-0.2,0-0.3,0c-0.1,0-0.3,0-0.3,0.1c0,0.1-0.1,0.1-0.3,0.1s-0.5,0.1-0.6,0.1c-0.1,0-0.3,0-0.4,0.1c-0.1,0.1-0.3,0-0.4,0
				c-0.1,0-0.2,0.1-0.3,0.1c-0.1,0.1-0.3,0.1-0.5,0.1c-0.1,0-0.2,0-0.3,0c0,0,0.1,0,0.1,0c0.1,0.1,0.1,0.1,0.1,0.2c0,0,0,0.1,0,0.1
				c0,0,0,0,0.1,0c0.1,0,0.1,0,0.1,0c0,0,0.1,0,0.1,0.1c0,0,0,0.1,0,0.1c0,0,0,0-0.1,0.1c0,0,0,0.1-0.1,0.1c0,0,0,0,0,0.1
				c0,0.1,0,0.1,0,0.2c0.2-0.2,0.5-0.4,0.7-0.4l0,0c0.2,0,0.4,0,0.6,0.1c0.2,0.1,0.3,0.2,0.3,0.4c0,0.2-0.1,0.3-0.2,0.5
				c-0.1,0.1-0.3,0.2-0.4,0.2c-0.1,0-0.1,0-0.1,0c0,0,0-0.1,0.1-0.1c0.1-0.1,0.2-0.2,0.3-0.3c0.1-0.1,0.1-0.2,0.1-0.3
				c0-0.1-0.1-0.2-0.3-0.3c-0.1-0.1-0.3-0.1-0.5,0c-0.2,0-0.4,0.2-0.6,0.3c0,0,0,0,0,0c0.1,0.4,0.2,0.6,0.2,0.8c0,0.1,0,0.1,0,0.1
				c0,0-0.1,0.1-0.1,0c0,0-0.1-0.1-0.1-0.2c0-0.2-0.1-0.4-0.1-0.6c-0.1,0.2-0.2,0.3-0.2,0.5c0,0.1,0,0.1-0.1,0.1c0,0-0.1,0-0.1-0.1
				c0,0,0-0.1,0-0.1c0,0,0-0.1,0-0.1c0.1-0.2,0.2-0.4,0.3-0.6c0,0,0-0.1,0-0.1c0-0.1,0-0.1-0.1-0.2c0,0-0.1,0-0.1,0
				c-0.1,0-0.2,0.1-0.3,0.1c0,0-0.1,0-0.1,0c0,0,0-0.1,0-0.1c0,0,0-0.1,0.1-0.1c0.1-0.1,0.1-0.1,0.2-0.1c0,0,0.1,0,0.2,0
				c0-0.1,0-0.2-0.1-0.2c0-0.1,0-0.1,0-0.2c0,0-0.1,0-0.1,0.1c-0.1,0.1-0.4,0.1-0.5,0.1c-0.3,0.1-0.2,0.4-0.1,0.6
				c0.1,0.2,0,0.2,0,0.4c0,0.2,0.1,0.2,0.1,0.3c0,0.1-0.1,0.1,0.1,0.2c0.2,0.1,0,0.2,0,0.4c0,0.2,0.1,0.3,0.1,0.4
				c0,0.2,0.2,0.5,0.2,0.7c0,0.2,0,0.1,0.1,0.3c0.1,0.2,0.1,0.4,0.1,0.5c0.1,0.1,0,0.2,0,0.3c0,0.1,0.1,0.2,0.1,0.3
				c0,0.1,0,0.1,0.1,0.2c0.1,0,0.2,0,0.3-0.1c0.1,0,0.3,0,0.4,0c0,0-0.1,0-0.1-0.1c0,0,0-0.1,0-0.1c0,0,0.1,0,0.1,0
				c0.1,0,0.1,0,0.2,0c0.1,0,0.1,0,0.2,0c0.1,0,0.1-0.1,0.1-0.1c0,0,0-0.1,0-0.1c0,0,0-0.1,0-0.2c0,0,0-0.1,0-0.1c0,0,0,0-0.1,0
				c-0.1,0-0.3,0.1-0.4,0.1c-0.1,0-0.1,0-0.2,0c0,0,0-0.1,0-0.1c0-0.1,0.1-0.1,0.2-0.1c0,0,0,0,0.1,0c0.2,0,0.3-0.1,0.4-0.1
				c0.2,0,0.3-0.1,0.3-0.1c0.1,0,0.2,0,0.3-0.1c0.1,0,0.1,0,0.1,0.1c0,0.1-0.1,0.1-0.1,0.2c0,0-0.1,0.1-0.1,0c-0.1,0-0.2,0-0.2,0
				c0,0-0.1,0-0.1,0c0,0,0,0,0,0c0,0.1,0,0.1,0.1,0.3c0,0.1,0,0.1,0,0.1c0,0.1-0.1,0.1-0.1,0.2c0,0.1-0.1,0.1-0.2,0.1
				c0.1,0,0.2-0.1,0.2-0.1c0.1-0.1,0.4,0,0.5,0c0.1,0,0.3,0,0.4-0.1c0.1-0.1,0.3,0,0.4,0c0.1-0.1,0.1-0.2,0.3-0.1
				c0.2,0.1,0.3-0.1,0.4-0.1c0.1-0.1,0.2,0,0.3-0.1c0.1,0,0.2,0,0.3,0c0.1,0,0.3,0,0.3-0.1c0.1-0.1,0.3-0.1,0.4-0.1
				c0.1,0,0.2,0,0.2-0.1C162.5,82,162.5,81.7,162.5,81.6z M157.6,81.4c-0.1,0-0.2,0.1-0.2,0c0,0,0-0.1,0-0.2
				c0.1-0.1,0.1-0.1,0.2-0.1c0,0,0.1,0,0.2,0c0.2-0.1,0.4-0.1,0.6-0.2c0,0,0,0,0,0c0,0,0,0,0-0.1c0-0.1,0-0.1,0-0.1
				c0.1,0,0.1,0,0.2,0c0.1,0,0.1,0.1,0.1,0.2c0,0,0,0,0,0c0,0,0,0,0.1,0c0.4-0.1,0.6-0.1,0.7-0.2c0.2,0,0.3-0.1,0.3-0.1
				c0.1,0,0.1,0,0.1,0.1c0,0.1-0.1,0.2-0.1,0.2c0,0-0.1,0.1-0.2,0.1c-0.2,0-0.3,0-0.5,0c-0.2,0-0.5,0.1-0.8,0.2
				C158,81.2,157.8,81.3,157.6,81.4z M159.2,81.2c0,0.1,0,0.1,0,0.2c0,0,0,0.1,0,0.1c0,0-0.1,0-0.1,0.1c-0.1,0-0.2,0.1-0.4,0.1
				c-0.1,0-0.2,0.1-0.3,0.1c0,0-0.1,0-0.1,0c0,0,0-0.1-0.1-0.1c0-0.1,0-0.1-0.1-0.2c0,0,0-0.1,0-0.1c0,0,0.1-0.1,0.1-0.1
				c0.1,0,0.1,0,0.2-0.1c0.1,0,0.2-0.1,0.4-0.1c0.1,0,0.1,0,0.2,0c0.1,0,0.1,0,0.1,0C159.2,81.1,159.2,81.2,159.2,81.2z M160,82
				C160,82.1,160,82.1,160,82c-0.1,0.1-0.1,0.1-0.1,0.1c0,0-0.1-0.1-0.1-0.1c0,0,0-0.1,0-0.1c0,0,0-0.1,0-0.1c0,0,0,0,0,0
				c0,0-0.2,0-0.3,0c-0.2,0-0.4,0.1-0.6,0.1c-0.2,0.1-0.4,0.1-0.6,0.2c-0.1,0-0.2,0.1-0.2,0.1c0,0,0,0,0,0c0,0,0,0,0,0.1
				c0,0.1,0,0.2,0,0.2c0,0-0.1,0.1-0.1,0.1c0,0-0.1,0-0.1,0c0,0-0.1-0.1-0.1-0.2c0,0,0-0.1,0-0.1c0-0.1,0-0.1,0-0.2
				c0,0,0.1-0.1,0.3-0.1c0.2-0.1,0.4-0.1,0.7-0.2c0.3-0.1,0.6-0.1,0.7-0.2c0.1,0,0.2,0,0.3,0c0.1,0,0.1,0,0.1,0c0,0,0.1,0.1,0.1,0.1
				c0,0,0,0,0,0c0,0,0,0,0,0.1c0,0,0,0,0,0.1C160,81.9,160,82,160,82z M159.9,79.6c-0.1-0.2,0-0.4,0.2-0.6c0,0,0,0,0,0c0,0,0,0,0,0
				c0-0.1-0.1-0.2-0.2-0.4c-0.1-0.1-0.1-0.2-0.2-0.3c0,0,0-0.1,0-0.1c0.1-0.1,0.1-0.1,0.2-0.1c0.1,0,0.1,0.1,0.1,0.1
				c0.1,0.2,0.2,0.4,0.2,0.6c0.1-0.1,0.2-0.2,0.4-0.3c0.2-0.1,0.3-0.2,0.4-0.3c0-0.1,0.1-0.1,0.1-0.1c0,0,0.1,0,0.1,0.1
				c0,0.1,0,0.1,0,0.1c0,0,0,0.1-0.1,0.1c-0.1,0.1-0.2,0.1-0.4,0.2c-0.2,0.1-0.4,0.3-0.6,0.4c-0.1,0.1-0.2,0.3-0.1,0.5
				c0,0.1,0.1,0.1,0.1,0.2c0.1,0,0.2,0,0.3,0c0.2,0,0.4-0.1,0.6-0.2c0.2-0.1,0.3-0.1,0.4-0.2c0,0,0.1,0,0.1-0.1c0,0,0,0,0.1,0
				c0,0,0,0,0,0.1c0,0.1,0,0.1,0,0.2c0,0.1-0.2,0.1-0.4,0.2c-0.3,0.1-0.5,0.1-0.7,0.1c-0.2,0-0.3,0-0.4-0.1
				C160,79.8,160,79.7,159.9,79.6z M162.1,80.9c0,0-0.1,0.1-0.1,0.1c-0.1,0-0.3,0-0.4,0c0,0-0.1,0-0.1,0c0.1,0.1,0.1,0.2,0.2,0.2
				c0,0,0.1,0.1,0.1,0.1c0,0,0,0,0,0.1c0,0,0,0.1,0,0.1c0,0,0,0.1-0.1,0.1c0,0-0.1,0-0.1,0c-0.1-0.1-0.2-0.1-0.4,0
				c-0.2,0-0.4,0.1-0.5,0.2c-0.1,0.1-0.1,0.1-0.1,0.2c0,0.1,0.1,0.2,0.2,0.2c0.1,0,0.3,0,0.5,0c0.1,0,0.3-0.1,0.4-0.2
				c0.1-0.1,0.1-0.1,0.1-0.1c0,0,0,0.1,0,0.1c0,0.1,0,0.1,0,0.2c0,0.1-0.2,0.1-0.5,0.2c-0.3,0.1-0.5,0.1-0.7,0
				c-0.2-0.1-0.3-0.2-0.3-0.4c0-0.1,0-0.2,0.1-0.4c0.1-0.1,0.3-0.2,0.6-0.3c0.1,0,0.1,0,0.2,0c0,0,0.1,0,0.1,0c0,0,0-0.1-0.1-0.1
				c0,0-0.1-0.1-0.1-0.1c-0.1,0-0.2,0-0.3,0.1c-0.2,0.1-0.4,0.1-0.6,0.2c-0.1,0-0.2,0-0.2,0c0,0,0-0.1,0-0.2
				c0.1-0.1,0.1-0.1,0.2-0.1c0,0,0.1,0,0.1,0c0.2-0.1,0.4-0.1,0.6-0.2c0,0,0,0,0,0c0-0.1-0.1-0.1-0.1-0.2c0,0-0.1,0-0.1,0
				c-0.2,0.1-0.3,0.1-0.4,0.1c-0.1,0-0.1,0-0.1,0c0,0,0-0.1,0-0.1c0-0.1,0.1-0.1,0.2-0.1c0.1,0,0.2,0,0.3,0c0,0,0.1,0,0.1,0
				c0,0-0.1-0.1-0.1-0.1c0,0-0.1-0.1-0.1-0.1c0,0,0-0.1,0-0.1c0,0,0.1,0,0.1,0c0.1,0,0.1,0.1,0.1,0.1c0,0.1,0.1,0.1,0.1,0.2
				c0.2,0,0.3-0.1,0.5-0.1c0.1,0,0.1,0,0.1,0c0,0,0,0,0,0.1c0,0-0.1,0.1-0.1,0.1c-0.2,0-0.3,0.1-0.4,0.1c0,0,0.1,0.1,0.1,0.1
				c0,0,0,0,0,0.1c0.2,0,0.4-0.1,0.5-0.1c0.1,0,0.2,0,0.3-0.1c0.1,0,0.1,0,0.1,0.1C162.1,80.8,162.1,80.9,162.1,80.9z"/>
		</g>
		<path class="st3" d="M147.2,75.2c0.1,0,0.3,0.1,0.4,0.3c0,0.1,0.1,0.2,0.1,0.3c1.8-0.1,4.3-0.5,7.3-1c0.2,0,0.3,0,0.4,0
			c0.2,0,0.6,0.2,1.1,0.5c0.6,0.5,0.9,0.9,0.9,1c0,0.2-0.2,0.3-0.5,0.3c-0.6,0-1.3,0.1-2.1,0.4c-0.1,0-0.2,0-0.2-0.1
			c0,0,0.1-0.2,0.3-0.5c0.2-0.3,0.2-0.5,0.2-0.5c0,0,0-0.1-0.1-0.1c-0.1,0-0.2-0.1-0.3-0.1c-1,0-2.1,0.1-3.2,0.2
			c-0.9,0.1-2,0.3-3.4,0.6c-0.3,0.1-0.4,0.1-0.5,0.1h0c0,0.1-0.1,0.3-0.1,0.4c-0.2,0.4-0.3,0.7-0.5,0.9c-0.1,0.1-0.2,0.1-0.3,0.1
			c-0.2,0-0.4-0.1-0.6-0.3c-0.1-0.2-0.2-0.3-0.2-0.5c0-0.2,0-0.3,0.1-0.4c0.2-0.3,0.5-0.8,0.9-1.6C147,75.3,147.1,75.2,147.2,75.2
			 M154.6,70.6c0.2,0,0.4,0.1,0.7,0.2c0.2,0.1,0.3,0.3,0.3,0.6c0,0.3-0.1,0.4-0.2,0.4c-1.7,0-3.3,0.1-4.7,0.3
			c-0.7,0.1-1.4,0.2-2.1,0.4c-0.3,0.1-0.4,0.1-0.5,0.1c-0.1,0-0.3-0.1-0.6-0.3c-0.2-0.2-0.3-0.3-0.3-0.5c0,0,0-0.1,0.1-0.1
			c1.4-0.2,2.6-0.3,3.6-0.5c1-0.2,2-0.4,3-0.6C154.2,70.6,154.4,70.6,154.6,70.6 M153.6,76.6c0.2,0,0.4,0.1,0.7,0.3
			c0.2,0.1,0.3,0.3,0.3,0.6c0,0.3-0.1,0.4-0.2,0.4c-0.7,0-1.4,0-2.1,0.1c0.1,0.1,0.1,0.2,0.1,0.3c0,0,0,0.1-0.1,0.1
			c-0.1,0.1-0.1,0.3-0.1,0.6c0,0.5,0.1,1.1,0.2,1.7c0,0.3-0.2,0.7-0.5,1.1c-0.3,0.3-0.5,0.5-0.7,0.5c-0.2,0-0.4-0.1-0.6-0.4
			c-0.2-0.3-0.7-0.7-1.5-1.3c0-0.1,0.1-0.2,0.2-0.2c0.6,0.2,1,0.3,1.3,0.3c0.1,0,0.2-0.1,0.2-0.2c0-0.2,0.1-0.5,0.1-0.8
			c0-0.4,0-0.8-0.1-1.3c0-0.1,0-0.2,0-0.3c-0.5,0.1-0.9,0.1-1.5,0.3c-0.2,0-0.3,0.1-0.4,0.1c-0.2,0-0.3-0.1-0.6-0.3
			c-0.2-0.2-0.3-0.3-0.3-0.5c0,0,0-0.1,0.1-0.1c1-0.1,1.8-0.3,2.6-0.4c0.7-0.1,1.4-0.3,2.2-0.5C153.3,76.6,153.5,76.6,153.6,76.6
			 M148.8,72.7c0.2,0,0.5,0,0.8,0.1c0,0,0.1,0,0.1,0.1c0.5-0.1,1.1-0.2,1.8-0.3c0.5-0.1,0.9-0.2,1.3-0.3c0.1,0,0.1,0,0.2,0
			c0.1,0,0.4,0.1,0.7,0.3c0.5,0.3,0.7,0.5,0.7,0.6c0,0.1,0,0.1-0.1,0.2c-0.1,0.1-0.3,0.3-0.6,0.7c0,0,0,0,0,0.1
			c0.2,0.2,0.3,0.4,0.3,0.5c0,0.1-0.1,0.1-0.1,0.1c-0.8,0-1.6,0.1-2.4,0.2c-0.5,0.1-0.9,0.1-1.1,0.2c-0.1,0.2-0.2,0.3-0.3,0.3
			c-0.2,0-0.3-0.1-0.4-0.2c-0.1-0.1-0.2-0.3-0.2-0.3c-0.1-0.2-0.2-0.5-0.3-0.9c-0.1-0.2-0.1-0.4-0.3-0.6c-0.1-0.1-0.2-0.2-0.3-0.3
			C148.6,72.8,148.7,72.7,148.8,72.7 M150.3,74.2c0.3,0,0.6-0.1,1-0.2c0.4-0.1,0.8-0.1,1.1-0.2c0-0.1,0.1-0.2,0.1-0.4
			c0-0.1,0-0.2,0-0.3c0-0.1-0.1-0.2-0.2-0.2c-0.2,0-0.5,0-1,0.1c-0.3,0.1-0.7,0.2-1.2,0.3L150.3,74.2z M150.4,69.6
			c0.1,0,0.3,0,0.5,0.1c0.5,0.1,0.8,0.2,1.1,0.3c0.2,0.1,0.3,0.3,0.3,0.5c0,0.2-0.1,0.3-0.3,0.5c-0.2,0.1-0.4,0.2-0.6,0.2
			c-0.1,0-0.2-0.1-0.3-0.1c-0.2-0.2-0.5-0.5-0.8-1.1c-0.1-0.1-0.1-0.1-0.1-0.1C150.3,69.6,150.4,69.6,150.4,69.6"/>
		<path class="st3" d="M115.9,74.8c0,0.2-0.6,0.5-1.9,0.9c-1.5,0.4-2.7,0.9-3.4,1.4c-0.7,0.5-1,0.9-1,1.3c0,0.3,0.1,0.4,0.4,0.6
			c0.5,0.2,1.2,0.3,2,0.3c0.4,0,0.8,0,1.2-0.1c0.8-0.2,1.3-0.3,1.5-0.3c0.3,0,0.5,0.2,0.8,0.5c0.2,0.2,0.3,0.5,0.3,0.7
			c0,0.1-0.2,0.3-0.5,0.4c-0.5,0.2-1.3,0.3-2.4,0.3c-1.1,0-2.1-0.3-3.1-0.8c-0.7-0.4-1.1-0.9-1.1-1.5c0-0.5,0.2-0.9,0.5-1.3
			c0.2-0.3,0.7-0.6,1.5-1.1c-0.1-0.1-0.1-0.2-0.1-0.4c0-0.2,0-0.4,0.1-0.6c0-0.2,0-0.7,0-1.3c0-1.1,0-1.8-0.1-2
			c-0.2-0.4-0.2-0.6-0.2-0.7c0-0.1,0-0.2,0.1-0.2c0.3,0,0.6,0.1,1,0.3c0.5,0.2,0.7,0.4,0.7,0.7c0,0.1,0,0.2-0.1,0.3
			c-0.1,0.2-0.1,0.6-0.1,1.3c0,1,0,1.5,0.1,1.7c0,0.1,0,0.1,0.1,0.3c0.2-0.1,0.5-0.3,1-0.5c0.6-0.3,1-0.5,1-0.7c0,0,0-0.1,0-0.1
			c0,0,0-0.1,0-0.1c0-0.1,0.1-0.2,0.2-0.2c0.3,0,0.7,0.1,1,0.3C115.6,74.2,115.9,74.5,115.9,74.8"/>
		<path class="st3" d="M126.2,80.6c0,0.5-0.5,0.7-1.3,0.7c-0.6,0-1.3-0.1-1.9-0.4c-0.6-0.2-1-0.5-1.4-0.9c-0.4-0.4-0.6-0.7-0.6-1
			c0-0.3,0.1-0.6,0.3-0.7c0.2-0.2,0.7-0.4,1.4-0.5c-0.6,0.3-0.8,0.6-0.8,0.9c0,0.2,0.2,0.4,0.5,0.6c0.4,0.2,1.1,0.4,2.1,0.4
			c0.8,0,1.3,0.1,1.5,0.3C126.1,80.1,126.1,80.3,126.2,80.6 M127.8,77.5c0,0.5-0.2,0.7-0.7,0.7c-0.2,0-0.3-0.1-0.6-0.3
			c-0.3-0.2-0.9-0.4-1.8-0.6c0.7-0.1,1.1-0.2,1.1-0.4c0-0.1-0.2-0.3-0.4-0.5c-0.1-0.2-0.2-0.3-0.3-0.5c-0.2,0.1-0.5,0.3-0.7,0.3
			c-0.3,0.1-0.6,0.2-0.9,0.2c-0.2,0-0.5-0.1-0.7-0.1c-0.3-0.1-0.4-0.3-0.4-0.4c0.6-0.1,1.3-0.5,2.1-0.9c-0.2-0.3-0.4-0.8-0.8-1.4
			c-0.5,0.2-0.9,0.3-1.1,0.3c-0.3,0-0.6-0.1-0.8-0.2c-0.2-0.1-0.3-0.2-0.3-0.4c0.7-0.2,1.3-0.4,1.8-0.6c-0.1-0.2-0.3-0.5-0.4-0.9
			c-0.1-0.1-0.2-0.3-0.5-0.5c-0.2-0.2-0.3-0.4-0.3-0.5c0-0.3,0.4-0.4,1.1-0.4c0.5,0,0.7,0.2,0.8,0.6c0,0.4,0.2,0.8,0.4,1.2
			c0.5-0.3,0.8-0.4,0.9-0.4c0.4,0,0.7,0.2,0.7,0.5c0,0.2-0.3,0.4-0.8,0.7c-0.1,0-0.2,0.1-0.4,0.2c0.2,0.4,0.5,0.8,0.8,1.3v0.1
			c0.5-0.3,0.8-0.5,0.9-0.5c0.4,0,0.5,0.2,0.5,0.5c0,0.2-0.3,0.5-0.9,0.9c0,0,0.3,0.4,0.9,1.1C127.6,77.1,127.8,77.4,127.8,77.5"/>
		<path class="st3" d="M142.8,76.3c0,1-0.4,1.9-1.2,2.6c-0.9,0.7-2.2,1.2-3.9,1.4c1.3-0.7,2.2-1.4,2.7-2c0.6-0.7,0.9-1.3,0.9-2
			c0-1-0.5-1.5-1.4-1.5c-0.7,0-1.7,0.3-2.9,1c-0.3,0.1-0.6,0.3-0.9,0.5v1.5v0.8c0,0.2,0.1,0.4,0.1,0.7c0,0.3-0.1,0.6-0.4,1
			c-0.3,0.3-0.5,0.4-0.6,0.5c-0.2,0-0.3-0.2-0.5-0.6c-0.2-0.5-0.5-1.1-0.9-1.7c0.5,0.3,0.9,0.4,1,0.4c0.1,0,0.1-0.1,0.1-0.3v-1.4
			c-0.3,0.3-0.6,0.6-0.8,0.8c-0.4,0.4-0.7,0.6-0.8,0.7c-0.4,0-0.6-0.3-0.6-0.8c0-0.4,0.1-0.6,0.5-0.7c0.2-0.1,0.6-0.5,1.3-1.4
			c0.1-0.1,0.3-0.3,0.5-0.6v-0.7c-0.1,0.1-0.2,0.1-0.3,0.2c-0.4,0.3-0.7,0.5-0.8,0.5c-0.2,0-0.5-0.1-0.7-0.2
			c-0.2-0.1-0.3-0.3-0.3-0.4c0-0.1,0.2-0.2,0.7-0.3c0.3-0.1,0.7-0.3,1.4-0.7v-0.8c0-0.5,0-0.9-0.1-1.1c-0.1-0.2-0.1-0.4-0.1-0.5
			c0-0.2,0.1-0.3,0.4-0.3c0.3,0,0.6,0.1,1,0.3c0.2,0.2,0.4,0.5,0.5,0.7c0,0,0,0.1-0.1,0.2c-0.1,0.1-0.1,0.2-0.1,0.3
			c0,0.1-0.1,0.3-0.1,0.7c0.2,0,0.4,0.1,0.5,0.2c0.2,0.2,0.3,0.3,0.3,0.5c0,0.2-0.3,0.6-0.9,1.3v0.2c0.7-0.4,1.3-0.7,2-0.9
			c0.9-0.3,1.6-0.4,2.1-0.4c0.9,0,1.5,0.2,1.9,0.7C142.5,75,142.8,75.6,142.8,76.3"/>
	</g>
	<g>
		<path class="st2" d="M49.2,64.5c-1.4,0-1.5-0.2-2.9-0.1c-1.4,0-1.4,0.2-2.8,0.2c-1.4,0-1.4-0.2-2.9-0.2c-1.4,0-1.4,0.1-2.9,0.2
			c-1.4,0-1.4-0.2-2.9-0.2c-1.4,0-1.4,0.1-2.8,0.1c-1.1,0-2.1-0.3-2.1-1.3c0-0.7-0.1-0.9-0.1-1.3c0-0.5,0.1-1.1,0.1-1.8
			c0-0.6,0.1-1.2,0.1-1.5c0-0.8-0.2-0.6-0.2-1.5c0-0.5,0-0.8,0-1.1c0-0.5,0.1-0.8,0.1-1.8c0-0.6-0.1-1-0.1-1.4c0-0.4,0-0.8,0-1.6
			c0-0.7,0.1-1,0.1-1.3c0-0.3,0.1-0.7,0.1-1.4c0-0.8,0.1-1.2,0.1-1.6c0-0.4-0.1-0.7-0.2-1.4c0-1.5-0.1-1.9,1-2
			c1.4-0.2,1.7,0.2,3.6-0.1c1.4-0.2,1.4,0.1,2.9,0.1c1.4,0,1.4,0,2.9,0c1.4,0,1.4,0.1,2.9,0.1c1.4,0,1.4-0.3,2.9-0.3
			c1.4,0,1.4,0.3,2.9,0.2c1.1,0,1.9,0.7,1.9,1.8c0,1.4,0,1.4,0,2.8c0,1.4,0.2,1.5,0.2,2.9c0,1.4-0.2,1.4-0.2,2.9s0.3,1.4,0.3,2.9
			c0,1.4-0.2,1.4-0.1,2.9c0,1.4,0.2,1.4,0.2,2.9C51.2,63.5,50.2,64.5,49.2,64.5"/>
		<path class="st0" d="M33,53.8c-0.1-0.1-0.2-0.2-0.2-0.4c-0.1-0.1-0.1-0.3-0.1-0.4c0.3-0.5,0.5-1.1,0.7-1.7
			c0.2-0.6,0.4-1.2,0.4-1.8l-0.1-0.4l-0.3,0.3l-0.3,0.3L33,49.8l-0.2,0.1c-0.3,0-0.5-0.1-0.7-0.2l-0.3-0.3c-0.1-0.2-0.2-0.4-0.2-0.6
			c0-0.1,0-0.3,0.1-0.4c0-0.1,0.1-0.2,0.2-0.4c0.3-0.2,0.6-0.4,0.9-0.5c0.3-0.1,0.6-0.3,0.8-0.6c0.2-0.2,0.3-0.4,0.4-0.6
			c0.1-0.2,0.2-0.5,0.3-0.7c0.2-0.2,0.3-0.2,0.4,0.1c0,0.2,0.1,0.4,0.1,0.6c0,0.3-0.1,0.7-0.2,1c-0.1,0.3-0.2,0.6-0.4,0.9l0.1,0.4
			c0,0.3,0.1,0.5,0.1,0.8c0,0.6,0.1,1.2,0.1,1.7c0,0.2-0.1,0.5-0.1,0.8l0,0.4c0,0.3-0.1,0.7-0.2,0.9c-0.1,0.3-0.2,0.5-0.4,0.8
			l-0.1,0l-0.2,0C33.4,54,33.2,53.9,33,53.8 M40,53.5c-0.2-0.1-0.5-0.2-0.9-0.1c-0.7,0-1.3,0-2,0.1c-0.3,0-0.5,0-0.7,0.1
			c-0.2,0.1-0.4,0.1-0.7,0.1c-0.2,0-0.3-0.1-0.5-0.2c-0.1-0.1-0.1-0.3-0.1-0.4c0.2-0.4,0.3-0.8,0.3-1.2c0-0.4,0-0.8,0.1-1.2
			c0-0.3-0.1-0.7-0.1-1c-0.1-0.3-0.2-0.7-0.2-1l-0.1-0.3c0.1-0.2,0.1-0.3,0.3-0.4c0.2-0.1,0.4-0.2,0.6-0.2l0.4,0.2l0.2,0.2
			c0.1,0.2,0.1,0.5,0.1,0.9c0,0.4,0,0.8-0.1,1.2l0,0.1l0,0.2c0,0.3-0.1,0.5-0.1,0.8c0,0.3-0.1,0.5-0.1,0.6c0,0.1,0,0.3-0.1,0.4
			c0.1-0.1,0.3-0.1,0.4-0.1c0.1,0,0.3-0.1,0.4-0.1l0.2,0c0.1-0.3,0.1-0.5,0.1-0.8c0-0.3,0-0.5,0-0.8c0-0.8,0-1.6-0.1-2.3
			c0-0.3-0.1-0.7-0.1-1c0-0.3-0.1-0.7-0.2-1c0-0.2,0.1-0.3,0.2-0.4l0.2-0.2c0.2-0.1,0.4-0.1,0.7-0.1c0.2,0.1,0.4,0.2,0.5,0.3
			c0.1,0.1,0.1,0.3,0.2,0.5c0,0.2,0.1,0.3,0.1,0.5c0,0.3,0,0.7,0,1.1c-0.1,0.7-0.2,1.4-0.4,2.1c-0.1,0.7-0.3,1.4-0.4,2.1
			c0.1,0,0.2,0.1,0.3,0.1l0.3,0c0.2,0,0.4,0,0.5,0l0.6,0.1c0-0.6-0.1-1.3-0.1-1.9c0-0.4-0.1-0.9-0.1-1.3c0-0.4-0.1-0.8-0.3-1.2
			c0-0.1,0.1-0.2,0.2-0.3c0.2-0.2,0.4-0.2,0.6-0.2c0.2,0,0.3,0.1,0.5,0.2l0.1,0.2c0.1,0.1,0.1,0.2,0.1,0.4c0,0.1,0,0.3,0,0.4
			c0,0.4-0.1,0.8-0.1,1.3c0,0.4-0.1,0.8-0.1,1.2c0,0.3,0,0.5,0,0.7c0.1,0.7,0.1,1.1,0.1,1.2c0,0.2,0.1,0.4,0.1,0.5L41,53.7l-0.1,0
			l-0.2,0C40.4,53.7,40.2,53.6,40,53.5"/>
		<path class="st0" d="M40.3,58c-0.2-0.2-0.3-0.4-0.2-0.7c0.1-0.2,0.2-0.4,0.4-0.6c0.2-0.1,0.4-0.2,0.5-0.3c0.2-0.1,0.4-0.2,0.5-0.2
			c0.1-0.2,0.2-0.3,0.3-0.5c0.1-0.2,0.1-0.4,0.2-0.6l0-0.4l0-0.4c0-0.2,0.1-0.3,0.1-0.4c0.1-0.1,0.2-0.3,0.3-0.4l0.2-0.3
			c0.1-0.1,0.3-0.1,0.5-0.2c0.2,0,0.3,0.1,0.5,0.1c0.1,0.2,0.2,0.3,0.3,0.5c0.1,0.2,0.1,0.3,0.1,0.5c0,0.3-0.1,0.5-0.2,0.8
			c-0.1,0.3-0.3,0.5-0.4,0.7L43.2,56l0.6,0l0.2,0c0.4,0.1,0.7,0.2,1.1,0.4c0.3,0.1,0.7,0.2,1.1,0.2l0.3,0l0.3,0c0-0.3-0.1-0.7-0.1-1
			c-0.1-0.3-0.1-0.6-0.2-0.9l0.1-0.2l0.2,0c0.2,0.1,0.4,0.1,0.7,0.1c0.2,0,0.4,0.1,0.6,0.3c0.2,0.3,0.4,0.6,0.5,1
			c0.1,0.3,0.2,0.7,0.2,1.1c-0.1,0.3-0.2,0.5-0.3,0.7c-0.1,0.1-0.3,0.2-0.4,0.4l-0.3,0c-0.1,0-0.3-0.1-0.4-0.1
			c-0.1-0.1-0.3-0.1-0.4-0.2l-0.1-0.2c-0.2,0-0.3,0.1-0.5,0.1c-0.4-0.1-0.7-0.1-1.1-0.2c-0.3-0.1-0.7-0.2-1.1-0.3l-0.3,0
			c-0.5,0.1-1,0.2-1.4,0.4c-0.4,0.3-0.9,0.4-1.4,0.6C40.8,58.2,40.5,58.1,40.3,58 M41.7,62.4c-0.1-0.1-0.2-0.3-0.2-0.4
			c0.2-0.2,0.3-0.4,0.4-0.7c0.1-0.2,0.2-0.5,0.2-0.7c0-0.2,0-0.3-0.1-0.4c0-0.1-0.1-0.3-0.2-0.4c-0.2-0.1-0.3-0.2-0.4-0.4l0-0.3
			c0.1-0.2,0.2-0.3,0.3-0.4c0.2-0.1,0.3-0.1,0.5-0.1l0.5,0.1c0.2-0.1,0.5-0.2,0.8-0.2c0.3,0,0.5-0.1,0.8-0.1l0.8,0
			c0.2,0,0.5,0,0.7,0c0.2,0,0.4,0,0.6,0.1c0.2-0.1,0.4-0.1,0.6-0.1c0.2,0,0.4,0.1,0.5,0.2c0.1,0.2,0.2,0.4,0.3,0.6
			c0,0.1-0.1,0.2-0.1,0.3c-0.1,0.1-0.2,0.2-0.3,0.3C47.1,60,47,60.3,47,60.4c-0.1,0.2-0.1,0.4-0.2,0.6c0,0.2,0.1,0.5,0.2,0.7
			c0.1,0.2,0.2,0.4,0.3,0.6c0,0.2-0.2,0.2-0.4,0.1c-0.2-0.1-0.5-0.2-0.8-0.2c-0.2-0.1-0.5-0.1-0.8-0.1l-0.3,0
			c-0.5,0.1-0.9,0.1-1.2,0.2c-0.2,0.1-0.4,0.1-0.6,0.1c-0.2,0-0.4,0.1-0.6,0.2c-0.2,0.1-0.4,0.1-0.6,0.1
			C41.9,62.6,41.8,62.5,41.7,62.4 M46.1,60.2l0-0.5c-0.2,0-0.3-0.1-0.5,0c-0.3,0-0.9,0.1-1.7,0.2c-0.2,0-0.4,0.1-0.6,0.1l0,0.2
			c0,0.2-0.1,0.3-0.1,0.4c0,0.2-0.1,0.4-0.1,0.6c0.3-0.1,0.5-0.1,0.8-0.2c0.3,0,0.5-0.1,0.8-0.1c0.2,0,0.5,0,0.7,0.1
			c0.2,0,0.5,0.1,0.7,0.2L46.1,60.2z"/>
		<g>
			<path class="st2" d="M193.4,48.7c0.2,0.2,0.3,0.3,0.4,0.4c0.2,0.2,0.4,0.3,0.4,0.3c0.4,0.1,0.5,0.1,0.7,0.2
				c0.3,0.2,0.6,0.2,0.7,0.2c0.3,0,0.6-0.2,1-0.6c0.3-0.3,0.5-0.5,0.7-0.5c0.5,0,1.1,0.1,1.6,0.1c0.1,0,0.3-0.2,0.3-0.3
				c0.1-0.6,0-1.5-0.2-2.2c-0.1-0.4-0.2-0.7-0.3-1c-0.1-0.2-0.2-0.4-0.3-0.5c-0.2-0.2-0.2-0.4-0.4-0.5c-0.6-0.5-2.2-0.7-2.2-0.7
				c-1,0-1.7,0-2.2,0.2c-0.8,0.2-1.3,0.7-1.5,1.5c-0.1,0.5-0.2,1-0.1,1.2c0.1,0.3,0.3,0.7,0.6,1.2C192.9,48.2,193.2,48.5,193.4,48.7
				"/>
			<path class="st2" d="M215,49.5c-0.4-0.6-1.4-1.8-2.3-1.8c0,0-0.4,0-0.5,0c-0.2,0-0.4,0.1-0.5,0.2c-0.5,0.3-0.8,0.8-1.4,1.2
				c-0.2,0.1-0.4,0.2-0.7,0.3c-0.1,0-0.2,0.1-0.3,0.1c0,0,0,0,0,0c0-0.1,0-0.2,0-0.3c0-0.2,0.1-0.4,0.1-0.6c0,0,0-0.1,0-0.1
				c0,0,0,0,0,0c0.1-0.5,0.3-1.4,0.3-1.4c1-0.2,2-0.3,3-0.5c0.3-0.1,0.6-0.2,0.7-0.4c0.5-0.6,0.3-1.5-0.1-2.1
				c-0.1-0.2,0-0.6-0.2-0.8c-0.2-0.8-0.6-0.9-0.6-0.9c0,0-0.4-0.1-0.5-0.1c-0.4-0.1-0.7,0-1.2,0c-0.8,0-1.6,0.3-2.5,0.3
				c-0.5,0-0.9,0.1-1.6,0.1c-0.7-0.1-1.1-0.1-1-0.1c-0.5,0-1.2,0-2,0.1c-1.3,0.1-2.1,0.2-2.5,0.1c-0.4,0-0.7,0-0.9,0
				c-0.8,0-1.2,0.3-1.2,0.9c0,0,0,0.1,0,0.3c0,0.2,0,0.4,0.1,0.6c0,0.1,0,0.2,0,0.2c0,0.1,0,0.1,0,0.2c0,0.3,0.1,0.6,0.2,0.9
				c0.2,0.4,0.3,0.8,0.5,1.2c0,0.1,0,0.1,0.1,0.1c0.1,0.2,0.2,0.4,0.4,0.6c0.3,0.4,0.8,0.7,1.3,0.8c0.4,0,0.9-0.1,1.3-0.3
				c0.3,0.4,0.4,0.5,0.5,1.2c0,0.2,0.1,0.5,0.1,0.8c0,0.1,0.1,0.3,0,0.3c-0.6,0.1-1.3,0.1-1.4,0.1c-0.9,0-0.9-0.2-1.5-0.4
				c-0.1,0-0.6-0.1-0.9-0.1c-0.3,0-1,0-1.1,0c-0.3,0-0.3,0.4-0.3,0.6c0,0.4,0,0.4,0,0.8v0.6c0,0.3,0,0.5,0,0.6
				c-0.4-0.1-0.8-0.5-1.3-1.1c-0.5-0.6-1-0.8-1.6-0.8c-0.3,0-0.5,0-0.7,0.1c-0.3,0-0.6,0.1-0.9,0.3c-0.2,0.1-0.3,0.2-0.4,0.4h0l0,0
				c-0.2,0.3-0.3,0.7-0.1,1c0,0,0,0.1,0,0.2l0,0.1c0,0.1,0,0.2,0.2,0.3c0.1,0.1,0.3,0.2,0.3,0.3c0.2,0.4,0.4,0.7,0.6,0.9
				c0.1,0.2,0.4,0.4,0.7,0.6c0.3,0.2,0.6,0.3,0.8,0.3c0.6,0,1.1,0.2,1.3,0.1c0.6-0.3,1-0.6,1.3-0.8c0.1,0.3,0.2,0.6,0.2,0.9
				c0,0,0,0.1,0,0.2c-0.3,0.2-0.3,0.3-0.8,0.5c-0.9,0.3-1.7,0.5-2.2,0.8c-0.3,0.1-1.5-0.1-2.5-0.1c-0.1,0-0.5,0.2-0.6,0.2
				c-0.3,0.1-0.5,0.3-0.6,0.5c-0.1,0.2-0.3,0.6-0.5,1.2c-0.2,0.6-0.3,1-0.3,1.2c0,0.3,0.1,0.9,0.4,1.6c0.3,0.8,0.5,1.2,0.7,1.5
				c0.3,0.3,0.8,0.5,1.5,0.6c0.6,0,1.4-0.5,1.4-1c0-0.2,0.1-0.5,0.1-0.7c0.1-0.2,0.2-0.4,0.2-0.6c0.1-0.4,0.1-0.8,0.2-1.3
				c0-0.1,0-0.1,0.1-0.2c0.1-0.3,0.3-0.5,0.4-0.7c0.3-0.5,0.7-0.9,1.1-1.3c0.4-0.4,0.9-0.8,1.4-1.2c0,0,0,0,0,0c0,0.4,0,0.7,0,0.9
				c0,0.2-0.1,0.5-0.2,0.9c-0.1,0.3-0.1,0.7-0.1,1.1c0,0.2,0,0.3,0.1,0.6c0,0.6,0,1,0.1,1.5c0.1,0.5,0.5,0.7,0.9,1
				c0.8,0.6,1.3,1.2,2.3,1.2c0.2,0,0.5,0,0.5,0c0.6,0,1-0.2,1.6-0.3c1-0.2,3.2-0.1,3.2-0.1c0.7,0,1.3,0,1.9,0.2c0,0,0,0.1,0.1,0.3
				c0.1,0.7,0.6,0.8,1.2,0.8c0.3,0.2,0.6,0.4,0.9,0.4c0.9,0.1,1.6-0.6,1.7-1.5c0.5-1.1,0.4-1.6,0.5-2.2c0-0.9,0-1.6,0-2
				c0.3-1.8,0.6-3.2,0.9-4.1c0-0.1,0-0.4,0.1-0.9c0-0.4,0-0.7,0.1-0.9c0-0.1,0.2-0.5,0.5-1.1c0.1-0.1,0.1-0.3,0.2-0.4
				c0-0.1,0.1-0.1,0.1-0.2C216,51.1,215.5,50.2,215,49.5 M205.5,47.8c0.3-0.1,0.8-0.2,1.1-0.3c0,0.1,0,0.1,0,0.2
				c0,0.5-0.1,1-0.1,1.5c0,0.3,0.1,0.8-0.1,0.8c-0.2,0-0.8,0.4-0.7,0.1c0-0.2,0-0.5,0-0.8c0-0.2,0-0.3,0-0.3c0-0.1,0-0.3,0-0.4
				C205.6,48.6,205.5,48,205.5,47.8 M205.8,53.3c0.3-0.1,0.4-0.2,0.7-0.2c0.1,0,0,0.5,0,0.7c0,0.9,0,1.3,0,1.8
				c0.1,0.5-0.1,0.5-0.3,0.5c-0.2,0-0.2,0.1-0.4,0.1c-0.2,0-0.1-0.7,0-1.6C205.7,53.8,205.6,53.4,205.8,53.3 M202.8,55.1
				c0-0.4,0-0.6-0.1-1c0-0.1,0-0.2,0.2-0.3c0.2-0.1,0.5-0.1,0.6-0.1c0.2,0,0.3,0,0.2,0.3c0,0.2,0,0.4,0,0.5c0,0.2,0,0.3,0,0.5
				c0,0.4,0,0.6,0,1.1c0,0.2,0,0.4-0.1,0.5l-0.7,0.1C202.7,56.7,202.8,55.9,202.8,55.1 M209.1,58.4c0,0.5-0.1,0.4-0.1,0.8
				c0,0.2-0.1,0.4-0.2,0.5c0,0-0.2,0.1-0.4,0.1c-0.5,0.1-0.9,0.1-1.8,0.1c-0.5,0-0.9,0-1.4,0.1c-0.1,0-0.4,0-0.5,0.1l-0.3,0l-0.9,0
				c-0.4,0-0.4-0.5-0.4-0.8v-0.5c0.1,0,1.3,0,1.8,0c0.5,0,2.5-0.3,2.8-0.4c0.2-0.1,1.1-0.3,1.2-0.3C209.2,58,209.1,58.3,209.1,58.4
				 M209.5,55.5c-0.5,0.1-1.2,0.4-1.2,0.2c0-0.4,0.2-1.7,0.3-2.3c0-0.4,0-0.7,0.4-0.8c0.4-0.2,0.7-0.2,0.8-0.1
				C209.8,52.6,209.8,55.4,209.5,55.5"/>
		</g>
		<g>
			<path class="st3" d="M138.1,51.3c-0.2-0.3-0.5-0.5-0.8-0.8c-0.6-0.7-1.4-0.9-2.6-0.3c-0.5,0.3-0.9,0.6-1.3,1
				c-0.1,0.1-0.3,0.2-0.4,0.3c-1.2,1-2.2,2.1-3.4,3.1c-0.2,0.2-0.3,0.3-0.5,0.5c-0.5,0.4-1.2,1-2.3,2.1c-0.1,0.1-0.2,0.1-0.3,0.2
				c-0.2,0.1-0.3,0.3-0.5,0.5c-1.6,1.5-2.5,2.4-2.8,2.9c-0.3,0.4-0.4,0.7-0.3,1V62c0,0.3,0.4,1,0.6,1.3c0.4,0.4,1,0.8,1.4,1.2
				c0.1,0.1,0.3,0.1,0.5,0.3c0.2,0.2,0.5,0.3,0.5,0.3l0.1,0.1c0.4,0.3,0.7,0.2,0.7,0.2c0.1,0,0.2-0.1,0.4-0.3
				c0.3-0.4,0.5-0.5,0.6-0.7c0.8-1.1,1.7-2.2,2.7-3.1c0.4-0.3,0.7-0.8,1-1.2v0c0.1-0.1,0.4-0.3,0.5-0.4l0,0c0,0,0,0,0,0
				c0.8-0.5,1.5-0.9,1.7-1c1.3-0.7,2.3-1.9,3.3-3c0.8-0.9,1.5-1.7,1.5-2.7c0-0.1,0-0.3,0-0.4c0-0.1,0-0.3,0.1-0.4
				C138.3,51.8,138.3,51.5,138.1,51.3"/>
			<path class="st3" d="M123.8,53.7c0.5,0.3,1.1,0.5,1.6,0.7c1.5,0.5,2.7-0.6,3.5-1.7c0.2-0.2,0.3-0.4,0.4-0.7
				c0.1-0.6,0.1-1,0.1-1.4c0-0.5-0.1-0.8-0.2-1c-0.4-0.5-0.9-1-1.5-1.5c-0.8-0.6-1.4-0.9-1.9-0.9c-0.2,0-0.4,0-0.6,0.1
				c-0.5,0-1,0.1-1.4,0.4c-0.9,0.3-1.6,0.8-2.4,1.5c-0.6,0.6-0.8,1.3-0.6,1.9c0,0,0.4,0.8,0.8,1.1c0.5,0.5,1.2,1,1.9,1.4
				C123.5,53.6,123.8,53.7,123.8,53.7"/>
		</g>
		<path class="st3" d="M117.3,49.4c-0.1-0.1-0.4-0.1-0.5-0.1c-0.3-0.1-0.7-0.1-1.2,0c-1.1,0.5-2.4,0.6-3.5,0.7c0,0,0,0-0.1,0
			c-0.8,0.2-1.5,0.3-2.3,0.5c0.1-0.6,0.2-1.2,0.3-1.8c0.8,0.1,1.6,0.2,2.4,0.4c0.1,0,0.2,0.1,0.3,0.1c0.2,0.1,0.6,0,0.9-0.2
			c0.3-0.2,0.4-0.6,0.5-0.8c0,0,0.1-0.3,0.1-0.3c0.1-0.6,0.1-1,0-1.6c0-0.2,0-0.5,0-0.8c0-0.5,0.3-1.6-0.6-1.8
			c-0.9-0.3-2.8-0.2-3.8-0.3c-0.4,0-1.2-0.2-1.2-0.2c-1.4-0.2-2.9-0.1-4.6,0c-1.2,0.1-2.3,0.7-2.1,1.3c0.3,0.7,0.5,1.2,0.6,1.5
			c0.1,0.5,0.2,1,0.3,1.5c0.1,0.4,0.4,0.8,1,1.2c0.2,0.1,0.3,0.4,0.6,0.3c0.8-0.1,1.4-0.2,2.2-0.3c0,0.7,0,1.4,0,2.1
			c0,0.1,0,0.5-0.1,0.6c-0.7,0.2-1.2,0.2-2,0.3c-0.6,0.1-1.2,0.1-1.7,0.2c-1.2,0.3-1.9,0.4-2.2,0.4h-0.9c-0.1,0-0.3,0-0.5,0.2
			c-0.1,0.2-0.2,0.3-0.3,0.5c0,0.1,0,0.1,0,0.3c0,1,0.3,2,0.9,3.2c0.6,1.2,0.9,1.6,1.6,1.9c0.2,0.1,0.7,0.1,1,0
			c1.2-0.4,2.5-0.9,3.5-1.4c0,0-0.1,0.5-0.1,0.6c-0.1,0.4-0.1,0.6-0.1,0.8c0,0.7,0.2,1.5,0.7,2.2c0.5,0.8,1.1,1.4,1.8,1.3
			c0.7-0.2,1.1-0.2,1.2-0.2c0.2,0,0.5,0,0.8,0.1c0.4,0.1,0.6,0.1,0.8,0.1c2.1,0.1,3.6,0.3,4.3,0.4c0.4,0.1,0.8,0.2,1.2,0.3
			c1.2,0,1.3-1.2,1.4-2.2c0.1-1-0.5-2.1-1-3c-0.3-0.4-0.6-0.8-1.1-0.9c-0.1,0-0.6-0.1-0.7-0.1c-0.6,0-1,0.1-1.4,0.3
			c-0.4,0.2-0.6,0.3-0.8,0.3c-0.3,0-0.6,0-0.9,0c-1.1,0.1-2.4,0.4-2.9-0.8c0.5-0.1,1.1-0.4,1.6-0.5c1.1-0.3,2.3-0.5,3.4-0.7
			c1.9-0.4,4.9-0.2,4.7-2C118.5,51,118.3,49.9,117.3,49.4"/>
		<g>
			<path class="st3" d="M97.3,53.5c-0.1-0.2-0.3-0.5-0.5-0.7c-0.9-1.1-1.7-2.7-3.3-1.4c-0.4,0.3-0.6,0.9-1,1.3
				c-0.5,0.5-1.1,0.8-1.6,1.3c0.2-1.2,0.2-2.5,0.2-3.7c0-0.6,0-1.4,0-2.1c0-0.8,0.2-1.5-0.3-1.9c-0.1-0.1-1.6-0.3-1.9-0.4
				c-0.8-0.2-1.9-0.2-2.4-0.1c-0.6,0.1-0.3,1.2-0.1,1.9c0.2,1.1,0.1,2,0.2,2.5c0.2,1,0.1,1.6,0.1,1.7c0,1-0.1,2,0,2
				c-0.3,2.8-0.5,3.6-0.8,5.2c-0.1,0.6-0.1,1.1-0.4,1.9c-0.1,0.2-0.3,0.5-0.4,0.7c-0.1,0.2-0.2,0.5-0.2,0.8c0,0.5,0.4,1.1,1.1,1.7
				c0.6,0.4,1.1,0.9,1.9,1.3c0.3,0.1,0.5,0.3,1,0.2c0.2-0.1,0.7-0.7,0.7-0.7c1-1.3,1.7-2.7,2.9-3.9c0.1-0.1,0.3-0.3,0.4-0.4
				c0,0,0,0,0,0c0,0,0,0,0,0c1.2-1.2,2.4-2.3,3.6-3.4c0.6-0.6,0.9-1,1.1-1.5c0,0,0.5-0.9,0.2-1.5C97.8,54,97.3,53.5,97.3,53.5"/>
			<path class="st3" d="M84,50.9c-0.4-0.3-0.7-0.5-1.1-0.7c-0.9-0.5-2.5-0.9-3.4-0.2c-0.1,0.1-0.2,0.2-0.3,0.3
				c-0.1,0.2-0.2,0.3-0.3,0.6c0,0.3-0.1,0.6-0.1,0.9c0,0-0.1,0.6-0.2,1c0,0.3-0.1,0.5-0.1,0.8c-0.2,0.8-0.3,1.4-0.4,1.8
				c-0.2,0.5-0.3,0.8-0.3,0.9c-0.1,0.4-0.1,0.7-0.1,0.8c-0.2,0.5-0.4,1-0.5,1.4c-0.4,1.2-0.4,2.4,0.6,3.1c0.9,0.7,2.4,0.8,3.4,0.2
				c0.4-0.2,0.7-0.6,1-1.1l0.1-0.1c0.5-0.9,0.9-1.9,1.1-2.6c0.5-1.2,1.7-4.5,1.7-4.8C85,52.1,84.7,51.5,84,50.9"/>
		</g>
		<g>
			<path class="st3" d="M61.7,56.6c0-0.4-0.4-0.9-1.1-1.5c-0.6-0.6-1.1-1-1.6-1.2c-0.4-0.2-0.7-0.3-1.1-0.4c-0.3,0-0.7,0.6-1.1,1.1
				c-0.3,0.4-0.6,0.9-0.8,1.3c-0.5,0.7-0.9,1.2-1.2,1.5c-0.2,0.3-0.8,1.1-0.8,1.2c0,0.1-0.1,0.2-0.2,0.5c-0.4,1.2,0.5,1.8,1.5,2.3
				c0.8,0.4,1.6,0.5,2.6-0.8c0.1-0.1,0.1-0.3,0.2-0.4c0.1-0.1,0.4-0.6,0.4-0.6c0.1-0.1,0.1-0.1,0.2-0.2c0,0,0.1-0.1,0.1-0.1
				c0.7-0.6,1.2-1.2,1.5-1.5c0,0,0.3-0.2,0.8-0.4C61.5,57.1,61.7,56.9,61.7,56.6 M54.6,58.1C54.6,58.1,54.6,58.1,54.6,58.1
				L54.6,58.1L54.6,58.1z"/>
			<path class="st3" d="M67.1,60.8c0-0.2-0.1-0.7-0.1-1.3c0-0.5-0.1-1-0.1-1.2c-0.3-1.3-0.5-2.2-0.5-2.6c0-0.4,0-1-0.1-1.9
				c-0.1-0.8-0.1-1.2-0.1-1.7L66,51.4c0-0.2,0-0.4,0-0.6c0-0.3,0-0.6,0-0.7c2.1-0.4,4.2-0.5,6.3-0.2c0.8,0.1,1.3-0.4,1.2-1.2
				c0-0.2-0.1-0.7-0.1-0.8c-0.2-0.9-0.5-1.6-0.8-2.2c-0.1-0.2-0.3-0.4-0.4-0.4c0,0-0.4-0.4-0.9-0.5H70c-0.2,0-0.3,0-0.5,0
				c-1.1,0-2.2,0.1-3.3,0.2c0-0.1,0-0.3,0-0.5c0-0.4,0-0.6,0-0.8c0-0.2,0.1-0.4,0-0.6c-0.1-0.3-0.1-0.5-0.3-0.6
				c-0.5-0.4-1.2-0.5-1.6-0.1c-0.7,0.7-1,1.8-1.2,3.1c-1.4,0.2-2.9,0.5-4.4,0.9C56.4,47.1,55,48,55,48.7c0,0.1,0,0.3,0.1,0.4
				c0.2,0.3,0.2,0.5,0.4,0.7c0.2,0.3,0.4,0.5,0.5,0.7c0.2,0.4,0.4,0.6,0.5,0.9c0.2,0.3,0.8,0.9,1,1.1c0.2,0.2,0.6,0.4,1,0.6
				c0.4,0.2,0.7,0.3,0.9,0.3c0.2,0,1.1-0.6,2.8-1.9c0.2-0.1,0.4-0.2,0.6-0.3c-0.2,1.8-0.2,3.5,0,5.3c0,0.1-0.2,0.3-0.4,0.5
				c-0.4,0.3-0.6,0.5-0.8,0.9c-0.1,0.5,2.2,2.6,2.7,3.4c0.6,0.8,1.4,1.3,2.2,1.3c0.2,0,0.4-0.1,0.6-0.3c0.2-0.2,0.3-0.4,0.3-0.6
				c0,0,0-0.2-0.1-0.4C67.1,61,67.1,60.8,67.1,60.8"/>
			<path class="st3" d="M70.8,52.2c-0.2-0.1-0.5-0.2-0.7-0.2c-0.4-0.2-0.7-0.3-0.9-0.3c-0.1,0-0.4,0-0.4,0c-0.2,0-0.5,0.1-0.8,0.3
				c-0.3,0.2-0.5,0.4-0.5,0.6c0,0.2-0.1,0.3-0.1,0.5c0,0.8,0.1,1.5,0.2,2.2c0.2,1.4,1.2,2.2,1.3,2.3c0.1,0,0.3,0.3,0.4,0.3
				c0.5,0.4,1.2,0.6,1.8,0.8c0.6,0.3,1.1,0.7,1.6,1c0.7,0.4,1.7,0.4,2.1-0.4c0.3-0.6,0.9-3-0.2-4.8C73.8,53.1,71.4,52.4,70.8,52.2"
				/>
		</g>
		<g>
			<path class="st3" d="M188.3,54.2c-0.2-1.2-0.3-2.4-0.3-3.6v0c0-0.4,0-0.9,0-1.3c0-0.5,0.1-0.9,0-1.4c0-0.1,0-0.3,0-0.5
				c0-0.6,0.3-1.2-0.4-1.8c-0.7-0.6-2.3-0.7-3.5-0.8c-1.1,0-2,0-3.2,0.1c0.3-0.7,0.5-1.6,0.1-2c-0.2-0.2-0.8-0.3-1.1-0.3
				c-0.8-0.1-1.6-0.1-2.4-0.1c0,0,0,0,0,0c-0.5-0.1-0.5-0.2-0.8,0c-0.4,0.2-0.4,0.6-0.5,1c0,0-0.2,1.1-0.3,1.4c0,0.3-0.1,0.8-0.2,1
				c0,0.2-1.8,0.7-2.7,1c-0.1,0-1,0.2-1,0.2c-0.1,0,0-0.2,0-0.4c0-0.2-0.2-0.3-0.4-0.4c-0.5-0.2-1.2-0.2-1.8-0.2
				c-0.4,0-1-0.1-1.3,0.2c-0.1,0.2-0.2,0.3-0.3,0.7c-0.1,0.4-0.2,0.9-0.3,1.6c-0.1,0.7,0,2.5-0.1,3.5c0,0.4,0,1.8,0,2.1
				c-0.1,1-0.2,3-0.2,3.6c0,1.8-0.1,2.7,0.3,4.3c0.1,0.5,0.1,0.9,0.4,1.1c0.1,0.1,0.5,0.2,0.7,0.2c1.2,0.3,3.5,0.2,4.3-0.8
				c0.3-0.4,0.3-0.6,0.3-1c0-0.2-0.2-0.4-0.2-0.5c-0.4-1.3-0.6-2-0.6-3.4c0-0.8-0.1-1.5-0.2-2.3c0,0,0.1-0.1,0.2,0
				c0.1,0,0.3,0.1,0.4,0.1c0.1,0.1,0.3,0.1,0.4,0.1c0.6,0,1.2-0.1,1.7-0.4c0.5-0.3,0.7-0.6,1-0.9c0.5-0.5,0.6-1,0.9-1.1
				c0.1,0,0.4,0.3,0.5,0.3c0.1,0,0.3,0.2,0.5,0.2c0.1,0.1,0.3,0.1,0.4,0.2c0.3,0.1,0.6,0.4,0.8,0.5c0.2,0.1,0.4,0.2,0.6,0.3
				c0.5,0.4,0.9,0.7,1.3,0.6c0.4-0.1,0.4-0.2,0.5-0.5c0.1-0.2,0.2-0.3,0.3-0.5c0.3-0.4,0.5-0.9,0.5-1.5c0-0.5-0.5-0.9-0.9-1.2
				c-0.4-0.4-1.8-0.7-2.2-1.3c-0.2-0.3-0.1-0.5,0.3-1.1c0.1-0.2,0.1-0.2,0.5-0.3c0.3-0.1,0.5-0.1,0.6-0.1c0.3,0,0.7-0.1,0.7-0.1
				c0.5-0.1,0.9-0.1,1.2-0.1c0.3,0,0.6,0.4,0.6,0.6c0,0.5,0.1,1,0.1,1.4c0,0.4-0.1,0.8-0.2,1c-0.2,1,0.1,1.4,0,2.4
				c-0.1,0.9,0,1.8-0.2,2.7c-0.1,0.6,0.1,1.3,0.1,2c0,0.6,0.1,1.2-0.2,1.7c-0.4,0.5-1.1,0.1-1.7,0.1c-0.5,0-1.1-0.2-1.6-0.1
				c-0.5,0.1-1.2,0.2-1.6,0.3c-0.4,0.1-0.9,0.3-1.1,0.4c-0.2,0.1,0,0.5,0.2,0.5c0,0,2.3,0.6,3.5,1c0.4,0.1,4.2,2.1,5.7,2.3
				c0,0,0.4,0.1,0.7,0c0.2,0,0.2-0.3,0.2-0.4c0-0.1,0.2-0.5,0.2-0.7c0.3-1.3,0.3-2.1,0.4-2.9C188.3,58.8,188.7,56.5,188.3,54.2
				 M173.5,52.8c-0.4,0.6-0.6,1-1,1.5c-0.1-0.3-0.1-0.6-0.1-0.9c0-0.3,0-0.3,0-0.6c0-0.1,0-0.3,0-0.6c0-0.6,0.1-1.2,0-1.8
				c0.1-0.1,0.3-0.2,0.6-0.2c0.9-0.2,1.5-0.3,2-0.4C174.8,50.5,173.9,52.2,173.5,52.8"/>
			<path class="st3" d="M178.1,58.3c0,0,0.1,0,0.1,0.1c0.1,0.1,0.2,0.2,0.4,0.2c0,0,0,0,0.1,0c0.7,0.3,1.8,0.7,2.3,0.3
				c0.4-0.3,0.4-1.2,0.2-1.6c-0.2-0.3-0.5-0.5-0.8-0.7c-0.3-0.2-0.4-0.3-0.7-0.4c-0.2-0.1-0.4-0.1-0.5-0.2c-0.2-0.1-0.3-0.1-0.4-0.3
				c-0.1-0.2,0.1-0.2,0.1-0.5c0-0.4-0.4-0.6-0.5-0.7c-0.2-0.1-0.4-0.3-0.5-0.3c-0.1,0-0.4,0.1-0.5,0.2c-0.1,0.1-0.9,0.8-1.4,1.5
				c-0.3,0.4-0.8,1-1.2,1.5c-0.6,0.5-1.2,1.1-1.3,1.8c-0.1,0.6,0.2,1,0.9,1.1c0.3,0,0.6,0,0.9-0.2c0.3-0.2,0.6-0.5,0.9-0.7
				c0.5-0.4,0.9-0.8,1.4-1.3C177.6,58.2,177.9,58.2,178.1,58.3"/>
		</g>
		<g>
			<path class="st3" d="M141.8,56.2c0.5,0.4,1,0.6,1.3,0.6c0.4,0,0.8-0.2,1-0.5c0.1-0.2,0.2-0.6,0.4-1.3c0.2-0.6,0.2-1,0.2-1.1v-1.2
				c0-0.1,0-0.2,0.1-0.4c0-0.2,0.1-0.3,0.1-0.4c0-0.6-0.2-1.3-0.6-2.2c0-0.2-0.1-0.4-0.2-0.5c-0.4-0.4-1.2,0-1.6,0.2
				c-0.7,0.3-1.2,0.9-1.3,1.7c0,0,0,0,0,0c-0.3,0.6-0.5,0.9-0.6,1c-0.1,0.2-0.2,0.5-0.2,0.8c0,0.2,0.2,0.8,0.6,1.8
				C141.3,55.6,141.6,56.1,141.8,56.2"/>
			<path class="st3" d="M148,54c0,0.2,0,0.3,0,0.5c0.1,0.1,0.4-0.3,0.6-0.5c0.3-0.3,0.5-0.5,0.7-0.7c0.3-0.2,0.5-0.4,0.7-0.5
				c0.4-0.3,0.7-0.5,0.8-0.9c0.1-0.4,0.2-0.8,0.3-1.2c0.1-0.3-0.1-0.5-0.3-1.1c-0.1-0.3-0.2-0.5-0.3-0.7c-0.1,0-0.1-0.1-0.2-0.1
				c0,0-0.1-0.1-0.2-0.1c-0.4,0-0.9,0.4-1.1,0.8c-0.2,0.4-0.5,1.1-0.7,2.1C148.1,52.7,148,53.4,148,54"/>
			<g>
				<path class="st3" d="M164.2,61.7c-0.1-0.3-0.3-0.6-0.5-1c-0.1-0.4-0.1-0.9-0.1-1.4s0-1.2-0.1-1.8c0-0.2-0.4-0.2-0.4,0
					c-0.1,0.5-0.9,1.8-1,2c-0.3,0.5-0.4,0.9-0.6,1.1c-0.1,0.3-0.1,0.2-0.2,0.2c-0.5,0.4-1.3,0.5-1.9,0.5c-0.6-0.1-1-0.5-1.1-1
					c-0.1-0.5,0-0.9-0.1-1.4c0.6-0.1,2-0.2,2.4-0.4c0.8-0.3,0.9-0.2,1.3-0.9c0.3-0.7,0.4-1.7-0.1-2.4c-0.5-0.7-1.4-0.6-2.1-0.6
					c0.1-0.2,0.1-0.4,0.1-0.6c0,0,0.1,0,0.2,0c1.2,0,2.6,0.5,3.2-1c0.4-0.8-0.3-2.1-0.8-2.7c-0.2-0.2-0.3-0.2-0.5-0.3
					c-0.2-0.1-0.3-0.1-0.4-0.1c-0.3,0-0.4,0.1-0.7,0.2c-0.3,0.1-0.3-0.1-0.3-0.3s0.1-0.7,0.1-0.8c-0.3-0.5-0.5-0.4-1.1-0.3
					c-0.1,0-0.5,0-0.9,0.1c-0.4,0.1-0.2,1.2-0.3,1.5c-0.1,0.2-0.4,0-0.5,0.1c0.1-0.4,0.2-0.9,0.2-1.2c0-0.3,0-0.6,0.1-0.8
					c0.1-0.2,0-0.3,0.1-0.5c0.8,0,1.6-0.1,2.4-0.3c0.1,0,0.5-0.2,0.5-0.2c0.4-0.2,0.6-0.4,0.6-0.8c0.1-1,0.1-1.9-0.6-2.6
					c-0.3-0.3-0.7-0.4-1-0.4c-0.6,0-1.6,0.4-1.9,0.1c-0.3-0.3,0-0.8,0-1.1c-0.1-0.2,0.1-0.4-0.1-0.5c-0.4-0.4-1-0.3-1.5-0.2
					c0,0-0.3,0.1-0.4,0.1c-0.3,0.2-0.4,0.3-0.5,0.6c-0.1,0.3-0.2,0.8-0.3,1.2c0,0,0,0,0,0c0,0,0.1-0.1,0,0.1
					c-0.1,0.1-0.3,0.3-0.7,0.3c-1.2,0.1-2.5,0.3-3.5,1.1c-0.1,0.1-0.2,0.1-0.2,0.2c-0.6,0.9-0.2,2.2,0.4,2.9
					c0.8,0.8,1.4,0.7,2.3,0.4c0.1,0,0.1,0,0.2-0.1c0.5-0.1,0.9-0.1,1.4-0.1c0,0.5,0.1,1,0.2,1.5c0,0.2,0.1,0.3,0.2,0.3
					c0,0.1,0,0-0.1,0c-0.1,0-0.2,0-0.3,0c-0.1,0,0,0.1-0.2,0c-0.6-0.3-0.4-0.9-1.4-0.9c-0.1,0-1.3,0-1.4,0.4c0,0.1,0.2,0.6,0.1,0.7
					c-0.2,0.1-0.6,0.2-0.7,0.5c-0.1,0.2-0.2,0.5-0.1,0.7c0,0.2-0.1,0.6-0.1,0.7c-0.1,0.7-0.8,1.3-0.5,1.9c0.4,0.6,1.9,0,2.5,0
					c0.5,0,0.3,0.7,0.4,1c-0.3,0.1-0.8,0.3-1.1,0.4c-0.3,0.1-0.3,0.2-0.5,0.3c-0.2,0.1-0.3,0.4-0.3,0.5c0,0.7,0.1,1.3,0.1,2
					c0,0.4,0.8,0,0.8,0.1c0.1,0.5-0.2,0.9-0.4,1.4c0,0-0.1,0.3-0.2,0.3c-0.4,0.5-0.9,0.9-1.4,1.2c-0.1,0.1-0.3,0.1-0.3,0.2
					c-0.1,0,0,0,0,0c0,0,0,0-0.1,0c0,0-0.3,0.1-0.3,0.1c-0.2,0.1-0.4,0.2-0.6,0.3c-0.2,0.1-0.5,0.3-0.6,0.4
					c-0.2,0.2-0.5,0.4-0.7,0.6c-0.1,0.2-0.1,0.3,0,0.4c1.5,0.7,2.8,0.7,4.4,0.4c0.5-0.1,0.7-0.3,1-0.6c0.5-0.5,0.8-1.1,1.1-1.8
					c0.3-0.7,0.7-1.5,1.2-2.1c0,0.1,0,0.1-0.1,0.3c-0.1,0.2-0.2,0.8-0.2,0.9c0,0.1,0,0.1,0,0.1c0,0.1,0,0.2-0.1,0.3
					c0,0.1-0.1,0.2-0.1,0.3c0,0.3-0.1,0.5-0.1,0.8c0,0.9,0.6,1.4,1.4,1.8c0.1,0,0.2,0.1,0.2,0.1s0.1,0,0.1,0c0.3,0.1,0.5,0,0.9,0
					c1.3-0.1,2.4-0.1,3.8-0.1c0.7,0,1.9,0.2,2.6-0.3c0.5-0.4,0.5-0.7,0.4-1.3C164.5,62.4,164.3,62.1,164.2,61.7 M157.2,55.2
					c-0.4,0.1-1,0.2-1.2,0.2c-0.2,0-0.3,0-0.3,0c0-0.2-0.2-0.5,0-0.7c0.1-0.1,0.6-0.1,0.9-0.2c0.3-0.1,0.8-0.2,1.1-0.2
					c0.1,0.3,0.1,0.6,0.2,0.9C157.9,55.1,157.2,55.2,157.2,55.2"/>
			</g>
			<path class="st3" d="M148.8,59.1c0.6,0.2,1.3,0.3,1.8,0c0.5-0.4,0.9-1.3,0.8-1.9c-0.1-0.9-1.3-1.5-2-1.8
				c-0.5-0.2-0.9-0.3-1.4-0.5c-0.3-0.1-0.5-0.1-0.6-0.2c0-0.1,0-0.3,0-0.4c0-0.8,0.1-1.7,0.2-2.8c0-0.2,0-0.3,0.1-0.4
				c0.3-0.7,0.5-1.4,0.7-2.2c0.1-0.5,0.1-1,0-1.4c0,0-0.2-0.9-0.4-1.3c-0.2-0.5-0.5-0.8-0.8-0.8c0,0-0.7,0-0.7,0
				c-0.4,0-0.9,0.1-1.2,0.4c-0.4,0.5-0.3,1.7-0.2,2.3c0,0.3,0,0.6,0,0.9c0,1.8,0.1,3.5-0.1,5.3c0,0,0,0.1,0,0.1
				c-0.3,1.4-0.7,2.7-1.3,3.9c0,0,0,0,0,0c-1,1.3-1.7,2.1-2.2,2.5c-0.1,0.1-0.3,0.2-0.5,0.3c-0.1,0.1-0.2,0.1-0.3,0.3
				c0,0-0.1,0.1-0.1,0.1c-0.1,0.2,0,0.3,0.1,0.5c0.2,0.3,0.8,0.4,1.2,0.3c0.2,0,1,0.3,1.5,0.7c0.3,0.3,0.7,0.7,1.1,0.9
				c0.5,0.2,0.7,0,1-0.2c0.2-0.2,0.4-0.4,0.7-0.7c1.3-1.5,1.7-3.5,1.8-4.3c0,0,0-0.1,0-0.1c0.2,0.1,0.5,0.1,0.7,0.2
				C148.7,59.1,148.8,59.1,148.8,59.1"/>
		</g>
		<g>
			<path class="st2" d="M227.2,44.4c0.1,0.5,0.2,1,0.3,1.4c0,0.1,0,0.2,0.1,0.4c0,0,0,0,0,0c0.1,0.4,0,0.6,0,0.9
				c0,0.2,0.3,0.6,0.3,0.7c0.1,0.6,0.3,1.5,0.4,2c0.1,0.4,0.2,0.8,0.2,1c0.1,0.4,0,0.7,0.2,1c0,0,0,0,0,0c0.1,0.1,0.2,0.2,0.3,0.2
				c1.5-0.1,3.1-0.2,4.7-0.3c0.4,0,1.6-0.2,2.6-0.3c0.4,0,0.7,0,1.1,0c0,0,0,0,0,0c0.1,0,0.3,0,0.4,0c0,0,0,0,0,0
				c0.1,0,0.3,0,0.3-0.1c0.1-0.1,0.2-0.2,0.1-0.4c-0.1-0.2-0.1-0.4-0.1-0.6c0-0.2,0-0.3,0-0.5c0-0.2,0-0.4,0-0.7
				c0.1-0.9,0.5-1.8,0.6-2.3c0.2-0.9,0.6-1.9,0.6-2.8c0.1-0.4,0.1-0.8-0.1-1c-0.5-0.4-1.4-0.8-1.9-0.8c0,0,0,0,0,0
				c-0.4-0.1-0.9,0-1.3,0.1c-0.8,0.1-1.9,0.4-2.5,0.4c-0.2,0-0.7,0-1,0.1c-1.4,0-2.3,0-3.6,0.2c-0.4,0-1.1-0.1-1.4,0c0,0,0,0,0,0
				c-0.2,0-0.3,0.1-0.4,0.3c0,0,0,0.1,0,0.1c-0.1,0.3-0.1,0.6,0,1C227.1,44.1,227.2,44.2,227.2,44.4z M233.3,45.2
				c0.7-0.1,1.3-0.2,2.1-0.3c0.1,0,0,0.7-0.1,1.1c-0.4,0-0.8,0.2-1.3,0.1c-0.8-0.1-1.2,0.1-1.9,0.1c-0.4,0-0.6,0-1,0.1
				c0,0-0.1-0.5-0.1-0.5c0,0,0-0.2,0-0.3C231.8,45.3,232.6,45.3,233.3,45.2z M234.6,49.1c-1,0.1-2.1,0.2-3.1,0.2
				c-0.1-0.3-0.1-0.8-0.2-1.1c0.6,0,1.2-0.1,1.8-0.2c0.6,0,1.2,0,1.8-0.1c-0.1,0.4-0.1,0.7-0.1,1.1
				C234.7,49.1,234.7,49.1,234.6,49.1z"/>
			<path class="st2" d="M231.4,55.7c0.3,0,1.7-0.4,1.7-0.4c0.3,0,0.6-0.1,0.8-0.1c0.5-0.1,0.3,0,0.7,0c0.3,0,0.4,0,0.8-0.1
				c0.7-0.1,0.5-0.1,1.1-0.2c1-0.1,1.2-0.2,2.2-0.3c0,0,0.6,0,1-0.2c0,0,0.9-0.3,1.1-0.4c0.6-0.6,0.5-1.1,0.2-2.1
				c-0.3-0.8-2.2-0.6-3-0.4c0,0,0,0,0,0c-1.4,0.1-2.5,0.2-3.9,0.4c-0.2,0-0.4,0.1-0.6,0.1c-0.6,0.1-1.2,0.1-1.6,0.1
				c-1,0-1.5,0.1-2.1,0.1c-0.6,0-0.8,0.1-1.2,0.1c-0.3,0-0.8,0-1,0c-0.5,0-0.6,0-0.9,0.3c-0.3,0.3-0.3,0.3-0.4,0.7
				c0,0.2,0.2,0.8,0.2,1.1c-0.3,0.1-0.6,0.3-0.8,0.4c-0.2,0.1-0.4,0.2-0.6,0.3c-0.2,0.1-0.3-1.3-0.3-1.5c0-0.3,0-0.9,0.1-1.1
				c0.1-0.1,0.7-0.2,1.2-0.3c0.5-0.1,1.1-0.2,1.4-0.7c0.1-0.2,0.2-0.7,0.1-1.1c0-0.3-0.1-0.6-0.1-0.8c0-0.2-0.2-1.1-0.4-1.3
				c-0.1-0.1-0.6,0.1-1.2,0.2c-0.3,0.1-0.6,0.1-0.8,0.2c-0.1,0-0.2,0-0.3,0c0-0.1,0-0.1,0-0.2c0-0.5,0.1-0.9,0.1-1.4
				c0-0.2,0-0.4-0.2-0.6c-0.4-0.4-0.7-0.1-1.2-0.2c-0.5-0.1-1.3-0.3-1.8-0.1c-0.1,0-0.2,0.1-0.3,0.1c-0.6,0.4-0.2,1.8-0.1,2.3
				c0,0.2,0,0.3,0,0.5c-0.2,0-0.4,0-0.6,0.1c-0.3,0.1-0.6,0.1-1,0.2c-0.6,0.1-1.3,0.3-1.9,0.5c-0.1,0-0.6,0.3-0.6,0.5
				c0,0.7,0.3,1.4,0.5,1.9c0.1,0.3,0.2,0.6,0.2,0.7c0.1,0.2,0.1,0.5,0.2,0.7c0.3,0.7,2.4-0.2,3.3-0.4c0.1,0,0.1,0.3,0.2,0.6
				c0,0.7,0.1,1.4,0.1,2c0,0.1-0.9,0.5-1.2,0.6c-0.5,0.2-2.1,0.3-2.5,0.7c-0.8,0.8,0.3,2.7,0.6,3.6c0.2,0.4,0.2,0.9,0.4,1.2
				c0.1,0.3,0.2,0.7,0.5,0.8c0.5,0.2,0.9-0.2,1.2-0.5c0.2-0.3,0.5-0.5,0.8-0.7c0.1-0.1,0.2-0.1,0.3-0.2c0.5-0.3,0.7-0.5,1.1-0.9
				c1.6-1.5,1.7-1.9,2.6-2.7c0.1-0.1,0.1-0.2,0.1-0.2c0,0,0.8-1.3,1-1.6c0.1-0.1,0.2-0.3,0.2-0.3c0.2,0,0.2,0,0.3,0
				c0.2,0,0.6-0.2,0.6,0c0,0.2-0.9,1.2-1,1.4c-0.2,0.1-0.3,0.3-0.4,0.4c-0.1,0.2-0.3,0.4-0.4,0.6c-0.1,0.2-0.3,0.4-0.2,0.6
				c0,0.1,0.2,0.2,0.3,0.2c0.1,0,0.3,0.1,0.4,0.1c0.4-0.1,0.5-0.2,0.9-0.4c0.3-0.1,0.8-0.4,1.1-0.7c0,0,0.2,0.1,0.2,0.1
				c0,0,0.1,0.1,0.1,0.1c-0.8,0.6-1.7,1-2.5,1.7c-0.6,0.6-1.4,1.2-1.9,1.9c-0.2,0.3-0.3,0.5-0.3,0.9c0,0.3,0.4,0.4,0.8,0.5
				c0.4,0,0.7,0.1,1,0.4c0.2,0.2,1,0.6,1.4,0.6c0.5,0,0.7-0.3,1-0.8c0.2-0.4,0.3-0.8,0.5-1.1c0.3-0.5,0.3-0.4,0.6-1
				c0.3-0.5,0.9-1.1,1.4-1.6c0.1-0.1,0.3-0.3,0.5-0.5c0.2-0.2,0.1-0.3,0.3-0.5c0,0,0.1-0.1,0.1-0.2c0.2-0.1,0.5-0.1,0.7-0.1
				c0.1,0.1-0.4,0.6-0.4,0.7c-1.1,1.6-2.3,2.7-2.6,3.5c-0.3,0.4-0.4,0.9,0.2,1.1c0.6,0.2,1.3-0.1,1.8,0.1c0.1,0,0.3,0.1,0.4,0
				c0.3,0.1,0.5-0.3,0.8-0.4c0,0,0.1,0.2,0.1,0.2c0,0.1,0.6,0.9,0.9,1.1c0.4,0.3,1.5,1.7,2,1.8c0.8,0.1,2-1.3,2.7-2.4
				c0.1-0.1,0.2-0.8,0.3-0.9c0.6-0.9,1-1.8,1.3-2.8c0.4-1.1,0.4-1.5,0.8-2.6c0.1-0.3,0.3-0.5,0.2-0.9c-0.3-1-1.1-1.9-2.2-1.7
				c-1.2,0.2-2.3,0.4-3.4,0.5c-1,0.1-2,0.3-3,0.6c-0.2,0-1.1,0.3-1.3,0.3C230.7,56.5,231.1,55.7,231.4,55.7z M234.5,60.2
				c0.3-0.5,0.2-0.5,0.4-1.1c-0.4-0.8-0.3-0.8,0.6-0.9c0.1,0,0.5,0,0.5,0c0.1,0,0.5-0.1,0.5,0c0.1,0.1-0.1,0.3-0.1,0.4
				c-0.3,0.9-0.6,1.6-0.9,2.3c-0.1,0.2-0.3,0.2-0.6,0.3c-0.3,0.1-1.1,0.3-1.1,0.2C234.1,61.2,234.4,60.4,234.5,60.2z"/>
		</g>
	</g>
	<g>
		<path class="st3" d="M164,25.6c0,0.1,0,0.2-0.1,0.4c0,0,0,0.1,0.1,0.2l0,0.1l-0.1,0l-0.2,0c0,0,0,0.1,0,0.1l0,0c0,0,0.1,0,0.2,0
			c0,0,0.1,0,0.1,0.1l0,0v0.1l-0.1,0v-0.1l-0.2-0.1l0,0l0,0l0.1,0.1c-0.1,0-0.1,0-0.2-0.1l0,0c0,0,0,0.1,0,0.1l0,0l0,0
			c0,0,0.1-0.1,0.1-0.1l0,0.1l0,0l0,0c0.1,0,0.1,0,0.2,0l0,0.1l-0.3,0.1c0,0,0,0.1,0.1,0.1c0,0,0,0.1-0.1,0.2
			c-0.1,0.1-0.1,0.2,0,0.3l-0.1-0.1c-0.1,0.1-0.2,0.1-0.3,0.2c-0.1,0.1-0.3,0.1-0.4,0.1c-0.1,0-0.2,0-0.3-0.1
			c-0.1,0-0.2-0.1-0.3-0.1l0,0h0l0-0.1c0,0-0.1,0-0.1,0l0,0c-0.3,0-0.4,0.1-0.4,0.4c0,0,0,0.5,0.1,1.4c0,0.1,0,0.2,0,0.3
			c0,0.1,0,0.2,0,0.3c0,0.1,0,0.3,0,0.7c0,0.3,0,0.5,0,0.7c0,0.3,0,0.7,0.1,1.2c0.1,0.5,0.1,0.9,0.1,1.2c-0.1,0.3-0.3,0.5-0.4,0.5
			c-0.1,0-0.3,0.1-0.7,0.2c0,0-0.2,0.1-0.4,0.2c-0.1,0-0.2,0-0.3,0.1c-0.1,0-0.4,0.2-0.8,0.4c-0.1,0-0.2,0.1-0.3,0.1
			c-0.1,0-0.2,0.1-0.2,0.2l0,0c0,0,0-0.1,0-0.1h0c-0.3,0-0.6,0.1-0.8,0.2l-0.1,0c-0.3,0-0.4,0-0.5,0.1l0,0l-0.2,0.1l-0.1-0.1l-0.3,0
			l0,0l-0.1,0c0,0-0.1,0-0.1,0c-0.1,0-0.1,0-0.1,0c0,0-0.2,0-0.3,0c-0.1,0-0.2,0-0.3,0l0-0.1l-0.1-0.1l-0.3,0.1l0.1-0.1
			c-0.1-0.1-0.3-0.2-0.5-0.3c-0.1-0.1-0.2-0.3-0.2-0.4c-0.1-0.1-0.2-0.2-0.5-0.2c0.2-0.2,0.7-0.6,1.6-1c1-0.5,1.7-1,2.2-1.5
			c0.2-0.1,0.3-0.3,0.5-0.4c0.2-0.1,0.3-0.3,0.3-0.5c0.1-0.5,0.2-1.2,0.3-2.1c0-0.2,0-0.5,0-0.9l-0.1-0.2l-0.5,0.2l0,0.1
			c-0.1,0-0.2,0-0.2,0c-0.1,0.1-0.3,0.1-0.6,0.2c-0.3,0.1-0.5,0.1-0.5,0.2c0,0.2,0,0.4,0,0.8c-0.1,0.6-0.1,1.1-0.1,1.6
			c0,0.1,0,0.2-0.1,0.4l-0.1,0l0,0.1l-0.2,0c-0.1,0.1-0.2,0.2-0.3,0.3l-0.1,0c0,0-0.1-0.1-0.1-0.2l-0.1,0l-0.1,0l-0.1-0.2
			c-0.1,0-0.2,0-0.3,0l-0.6-0.4c-0.2-0.1-0.4-0.5-0.7-1.1c-0.1,0-0.1,0-0.2,0c0,0-0.1,0.2-0.4,0.6c-0.2,0.3-0.5,0.5-0.7,0.5
			c-0.1,0-0.3,0-0.4-0.1c-0.1-0.1-0.2-0.1-0.3-0.2c-0.1,0-0.1,0-0.2-0.1c-0.2-0.1-0.3-0.3-0.4-0.6l-0.1,0h0c-0.3-0.2-0.6-0.8-1-1.8
			c-0.1-0.2-0.1-0.5-0.1-0.9c0-0.1,0.1-0.2,0.3-0.4c0.2-0.2,0.3-0.3,0.3-0.4c0.1,0,0.3-0.1,0.6-0.2c0.3-0.1,0.5-0.2,0.6-0.2
			c0.5-0.1,1.1-0.3,1.9-0.6c0.2-0.1,0.3-0.2,0.4-0.4c0.1-0.2,0.1-0.5,0.1-0.9c0-0.4,0.1-0.7,0.1-0.9c0-0.1,0.1-0.3,0.2-0.4
			c0.1-0.2,0.2-0.3,0.2-0.4c0,0,0,0,0.1,0c0,0,0.1,0,0.1,0h0.1l0.1,0c0.2,0,0.4,0.1,0.7,0.3c0.7,0.4,1.2,1.1,1.5,2.2l0.3-0.1
			c-0.1,0-0.2,0.1-0.3,0.2l0,0c-0.1,0.2-0.1,0.4-0.1,0.7c0,0,0,0.1,0,0.1c0.1,0,0.2,0,0.3,0l0,0.1h0.1c-0.1,0,0.1,0,0.5-0.1
			c-0.1,0-0.2,0-0.3,0L158,26l0,0c0.1,0,0.1,0,0.1,0c0,0,0,0,0,0l0,0l0.4-0.2l0,0c0,0,0,0-0.1,0l-0.1,0l0.1-0.1l-0.2-0.1l-0.1,0l0,0
			l0,0l0,0h0l0.2,0c0-0.1,0.1-0.2,0.3-0.3l0,0c0.1-0.2,0.1-0.3,0.1-0.4c0,0,0-0.1,0-0.1c0,0-0.1,0-0.1,0v0c-0.1,0-0.2,0-0.3,0.1
			c-0.1,0-0.2,0.1-0.3,0.1c0,0-0.1,0-0.1,0c0.2-0.2,0.5-0.3,0.8-0.2c0.1-0.1,0.1-0.2,0.1-0.3l0,0c0,0-0.1,0-0.1-0.1h0
			c0-0.1,0-0.1,0-0.2c0-0.2,0.2-0.4,0.6-0.7h0.2c0.4,0,0.7,0.1,0.9,0.3c0.3,0.3,0.5,0.4,0.6,0.4c0.6-0.2,1-0.3,1.4-0.3
			c0.4,0,0.7,0.1,0.9,0.4l0,0.1c0.2,0.2,0.2,0.4,0.2,0.7l-0.1,0h0l0,0v0.1C163.7,25.2,163.8,25.3,164,25.6z M158.2,28.3l-0.1,0
			c-0.1,0-0.2,0-0.4,0.1c-0.2,0.1-0.4,0.1-0.4,0.1l0.1,0.1c0.1-0.1,0.2-0.1,0.4-0.2C158,28.4,158.1,28.3,158.2,28.3z M157.7,27.1
			h-0.1C157.6,27.1,157.6,27.1,157.7,27.1z M157.8,26.3L157.8,26.3L157.8,26.3L157.8,26.3L157.8,26.3L157.8,26.3
			C157.8,26.3,157.8,26.3,157.8,26.3z M158.4,24.6l-0.5,0.1c0.1-0.1,0.3-0.1,0.4-0.1C158.3,24.5,158.3,24.5,158.4,24.6z M158.7,26.1
			c0,0-0.1-0.1-0.1-0.1c-0.2,0-0.3,0-0.3,0.1l-0.1,0c0,0-0.1,0-0.1,0c0,0-0.1,0.1-0.2,0.2c0.1,0.1,0.1,0.1,0.1,0.1
			c0.1-0.1,0.3-0.1,0.5-0.2c0,0,0.1,0,0.1,0.1l0.1,0C158.7,26.2,158.7,26.1,158.7,26.1z M158.6,28.3L158.6,28.3l-0.1,0
			c-0.1,0-0.1,0-0.1,0l0,0.1h0C158.4,28.3,158.5,28.3,158.6,28.3z M158.9,26.4C158.9,26.4,158.9,26.4,158.9,26.4
			c-0.2-0.1-0.4-0.1-0.5-0.1c0,0-0.1,0-0.1,0c0,0.1,0,0.1,0,0.1c0,0,0.1,0,0.2,0c0.1,0,0.2,0,0.2,0
			C158.7,26.5,158.8,26.5,158.9,26.4z M158.7,25.8L158.7,25.8L158.7,25.8C158.6,25.8,158.6,25.8,158.7,25.8L158.7,25.8L158.7,25.8z
			 M162.2,26.6L162.2,26.6L162.2,26.6L162.2,26.6L162.2,26.6L162.2,26.6z M162.4,26.6c-0.1,0-0.1,0-0.1,0l0,0l0,0l0,0l0,0
			L162.4,26.6C162.4,26.6,162.4,26.6,162.4,26.6z M163.6,26.5l-0.2-0.1l-0.2,0.1l0.1,0l0.1,0v0.1L163.6,26.5z M163.8,27.6l-0.2,0.1
			C163.6,27.6,163.7,27.6,163.8,27.6L163.8,27.6L163.8,27.6z"/>
		<path class="st3" d="M178.5,25.3c-0.2,0-0.3,0-0.3,0.1l0.1,0.2c-0.2,0-0.3,0.1-0.3,0.2c-0.1,0.1-0.1,0.3-0.1,0.4
			c0,0.1-0.1,0.2-0.3,0.5c0,0,0,0.1,0,0.1c0,0,0,0,0,0l0,0l0,0.1l-0.1,0.2c-0.1,0.1-0.2,0.3-0.3,0.8l0.1-0.1l-0.1,0.3H177l0,0
			c0,0,0,0.1,0,0.2c0,0,0,0.1-0.1,0.1c0,0,0,0.1,0.1,0.1l0.1-0.1H177c0,0,0,0,0,0c0,0,0,0.1,0,0.1c0,0,0,0.1,0,0.1h0c0,0,0,0,0,0
			c0,0,0,0,0.1,0c0,0,0,0.2,0,0.5c0,0.1,0,0.2-0.1,0.2l0,0.2c0,0.1,0,0.4-0.1,1.1c0,0.4-0.1,0.9-0.2,1.5c-0.1,0.6-0.3,1.1-0.5,1.4
			c-0.1,0.1-0.3,0.3-0.6,0.5c-0.2,0.2-0.5,0.3-0.7,0.5c-0.2,0.2-0.5,0.3-0.7,0.5c-0.3,0.2-0.5,0.3-0.7,0.4l-0.1,0l-0.1,0.1
			c-0.1-0.1-0.2-0.2-0.4-0.3c-0.3-0.1-0.5-0.1-0.5-0.1c-0.2-0.2-0.6-0.4-1.1-0.7c-0.2,0-0.4-0.1-0.7-0.3h0.2l-0.1-0.2l0-0.1l0-0.1
			c0,0-0.1,0-0.1,0c0,0,0-0.1,0-0.1l-0.1,0h0l0,0.1c-0.1-0.1-0.2-0.2-0.4-0.2c-0.2-0.1-0.3-0.1-0.4-0.2c-0.1-0.1-0.2-0.2-0.3-0.5
			c-0.1-0.2-0.3-0.3-0.5-0.3l0.2,0l-0.3-0.2v-0.1l0.1,0c0,0,0-0.1,0-0.1l0,0l0,0l0.1,0c0,0,0-0.1,0.1-0.1c0.5,0,1.2,0,1.9,0.2
			c0.2,0,0.5,0,0.9,0c0.4,0,0.7,0,0.9-0.1c0.1-0.1,0.3-0.2,0.5-0.4c0.1,0,0.2-0.1,0.4-0.2c0.2-0.1,0.5-0.4,0.8-0.8
			c0.3-0.4,0.6-1.2,0.9-2.4c0.3-1.3,0.5-2,0.7-2.2c0,0-0.1,0-0.1-0.1c-0.1,0-0.1,0-0.1,0l0,0l-0.1,0c-0.1-0.1-0.1-0.1-0.2-0.1
			l-0.1,0.1l0.1-0.1l-0.1-0.1l0.1-0.1l0.3,0c0.1,0,0.2-0.1,0.4-0.1c0,0-0.1,0-0.2,0c-0.1,0-0.2,0-0.2,0h0l0,0l0,0l-0.1,0l0,0
			c0,0,0.1,0,0.3,0c0.2,0,0.3,0,0.2,0c0.2,0,0.2,0,0.2,0v0l0,0l0,0l0,0c-0.2-0.1-0.4-0.1-0.5-0.1c-0.1,0-0.2,0-0.2,0v0l0,0l0,0
			c-0.2,0.1-0.3,0.1-0.5,0.1l0,0c0,0,0,0-0.1,0c-0.1,0-0.1,0-0.2,0c-0.2,0-0.3,0.1-0.4,0.2l0.1,0.1c-0.1,0-0.2,0.1-0.6,0.1
			c-0.1,0-0.2,0-0.2,0.1l0.1,0c0,0,0.1,0,0.1,0c0,0,0,0,0.1,0h-0.1l0,0h0.3l0,0c-0.1,0-0.1,0-0.1,0c0-0.1,0.2-0.1,0.5-0.1h0.2v0
			l0,0.1l-0.1,0c-0.2,0-0.6,0-1.1,0.1l-0.1-0.1c-0.1,0.1-0.2,0.1-0.3,0.2l0,0c0,0,0.1,0,0.1,0c0,0,0.1,0,0.1,0c0.1,0,0.1,0,0.1,0
			l0,0v0l0,0l0.1,0c0,0,0,0,0.1,0c0,0,0,0,0.1,0v0c0,0,0,0,0.1,0c0,0,0,0,0,0l0.1,0c0,0,0,0,0,0l0.5,0c-0.1,0-0.2,0-0.3,0
			c0,0-0.1,0-0.1,0.1c0.1,0,0.1,0,0.3,0.1c0,0,0.1-0.1,0.1-0.1h0l0.2,0l-0.3,0.1l0.2,0l0,0h0l-0.1,0c0,0,0,0,0,0l0,0
			c-0.1,0-0.2,0-0.3,0s-0.1,0-0.2,0h-0.1l-0.4,0.1c-0.1,0-0.1,0-0.2,0c-0.1,0-0.2,0.1-0.4,0.2c-0.1,0.1-0.3,0.2-0.4,0.3
			c-0.1,0.1-0.2,0.1-0.4,0.2c-0.1,0.1-0.3,0.1-0.5,0.2c-0.2,0-0.4,0.1-0.4,0.1c-0.2,0.1-0.2,0.5-0.2,1.1c0,0.1,0,0.2,0.1,0.3
			c0.1,0.2,0.1,0.3,0.1,0.3h0h0h0l0,0.1l0,0v0.1l0.1,0.1l0,0c0,0,0,0-0.1,0l0,0v0v0v0h0c0,0.1,0,0.1,0,0.2c0,0-0.1,0-0.1,0
			c-0.1,0-0.1,0-0.2-0.1l-0.1,0l0,0l0.1,0.1v0c0,0,0,0.1,0,0.1l-0.2-0.1l-0.1,0.1l-0.2-0.1l-0.1,0.1l-0.3-0.1c0,0.1-0.2,0.1-0.4,0.1
			c0,0-0.1,0.1-0.1,0.1l-0.2-0.1c-0.3,0.1-0.4,0.1-0.4,0.1l-0.1,0.1c-0.2-0.1-0.5-0.2-0.9-0.3c-0.3-0.1-0.5-0.1-0.8-0.2
			c-0.4-0.1-0.6-0.2-0.6-0.4l0,0h0l0,0h0l0,0h0c-0.1-0.1-0.1-0.5-0.1-1.1c0-1.8,0.1-2.9,0.3-3.4c0,0,0.1,0,0.1,0c0,0,0.2,0,0.3-0.1
			c0.2-0.1,0.3-0.1,0.4-0.1c0.1,0,0.1,0,0.2,0c0,0,0.1,0,0.1,0c0.3,0,0.5,0,0.8,0c0.1,0,0.2,0,0.5,0.1c0.2,0,0.4,0.1,0.5,0.1
			c0.2,0,0.5,0,1-0.1c0.4-0.1,0.8-0.1,1-0.1l0.3,0c-0.1,0.1-0.4,0.1-0.6,0.2c0,0,0.1,0.1,0.2,0.1c0.1-0.1,0.3-0.1,0.7-0.1
			c0.1,0,0.3,0,0.5-0.1c0.2-0.1,0.4-0.1,0.5-0.1c0,0,0.2,0,0.6,0.1c-0.1,0.1-0.2,0.1-0.4,0.1c-0.2,0-0.3,0.1-0.4,0.1l0.2,0.1
			c0.2-0.1,0.5-0.1,0.8-0.1c0.3,0,0.6,0,0.8-0.1l0.2,0l0,0l0,0l0.2,0l0.1-0.1l0,0h-0.1c0,0-0.1,0.1-0.2,0.1l0.2-0.2
			c-0.1,0-0.1,0-0.1,0c0,0-0.1,0-0.2,0c-0.1,0-0.1,0-0.2,0l0.4,0v-0.1h0c0,0-0.1,0-0.1,0c0.1,0,0.1,0,0.2-0.1
			c-0.2-0.1-0.3-0.1-0.5,0c0.3-0.2,1-0.2,2.1-0.2c0.5,0,0.7,0.2,0.8,0.6c0,0.1,0.1,0.2,0.1,0.4c0,0.2,0.1,0.3,0.1,0.5
			C178.3,25,178.4,25.2,178.5,25.3z M172.9,23.9c-0.1,0-0.3,0-0.5,0.1l-0.1,0c0.1-0.1,0.2-0.1,0.4-0.1H172.9L172.9,23.9z
			 M172.9,25.8C172.9,25.7,172.9,25.7,172.9,25.8c-0.1,0-0.1,0-0.2,0l0,0C172.8,25.8,172.8,25.8,172.9,25.8z M173.4,25.7
			C173.4,25.7,173.3,25.7,173.4,25.7l-0.1,0l0,0v-0.1l-0.3,0.1l0,0c0,0,0.1,0,0.1,0C173.2,25.8,173.3,25.8,173.4,25.7z M174.4,23.7
			c-0.1,0-0.4,0-0.6,0.1c0.1-0.1,0.2-0.1,0.3-0.1h0.1L174.4,23.7z M174.4,25.8L174.4,25.8l-0.1,0v0L174.4,25.8
			C174.3,25.8,174.3,25.8,174.4,25.8z M174.5,24C174.4,24,174.4,24,174.5,24h-0.2l0,0L174.5,24L174.5,24L174.5,24z M174.9,25.1
			c0,0-0.1,0-0.2,0C174.7,25.1,174.8,25.1,174.9,25.1C174.9,25.1,174.9,25.1,174.9,25.1z M175,23.9L175,23.9l-0.2,0
			C174.8,23.9,174.8,23.9,175,23.9C174.9,23.9,175,23.9,175,23.9z M175.1,25.4L175.1,25.4c-0.1,0.1-0.1,0.1-0.2,0.1l0,0
			c0,0,0-0.1,0-0.1L175.1,25.4L175.1,25.4z M175,25.7L175,25.7L175,25.7L175,25.7L175,25.7L175,25.7L175,25.7z M175.4,25.3l-0.4,0.1
			c0.1-0.1,0.2-0.1,0.2-0.1C175.3,25.2,175.3,25.2,175.4,25.3z M175.2,25.1l-0.2,0L175.2,25.1L175.2,25.1z M175.4,25.7
			c-0.1,0-0.1,0-0.2,0l0,0l0-0.1C175.3,25.7,175.3,25.7,175.4,25.7z M175.8,25.1l-0.3,0C175.6,25.1,175.7,25.1,175.8,25.1z
			 M175.9,25.4c-0.1,0-0.1,0-0.2,0l0.1,0H175.9z M175.9,25.6L175.9,25.6L175.9,25.6l-0.1,0C175.8,25.7,175.8,25.7,175.9,25.6
			L175.9,25.6L175.9,25.6z M176.7,23.6c-0.1,0-0.1,0-0.2,0c-0.2,0-0.4,0-0.5,0.1H176v0l0,0l0,0c0,0-0.1,0-0.1,0l0.1,0
			C176.1,23.7,176.4,23.6,176.7,23.6z M176.3,25.6L176.3,25.6l-0.3,0.1l0.2,0L176.3,25.6z M177,23.6c-0.2,0-0.3,0-0.2,0h-0.1
			c0,0-0.1,0-0.1,0.1l0.2,0l0.1,0C176.9,23.7,176.9,23.7,177,23.6L177,23.6z M177,28.7L177,28.7L177,28.7L177,28.7L177,28.7z
			 M177.1,28.2l-0.1,0.1l0,0L177.1,28.2C177,28.2,177,28.2,177.1,28.2l0-0.1C177.1,28.1,177.1,28.2,177.1,28.2z"/>
		<path class="st3" d="M181.1,27.8c0.1,0,0.2,0,0.4,0.1c0.2,0,0.3,0.1,0.4,0.1c0.1,0,0.2,0,0.4,0c0.2,0,0.4,0,0.4,0
			c0.1,0,0.3,0,0.7,0.1c0.3,0.1,0.5,0.1,0.6,0.1c0.3,0,0.7-0.1,1.5-0.1c0.2,0,0.4,0,0.7-0.1c0.3,0,0.5-0.1,0.7-0.1
			c0,0-0.1,0.1-0.2,0.1l0,0.1l0,0c0,0,0.1,0,0.1-0.1l0.1,0c-0.1,0-0.3,0.1-0.6,0.1c-0.1,0-0.3,0-0.4,0.1l0,0.1
			c0.3,0,0.6,0.1,1.1,0.1l0.1,0c0,0,0.1,0,0.1,0l0.1,0c-0.1,0.1-0.3,0.1-0.5,0.1c-0.1,0-0.1,0-0.2-0.1c0,0,0,0.1-0.1,0.1
			c0,0-0.1,0-0.1,0.1l-0.1-0.1l0.1-0.1l-0.1,0c-0.1,0-0.1,0-0.2,0.1c-0.1,0-0.1,0.1-0.1,0.1l0,0l0.1,0.1l0.2-0.1
			c-0.1,0-0.4,0.2-0.6,0.3c0,0,0,0,0,0l0,0h0.1c0.1,0,0.2,0,0.5-0.1c0.2,0,0.4-0.1,0.6-0.1h0.3l-0.1,0.2h0.2c0.1,0,0.2,0,0.4,0
			c0.2,0,0.3,0,0.4,0c0.1,0,0.2,0,0.3,0c0.1,0,0.2,0,0.2,0c0.1,0,0.2,0,0.3-0.1c0,0,0.1,0.1,0.1,0.1c0.1,0,0.2-0.1,0.4-0.1l0.1-0.1
			c0.1,0,0.1,0,0.2,0h0.1l0.1,0l0,0.1l0.1,0.1c0.1,0,0.1,0,0.2,0c0.1,0,0.2,0,0.4-0.1c0.2-0.1,0.3-0.1,0.4-0.1s0.2,0,0.3,0
			c0.1,0,0.2,0,0.3,0c0.2,0,0.3,0,0.4-0.1c-0.1,0-0.4-0.1-0.7-0.1c-0.1,0-0.2,0-0.2,0l-0.2,0l0.1-0.1l-0.7-0.1v0l0,0v0l0-0.1h0
			c0.1,0,0.1,0.1,0.2,0.1c0.1,0,0.2,0,0.2,0c0.1,0,0.2,0,0.3,0.1l0,0c0.1,0,0.2,0,0.2,0v0l0-0.1c0.1,0,0.2,0,0.5,0.1
			c0.2,0,0.4,0.1,0.5,0.1c0.3,0,0.5,0,0.4,0c0.1,0,0.2,0,0.4,0.1l0.2-0.2c-0.2,0-0.4-0.1-0.6-0.1c-0.3-0.1-0.4-0.1-0.5-0.1l-0.8,0.1
			c-0.1,0-0.2,0-0.3-0.2V28c0,0,0.1,0,0.1-0.1v0l-0.2,0c0.1,0,0.3-0.1,0.5-0.1h0.2l0,0c0,0.1,0,0.1,0,0.2L191,28l-0.1,0l0.3,0
			c0,0-0.1,0.1-0.2,0.1l0.1,0.1l0.3,0l-0.1-0.1c0.8,0,1.4,0.1,1.8,0.4l0,0.1c0,0-0.1,0.1-0.1,0.1l0,0.1c0.1,0.1,0.2,0.2,0.2,0.5
			c0,0.2,0.1,0.3,0.1,0.4l-0.1,0.1l0.1,0.2l-0.2,0.1l0.1,0l-0.1,0.1v0.2l0.1,0.1l-0.1,0.1l0.1,0.2l-0.1,0l-0.2,0
			c0,0,0.1,0.1,0.2,0.3l0,0.1L193,31l0.1,0.1l-0.1,0l0,0.1l0.1,0.1c-0.1-0.1-0.2-0.1-0.4-0.1l0.1,0l-0.1,0l-0.5,0.3
			c0-0.2,0.1-0.3,0.1-0.2h-0.1c0,0-0.1,0-0.1,0l0,0l0,0v0.1h0l-0.1-0.1v0l0,0.1l0-0.1l0-0.1l0,0h0l0.3,0.1l-0.2-0.1v-0.1l0,0l0.1,0
			l0,0H192c0,0,0,0-0.1,0l-0.1,0.1l0,0.1l-0.2-0.1l-0.1,0.1l-0.1,0l0.1-0.2l-0.1,0h-0.1c0,0-0.1,0-0.1,0.1l0.1-0.1
			c-0.1,0-0.2,0-0.3,0c0,0,0,0.1,0.1,0.1l0.2,0l-0.4,0c0.1,0,0.2,0,0.4-0.1c-0.1,0-0.1-0.1-0.2-0.1c0,0-0.1,0-0.2,0
			c-0.1,0-0.1,0-0.1,0l0,0h0.1l0,0h0.1c-0.1,0-0.1,0-0.3,0.1l-0.1,0l0,0h0c0,0,0.1,0,0.1-0.1l-0.1,0l0,0c0,0-0.1,0-0.2-0.1l-0.3,0
			l-0.1,0.1c0,0,0,0,0.1,0l0,0c0,0-0.1,0-0.1,0l0.3-0.1l-0.2-0.1h-0.1c0,0,0,0.1,0,0.1h-0.2l0-0.1c0,0,0.1,0,0.2,0l0.1-0.1
			c0,0-0.1,0-0.1,0c0,0-0.1,0-0.2,0.1c-0.1,0-0.2,0-0.2,0l0.1,0.1H190l0-0.1v0l-0.1,0c0,0,0,0-0.1,0l0,0c0,0,0.1,0,0.1,0
			c0,0,0.1,0,0.1-0.1c0,0,0.1,0,0.2,0l0,0l-0.1-0.1c0,0-0.1,0-0.1,0l0,0l0-0.1v0l-0.3-0.2c0,0-0.1,0.1-0.1,0.1c0,0-0.1,0.1-0.1,0
			l-0.1,0.1l0.1-0.1l0.1,0.1l0.1-0.2l-0.1,0l0,0.1l0-0.1l-0.1,0c0,0-0.2,0-0.3,0.1c0,0-0.1,0-0.1,0l0-0.1h-0.1c-0.2,0-0.4,0-0.6,0.1
			h0l-0.1,0.1l0-0.1H188l0,0.1l0,0.1l0,0l0.1,0l0.2-0.1v-0.1c0,0.1,0,0.1,0.1,0.1c0,0,0.1,0,0.1,0c-0.8,0-1.3,0-1.6,0.1l0.2,0
			c-0.1,0.1-0.2,0.1-0.3,0.1c0,0,0-0.1,0-0.1c-0.3,0-0.4,0.1-0.4,0.1l0-0.1c0-0.1,0-0.1,0-0.1l-0.1,0.2l-0.1-0.1l-0.1,0.1l-0.1,0
			c0,0-0.3,0-0.8-0.1c-0.3,0.1-0.5,0.1-0.5,0.1c0,0-0.1,0-0.1,0c-0.1,0-0.1,0-0.1,0c-0.1,0-0.2,0-0.3,0.1l-0.1-0.1l-0.1,0
			c0,0,0,0.1-0.1,0.1l0,0c0,0-0.1,0-0.2,0c-0.1,0-0.1,0-0.2,0c0,0-0.1,0-0.1,0l0,0c0,0,0,0,0.1,0.1c-0.2-0.1-0.3-0.1-0.4-0.1
			c-0.2,0-0.4,0.1-0.7,0.2c-0.3,0.2-0.4,0.3-0.5,0.5c0,0-0.1,0.1-0.1,0.1c0,0-0.1-0.1-0.2-0.1c0,0-0.1,0-0.2,0.1c-0.1,0-0.1,0-0.2,0
			c-0.2-0.1-0.3-0.2-0.4-0.4c-0.1-0.2-0.3-0.6-0.6-1.4c-0.3-0.7-0.4-1.2-0.4-1.5c0-0.3,0.1-0.6,0.4-0.8
			C180.5,27.9,180.8,27.8,181.1,27.8z M192.4,31.4C192.4,31.4,192.3,31.4,192.4,31.4c-0.1,0-0.1,0.1-0.2,0.1l0.1,0.1l0.1,0
			C192.4,31.5,192.4,31.4,192.4,31.4z M186.6,31L186.6,31l-0.1,0.1L186.6,31L186.6,31L186.6,31z M187.7,30.9L187.7,30.9
			c-0.2,0-0.3,0-0.4,0c-0.1,0-0.2,0-0.3,0c0.1,0,0.3,0,0.5,0c0,0,0.1,0,0.3,0.1l0-0.1C187.9,30.9,187.8,30.9,187.7,30.9z M188.7,31
			c0,0-0.1,0-0.2,0.1C188.6,31,188.7,31,188.7,31z M189.5,30.9L189.5,30.9l0.1,0.1L189.5,30.9C189.4,31,189.4,30.9,189.5,30.9z
			 M189,30.9C189,30.9,189,31,189,30.9L189,30.9L189,30.9L189,30.9z M190.3,30.9L190.3,30.9L190.3,30.9l0,0.1L190.3,30.9L190.3,30.9
			z M189.2,30.9L189.2,30.9L189.2,30.9L189.2,30.9L189.2,30.9C189.2,30.9,189.2,30.9,189.2,30.9z M187,30.8L187,30.8
			C186.9,30.8,186.9,30.8,187,30.8l-0.1,0.1L187,30.8L187,30.8L187,30.8L187,30.8z M189.4,30.3c-0.3,0-0.8,0-1.4,0
			c-0.3,0-0.5,0.1-0.6,0.1c0.2,0,0.4,0.1,0.6,0.1c0.3,0,0.6,0,1.1,0c0.5,0,0.9,0,1.1,0c-0.1,0-0.1,0-0.2,0l0.1,0l1,0
			c-0.2,0-0.4,0-0.6-0.1C190.2,30.4,189.8,30.4,189.4,30.3z M190.9,30.4c0,0-0.1,0-0.3,0c0.1,0,0.2,0,0.1,0h0.1L190.9,30.4z
			 M190.8,30.2L190.8,30.2L190.8,30.2L190.8,30.2L190.8,30.2l0,0.1l0.1,0L190.8,30.2z M190.4,30.1L190.4,30.1l-0.1,0.1l-0.1,0.1
			l0.3,0v-0.1L190.4,30.1z M188.8,29.7h-0.5c-0.2,0-0.5,0-0.8,0.1l0,0l-0.1,0.1l0,0c0,0,0.1,0,0.2,0c0.1,0,0.1,0,0.2,0
			c0.1,0.1,0.2,0.1,0.2,0.1v0l0-0.1c0,0,0,0-0.1-0.1l0,0c0.5,0,0.8,0,1,0.1c0,0,0-0.1,0-0.1l0,0c0,0,0.1,0,0.3,0.1l-0.2,0
			c0.2,0,0.3,0.1,0.3,0.1c0.1,0,0.1,0,0.3-0.1l-0.2,0.1c0.1,0,0.5-0.1,1.2-0.1l0-0.1l-0.1,0c-0.1,0-0.2,0-0.4,0
			C189.9,29.7,189.4,29.7,188.8,29.7z M190.3,29.1h-0.2c-0.6,0-1,0-1.3,0.1c0,0,0,0,0.1,0.1c0.1,0,0.3,0.1,0.5,0
			c0.1,0,0.2,0.1,0.3,0.1C190,29.3,190.2,29.3,190.3,29.1z M186.6,28.4L186.6,28.4L186.6,28.4l0.1,0.1L186.6,28.4L186.6,28.4z
			 M187.5,28.4L187.5,28.4L187.5,28.4l0,0.1h-0.1v0l0,0l0.1,0C187.4,28.4,187.4,28.4,187.5,28.4C187.4,28.4,187.5,28.4,187.5,28.4z
			 M189.4,28.3c0,0.1-0.1,0.1-0.3,0.2l-0.3-0.1c-0.3,0.1-0.5,0.1-0.6,0.1c-0.1,0-0.2,0.1-0.3,0.1c0,0,0,0-0.2,0l0-0.1
			c0.1,0,0.2,0,0.4,0c0.2,0,0.3,0,0.3,0c0,0,0.1,0.1,0.1,0.1h0.1l0.3-0.1l0.1,0c0,0,0,0,0-0.1H189.4z M191.7,28L191.7,28L191.7,28
			L191.7,28L191.7,28C191.8,28,191.8,28,191.7,28z M188.3,27.8L188.3,27.8l0.1,0.1c0.2,0,0.5-0.1,1-0.1l-0.4,0.1v0h0c0,0,0,0,0,0
			c0,0,0,0,0,0c-0.1,0-0.1,0-0.1,0c0,0,0,0,0.1,0c-0.1,0.1-0.3,0.1-0.5,0.1h-0.2c-0.1,0-0.2,0-0.3,0l-0.1,0
			C187.9,28,188,27.9,188.3,27.8z M187.5,27.8L187.5,27.8c0,0-0.1,0-0.1,0l0.1,0.1c-0.1,0-0.2,0-0.3,0l-0.1,0l0.1,0
			C187.4,27.9,187.5,27.8,187.5,27.8L187.5,27.8z M187,27.9l0.2,0L187,27.9z"/>
		<path class="st2" d="M88.8,32.6L88.8,32.6l-0.1-0.1h0c-0.2,0-0.4,0.2-0.4,0.3c0,0.2-0.1,0.5-0.1,0.8c-0.1,0.3-0.4,0.8-0.8,1.5
			c-0.6,0.9-1.7,1.5-3.3,1.8c-0.2,0-0.6,0.1-1.1,0.1c-0.3,0-0.5,0.1-0.4,0.1c-0.4,0-0.8-0.1-1.4-0.4c-0.7-0.4-1.3-0.8-1.6-1.1
			c-0.4-0.4-0.8-1-1.2-1.7c-0.4-0.8-0.6-1.4-0.6-2c0-0.8,0.2-1.8,0.6-3.2c0.4-1.4,0.8-2.4,1.2-3c0.2-0.2,0.5-0.7,1-1.3
			c0.5-0.5,0.8-1,1-1.3l0-0.2l0,0c0,0,0-0.1,0-0.1l0,0l0.1,0.1l0-0.1l0,0c0,0-0.1-0.1-0.1-0.1l0,0c0-0.1,0-0.2,0.1-0.3h-0.1l-0.1,0
			l0,0l0,0.1l-0.1-0.1l0.1-0.1c0,0,0.1,0,0.2,0.1l0.1,0l0-0.1l0-0.1l0.1,0.1c0.1,0,0.3,0.1,0.6,0.2c0.5-0.1,0.7-0.2,0.8-0.2
			c0.1,0,0.3,0.1,0.8,0.4c0.1,0,0.3,0.1,0.6,0.1c0.3,0.1,0.4,0.2,0.5,0.2c0.2,0,0.5,0.2,0.9,0.5c0.1,0,0.2,0.1,0.4,0.2
			c0.1,0.1,0.1,0.2,0.3,0.4l0,0l0.2,0.3l-0.1,0.1l0.1,0h0.1l0.2,0.4l0-0.1c0-0.1-0.1-0.3-0.2-0.5c-0.1-0.1-0.2-0.3-0.3-0.4
			c-0.1-0.1-0.2-0.3-0.3-0.5c0.1,0,0.2,0.1,0.4,0.2c0.1,0.2,0.3,0.4,0.6,0.7l0,0.1c0,0.1,0,0.1,0.1,0.2c0.1,0.1,0.1,0.3,0.3,0.5
			c0.2,0.2,0.4,0.5,0.6,1c0,0.1,0,0.2,0.1,0.4c0,0.1,0.1,0.2,0.2,0.3l0-0.1h0.1v0c0,0,0,0.1,0,0.1c0,0,0,0.1,0.1,0.2l0,0.1L88.2,27
			c0,0.1-0.1,0.2-0.1,0.5c0,0.1,0,0.1,0,0.2c0,0.1,0,0.2,0,0.2l0.1,0.1l0,0v-0.6c0.1,0.3,0.2,0.6,0.2,0.8c0,0,0,0.1-0.1,0.3
			c0,0.1,0,0.2,0,0.3v0.8l-0.1,0.1l0,0.1c0,0.1,0,0.1,0,0.3c0,0.1,0,0.2,0,0.3c0,0.9,0.1,1.4,0.2,1.6c-0.1,0-0.1,0.1-0.1,0.2
			c0,0.1,0,0.1,0,0.1l0,0l0,0h0l0.1,0.2l0.1-0.1V32.6z M84.9,30c0-0.1,0-0.2,0-0.5c0-0.2,0-0.3,0-0.4l0.1-0.9c0-0.7-0.1-1.3-0.2-1.8
			c-0.7-0.3-1.3,0.9-2.4,2.2c-0.1,0.2-0.3,0.5-0.5,0.8c-0.3,0.3-0.6,0.6-0.7,0.8c-0.3,0.4-0.4,1-0.4,1.5l0,0c0-0.1,0-0.1,0.1-0.1
			l0.1,0c0,0.5-0.1,0.7-0.1,0.7c0,0.2,0.1,0.3,0.2,0.6c0.2,0.3,0.3,0.5,0.4,0.5c0.2,0.1,0.4,0.1,0.6,0.2c0.1-0.1,0.3-0.1,0.6-0.2
			c0.4-0.1,0.6-0.1,0.6-0.1c0.6-0.2,1-0.6,1.3-1.3C84.8,31.3,84.9,30.6,84.9,30z M81.6,22.7L81.6,22.7
			C81.5,22.7,81.5,22.7,81.6,22.7L81.6,22.7L81.6,22.7L81.6,22.7C81.5,22.8,81.5,22.8,81.6,22.7z M88.2,26.8L88.2,26.8
			c-0.1,0-0.1,0-0.1,0.1v0.1c0,0,0,0.1,0,0.1l0-0.1L88.2,26.8L88.2,26.8z M88.2,29.6v-0.3l0-0.1l0,0l0,0L88.2,29.6L88.2,29.6z
			 M88.3,26.9L88.3,26.9l0-0.1h0L88.3,26.9L88.3,26.9z M88.4,27.3C88.4,27.3,88.3,27.3,88.4,27.3C88.3,27.3,88.3,27.3,88.4,27.3
			c-0.1,0-0.1,0-0.2-0.1v-0.1l0,0h0C88.3,27.2,88.3,27.3,88.4,27.3z"/>
		<path class="st2" d="M98.3,32c0,0.2-0.1,0.4-0.3,0.6c-0.2,0.2-0.4,0.3-0.7,0.3c-0.1,0-0.3,0-0.5-0.1l-0.1,0l0,0.1
			c-0.1,0.1-0.1,0.2-0.1,0.6c0,0.1,0,0.3,0.1,0.6c0.1,0.3,0.1,0.5,0.1,0.6c0,0.2,0,0.4-0.1,0.6c-0.1,0.2-0.3,0.4-0.5,0.4
			c-0.1,0-0.3,0-0.5-0.1c-0.2-0.1-0.4-0.2-0.4-0.3c-0.1-0.3-0.3-0.6-0.4-1l0,0c0,0-0.1,0-0.1,0l0,0c0,0,0-0.1,0.1-0.2
			c-0.1-0.3-0.1-0.6,0-0.7c-0.2,0-0.4,0.1-0.6,0.4c-0.1,0.1-0.1,0.3-0.3,0.5c-0.1,0.1-0.1,0.2-0.2,0.3c0,0.1-0.2,0.2-0.4,0.4
			c-0.1,0.1-0.3,0.4-0.6,0.8l0-0.1l-0.2,0.1l0.1-0.2h-0.1l-0.1,0.2l0.1-0.3c-0.1,0-0.1,0.1-0.2,0.1l0-0.1l0,0h0l0,0v0h0h0l0,0l0,0v0
			c0,0,0,0,0,0c0,0,0,0,0,0c0,0-0.1,0.1-0.2,0.2v0c0-0.2,0.1-0.3,0.2-0.4l-0.2-0.2c0-0.2,0.1-0.4,0.2-0.5c0.1-0.1,0.3-0.3,0.6-0.5
			c0.2-0.2,0.5-0.6,0.9-1c0.2-0.3,0.5-0.7,0.9-1.2c-0.2,0-0.5-0.1-0.7-0.1c-0.1,0-0.2,0-0.3,0c-0.1,0-0.2,0-0.2,0
			c-0.3,0-0.6,0.1-0.8,0.3c-0.2,0.2-0.5,0.4-0.7,0.5c-0.4,0-0.7-0.5-1-1.5c-0.2-0.8-0.4-1.5-0.4-2c0-0.2,0-0.3,0-0.3
			c0,0,0.1,0,0.5,0l0-0.1l0-0.1c0-0.1,0.1-0.2,0.2-0.2c0.1,0,0.2,0,0.3-0.1l0.5,0.1c0.2,0,0.4,0,0.8,0c0.3,0,0.6,0,0.8,0
			c0.3,0,0.6,0,1,0c-0.1,0-0.1,0.1-0.2,0.1l-0.2,0c0,0-0.1,0-0.1,0c-0.1,0-0.1,0-0.2,0.1c0.1,0.1,0.2,0.1,0.3,0.1c0.2,0,0.3,0,0.3,0
			l0,0l0,0l0,0l0,0l0.1,0.1l0.3-0.1c-0.1,0.1-0.1,0.1-0.1,0.2l0,0.1c0,0,0,0.1,0.1,0.1l0,0l0,0.1H95c0,0-0.1,0-0.1,0l0,0
			c0,0.1,0.1,0.2,0.2,0.2l0.1,0h0.1h0v0c0,0,0.1,0,0.1,0l0-0.2l0,0c0,0,0,0-0.1,0l0.2-0.1l0,0c0,0-0.1,0-0.1,0l0,0l0-0.2l0.1-0.3
			c0,0,0,0-0.1,0c0,0-0.1,0-0.2,0c0.1-0.1,0.1-0.1,0.2-0.1c0,0,0.1,0,0.1,0V28l-0.1,0c0,0-0.2,0-0.4,0c0.1,0,0.3,0,0.5,0
			c0-0.1,0.1-0.3,0.1-0.5l0-0.1h0h0l0,0.1c0,0,0-0.1,0-0.1l0,0l0,0c-0.1,0-0.1,0-0.2,0c-0.1,0-0.1,0-0.2,0v0l0-0.1l-0.6-0.2l0-0.1
			c0,0,0,0,0.1-0.1c-0.1-0.1-0.2-0.2-0.4-0.3c-0.1-0.1-0.2-0.1-0.3-0.2l0,0c-0.1-0.1-0.2-0.2-0.3-0.2c-0.2,0-0.3-0.1-0.4-0.1
			c-0.1-0.1-0.3-0.2-0.5-0.3l0-0.1c0,0,0-0.1,0.1-0.1l-0.2-0.1l0.1-0.1l0,0c0,0,0,0,0.1,0.1c0.1-0.2,0.2-0.3,0.3-0.4
			c0.2,0,0.3,0,0.3,0c0.1-0.1,0.4-0.2,0.6-0.4c0.3-0.2,0.5-0.3,0.6-0.4c0.4-0.2,0.6-0.3,0.6-0.3c0,0,0.1-0.1,0.1-0.1
			c0.4-0.2,0.6-0.3,0.7-0.3c0.2,0.2,0.4,0.4,0.6,0.7c0,0.1,0.1,0.2,0.1,0.2c0,0.1,0.1,0.1,0.2,0.2c0.4,0.6,0.5,1,0.6,1.1
			c0.1,0.3,0.2,0.7,0.2,1.2c0,0.2-0.1,0.3-0.3,0.3c-0.1,0-0.2,0-0.5,0c-0.1,0-0.1,0-0.2,0.1v0.1c0,0,0,0,0,0l0,0l0,0l0,0
			c0,0.1,0,0.1,0,0.2l0,0c0,0,0,0.1,0,0.1l0,0l0.1,0c0.1,0,0.2-0.1,0.3-0.1c0.1,0,0.1,0,0.2,0l0.1,0.1c-0.1,0-0.1,0-0.2,0
			c-0.1,0-0.2,0-0.2,0.1c0.1,0,0.3,0,0.5,0.1c0,0.4,0,0.6,0.1,0.7c-0.1,0-0.1,0.1-0.2,0.2h0.1c-0.2,0-0.4,0-0.6,0.1
			c0.1,0,0.2,0.1,0.3,0.1c0.2,0,0.3,0,0.4,0.1c-0.1,0-0.1,0.1-0.2,0.1c0,0,0,0.1,0,0.1l0,0c0,0,0.1,0,0.2,0c0,0,0.1,0,0.1,0.1
			l-0.1,0c0,0-0.1,0-0.2,0l0,0l-0.1-0.1c-0.1,0.1-0.3,0.1-0.5,0.2L96.6,30h0.1l-0.1,0.1c0.1,0.1,0.2,0.1,0.4,0.2l-0.2,0l0,0h-0.1
			l-0.1,0l0,0c0,0,0,0.1-0.1,0.2c0,0,0,0.1,0.1,0.1c0.4,0,0.8,0.2,1.4,0.7C98.2,31.5,98.3,31.7,98.3,32z M93.8,24.8
			c-0.1,0-0.2,0.1-0.3,0.2L93.8,24.8z M94.3,31.3c0-0.1-0.1-0.1-0.2-0.1c-0.1,0-0.2,0.1-0.4,0.1c0,0,0,0,0,0.1l0,0
			C93.9,31.4,94.1,31.4,94.3,31.3z M94.4,31.3L94.4,31.3L94.4,31.3L94.4,31.3L94.4,31.3L94.4,31.3C94.3,31.3,94.4,31.3,94.4,31.3z
			 M94.8,31.3C94.8,31.2,94.8,31.2,94.8,31.3c-0.1,0-0.1,0-0.1,0l-0.1,0c0,0-0.1-0.1-0.1-0.1l0,0l-0.1,0.1c0,0,0.1,0,0.2,0
			C94.7,31.3,94.8,31.3,94.8,31.3z M94.8,28h-0.2l0,0L94.8,28z M94.9,31.2L94.9,31.2L94.9,31.2L94.9,31.2
			C94.8,31.2,94.9,31.2,94.9,31.2z M95,28.3L95,28.3l-0.1,0L95,28.3L95,28.3L95,28.3z M97.3,27.9L97.3,27.9L97.3,27.9L97.3,27.9
			L97.3,27.9L97.3,27.9z M104.8,32c0,0.2-0.1,0.4-0.2,0.4c-0.1,0.1-0.3,0.1-0.4,0.2c-0.1,0.1-0.3,0.3-0.6,0.4l-0.2,0
			c-0.1,0-0.1,0-0.2,0l-0.1,0c-0.2,0.1-0.5,0.3-0.7,0.6c-0.2,0.3-0.4,0.4-0.5,0.4c-0.2,0-0.3,0.1-0.5,0.2l0,0.1
			c-0.1,0-0.2,0.1-0.3,0.1c-0.1,0.1-0.3,0.2-0.5,0.3l-0.1,0.1l0,0.1l-0.1,0c0,0.1-0.1,0.1-0.2,0.2l0,0c0,0,0,0.1,0,0.1
			c-0.1,0-0.2,0.2-0.3,0.4v0.1L99.7,36l0.1,0c-0.2,0.1-0.3,0.2-0.3,0.4c0,0.1-0.1,0.3-0.2,0.4c-0.1,0.1-0.3,0.2-0.4,0.2h0
			c-0.1-0.1-0.2-0.2-0.3-0.4c-0.1-0.2-0.2-0.3-0.4-0.3c-0.1-0.1-0.2-0.3-0.3-0.6c0-0.2-0.1-0.5-0.2-0.9c0-0.1-0.1-0.1-0.1-0.2
			c0,0,0-0.1,0-0.1c0-0.1,0-0.1,0-0.2c0-0.2,0.1-0.2,0.2-0.2l0.1,0.1c0-0.2,0.2-0.3,0.4-0.3c0-0.2,0.1-0.3,0.2-0.4
			c0,0,0.3-0.2,0.7-0.5c0.4-0.3,0.7-0.5,0.7-0.5c0.1-0.1,0.2-0.3,0.4-0.4c0,0-0.3-0.2-0.8-0.7c0,0-0.2-0.2-0.4-0.5
			c-0.1-0.1-0.2-0.1-0.3-0.1l0,0c0,0,0,0,0-0.1c-0.1,0-0.2,0-0.2,0.1c-0.1,0.1-0.1,0.1-0.2,0.1l0.1-0.1l0,0l0,0c0,0,0,0,0,0
			c0,0,0.2-0.2,0.6-0.5c0,0,0-0.1,0-0.1c0-0.1,0.1-0.2,0.3-0.3c0.2-0.1,0.3-0.2,0.4-0.4c0.1-0.2,0.1-0.6,0.2-1c0-0.5,0.1-0.9,0.1-1
			c-0.1-0.5-0.2-0.9-0.2-1c0-0.1,0-0.2,0-0.4c0-0.2,0-0.3,0-0.4c0-0.7,0-1.3,0.1-1.5c0.1-0.5,0.3-1,0.5-1.5c0,0,0.1,0,0.1,0
			c0.1,0,0.2,0.1,0.5,0.3v0.1c0,0.1,0.1,0.2,0.3,0.4c0.1,0.1,0.3,0.2,0.4,0.4c0.1,0.2,0.3,0.4,0.4,0.7c0.1,0.3,0.2,0.4,0.2,0.5
			l-0.1,0c0.1,0.2,0.1,0.6,0.1,1.1c0,0.1,0,0.4,0,0.7c0,0.3,0,0.5,0,0.7c0,0.1,0,0.3,0.1,0.6c0,0.3,0.1,0.5,0.1,0.6
			c0,0.2,0,0.4,0.1,0.6c0,0,0,0.1,0,0.1c0,0.1,0,0.2,0.1,0.3c0,0,0.1-0.1,0.2-0.1l0.1,0l0.2-0.2c0.1-0.1,0.1-0.1,0.2-0.1h0.1
			c0.1,0.3,0.3,0.5,0.6,0.5c0,0.1,0.2,0.4,0.7,1C104.7,31.3,104.8,31.7,104.8,32z M99.2,26.6c-0.1,0.2-0.3,0.6-0.5,1.4
			c0,0.1-0.2,0.4-0.4,0.9c-0.2,0.4-0.3,0.7-0.3,1.1l0-0.1l0,0c0,0,0,0,0,0l-0.1-0.1l0.1-0.6c0-0.1,0-0.1,0-0.2c0-0.1,0-0.2,0-0.3
			c0-0.1,0-0.4,0-0.9c0-0.3,0-0.5,0.1-0.6c-0.1-0.1-0.1-0.3-0.1-0.4c0-0.9,0.3-1.4,0.8-1.4c0.1,0.1,0.2,0.3,0.3,0.6
			C99,26,99,26.2,99.2,26.6z M100.3,34.9L100.3,34.9L100.3,34.9c-0.1-0.1-0.1-0.1-0.1,0L100.3,34.9L100.3,34.9L100.3,34.9z
			 M100.4,35L100.4,35L100.4,35l-0.1-0.1v0c0,0,0,0,0,0H100.4z M100.7,34.2L100.7,34.2L100.7,34.2L100.7,34.2L100.7,34.2z
			 M105.2,27.7c0,0,0,0.1-0.1,0.3c-0.1,0.3-0.1,0.6-0.2,1c-0.1,0.3-0.4,0.5-0.7,0.5c-0.2,0-0.5-0.1-0.7-0.2
			c-0.3-0.2-0.5-0.3-0.5-0.5c0,0,0,0,0.1-0.1h-0.1c-0.1-0.1-0.1-0.2-0.1-0.4c0-0.1,0-0.2,0.1-0.3h-0.1c0-0.1,0-0.3,0-0.4
			c0-0.2,0-0.3,0-0.4c0-0.1,0-0.2-0.1-0.3c0-0.1-0.1-0.2-0.1-0.3c0-0.1,0-0.1,0-0.2s0-0.2,0-0.2c0.1-0.1,0.2-0.3,0.4-0.4
			c0.1-0.1,0.3-0.2,0.5-0.2c0.1,0,0.2,0,0.4,0.1c0.2,0.1,0.3,0.1,0.4,0.1c0.1,0,0.2,0,0.3-0.1c0.1,0.1,0.2,0.3,0.3,0.5
			c0,0.2,0.1,0.5,0.2,1c0.1,0.1,0.1,0.2,0.1,0.3C105.2,27.3,105.2,27.5,105.2,27.7C105.2,27.7,105.2,27.7,105.2,27.7z"/>
		<path class="st3" d="M118.9,29.1c-0.2,0.2-0.4,0.7-0.6,1.5l0.2-0.2c0,0.1-0.1,0.3-0.2,0.5c-0.1,0.1-0.2,0.4-0.2,0.8
			c0,0.1-0.1,0.4-0.3,0.9l0.1,0.1c-0.2,0-0.3,0.2-0.3,0.5l0.1,0v0.1c-0.1,0.1-0.4,0.2-0.7,0.4l-0.1-0.1l0.1-0.1c0,0,0,0-0.1-0.1
			c-0.3,0-0.5,0.1-0.5,0.2c-0.1,0.1-0.1,0.1-0.1,0.2c0,0.1,0,0.1,0,0.1l0,0h0.1l0.1,0v0l-0.1,0.1l0,0c-0.2,0.1-0.6,0.3-1,0.5
			c-0.1,0-0.1,0.1-0.2,0.1c0,0,0,0.1,0,0.1l-0.4,0.1l0,0h-0.1c0,0-0.2,0.1-0.4,0.2c-0.2,0-0.4,0.1-0.6,0.2c-0.1,0.1-0.2,0.1-0.3,0.2
			c-0.1,0.1-0.4,0.2-0.6,0.4c-0.2,0.2-0.5,0.4-0.7,0.7c-0.2,0.2-0.5,0.3-0.9,0.3c-0.1,0-0.5-0.2-0.9-0.5c-0.5-0.3-0.8-0.5-0.9-0.7
			c-0.1-0.1-0.3-0.4-0.5-0.6c-0.1-0.1-0.2-0.2-0.3-0.3c-0.1-0.1-0.1-0.2-0.1-0.3c0-0.2,0.1-0.6,0.3-1.3c0.2-0.8,0.3-1.2,0.3-1.4
			c0.2-1.2,0.3-2,0.3-2.6c0-0.7,0-1,0-1.1c0-0.1,0-0.2,0.1-0.5c0-0.2,0-0.4,0-0.5c0-0.3,0-0.7-0.1-1.2c-0.1-0.5-0.1-0.9-0.1-1.2
			c0-0.7,0.1-1.3,0.3-1.5l0.3,0c0.8,0,1.6,0.2,2.4,0.7c0.8,0.5,1.3,1.1,1.5,1.9c0,0.1-0.1,0.3-0.3,0.5c-0.2,0.3-0.3,0.5-0.4,0.5
			c0,0.2-0.1,0.5-0.2,0.9c-0.2,0.3-0.4,0.7-0.7,1.3c0,0.1-0.1,0.3-0.1,0.4c0,0.1-0.1,0.3-0.2,0.3l0.1,0.1c0,0.2-0.1,0.3-0.1,0.5
			c0,0.2-0.1,0.3-0.3,0.4l-0.1-0.1c-0.1,0-0.2,0.1-0.3,0.3c-0.1,0.2-0.2,0.3-0.2,0.4l0,0.1c0,0,0.1,0,0.1,0l0,0.1c0,0-0.1,0-0.1,0
			l-0.1,0.1l-0.3,0.7l0.1,0v0.1l0.1,0c0,0,0-0.1,0-0.1l0.1,0c-0.2,0.3-0.3,0.6-0.3,0.6c0-0.1,0.1-0.1,0.2-0.2l0,0c0,0,0,0,0.1,0l0,0
			c0,0,0.1,0,0.2-0.1c0.1-0.1,0.1-0.1,0.2-0.2l0.1,0c0.1-0.1,0.3-0.2,0.7-0.3h0c0,0,0,0,0,0.1l0,0.1c0,0,0-0.1,0.1-0.1
			c0.1,0,0.3-0.1,0.5-0.2c0.1-0.1,0.3-0.2,0.6-0.4l-0.3,0.2h0.1c0,0,0,0,0.1,0l0,0l-0.1,0.4l0,0.1c0,0,0.2-0.1,0.6-0.2
			c0.4-0.1,0.6-0.2,0.6-0.2c0,0,0.1,0,0.2,0c0.1,0,0.2-0.1,0.3-0.2v0c0,0,0,0-0.1,0l0.2,0c0,0,0,0,0,0c0,0,0,0,0,0
			c0.2-0.2,0.4-0.4,0.4-0.6h-0.2l-0.1-0.1h-0.1c-0.1,0-0.2,0-0.4,0.1l0.2-0.1c0,0-0.1-0.1-0.1-0.1l-0.1,0l0,0c0-0.1,0.1-0.1,0.3-0.2
			c0.1,0,0.2-0.1,0.3-0.1c0,0,0.1-0.2,0.2-0.4c0-0.1,0.2-0.2,0.4-0.4c0.1-0.2,0.3-0.4,0.5-0.7c0.1-0.1,0.2-0.2,0.4-0.4v0l0,0.1l0,0
			l0.4-0.4c0,0,0-0.1-0.1-0.1l-0.1,0l0,0.1l0,0.1c0-0.2,0.1-0.4,0.4-0.6l0,0v0h0v0v0c0,0,0.1-0.1,0.2-0.2v0.1
			c-0.1,0-0.1,0.1-0.2,0.1c0,0,0,0.1,0,0.1c0,0.2-0.2,0.4-0.5,0.7c-0.3,0.3-0.4,0.6-0.4,1c0.1-0.2,0.2-0.4,0.5-0.6l-0.1,0.2v0.1
			c0,0.1,0,0.1,0.1,0.1c0.4-0.4,0.7-0.6,1-0.8c-0.1,0-0.2,0-0.3,0l0.3-0.2l0.1,0.1l0.1-0.2h-0.1c0.2-0.1,0.4-0.3,0.5-0.6v-0.1h0l0,0
			c-0.2,0.1-0.3,0.3-0.3,0.3c0,0,0.1-0.1,0.1-0.3l0-0.1l0.4-0.2l0-0.1l0.1,0.1l0,0l0.1-0.2l0.1-0.1l0.1,0c0,0.1-0.1,0.2-0.2,0.4
			c0.1-0.1,0.2-0.2,0.3-0.2l0,0l-0.2,0.1h0v0l0,0l0.1,0l0.1,0c0,0.1,0,0.2,0,0.3c0,0,0.1,0.1,0.1,0.1l-0.1,0.4l0,0.1c0,0,0,0-0.1,0
			c0,0,0,0,0,0c-0.1,0.1-0.1,0.2-0.2,0.4h0.1C118.5,28.9,118.7,29,118.9,29.1z M110.8,31.4l-0.1-0.1l0,0v0
			C110.6,31.4,110.7,31.4,110.8,31.4L110.8,31.4L110.8,31.4z M114.6,31.2L114.6,31.2c-0.1,0-0.1,0.1-0.2,0.1l0,0.1c0,0,0-0.1,0-0.1
			h0c0,0,0,0,0.1,0C114.5,31.2,114.5,31.2,114.6,31.2L114.6,31.2z M115.9,34.1h-0.2l0,0l0,0l0,0L115.9,34.1z M116.6,28.5
			c0,0.1-0.1,0.1-0.2,0.3L116.6,28.5L116.6,28.5z M116.8,27.8C116.8,27.8,116.8,27.8,116.8,27.8L116.8,27.8c-0.1,0-0.1,0-0.1,0.1h0
			L116.8,27.8L116.8,27.8z M117.6,27l-0.2,0.3l-0.1,0C117.3,27.1,117.4,27,117.6,27L117.6,27z M118.3,27.7L118.3,27.7
			c-0.1,0-0.1,0-0.1,0l-0.1,0.2h0.1C118.1,27.8,118.2,27.7,118.3,27.7z M118.6,28.8C118.6,28.8,118.6,28.8,118.6,28.8L118.6,28.8
			l0-0.1h0v0V28.8L118.6,28.8L118.6,28.8L118.6,28.8z"/>
		<g>
			<path class="st3" d="M134.2,29.8C134.2,29.8,134.2,29.8,134.2,29.8C134.2,29.9,134.2,29.9,134.2,29.8c-0.1,0.1,0,0.1-0.1,0.2
				c0,0-0.2,0-0.2,0c0.1,0.1,0.2,0.1,0.3,0.2c-0.1,0-0.4,0.1-0.5,0.2c0,0,0.3,0.1,0.3,0.1c-0.2,0.1-0.1,0-0.4,0.1
				c-0.3,0.1-1,0.3-1.4,0.4c-0.4,0-0.9,0.1-1.3,0.3c0.4,0,0.7-0.1,1.1-0.1c0,0,0,0.1,0,0.1c-0.5,0-0.9,0.1-1.3,0.2
				c-0.1,0-0.3,0.1-0.4,0.2c-0.1,0.1-0.3,0.2-0.4,0.2c-0.1,0-0.1,0-0.1,0c0.1,0,0.2-0.1,0.3-0.1c-0.1,0-0.1-0.1-0.3-0.1
				c-0.1,0-0.3,0-0.5,0.1c-0.2,0-0.4,0.1-0.6,0.1c-0.2,0-0.3,0-0.4,0.1c0.2,0,0.4,0,0.6,0c-0.1,0-0.5,0.1-0.5,0.1
				c-0.2,0-0.5,0.2-0.5,0.2c-0.1,0,0.4-0.2,0.5-0.2c0,0-0.1,0-0.2,0c-0.3,0-0.5,0.1-0.5,0.4c0,0.1,0,0.2,0,0.2c0,0,0.1,0,0.1,0
				c-0.1,0.1-0.2,0.1-0.2,0.2c0,0.1-0.1,0.4,0,0.5c0,0,0.3,0,0.4,0c0.1,0,0.3,0,0.4,0c0.1,0,0.3,0,0.4,0c0.6,0,1.1,0,1.8-0.1
				c0.1,0,0.4-0.1,0.5-0.2c0.2-0.1,0.6-0.2,0.9-0.2c0.1,0,0.2-0.1,0.3,0.1c0.1,0.2,0.2,0.6,0.4,0.9c0.1,0.2,0.4,0.7,0.6,1
				c0,0-0.1,0.1-0.1,0.2c0,0.1,0,0.4,0.1,0.5c0,0.1,0.1,0.4,0.1,0.5c0,0.4,0,0.7-0.4,0.7c-0.1,0-0.1,0-0.2,0c-0.1,0-0.1,0-0.2,0
				c-0.1,0,0,0.1-0.1,0.1c-1-0.1-2-0.2-3.1-0.3c-0.1,0-0.3,0-0.5-0.1c-0.2,0-0.3,0-0.6-0.1c-0.3,0-0.5,0.2-0.9,0.2
				c-0.4,0-0.9-0.5-1.1-0.9s-0.4-0.9-0.4-1.5c0-0.1,0-0.4,0.1-0.5c0-0.1,0.1-0.4,0.1-0.5s-0.1,0-0.2,0c-0.1,0-0.2,0.1-0.2,0.1
				c0,0,0-0.1,0.1-0.1c0.1,0,0.2,0,0.3-0.1c0.1,0,0.2-0.1,0.2-0.2c0-0.1,0-0.1,0-0.1c0,0-0.1,0-0.1,0c0,0,0,0,0,0c0,0,0,0,0,0
				c0,0,0,0,0,0c0,0,0,0,0,0c0,0-0.1,0-0.1,0c0,0-0.1,0-0.1,0.1c0,0,0,0,0,0.1c0,0,0.1,0,0.1,0.1c0,0-0.2,0.1-0.3,0.2
				c-0.1,0-0.2,0.1-0.3,0.2c-0.1,0-0.1,0-0.1,0c0,0,0,0-0.1,0c0,0,0,0.1,0,0.1c0,0,0,0,0,0c0,0,0,0,0,0c-0.2,0.3-0.9,0.4-1.1,0.6
				c-0.2,0.2-0.4,0.6-0.6,0.5c-0.8-0.1-1.2-0.8-1.5-1.5c-0.3-0.7-0.5-1.4-0.6-2.1c0-0.1,0-0.1,0-0.2c0.1-0.1,0.2-0.1,0.3-0.2
				c0.1-0.1,0-0.2,0.2-0.2c0.2,0,0.3,0,0.6,0c0.4,0,0.9-0.1,1.5-0.3c0.6-0.1,1.8-0.3,2.5-0.4c0.1-0.2,0.1-0.4,0.1-0.6
				c0-0.2,0.1-0.5,0.2-0.7c0,0,0-0.1-0.1-0.1c-0.1,0,0,0-0.2,0c-0.2,0-0.4,0.2-0.7,0.1c-0.2,0-0.5-0.2-0.8-0.5
				c-0.2-0.2-0.6-0.6-0.7-1c-0.1-0.4-0.2-0.8-0.3-1.2c-0.1-0.4-0.4-0.8-0.5-1.2c0.2-0.7,0.6-0.8,1.4-0.9c1,0,2.1,0.1,3.1,0.3
				c0,0,0,0.1,0,0.1c0.2,0.3,0.8,0.4,1.1,0.4c0.3,0.1,1,0.2,1,0.3c0.4,0.1,0.8,0.4,1,0.4s0.1-0.1,0.1-0.1c0.1,0,0,0.1,0,0.1
				c0,0,0.1,0,0.1,0c0,0,0,0,0-0.1c0,0-0.1,0-0.1,0c0,0,0,0,0,0c0,0,0,0.1,0,0.1c0,0,0.1-0.1,0.1-0.1c0-0.1-0.2-0.3-0.3-0.3
				c-0.1,0-0.3-0.1-0.4-0.1c0-0.1,0,0,0-0.1c0,0,0,0,0,0c0,0,0,0,0,0c0,0,0,0,0.1,0c0.4,0.2,0.6,0.2,0.8,0.8
				c0.1,0.2,0.2,0.9,0.2,1.1c0,0-0.1,0.2-0.1,0.2s0,0.1,0,0.2c0,0.1,0.1,0.3,0.1,0.4c0,0.1-0.1,0.1-0.1,0.2c0,0.1,0.1,0.1,0.1,0.2
				c0,0.1-0.1,0-0.1,0s-0.2,0-0.2,0s-0.1,0-0.1,0c0,0.1,0.2,0.2,0.2,0.2c0,0.1-0.1,0.2-0.1,0.2c0,0-0.1-0.1-0.1,0s0,0.1,0,0.1
				c0,0,0,0.1,0,0.1c0,0,0.1,0,0.1,0c0,0-0.1,0,0,0.1c0,0,0.1,0.1,0.1,0.1c0,0,0,0.1,0,0.1c-0.1,0-0.3,0-0.3,0s0,0,0,0.1
				c0,0,0,0,0,0.1c0,0,0,0,0,0c0,0-0.1-0.1-0.1,0s0,0,0,0.1c0,0,0.1,0.1,0.1,0.2c0,0,0,0,0,0c0,0-0.1,0-0.1,0.1c0,0,0,0,0.1,0
				c0.1,0,0.4-0.1,0.5-0.1c0.1,0,0.5-0.1,0.5-0.1c0-0.1-0.1,0-0.1,0c0,0,0,0.1,0.1,0c0.1,0,0.4-0.2,0.6-0.2c0.2,0,0.4-0.2,0.7-0.2
				s0.5,0.4,0.6,0.6c0,0,0,0.1-0.1,0.1c-0.1,0-0.2-0.2-0.2-0.3c-0.1,0-0.3,0-0.4,0c0,0,0,0,0,0.1c0,0.1,0.1,0.2,0.2,0.2
				c0.1,0,0-0.1,0.1-0.1c0.1,0,0.1,0,0.2,0c0.1,0.1,0.2,0.4,0.3,0.5c-0.1,0.1-0.1,0.1-0.2,0.1c0,0,0,0.1,0,0.1c0,0-0.1,0-0.1,0
				c0.2,0.1,0.3,0.3,0.5,0.4c-0.1,0.1-0.2,0.1-0.3,0.2c0,0,0,0,0,0c0,0,0.1-0.1,0.1-0.1s0.1,0,0.1,0s0-0.1,0.1-0.1
				C134.1,29.7,134.1,29.7,134.2,29.8C134.1,29.7,134.2,29.8,134.2,29.8C134.2,29.8,134.2,29.8,134.2,29.8z M125.3,32.8
				C125.3,32.8,125.3,32.8,125.3,32.8C125.3,32.8,125.3,32.8,125.3,32.8C125.2,32.8,125.2,32.9,125.3,32.8
				C125.2,32.9,125.3,32.8,125.3,32.8C125.3,32.8,125.3,32.8,125.3,32.8z M130.9,28.4c0,0-0.2-0.1-0.2-0.1c-0.1,0-0.2,0.1-0.2,0.1
				c-0.5-0.1-1.5-0.3-1.9-0.4c-0.3,0-0.1,0-0.2,0c-0.1,0,0.1,0,0,0c0,0,0,0,0,0c-0.1-0.1-0.3-0.1-0.4-0.1c-0.1,0-0.2,0.1-0.2,0.3
				s0,0.6,0.1,0.8c0.2-0.1,0.6-0.2,0.8-0.2c0.2,0,0.1,0,0.2,0s0.1,0,0.1,0c0,0,0.2,0,0.3,0c0,0,0.3-0.1,0.4-0.1c0.1,0,0.2,0,0.2,0
				c0.1,0,0.2-0.1,0.2,0c0.1,0-0.1,0,0.1,0.1C130.3,28.7,130.7,28.5,130.9,28.4z M128.5,32.2c0,0.1-0.3,0.1-0.4,0
				c0.1,0,0.2-0.1,0.3-0.1C128.4,32.2,128.5,32.2,128.5,32.2z M133.5,30.4c-0.1,0-0.1-0.1-0.2,0c-0.1,0-0.3,0.2-0.3,0.1
				c-0.1,0,0.1-0.1,0-0.1c0,0,0,0-0.1,0c-0.1,0-0.3,0.1-0.4,0.1c-0.1,0-0.1,0-0.1,0c0,0,0-0.1-0.1-0.1c0,0-0.1,0.1-0.1,0.1
				c0,0,0-0.1,0-0.1c-0.1,0-0.3,0.1-0.4,0.1c-0.1,0,0,0-0.1,0c-0.3,0-0.7,0.2-1,0.3c-0.3,0-0.7,0.1-0.8,0.2c-0.1,0,0.1-0.2,0-0.2
				c-0.1,0-0.1,0-0.1,0c0,0,0.1,0.1,0,0.1c0,0-0.1,0-0.1,0c0,0,0,0.1-0.1,0.1c0,0-0.1-0.1-0.1-0.1c0,0-0.1,0-0.1,0c0,0,0,0-0.1,0
				c0,0,0,0-0.1,0c-0.1,0-0.3,0-0.4,0.1c0,0,0,0,0,0c0,0,0.1,0,0.2,0c0,0-0.4,0.1-0.4,0s-0.9,0.2-0.4,0.1c0.5-0.1,2.3-0.6,3.2-0.3
				c0,0,0.1,0,0.1,0c0,0,0,0,0,0c0,0,0.1,0,0.1,0c0,0,0,0,0,0c0,0-0.1,0-0.1,0C132.2,30.7,132.8,30.6,133.5,30.4z M132.8,28.4
				C132.8,28.4,132.8,28.4,132.8,28.4c0-0.1,0-0.1,0-0.1c0,0-0.2,0-0.3,0c-0.1,0-0.1,0-0.2,0s-0.1-0.1-0.1,0c0,0-0.2,0.1-0.3,0.1
				c-0.1,0-0.1,0-0.2,0c-0.1,0-0.4,0.1-0.5,0.1c-0.2,0.1-0.4,0.1-0.5,0.2c-0.2,0-0.4,0-0.5,0c-0.1,0-0.1,0.1-0.2,0.1
				c-0.1,0-0.1,0-0.3,0.1c-0.1,0.1-0.2,0.2-0.4,0.2c-0.2,0-0.7,0-1,0.2c0,0,0,0.1-0.1,0.1c0.8-0.1,1.6-0.1,2.4-0.2
				c0,0,0,0.1-0.1,0.1c-0.2,0.1-0.6,0.2-0.6,0.4c0,0.1,0.1,0.2,0.3,0.1c0.2-0.1,0.9-0.3,1.3-0.3c0.4-0.1,0.9-0.2,1.1-0.6
				c0,0-0.1,0-0.1-0.1c0,0,0,0,0,0c0,0,0-0.2,0-0.3c0,0,0,0,0,0c0,0,0,0,0,0C132.6,28.4,132.7,28.3,132.8,28.4
				C132.7,28.4,132.7,28.4,132.8,28.4z M130.8,31.2c-0.6,0-1.2,0.1-1.7,0.4c0,0,0.1,0,0.1,0C129.8,31.5,130.4,31.4,130.8,31.2z
				 M129.2,32C129.2,32,129.1,32.1,129.2,32C129.1,32.1,129.1,32,129.2,32C129.1,32,129.2,32,129.2,32z M129.7,31.7
				c-0.1,0-0.4,0.1-0.4,0.1c0,0,0.3-0.1,0.3-0.1S129.7,31.7,129.7,31.7z M129.6,32c0,0-0.2,0.1-0.2,0.1c0,0,0-0.1,0-0.1
				c0,0,0,0,0.1,0C129.4,32,129.6,32,129.6,32z M129.9,24C129.9,24,129.8,24.1,129.9,24c-0.1,0.1-0.2,0-0.3,0
				C129.7,24,129.8,24,129.9,24z M130,31.9c0,0.1-0.3,0.1-0.3,0.1C129.7,31.9,129.9,31.9,130,31.9C130,31.9,130,31.8,130,31.9z
				 M130.6,31.8C130.6,31.8,130.6,31.8,130.6,31.8c-0.1,0.1-0.1,0-0.1,0c0,0-0.3,0.1-0.4,0.1c0,0,0.2-0.1,0.2-0.1s0,0,0.1,0
				c0,0,0.1,0,0.1,0C130.4,31.8,130.5,31.8,130.6,31.8C130.5,31.8,130.5,31.8,130.6,31.8C130.5,31.8,130.6,31.8,130.6,31.8z
				 M130.8,30.2c0,0-0.1,0-0.2,0c0,0,0,0,0-0.1c0,0,0,0,0-0.1c0,0-0.2,0-0.2,0c-0.1,0-0.2,0.1-0.1,0.1c0,0.1,0.1,0,0.1,0
				c0,0,0,0,0.1,0C130.5,30.3,130.8,30.3,130.8,30.2z M130.6,24.7c0,0-0.1-0.1-0.1-0.1c0,0,0,0-0.1,0c0,0,0,0,0,0c0,0,0,0,0,0
				C130.5,24.7,130.6,24.7,130.6,24.7C130.6,24.7,130.6,24.7,130.6,24.7z M130.6,30.5c0,0-0.1,0-0.2,0c0,0,0,0,0,0
				C130.5,30.5,130.6,30.5,130.6,30.5z M131.1,30.2c0-0.1-0.2,0-0.2,0c0,0,0,0,0,0c0,0,0,0,0,0c0,0,0,0,0.1,0.1
				C131,30.3,131.1,30.3,131.1,30.2z M132,31.7c-0.2,0-0.3,0-0.5,0c-0.2,0-0.3,0-0.5,0C131.4,31.7,131.7,31.7,132,31.7z M131.3,30.2
				C131.3,30.2,131.3,30.1,131.3,30.2C131.3,30.1,131.3,30.1,131.3,30.2C131.3,30.1,131.2,30.1,131.3,30.2
				C131.2,30.1,131.2,30.1,131.3,30.2C131.2,30.2,131.3,30.2,131.3,30.2z M133,29.7C133.1,29.7,133,29.7,133,29.7
				c-0.1,0-0.3,0.1-0.3,0.1s-0.1-0.1-0.1-0.1c0,0-0.1,0.1-0.1,0.1c0,0,0,0,0-0.1c0,0,0,0,0,0c0,0,0.1,0,0.1,0c0,0,0,0,0,0
				c-0.1,0-0.2,0-0.2,0c0,0,0,0.1,0,0.1c0,0-0.1,0-0.1-0.1c0,0,0,0,0,0c0,0,0,0.1,0,0.1c0,0,0.1,0,0,0c0,0-0.1,0.1-0.1,0.1
				c-0.1,0-0.5,0.1-0.4,0.1c0,0,0.6-0.1,0.7-0.1C132.5,29.9,132.9,29.8,133,29.7z M131.9,30.1c0,0-0.1,0-0.1,0c0,0,0,0,0,0
				c0,0,0,0,0,0c0,0,0,0,0.1,0C131.8,30.2,131.8,30.1,131.9,30.1z M133.1,30.7c0,0-0.1,0-0.2-0.1c-0.1,0-0.3,0-0.4,0.1
				c-0.1,0-0.3,0-0.4,0c-0.1,0,0,0,0,0c0,0,0,0,0,0c0,0,0,0,0,0c0,0-0.1,0-0.1,0c0,0-0.1,0,0,0c0,0,0.1,0.1,0.2,0
				c0.1,0,0.2,0,0.3-0.1c0.1,0,0.2-0.1,0.3-0.1C132.8,30.8,133.1,30.7,133.1,30.7z M132.8,31.4c0,0.1-0.3,0.2-0.4,0.1
				c-0.1,0-0.2,0.1-0.2,0.1c0-0.1,0.3-0.2,0.4-0.2c0.1,0,0,0,0.1,0C132.7,31.4,132.8,31.4,132.8,31.4z M132.5,31
				c0,0-0.2,0.2-0.2,0.1c-0.1-0.1,0-0.1,0-0.1c0,0-0.1,0-0.1,0C132.3,31.1,132.5,31.1,132.5,31z M132.6,28.2
				C132.6,28.2,132.5,28.1,132.6,28.2c-0.1-0.1-0.1-0.1-0.1-0.1C132.5,28.2,132.5,28.2,132.6,28.2C132.6,28.2,132.6,28.2,132.6,28.2
				z M133,31c0,0-0.2,0.1-0.2,0.1C132.8,31,132.9,30.9,133,31C133,30.9,133,31,133,31z M133.6,30.8c0,0-0.2,0.1-0.2,0.1
				c0,0-0.2,0.1-0.2,0c0-0.1,0.2-0.2,0.3-0.2C133.5,30.8,133.6,30.8,133.6,30.8z M133.5,31.3c0,0-0.1,0.1-0.2,0.1c0,0,0-0.1,0-0.1
				C133.4,31.3,133.5,31.3,133.5,31.3C133.5,31.3,133.5,31.3,133.5,31.3z M133.7,30C133.7,30,133.7,30,133.7,30
				C133.7,30,133.7,30,133.7,30C133.7,30,133.7,30,133.7,30c0,0.1,0,0.1,0,0.1C133.7,30.1,133.7,30,133.7,30z M134.2,30.6
				c-0.1,0-0.2,0.1-0.3,0.2c-0.1,0-0.1,0-0.2,0c0.1-0.1,0.2-0.2,0.3-0.3c0,0,0,0,0,0.1c0,0,0,0,0,0c0,0,0,0.1,0,0.1c0,0,0,0,0,0
				c0,0,0,0,0.1,0C134.1,30.7,134.2,30.7,134.2,30.6z M134,31.1c0.1,0-0.3,0.1-0.3,0.1c0,0-0.1,0-0.1,0c0-0.1,0.2-0.1,0.2-0.1
				C134,31.1,134,31.1,134,31.1z M133.9,30.6C133.9,30.6,133.9,30.6,133.9,30.6c-0.1,0-0.1,0-0.1,0c0,0,0,0,0,0
				C133.8,30.7,133.9,30.7,133.9,30.6C133.9,30.7,133.9,30.7,133.9,30.6z"/>
		</g>
		<path class="st3" d="M141.9,26c0,0.5-0.2,1-0.6,1.6c-0.4,0.1-0.6,0.2-0.6,0.2l-0.2-0.1c-0.2,0-0.3,0.1-0.5,0.4
			c-0.2,0.2-0.4,0.3-0.7,0.3c-0.3,0-0.7-0.1-1.2-0.3H138c-0.4-0.3-0.7-0.6-1.1-0.9c-0.4-0.4-0.7-0.7-0.9-1c0.1-0.1,0.2-0.3,0.2-0.6
			c0-0.4,0.2-0.6,0.6-0.8c0.2-0.1,0.5-0.2,1.1-0.3v0.2l0.1,0c0,0,0.1-0.1,0.1-0.2c0,0,0.1,0,0.1,0c0.1-0.1,0.3-0.2,0.5-0.3l0,0
			c0.1,0,0.2,0,0.2,0l-0.2-0.1c0-0.1,0.1-0.1,0.4-0.1l0-0.1l0,0h0l0,0c0,0-0.1,0-0.1,0c-0.1,0-0.2,0-0.3,0.1
			c-0.1,0.1-0.2,0.1-0.3,0.1c0-0.1,0.2-0.2,0.5-0.2c0.3-0.1,0.5-0.1,0.6-0.2c-0.1,0-0.1,0-0.2,0c-0.1,0-0.3,0.1-0.4,0.2
			c0.1-0.1,0.3-0.2,0.7-0.2c0.4,0,0.8,0.2,1.3,0.6c0.5,0.4,0.8,0.7,1.1,1.1C141.9,25.4,141.9,25.7,141.9,26z M148.4,27.4
			c0,0-0.1,0.1-0.1,0.1c0,0.1-0.1,0.1,0,0.2c0,0-0.1,0.1-0.2,0.3c-0.3,0.1-0.6,0.4-1,0.7l0,0.1l0.3-0.2c-0.2,0.2-0.3,0.3-0.5,0.4
			l-0.1,0.1h0c0,0,0,0,0.1,0l0,0c-0.1,0-0.1,0-0.1,0.1c0,0-0.1,0.1-0.2,0.1c-0.1,0.2-0.3,0.3-0.5,0.5l-0.1,0
			c-0.1,0.2-0.2,0.3-0.5,0.4v0.1c0,0-0.1,0.1-0.1,0.1v0.1l-0.2,0c-0.1,0-0.1,0.1-0.3,0.1l-0.2,0.1c-0.1,0.1-0.1,0.1-0.1,0.2h0h0h0
			l0,0.1c-0.1,0.1-0.4,0.2-0.7,0.5c-0.1,0-0.2,0.1-0.3,0.2l0,0.1l0,0.1h0.1c0.2-0.3,0.7-0.7,1.3-1.2l-0.1,0c0,0-0.1,0-0.1,0l0,0h0.2
			c0.2-0.1,0.6-0.4,1.1-0.9c0.1-0.2,0.4-0.4,0.7-0.7c0.1,0,0.2-0.1,0.4-0.3l0.2,0l-0.1,0.2v0c-0.1,0.2-0.3,0.3-0.5,0.4l0,0.1
			c-0.1,0.1-0.2,0.2-0.5,0.4c-0.3,0.2-0.5,0.3-0.5,0.4v0.1c-0.1,0-0.2,0-0.4,0.1l0,0.1c-0.2,0-0.4,0.1-0.7,0.3
			c-0.3,0.2-0.5,0.4-0.5,0.6c0,0,0,0,0,0c0.1,0,0.1,0,0.2-0.1c0.1-0.1,0.1-0.1,0.2-0.2l0.1,0l-0.1,0l0.3-0.1
			c-0.2,0.1-0.5,0.3-0.9,0.7l0.1,0c0,0,0.1-0.1,0.2-0.1c0,0,0,0,0,0.1v0c-0.3,0.1-0.6,0.2-0.8,0.4c-0.3,0.2-0.4,0.5-0.4,0.8
			c0,0,0.1-0.1,0.3-0.2c-0.1,0.2-0.3,0.5-0.6,0.7c-0.4,0.3-0.6,0.6-0.7,0.7c-0.4,0.6-0.7,1-1,1.3c-0.1,0.1-0.2,0.3-0.4,0.6
			c-0.1,0.1-0.2,0.2-0.3,0.2l-0.3-0.2l-0.1,0c0,0,0,0-0.1-0.1l-0.1,0l-0.1,0c-0.1-0.1-0.2-0.2-0.3-0.2c-0.2-0.1-0.3-0.1-0.3-0.2
			c-0.3-0.3-0.5-0.6-0.8-0.9c-0.1-0.2-0.3-0.5-0.6-0.8v-0.1c0-0.2,0.1-0.5,0.2-0.7c0.2-0.3,0.9-1,2.1-2.1c1.2-1.2,2-1.8,2.3-2
			c-0.1,0.1-0.2,0.2-0.4,0.3c-0.2,0.2-0.2,0.3-0.3,0.4l0,0v0l0,0l0.1,0c-0.2,0.1-0.4,0.3-0.6,0.4c-0.3,0.2-0.4,0.3-0.5,0.5l0.1,0.1
			c0.2-0.1,0.7-0.5,1.6-1.3c0.8-0.6,1.3-1,1.5-1.1l0,0c-0.1,0-0.1,0.1-0.1,0.1l0,0c0,0,0.4-0.2,1-0.6l0,0l-0.1,0l-0.1-0.1l0,0.1
			l-0.2,0.1l0.3-0.3c-0.1,0-0.1,0-0.2,0.1c-0.1,0-0.1,0.1-0.1,0.1l0.1-0.3l-0.1,0.1c0-0.1,0.1-0.1,0.1-0.1h0.1l0.2-0.2l0,0
			c0,0,0,0,0,0l0,0c0-0.1,0.1-0.2,0.2-0.2l0,0c0,0-0.1,0,0,0l-0.1,0c0,0.1-0.1,0.1-0.1,0.2l0,0l0,0l-0.1-0.1c-0.1,0-0.2,0.1-0.2,0.1
			c-0.1,0-0.1,0.1-0.2,0.2l0-0.1c-0.1,0-0.1,0.1-0.2,0.1c-0.1,0-0.1,0.1-0.2,0.2c-0.1,0.1-0.3,0.2-0.4,0.2c0,0,0,0.1-0.1,0.1
			c-0.1,0.1-0.3,0.2-0.5,0.4c0.2-0.3,0.6-0.6,1.2-1.1c0.5-0.4,1-0.7,1.3-1c-0.2,0.1-0.3,0.2-0.5,0.4l0.1,0l0.1,0v0.1
			c0-0.1,0.1-0.1,0.2-0.1l0,0c0,0-0.1,0.1-0.3,0.2v0c0,0,0,0,0,0.1c0.3-0.1,0.8-0.4,1.4-0.8c0.1-0.1,0.2-0.2,0.3-0.4
			c0.1,0,0.1,0,0.1-0.1c0,0,0.1,0,0.1,0c0.1,0.1,0.2,0.1,0.4,0.2h0.3v0.2l-0.3,0.3h0.1l0,0.1h0.3c0,0-0.1,0-0.1,0l0,0.2
			c0,0,0,0.1-0.1,0.1l0,0h0c0,0,0,0,0.1,0c0,0,0.1,0,0.1,0l0,0l0.1-0.1l0,0l0.1,0.1H148.4z M138,24.2l-0.1,0.1L138,24.2L138,24.2z
			 M139.3,23.5l-0.3,0.1l0,0L139.3,23.5L139.3,23.5z M140.8,30.5h-0.1l-0.1,0c0,0-0.1,0.1-0.1,0.1v0c0,0,0,0,0.1,0L140.8,30.5z
			 M141.2,30.3L141.2,30.3l-0.2,0.1L141.2,30.3z M141.2,30.5c-0.1,0-0.1,0.1-0.3,0.1l0.1,0C141.1,30.6,141.2,30.6,141.2,30.5
			L141.2,30.5z M141.3,31l-0.1,0.2h0C141.2,31.1,141.3,31.1,141.3,31z M141.6,30.2c-0.1,0.1-0.1,0.2-0.1,0.3v-0.3H141.6z
			 M143.1,29.6v-0.1l-0.1,0.1H143.1z M143.5,29.1h-0.1H143.5l-0.1-0.1c-0.1,0-0.2,0.2-0.3,0.4C143.2,29.5,143.3,29.3,143.5,29.1z
			 M143.5,28.5l-0.2,0.2C143.3,28.7,143.4,28.6,143.5,28.5L143.5,28.5z M143.7,28.9L143.7,28.9L143.7,28.9l-0.1,0l0,0l0,0
			C143.7,28.9,143.7,28.9,143.7,28.9z M143.7,30.4l-0.2,0.1h0C143.7,30.5,143.7,30.5,143.7,30.4z M144,32.3c0,0.1,0,0.1,0,0.2l0,0
			c0,0-0.1,0.1-0.1,0.1v-0.1h0.2C143.9,32.4,143.9,32.3,144,32.3C143.9,32.3,143.9,32.3,144,32.3L144,32.3z M143.9,30.2L143.9,30.2
			l-0.1,0L143.9,30.2l0,0.1L143.9,30.2z M144.1,31.2L144.1,31.2C144,31.2,144,31.2,144.1,31.2h-0.1H144.1
			C144,31.2,144.1,31.2,144.1,31.2z M144.7,31.8c0,0.1-0.1,0.1-0.3,0.2c-0.2,0.1-0.3,0.2-0.3,0.3l-0.1-0.1l0.1,0l0,0
			c0-0.1,0.1-0.1,0.2-0.2C144.4,31.9,144.5,31.9,144.7,31.8L144.7,31.8C144.6,31.8,144.7,31.8,144.7,31.8z M144.2,30L144.2,30
			L144.2,30l-0.1,0v0C144.1,30.1,144.2,30.1,144.2,30z M144.1,30.1C144.1,30.1,144.1,30.1,144.1,30.1L144.1,30.1L144.1,30.1
			C144.1,30.1,144.1,30.1,144.1,30.1C144.1,30.1,144.1,30.1,144.1,30.1z M146.5,29.4L146.5,29.4c-0.1,0-0.1-0.1-0.1-0.1h0l-0.1,0.1
			l0-0.1l-0.1,0.1l0.1-0.1h-0.1l-0.1,0.1H146v0.1c-0.1,0.1-0.2,0.2-0.3,0.3l0,0l0,0c-0.1,0-0.2,0.1-0.3,0.1c0,0,0,0.1,0,0.1l0.2-0.1
			l0,0.1c-0.1,0-0.2,0.1-0.3,0.2c-0.3,0-0.5,0.2-0.8,0.6l0.1-0.1l-0.3,0.3c0.1,0,0.2-0.2,0.4-0.3c0.2-0.2,0.3-0.2,0.4-0.2h0h0
			c0-0.1,0-0.1,0-0.2l0,0c0.1,0,0.1,0,0.3-0.1v0l0,0l0,0v0c0-0.2,0.2-0.3,0.4-0.3l0,0l0,0c0.1,0,0.2-0.1,0.3-0.1c0,0,0-0.1,0-0.1
			c0,0,0,0-0.1,0.1h-0.1C146.2,29.6,146.3,29.4,146.5,29.4z M144.6,31.5L144.6,31.5h-0.1v0L144.6,31.5L144.6,31.5L144.6,31.5z
			 M144.9,27.3L144.9,27.3h-0.1H144.9z M145.1,30.4L145.1,30.4L145.1,30.4l0-0.1c0,0-0.1,0.1-0.1,0.1l0-0.1L145.1,30.4L145.1,30.4
			l-0.1,0L145.1,30.4C145,30.4,145.1,30.4,145.1,30.4z M145.1,30.5l-0.2,0v0h0C145,30.6,145,30.6,145.1,30.5L145.1,30.5z M145.4,29
			L145.4,29c-0.1,0-0.2,0.1-0.3,0.2c0,0,0,0,0,0C145.2,29.3,145.3,29.2,145.4,29z M145.4,30.6L145.4,30.6L145.4,30.6L145.4,30.6
			L145.4,30.6L145.4,30.6z M146,26.3c-0.1,0-0.2,0.1-0.4,0.2C145.6,26.3,145.8,26.3,146,26.3z M145.9,28.6L145.9,28.6l-0.3,0.2
			L145.9,28.6z M145.9,28.2L145.9,28.2l-0.2,0l0,0l0,0L145.9,28.2L145.9,28.2z M146.6,29.8c-0.5,0.2-0.7,0.4-0.9,0.7L146.6,29.8z
			 M145.9,29c0,0-0.1,0-0.1,0C145.8,29,145.8,29,145.9,29z M146,28L146,28c0,0-0.1,0-0.1,0l0,0.1L146,28z M145.9,28.1L145.9,28.1
			C145.9,28.1,145.9,28.1,145.9,28.1L145.9,28.1z M147,25.7L147,25.7c-0.1,0-0.1,0-0.1,0.1c0,0-0.1,0-0.2,0.1c0,0,0,0,0,0v0
			c-0.2,0.1-0.4,0.2-0.7,0.4c0,0,0.1-0.2,0.4-0.3c0.2-0.2,0.4-0.3,0.4-0.3l0.1,0L147,25.7L147,25.7z M147.6,27.4l-0.2,0.2l-0.1,0
			c0,0-0.1,0-0.1-0.1v0c0,0-0.1,0.1-0.1,0.1l0,0l0.1,0l-0.1,0c-0.1,0-0.1,0-0.1,0v0l-0.3,0.2l0.1,0v0.1h-0.1c0,0.1-0.2,0.2-0.5,0.3
			c0,0-0.1,0.1-0.1,0.2v0c0,0,0,0,0,0.1c0.2-0.3,0.4-0.4,0.6-0.4C146.9,28,147.2,27.7,147.6,27.4z M146.7,26.7
			c-0.1,0-0.2,0.1-0.3,0.2c-0.1,0.1-0.1,0.2-0.1,0.4c0.1-0.2,0.2-0.2,0.4-0.2L146.7,26.7z M146.7,29.1
			C146.7,29.1,146.7,29.1,146.7,29.1c-0.1,0-0.1,0-0.1,0l0,0.1L146.7,29.1l-0.1-0.1l0,0l0,0l0,0v0.1l-0.2,0.1h0.1h0h0L146.7,29.1z
			 M147.1,27.1L147.1,27.1l-0.2,0.1v0.2h0c0,0-0.1,0.1-0.1,0.1l0.1-0.2c-0.1,0.1-0.2,0.1-0.4,0.2l0,0c0,0,0.1,0,0.1,0l0,0.1
			l-0.1,0.1c0.2-0.1,0.3-0.2,0.5-0.3v-0.2h0.1L147.1,27.1z M146.8,28.4L146.8,28.4L146.8,28.4l-0.1,0v0.1L146.8,28.4z M146.9,28.1
			C146.9,28.1,146.9,28.1,146.9,28.1l-0.2,0c0,0,0,0.1,0,0.2h0.1l0-0.1c0,0-0.1,0-0.1,0h0L146.9,28.1z M147.3,27.9L147.3,27.9
			C147.2,27.9,147.2,27.9,147.3,27.9C147.2,27.9,147.2,27.9,147.3,27.9z M147.4,27.4L147.4,27.4L147.4,27.4l-0.1-0.1l0,0.1v0l0,0
			C147.4,27.5,147.4,27.4,147.4,27.4z M147.6,27.7C147.6,27.7,147.6,27.7,147.6,27.7c0,0-0.1,0-0.1,0l0,0.1v-0.1l0-0.1v0l-0.1,0.1
			l0,0h0.1l0,0l0,0.1C147.4,28,147.4,27.9,147.6,27.7C147.6,27.8,147.6,27.8,147.6,27.7z M148.1,27.5L148.1,27.5L148.1,27.5
			L148.1,27.5C148,27.4,148,27.4,148.1,27.5L148.1,27.5L148.1,27.5h-0.1v0l-0.2,0.2h0l0.1,0l0.1,0L148.1,27.5z"/>
		<g>
			<path class="st3" d="M197.3,32.4c1,0,1.8,0.8,1.8,1.8c0,1-0.8,1.8-1.8,1.8c-1,0-1.8-0.8-1.8-1.8
				C195.5,33.1,196.3,32.4,197.3,32.4z M197.3,35.6c0.8,0,1.4-0.6,1.4-1.4c0-0.8-0.6-1.4-1.4-1.4c-0.8,0-1.4,0.6-1.4,1.4
				C195.9,35,196.6,35.6,197.3,35.6z M196.6,35.1v-1.8c0.2,0,0.4-0.1,0.7-0.1c0.3,0,0.8,0.1,0.8,0.5c0,0.2-0.2,0.4-0.4,0.4v0
				c0.2,0.1,0.3,0.2,0.3,0.4c0.1,0.3,0.1,0.4,0.1,0.4h-0.4c0-0.1-0.1-0.2-0.1-0.4c-0.1-0.3-0.2-0.3-0.6-0.3v0.7H196.6z M197,34.1
				c0.3,0,0.6,0,0.6-0.3c0-0.2-0.1-0.3-0.4-0.3c-0.1,0-0.2,0-0.2,0V34.1z"/>
		</g>
	</g>
</g>
</svg>
