<?xml version="1.0" encoding="utf-8"?>
<!-- Generator: Adobe Illustrator 26.5.0, SVG Export Plug-In . SVG Version: 6.00 Build 0)  -->
<svg version="1.1" id="レイヤー_1" xmlns="http://www.w3.org/2000/svg" xmlns:xlink="http://www.w3.org/1999/xlink" x="0px"
	 y="0px" width="227px" height="215px" viewBox="0 0 227 215" style="enable-background:new 0 0 227 215;" xml:space="preserve">
<style type="text/css">
	.st0{fill:#FFFFFF;}
	.st1{fill:#C5181F;}
</style>
<path class="st0" d="M194.4,110.6c-0.2-0.7-0.3-0.9-0.5-1c-0.3-0.1-0.9,0.6-1.2,0.9c-0.2,0.2-0.7,1.4-1.5,3l-1.2,2.6l-0.9,1.8
	c-0.5,1-1.2,2.1-1.2,2.5c-0.1,0.5-0.2,1.1,0.2,1.3c0.2,0.1,1,0,1.2-0.2C190.9,119.5,194.6,111.6,194.4,110.6z"/>
<path class="st0" d="M225.1,84.4c-2.4-12.1-6.7-23.6-13.3-35c-1.8-2.9-4.2-6.5-7.1-8.9c-0.9-0.7-1.5-1.8-2.1-2.8
	c-0.5-0.9-1.1-1.9-1.9-2.7c-1.5-1.5-2.7-2.1-3.8-2.7c-0.5-0.3-1-0.5-1.5-0.9c-1.8-1.2-3.4-2.4-5-3.7c-2.1-1.6-4.2-3.3-6.9-4.9
	l-3.1-2c-7.4-4.7-13.7-8.7-21.8-11.7l-2.7-1c-2.8-1.1-4.6-1.8-6.8-2c-0.6-0.1-2.9-0.2-5.8-0.3c-4.5-0.4-10.8-0.6-12.4-0.9
	c-1.1-0.2-2.1-0.7-3.1-1.2c-1.4-0.7-2.9-1.4-4.9-1.4h-18c-1.4,0-2.4-0.6-3.4-1.1c-1.1-0.6-2.1-1.2-3.4-0.8l-1,0.3
	c-2.2,0.7-6.3,1.9-10.2,3.6C82.1,6.4,75.2,9.4,70.2,10c-7.1,0.9-10.6,0.6-12.9,0.5c-1.1-0.1-1.9-0.1-2.6-0.1
	c-8.4,1.1-17.9,10-26.8,19.5C15.6,43,8.9,51.9,4.3,67.3c-3.8,12.9-5,29.2-3.3,44.5c1.2,10.3,2.6,20.5,5.9,31
	c0.4,1.1,0.3,1.4,0.2,1.6c-0.1,0.3-0.2,0.5,0,1c0.1,0.4,0.4,0.6,0.6,0.7c0.1,0,0.1,0.1,0.2,0.1c0.9,2.5,2,5,3,7.4
	c0.2,0.4,0.1,0.6,0.1,0.9c-0.1,0.4-0.2,0.8,0.2,1.6c3,6.1,11.1,21.2,20.3,30.9c3.2,3.6,16.4,12.8,22.4,15.7c5.5,2.6,17.7,7.5,25.4,8
	c2.5,0.2,3.1,0,3.4-0.1c-0.9-0.5-1.3-0.3-1.8-0.6c-0.6-0.3-3.4-1.3-4.4-1.5c-11.3-2.9-15.6-5.6-20.1-8.2l-3-1.7
	c-4.8-2.6-9.8-6.2-14.9-10.9c-5.3-4.8-8.1-9.9-8.6-10.8c-1.9-3.6-1.7-4.7-1.6-4.9c0-0.1,0.1-0.2,0.2-0.2c1-0.3,4.2,4,6.1,6.6l1,1.4
	c4.1,5.5,8,8.4,12.9,12c1.6,1.2,3.2,2.4,5,3.7c4.1,3.2,11,6.6,18.2,9.1l2.2,0.8c1.4,0.5,2.6,1,4.5,1.5c4.5,1.1,4.9,0.3,5,0.2
	s-1.2-1.8-1.2-1.9c0-0.1,1.8,1.6,1.8,1.6c7.2,5.9,23.2,7.5,24.4,7.7c1.2,0.1,2.4,0.1,4.1-0.1c-1.7-0.4-3.1-0.8-6.6-2l-3.1-1.2
	c-2.5-0.7-4.4-1.9-6-3.6c3.5,0.6,12.6,1.9,21.2,1.7c12-0.3,26.5-3,38-6.9c14-4.9,26.4-14.1,36.9-27.4c10-12.7,15.4-23.7,20.7-41.8
	c2-7.7,3.1-16.2,3.1-24.6c0-6.1-0.5-12.2-1.6-17.9c-0.1-0.6-0.2-1.2-0.2-2.2c0-1.1-0.1-2.7-0.4-4.9c-0.1-0.9-0.5-1.5-0.7-1.9
	c-0.2-0.3-0.3-0.5-0.4-0.8c0-0.1,0-0.1,0-0.2c0-0.3,0.1-0.5,0.1-0.8c0.1-0.3,0.2-0.7,0.2-1.1c0-0.1,0-0.3,0-0.4
	c-0.5-3.1-1.5-6.5-2.8-10.1c-0.6-1.5-1.4-3.1-2.2-4.7c-1.3-2.6-2.6-5.3-3.1-7.4c2.9,4.2,10.5,16,12.6,26.8
	c1.4,7.4,2.6,21.1,2.6,31.4c0,4.5-0.2,8.3-0.8,10.7c-1.8,7.8-10.5,28.2-13,32.8c-4.8,9.3-12.1,18.5-17.4,25.4
	c-1.6,2.1-4.1,4.9-4.9,6l-1.9,2.1c3.3-0.9,12.7-10.1,16.1-14.5c3.8-4.9,5.3-7.6,7.5-11.6l2.5-4.3c4.1-7,12.7-24.8,14.3-30.5
	C224,126.4,229.2,105.5,225.1,84.4z M206.3,89c0.4,1.2,0.9,2,0.9,3c0,0.3,0.1,1.8,0.1,2.1c-0.1,1.1-0.3,2.1-0.9,2.3
	c-0.7,0.2-1.2-0.2-1.4-1.4c-1.1-1.6-1-1.4-1.7-1.9c-0.6,1.5-0.2,2.7,0.2,3.9c0.4,1.2,1,2.4,1.4,3.3c0.2,0.6,0.2,2.6-0.1,3.9
	c-0.6,1.9-0.7,3.7-0.8,5.8c-0.5,7.9-1.7,15.3-3.5,22.2c-1.7,6.6-4.8,13.4-9.5,20.8c-2,3.2-4,6.2-6.5,9.8c-2.2,3.2-4.2,6-6.7,8.5
	c-4.3,4.2-9.7,7.9-17,11.6c-6.6,3.3-12.7,5.9-18.4,8l-0.2,0.1c-2.5,0.9-5.2,1.8-7.8,2.6c-0.8,0.2-2,0.5-3.1,0.7h-0.1l-2.5,0.4
	l1.7,0.3c1,0.3,2.2,0.1,3.7,0l1.9-0.3c2-0.4,2.7-0.6,5.5-1.5c3-1,6.3-2.2,10.2-3.8l5.3-2.1l2.3-0.9c0.9-0.4,1.9-0.8,2.8-1.2
	c1.3-0.6,2.7-1.2,4-1.6h0.1c0.6-0.2,1.2-0.4,1.5-0.1c0.4,0.5-0.2,1.2-0.4,1.4c-0.4,0.5-1.1,0.9-1.8,1.3c-0.4,0.2-0.8,0.4-1.2,0.7
	c-1.2,0.8-2.3,1.7-3.4,2.5l-0.8,0.6c-2.3,1.8-4.8,3.7-7.3,5.3c-1.1,0.7-2.3,1.4-3.4,2.1c-1.2,0.7-2.5,1.5-3.7,2.3h-0.1
	c-1.1,0.7-2.1,1.4-3.3,1.6c-0.8,0.2-1.5,0.3-2.3,0.4c-0.7,0.1-1.4,0.2-2.1,0.3l-1,0.2l-0.5,0.1c-3.1,0.8-6.4,1.3-9.5,1.8l-1.3,0.2
	l-1.6,0.3c-2.2,0.5-4.7,1-6.4,0c-1.2-0.6-1.7-0.7-3-0.7c-2.1,0.1-3.7,0.1-5.1,0.1c-6.8-0.2-13.4-2.3-19.8-4.3l-0.5-0.2
	c-3.3-1-6.6-2.1-9.8-3.4c-2.8-1.2-5.8-2.7-9.5-4.8c-5.4-3-11.5-6.8-16.5-11.9c9.2,6.9,20.4,12.5,33.2,16.6
	c6.7,2.1,12.8,3.5,18.9,4.1c3.5,0.4,7,0.5,10.5,0.5h0.9c1.9,0,2.9-0.2,4.4-0.5s3.8-1.2,3.8-1.2l-2.3,0.1c-0.4-0.1-0.9-0.1-1.3,0H121
	c-1.5,0-2.8-0.1-4.2-0.1h-1.2c-2.4,0-4.1-0.1-6.5-0.4c-5.6-0.7-11.5-1.9-17.6-3.6c-4.1-1.1-7.8-2.3-11.3-3.7
	c-1.8-0.7-3.5-1.5-5.2-2.3c-1.3-0.6-2.7-1.2-4.1-1.8c-6.1-2.5-11.9-6.2-17.3-11l-0.2-0.2c-2.7-2.4-5.4-4.8-7.7-7.5
	c-2.6-3.1-6.1-5.4-9.5-7.6c0,0-0.8-0.5-1-0.6c4.1-8.9,7-18,9.4-25.6l1.3-4.3l0.3-1.1c0.3-1,0.7-2.2,0.7-3.3l0,0V125
	c0-0.3,0-0.6,0-0.9c0-0.8,0.1-1.6,0.4-2.3c0.5-1,1-2.3,1.4-3.7c1-4,2-8,3-12l1.5-5.8c1.6-6.5,2.6-11.6,3.3-16.6l0.3-2.8
	c0.4-4.3,0.9-8.8,3.6-12.1c1.7,1.8,2.2,4.4,2.6,6.7c0.3,1.5,0.5,3,0.7,4.5c0.3,2.5,0.7,5.1,1.3,7.6c0.6,2.7,1.3,5.2,1.3,8
	c0,0.3,0,0.5,0,0.8l-0.2,3.3c-0.1,1.9-0.2,3.8-0.3,5.7v0.6h0.6c2.3-0.1,4.1-1.3,5.9-2.5c0.6-0.4,1.2-0.8,1.8-1.2
	c1.4-0.8,3-1.2,4.5-1.7l1-0.3l0.9-0.3l1.9-0.6h0.1c0.6-0.2,0.8-0.3,1-1.1c0.4-1.5,0.6-3.1,0.7-4.7l0.1-0.8l0.4-4.4
	c0.4-4.2,0.7-8.5,1.6-12.7c0.7-3.2,1.5-6.1,2.5-8.7c0.5-1.2,1-2.4,1.6-3.6c0.7-1.6,1.5-3.2,2-4.8c0.3-1,0.6-2,0.9-2.9l0.7-2.3
	l0.1-0.2c0.3-0.9,0.6-1.8,1.2-2.4c0.9-0.8,1.8-1.2,2.5-1.1c0.4,0.1,0.7,0.4,1,0.9c0.8,1.7,1.2,3.7,1.6,5.6l0.5,2.2
	c0.5,2.1,1,4.3,1.8,6.6l0.3,1c0.3,0.8,0.5,1.5,0.7,2.2c0.4,2.2,0.6,4.4,0.7,6.6c0.2,2.3,0.3,4.8,0.8,7.1v0.2c0.2,1,0.4,1.9,1,2.1
	c1.2,0.3,2.6-0.3,3.7-0.8l0.3-0.1l0.5-0.2c0.7-0.3,1.6-0.6,2.1-1.3c1-1.1,2.3-2.6,3.6-4.2c1.9-2.5,3.2-4.5,4.1-6.5
	c0.4-0.9,0.8-1.8,1.1-2.7l0.8-1.9c0.6-1.4,1.4-2.8,2.1-3.9l0,0c0.6-0.9,1.1-1.8,1.7-2.7l0.2-0.2c0.2-0.3,0.4-0.6,0.6-0.7
	c1.9,2.8,2.7,6.5,3.3,9.7c0.7,3.7,1.2,7.8,1.6,12.9c0.2,2.1,0.2,4.2,0.3,6.3l0.1,3.2v0.3c0.1,3.1,0.3,6.2,1.1,9.2s2.2,5.8,3.6,8.5
	c1.7,3.2,3.5,6.3,5.2,9.3l0.6,1c1.6,2.8,3.3,5.6,4.5,8.7c0.3,0.8,0.6,1.7,0.9,2.6c0.6,1.9,1.3,3.9,2.5,5.6c1.1,1.6,3,2.2,4.8,2.9
	c0.9,0.3,1.8,0.6,2.5,1c0.5,0.2,0.9,0.6,1.3,0.8c1.1,0.8,2.3,1.6,4.1,1.4c1.3-0.2,2.6-0.5,4.1-1.1c6.5-2.6,12.2-6.8,15.7-11.7
	c0.4-0.6,0.9-1.3,1.4-2.1c0.1-0.2,0.2-0.4,0.2-0.5c0-0.2-0.1-0.4-0.3-0.6l-0.1-0.1l-0.7-0.6l-1.3-0.9l-1.5-1.1
	c-1.6-1.3-2.4-2.4-2.4-3.5c0-0.2,0-0.4,0.1-0.7c0.5-2,1.9-2.6,4.4-2.9l1-0.1c0.9-0.1,1.9-0.2,2.8-0.6c1-0.5,1.7-1.5,2.3-2.5
	c1.9-3.2,3.3-7,4.1-11v-0.1c0,0,0,0,0-0.1c0.4-4.3,0.7-8.5,1.4-12.7l0.1-1c0.2-1.8,0.5-3.6,1.2-5.2c0.2-0.4,0.5-0.7,0.9-0.8
	c0.7-0.1,1.6,0.3,2.3,1c1,1,1.5,2.5,1.7,3.9l0.1,0.4c0.1,0.5,0.1,1.1,0.4,1.6c0.2,0.3,0.7,1.5,1.2,1.3c0.2-0.1,0.4-0.8,0.5-1.6
	c0.1-0.7-0.1-1.7-0.1-2.4c-0.1-1.4,0-2.7,0.6-3.8c0.3-0.6,0.7-0.9,1.3-0.8c0.9,0.1,1.9,0.9,2.2,1.9c0.1,0.3,0.1,0.6,0.1,0.9
	s0,0.7-0.1,1c-0.1,0.5-0.1,0.9-0.1,1.3C205.9,87.7,206,88.3,206.3,89z M18.9,55.2c0.1,0,0.2,0,0.2,0l0.2-0.2c0.4-0.5,0.9-1,1.5-1
	c0.3,0,0.4,0.1,0.4,0.2c0.1,0.1,0.1,0.2,0.1,0.4s0,0.4-0.1,0.6c-0.9,2.2-2.6,5-4.1,6.4c-0.2-0.5-0.3-0.9-0.3-1.4
	C16.6,58.3,18,56.1,18.9,55.2z M9.3,78.2c0.2-1.1,0.8-4.9,2.9-5.6l0,0c0.3-0.1,0.7-0.1,0.9,0c0,0,0.1,0.1,0.1,0.2
	c0,0.7-0.3,1.2-0.8,1.9c-0.3,0.5-0.7,1-0.9,1.6c-0.3,1.1-0.4,2.1-0.5,3.2c-0.1,0.8-0.1,1.5-0.3,2.3c-0.1,0.7-0.4,1.4-0.9,1.6
	c-0.1,0-0.3-0.3-0.4-0.3c-0.4-0.3-0.3-2.2-0.3-3.5C9.3,79,9.3,78.5,9.3,78.2z M24.2,164.9c-0.1,0.3-0.5,1.1-0.8,1
	c-0.6-0.1-1.3-1-1.7-1.6l-0.2-0.2c-1-1.3-1.8-2.5-2.3-3.7c-0.2-0.4-0.2-0.9-0.2-1.3V159c0-0.8-0.4-1.3-0.8-1.8L18,157
	c-0.6-0.8-1.1-1.6-1.7-2.5c-1.3-2.3-2.4-4.8-3.7-8c-2.5-6.5-4.1-12.4-4.9-17.8c-1-6.4-1.2-13-1.2-18.6v-1.3c0-3.6,0-7.2,0.5-10.6
	c0.1-0.6,0.6-0.8,1.4-1h0.1l0.4-0.1c0.3-0.1,0.5-0.2,0.7-0.2s0.5,0.2,0.8,0.3c0,0,0.1,0.1,0.3,0.1c0,0.1,0.1,0.7,0.1,0.7v0.3
	c0,0.6,0.1,1.2,0.1,1.7c0,1,0,2-0.1,3l-0.1,2.8c0,0.3,0,0.5,0,0.8c0,2.9,0.1,5.9,0.2,8.8l0.1,2.2c0.1,3.8,0.4,8.3,1.1,12.7
	c0.5,3.5,1.5,7,3,11.6c1.1,3.4,2.3,6.9,3.9,10.3c0.7,1.4,1.5,2.7,2.3,4.1c1,1.7,2.1,3.4,2.8,5.1c0.3,0.7,0.4,1.4,0.4,2
	C24.5,164,24.4,164.4,24.2,164.9z M29.6,138.2c-0.8,0.5-1.5,0.7-2.3,0.6c-3.7-3.6-3.7-13.9-3.7-18.9V118c-0.1-4-1.1-19.6-1.2-20.1
	c0,0,0,0,0-0.1c0-1.3,0.1-14.5,2.8-20.8c4.6-10.6,15.4-24.3,22.3-30l1.8-1.5c3.4-2.8,7.5-6.3,10.2-7.9c8.4-5.3,15-8.1,26-7.3
	c2.9,0.2,5.7-0.7,8.8-2.9c2.5-1.7,6.1-3.9,8.9-3.8c1.8,0.1,3.2,0.2,4.5,0.3c3.2,0.3,6.3,0.5,13.5,0.3c5.3-0.1,12.6,1.1,16.6,1.8
	c1.4,0.2,2.9,0.4,3.3,0.4c0.7,0,0.9,0.1,3.8-0.1c-0.9-0.5-2.7-1.1-3.2-1.4c-0.2-0.2-1-0.6-1.4-0.8c-0.5-0.2-0.6-0.4-1.1-0.7
	c10,0.6,22.2,7.4,30.4,11.9l0.7,0.4c6.2,3.4,14.5,13.2,17.6,16.8c3.4,4,6.2,8.5,6.8,9.4l0,0c0,0-0.2,0-0.6-0.2
	c-0.9-0.7-3.3-2.7-6.3-4.2c1.3,2.4,1.6,2.9,2.3,3.8c0.5,0.7,1.3,1.6,2.1,2.1c0.8,0.6,1.8,1.6,3.1,3c-1.2,5-2.8,8-4.8,11.4
	c-0.7,1.3-1.5,2.7-2.3,4.2c-1.2,2.5-3.6,6.9-5.7,10.7c-1.7,3.2-3.3,6-3.6,6.8c-0.6,1.2-0.8,2.9-1,4.3l-0.2,1.4
	c-0.1,0.2-0.7,0.6-1.3,1c-2.2,1.5-6.2,4.3-7.7,10.3c-0.5-0.1-1.4-0.2-1.4-0.2c-1.2-0.2-1.3-0.2-2,0l-1.3,0.4
	c-2.5,0.6-8.3,4.5-9.8,5.5c-0.2-0.2-0.4-0.4-0.4-0.4c-1.7-1.6-6.1-6-6.7-6.8c-5.6-7.3-6.4-9.5-7.2-19.2c-0.3-3.1-0.6-6.3-0.8-9.7
	c-0.7-9.7-1.5-20.7-4.4-30.5c-1.4-4.6-3.6-8.5-7-12.1c-0.2-0.2-0.3-0.4-0.4-0.8c-0.1-0.4-0.3-1-0.7-1.6c-0.5-0.8-1-1-1.9-1.3
	c-0.4-0.2-1-0.4-1.7-0.7c-0.8-0.4-1.6-0.7-2.3-0.4c-0.5,0.2-1,0.7-1.3,1.5l0,0c-0.1,0-0.2,0-0.2,0c-0.2,0-0.6,0-1,0.1
	c-1.3,0.3-2.1,4-3.6,16.5c-0.3,2.3-0.5,4.2-0.6,4.8l-0.3,1.4c-0.3,1.5-0.4,1.7-0.8,1.7c-0.9-0.7-3.4-7-4.8-10.5
	c-0.2-0.5-0.3-1-0.3-1.4s0.1-0.8,0.1-1.2c0.1-0.3,0.1-0.7,0.1-1s0-0.6-0.2-0.9c-0.5-1-1-1.4-1.4-1.8c-0.3-0.3-0.5-0.4-0.8-0.9
	c-0.4-0.9-0.7-2.2-1-3.4c-0.4-1.7-0.7-3.1-1.4-3.8c-2.1-2.1-4-3.6-7.2-4.3c-3.5-0.9-8.8,1.7-10.5,3.9c-1.4,1.7-1.6,4.4-1.8,7
	c-0.1,1.3-0.2,2.6-0.5,3.8c-0.8,3.7-2.5,7.3-4.1,10.7c-1.1,2.3-2.2,4.7-3,7c-0.3-0.2-0.7-0.6-0.8-0.9c-0.2-0.7-0.2-1.2-0.2-1.7
	c0-0.2,0-0.3,0-0.5s0-0.4,0-0.7c0-0.7,0-1.6-0.2-2.9c-0.2-1.4-0.5-2.7-0.8-3.9c-0.5-2-0.9-4-0.9-6.3c0-1.5,0.2-3,0.7-4.8l0.1-0.4
	l-0.4-0.2c-3.1-1.6-13.9-4.7-15-3.9h-0.1v0.1c-2,2.6-6.5,14-8,18.3c-1.7,5.6-3,14-3.7,18.6c-0.2,1.5-0.4,2.6-0.5,3.1
	c-0.3,1.7-3.6,16.2-5.9,23.8l-0.9,2.9c-0.6,2-1.2,3.8-1.7,6s-1,5.2-1.5,8.4C35.8,126.9,33.2,135.7,29.6,138.2z"/>
<path class="st0" d="M179.3,192.5c-1.7,0.8-5.9,3.2-7.1,4.1c-2.8,2-7.6,5.6-12.2,8.2c-6.2,3.5-13.7,5.7-17.8,6.9
	c-2.1,0.6-4.5,1.4-4.5,1.4l0,0l0,0c0.3,0.3,2.5,0.3,3.7,0.3c1.7,0,3.6-0.5,3.9-0.6c6-1.4,11.4-3.6,18.1-7.2l0.4-0.2
	C167.5,203.5,177.5,196.3,179.3,192.5z"/>
<path class="st0" d="M196.8,104.4c0-0.2-0.2-0.7-0.4-0.8c-0.4-0.1-1,0.4-1.2,0.7c-0.5,0.8-0.7,1.2-0.7,1.7c0,0.3-0.2,0.7,0,0.9
	c0.3,0.1,0.9-0.2,1.3-0.4C196.3,106.1,196.8,105.1,196.8,104.4z"/>
<path class="st0" d="M68.7,111.9c-0.3-0.3-0.9-0.3-1.6-0.3c-0.5,0-0.9,0-1.3-0.1c-0.3-0.1-0.4-0.1-0.4-0.2l0,0
	c0-0.1-0.1-0.5-0.1-0.8c-0.1-0.8-0.2-1.4-0.3-1.7c-0.1-0.1-0.2-0.3-0.5-0.4c-0.5-0.1-1.3,0.1-1.6,0.3c-0.1,0.1-0.2,0.3-0.2,0.6
	c0,0.4,0.1,0.9,0.2,1.8l0.1,0.5c0,0,0,0,0,0.1h-0.1l-0.4,0.1c-0.3,0.1-2,0.1-3.1,0.1h-1.5c-0.3,0-0.5,0.3-0.6,0.7c0,0.1,0,0.2,0,0.3
	c0,0.5,0.2,1,0.6,1.1c0.3,0.2,1.3,0.2,2.9,0.3c1,0.1,2.2,0.1,2.4,0.2h0.1c0.5,0.2,0.5,0.2,0.5,0.4c0,0.1,0,0.8,0.1,1.4
	c0.1,1.8,0.1,2.6,0.2,2.8c0,0,0.7,2,1.6,2.1c0.5,0,1.4,0.1,1.8-0.5c0.1-0.1,0.1-0.3,0.1-0.4c0-0.5-0.2-1.1-0.5-2
	c-0.2-0.6-0.4-1.2-0.5-1.7c-0.1-0.3-0.1-1-0.1-1.7c0-0.5,0-1,0.1-1.2c0.2-0.1,0.7-0.1,1.1-0.2c0.8-0.1,1.2-0.2,1.4-0.3
	c0.2-0.2,0.3-0.4,0.3-0.7l0,0C69.1,112.5,69,112.2,68.7,111.9z"/>
<path class="st0" d="M61.6,117.9c-0.1-0.1-0.2-0.3-0.6-0.4c-0.6-0.1-1.7,0-2.5,0.7c-0.5,0.4-0.9,1-0.9,1.6c0,0.3,0,0.6,0.2,0.8
	c0.4,0.5,2,0.2,2.6-0.2C61.2,120,61.9,118.6,61.6,117.9z"/>
<path class="st0" d="M71.2,116.5c-0.3-0.4-0.8-0.7-1.2-0.7c-0.5,0-1.6-0.1-1.9,1.2c-0.1,0.4,0,0.7,0.3,1c0.5,0.5,1.6,0.7,2.1,0.6
	s0.8-0.6,1-1.3C71.5,117,71.4,116.7,71.2,116.5z"/>
<path class="st0" d="M75.7,110c-0.2-0.6-0.9-0.8-1.7-0.6c-0.7,0.2-0.7,0.9-0.7,1.3v0.1v0.1c0,2.7,0,3.7-0.1,4c0,0.4-0.3,0.9-0.6,1.4
	c-0.3,0.5-0.6,1-0.6,1.4c-0.1,0.9,0.3,1.1,0.7,1.3h0.1c0.4,0.2,1.3,0.3,1.6-0.2c0.3-0.5,1.1-2.8,1.1-3.5l0.1-1.4
	C75.7,111.5,75.8,110.3,75.7,110z"/>
<path class="st0" d="M84.5,114.3c-0.3-0.4-1.1-0.3-1.4-0.2c-0.3,0-0.6,0.2-0.9,0.3c-0.3,0.1-0.5,0.2-0.7,0.2h-0.1
	c-0.1,0-0.2,0-0.3,0c0,0,0-0.1,0-0.3v-0.9c0.1-1.3,0.1-2.4,0.1-3.1s0-1.2-0.1-1.4c-0.1-0.2-0.2-0.3-0.5-0.4s-0.7-0.1-0.9,0.1
	c-0.3,0.2-0.6,0.6-0.8,1.1c-0.1,0.3-0.2,1.7-0.3,4.1v0.9c0,0.7,0.5,1.8,0.9,2c0.3,0.1,1.2,0.2,1.6,0.2c0.6,0,2.9-1.1,3.4-2.2
	C84.6,114.6,84.5,114.4,84.5,114.3z"/>
<path class="st0" d="M97.9,107c-0.4-0.2-1.4-0.2-3.1-0.2H93c-1.6,0-3.8,0.2-4.6,0.4c-0.8,0.2-1.9,0.9-2,1.7c0,0,0,0,0,0.1
	c0,0.8,1.2,1,2.4,1.1c0.3,0,0.8,0,1.2,0.1c0.4,0,0.9,0,1.1,0.1v0.1c0,0.5-0.1,1.4-0.2,1.8s-0.3,0.5-0.5,0.5h-0.6c-1.1,0-2,0-2.4,0.2
	s-0.7,1-0.7,1.6c0,0.1,0,0.2,0,0.3c0.1,0.5,0.4,0.6,0.5,0.6c0.3,0,0.8,0.1,1.3,0.1s1,0,1.2,0.1c0.3,0,0.5,0.2,0.5,0.7
	c0,0.6,0.3,1.4,0.7,1.9c0.4,0.5,1.5,1.2,2.2,1.4c0.5,0.1,1,0.2,1.7,0.2c0.6,0,1.3-0.8,1.4-1.4v-0.1c0-0.2-0.1-0.4-0.3-0.4
	c-0.9-0.3-2.5-1.1-2.6-1.4c0-0.2-0.1-0.5-0.1-0.7c0-0.3,0-0.4,0.1-0.5c0.2,0,0.7-0.1,1.1-0.1c1,0,1.7-0.1,2.1-0.2
	c0.6-0.3,0.8-1.7,0.8-2l0,0c0-0.1,0-0.1-0.1-0.2s-0.1-0.1-0.2-0.1c-1.4,0.1-3,0.1-3.2,0.1h-0.2l0,0v-0.1c0-0.5,0.1-2.3,0.2-2.7
	c0.2,0,0.5,0,0.9-0.1c0.7,0,1.5-0.1,1.9-0.2c0.7-0.2,2-0.9,2-1.5c0-0.1,0-0.1,0-0.2C98.7,107.5,98.4,107.2,97.9,107z"/>
<path class="st0" d="M107.8,107.8c-0.4-0.4-3.4-1.6-4-1.5h-0.4c-0.5,0-1.1,0.1-1.3,0.7c-0.2,0.9,1,2,2.4,2.6c0.6,0.3,2.7,0.2,3,0.1
	c0.2,0,0.4-0.2,0.5-0.5C108.2,108.8,108.1,108.1,107.8,107.8z"/>
<path class="st0" d="M110.9,111.1c0-0.1-0.1-0.1-0.2-0.1c-0.6-0.1-6.3,3.9-6.3,3.9l-0.5,0.3c-1,0.7-1.6,1.1-1.7,1.6
	c-0.1,0.4,0,0.7,0.2,1s0.4,0.4,0.7,0.4c0.7,0.1,6.1-3.1,6.2-3.2C111.2,114,111.1,111.5,110.9,111.1z"/>
<path class="st0" d="M126.8,104.7c-0.7-0.3-2.8-0.6-3.9-0.4l-0.9,0.1c-4.5,0.5-6.1,0.8-6.4,1.1l-0.1,0.3c0.1,0.7,1.9,1.6,2.9,1.7
	c0.5,0,1.7-0.1,2.8-0.2c1.1-0.1,2.3-0.3,2.6-0.2c0.3,0.1,0.6,0.1,0.7,0.2v0.1c0,0.3-0.2,0.6-0.4,0.8c-0.1,0.2-0.3,0.3-0.3,0.5
	c0,0.1,0,0.1,0,0.2s0.1,0.3,0.2,0.4c0.3,0.3,0.9,0.6,1.9,0.3c1.1-0.3,2-2.6,2.1-3.1C128,105.7,127.5,105,126.8,104.7z"/>
<path class="st0" d="M117,108.8L117,108.8L117,108.8L117,108.8z M119.1,109.2c-0.1-0.4-0.4-0.6-0.9-0.7s-1,0-1.3,0.4
	c-0.5,0.5-1.2,1.9-1.8,3.1l-0.6,1.2c-0.2,0.3-0.2,0.6-0.2,1s0.1,0.7,0.2,1s0.3,0.4,0.4,0.5c0.5,0.1,1.3-0.2,1.7-0.7
	C116.9,114.5,119.1,110.6,119.1,109.2L119.1,109.2z"/>
<path class="st0" d="M126.8,116c0-0.2-0.1-0.3-0.3-0.4c-1.6-0.6-3.7-2-3.9-2.4l-0.1-0.3c0-0.1-0.1-0.4-0.1-0.6c0,0,0,0,0-0.1l0,0
	c0.2,0,0.6,0.2,0.9,0.3c0.6,0.2,1.2,0.5,1.7,0.4s1-0.6,1.2-1.1c0.1-0.2,0.1-0.4,0-0.6c-0.2-0.5-2.1-0.9-2.7-1c0,0-3.8-0.3-4,0.5
	c-0.1,0.4-0.2,3.5,0.4,4c0.1,0.1,0.4,0.3,0.8,0.4c1.2,0.6,1.8,1,1.8,1.2c0,0-0.1,0.1-0.6,0.1c-0.3,0-0.9-0.1-1.3-0.1l-1.1-0.1
	c-0.4,0-0.9,0.2-1.2,0.6c-0.1,0.2-0.2,0.5,0,1c0.1,0.3,0.6,0.5,1.8,0.7l0.5,0.1c0.6,0.1,2.6,0.1,3.4,0c0.7-0.1,1.4-0.7,1.8-1
	l0.2-0.2C126.4,117.1,126.9,116.5,126.8,116C126.9,116.1,126.9,116,126.8,116z"/>
<path class="st0" d="M109.1,145.3l-0.1-0.9c-0.2-1.4-0.3-2-2.1-3.6c-2.4-2.3-7.1-3.4-7.6-3.5c-0.1,0-0.3,0-0.4,0.1
	c-3.7,2.6-6.5,3.4-10.9,3.2c-3.4-0.1-4.4-1.4-4.7-1.8c0.9-1.4,4-5.9,4.2-6.8c0-0.1,0.1-0.3,0.1-0.4c0-0.3-0.1-0.5-0.2-0.8
	c-0.5-0.9-1.9-1.8-3.7-2.4c-2.5-0.7-9.7,0.4-10.3,1c-0.5,0.5-0.9,2.1-0.9,3c0,0.7,0.6,1.9,1.2,3.1l0.7,1.4c0.5,1.2,0.5,1.3,0,2.2
	c-0.6,0.6-6.2,1.3-6.9,0.6c-3.2-3-6.2-4.2-9.6-3.9c-3.3,0.3-6.2,3-6.7,4.1c-0.3,0.8-1.5,8.4,0.1,9.9c1.4,1.3,6.7,2.5,8.9,2
	c2-0.5,4.2-2,6.4-3.6c1.8-1.4,6.8-2.6,7.7-2.3c1.2,0.4,2.2,1.9,2.2,2.3l0,0c-2.6,2-5.1,3.9-5.7,7.3c-0.1,0.5-0.1,1-0.1,1.5
	c0,2.4,1.1,4,1.9,5.1l0.3,0.4c1.1,1.7,3.8,3.2,4.6,3.7c0,0.6,0.7,9.3,0.7,9.3c0,0.8-0.3,6-0.3,8.4c0,0.6,0,1,0,1.2
	c0.1,0.6,0.6,1.1,1.3,1.3c0.8,0.2,1.7-0.2,2.2-0.9c0.9-1.4,1.3-8.2,1.4-11.6c0.1-4,1.1-9.8,2.8-12.4c1.8-2.7,3.4-7.8,0.3-10.1
	c-2.9-2.1-2.7-3-2.5-3.7c0.1-0.6,1.2-1.4,3-1.6c0.8-0.1,4.1,0.7,7.3,1.5c4.4,1,8.9,2.1,10.4,1.9c1.7-0.3,3.8-1,4.8-2.3
	C109.1,146.7,109.2,146,109.1,145.3z"/>
<path class="st0" d="M100.6,130.8c-0.5-1.1-0.7-1.5-1.7-2.7l-0.3-0.4l-0.1-0.1c-1.6-1.2-3.6-2.6-4.5-2.1c-0.9,0.4-3.4,3-3,4.5
	c0.2,0.9,1.8,1.9,3.9,3.1c0.5,0.3,0.9,0.5,1.1,0.7c0.6,0.5,2.1,0.5,3.2,0C100.4,133.2,101,132,100.6,130.8z"/>
<path class="st0" d="M110.8,129.1c-0.1-1-2.5-4-3.9-4.7c-1.1-0.5-3.4-0.8-4-0.4c-0.4,0.3-1.6,1.8-1.7,3.1c-0.1,0.9,0.9,2.1,3.5,4.5
	l0.3,0.3c0.6,0.6,2.9,0.9,3.7,0.4C109.6,131.9,111,130.1,110.8,129.1z"/>
<path class="st0" d="M108.2,161.8c-0.2-2.7-3.5-4.4-4.2-4.7c-1.6-0.8-5-0.4-6.7-0.1c-2.2,0.4-6.2,3.3-6.8,5.4
	c-0.4,1.2,0.1,2.6,0.6,3.7c0.6,1.3,3,2.3,4.7,2.2c1-0.1,2.5-0.9,3.9-1.8c0.8-0.5,1.6-0.9,2-1.1c0.5-0.1,1-0.1,1.5,0
	c0.7,0.1,1.6,0.1,2.5-0.1C106.8,164.9,108.3,163.5,108.2,161.8z"/>
<path class="st0" d="M110.2,181.1c-0.6-1.6-2.6-3.6-3.9-4.3c-0.9-0.5-7.8-3.4-9-3.1c-0.1,0-2.5,0.6-3,1.7c-0.5,1.1,1.7,4.7,2.4,5.5
	c1.3,1.5,10.2,5.6,12,5.4c0.4,0,0.6-0.2,0.7-0.3C109.9,185.2,110.8,182.9,110.2,181.1z"/>
<path class="st0" d="M148.7,154c-0.3-1.6-0.8-2.6-1.1-3.3c-0.4-0.7-1.3-1-2-0.9c-0.6,0-1,0.3-1.2,0.7c-0.1,0.3-0.1,1.9-0.1,9
	c0,3.3,0,6.8,0,7.5c-0.1,1.6-0.7,5-1.3,5.9c-0.3,0.4-2,0.9-2.7,0.9c-0.9,0-2.1-0.2-2.6-0.8c-0.6-0.7-1.2-3.4-1.4-4.8
	c0-0.4,0-2.8,0.1-5.3c0.1-3,0.2-6.8,0.3-9.6c0-0.9-0.1-2.6-0.4-5v-0.1c-0.1-0.4-0.4-0.8-1-1c-0.8-0.3-2-0.1-2.6,0.5
	c-0.6,0.7-4.2,4.2-5.7,5.6c0-1,0.1-2.7,0.2-4.1c0.1-2.1,0.3-4.2,0.3-5.7c0-0.4,0-0.7,0-1v-0.3c-0.2-2.1-0.4-3.9-1-4.7
	c-0.8-0.8-4.6-2.6-6.6-1.5c-1,0.5-1.2,1.7-1.4,2.8v0.1c-0.1,0.3-0.1,0.7-0.1,1.2c0,1.7,0.3,4.1,0.3,4.8c0,0.1,0,0.1,0,0.2
	c0,0.3-0.1,0.7-0.2,1s-0.2,0.7-0.2,1.1c0,0.2,0,0.3,0.1,0.5c0.1,0.4,0.4,0.7,0.7,1c0.4,0.4,1,1,1.3,2.1c0,0.1,0,0.3,0,0.6
	c0,1.6-0.3,5.5-0.5,7.5l-0.1,1.9c-0.1,0.8-0.3,1.8-0.6,3c-0.4,1.7-0.9,3.9-1.1,6.5c0,0.4,0,0.9,0,1.3c0,3.8,1.3,6.9,2.2,7.4
	c1,0.5,3.9-0.2,4.7-0.8l0,0c0.7-0.5,2.5-1.9,2.5-4.9c0-0.1,0-0.1,0-0.2V173c0-1.6,0.6-11.1,0.7-12.2c0.1-0.8,1.4-2.7,1.9-3
	c0.3,0.2,1.1,1.4,1.4,3.3c0.1,0.6,0.1,3.3,0.1,5.8c0,2.9,0,5.6,0.1,6.3c0.2,1.6,2.3,4.5,3.8,5s4.7,0.3,6.4-0.2s4.8-2.5,5.4-3.7
	c0.5-1,1.3-3.5,1.4-5.7C148.9,166.9,148.9,154.8,148.7,154z"/>
<g>
	<path class="st1" d="M174.7,129.9c-1.5-0.1-1.8,0.1-3.8,1.4c-2,1.2-8.8,7.3-10.9,10.4s-5.4,15.2-4.3,22.2c1.1,7.1,2.2,10.3,4.1,13
		c1.9,2.7,6.8,6.6,14.6,6.8s12.1-6.1,14.9-10.2c2.8-4.1,2-16.5,1.9-19s-3.1-8-6.1-10.7c-1.9-1.7-3.4-1.5-2.6-2.6
		c0.8-1.1,2-3.4,1.8-4.9c-0.3-1.5-3.5-4.1-4.1-4.5c-0.5-0.4-0.4,0.7-1.2,0.1C178.2,131.5,176.2,130,174.7,129.9z"/>
	<path class="st0" d="M178.5,135c-0.7,0-1.1,0.4-1.2,1.1c-0.1,0.5-0.1,2.3-0.1,2.9h-4.4c0-0.5-0.1-3.9-0.1-3.9
		c0-0.9-0.3-1.2-1.2-1.2c-0.7,0-1.1,0.4-1.1,1.2c0,0,0,3.3,0,3.8h-4.2c0-0.5,0-1.7-0.1-2.6c-0.1-1.2-0.3-1.5-1.2-1.6
		c-0.3,0-0.6,0.1-0.9,0.4c-0.3,0.3-0.4,0.7-0.4,1c0,0.1,0,0.1,0,0.1c0,0.1,0,0.6,0,1.1s0,1.1,0,1.5c0,0,0,0,0,0.1l0,0l0,0v0.1v0.1
		l0,0l0,0v0.1c0.1,1.6,0.3,1.9,0.7,1.9c1.4,0,13.4,0,14.1-0.1c0.3,0,1.3-0.1,1.3-1.1v-1.3v-2C179.8,135.7,179.3,135,178.5,135z"/>
	<path class="st0" d="M182.7,141.9L182.7,141.9h-18.4c-1.1,0-1.7,1.3-1.7,2v0.8c0,1.2,0,3.5,0,4c0,0.4-1.6,1.9-2.5,2.1
		c-0.5,0.2-0.8,0.2-1.1,0.2c-0.4,0-0.8,0.1-1.2,0.6c-0.2,0.2-0.3,0.5-0.2,0.9c0.2,0.7,0.9,1.5,1.8,1.8c1.5,0.5,3-0.6,3-0.7
		c0.3-0.2,2.9-2.3,2.9-3.5c0,0,0-5.1,0-5.6c0.5,0,17.1-0.1,17.1-0.1h0.1c0,0,1-0.5,1-1.3C183.7,142.4,183.1,142,182.7,141.9z"/>
	<path class="st0" d="M171.1,146.3l-0.2-0.2c-0.5-0.2-3.2,0.6-3.5,0.9c-0.5,0.4-0.8,1.2-0.3,1.8c0.4,0.5,0.9,0.7,1.7,0.6
		c0.8-0.1,1.5-0.6,1.8-1.1c0,0,0.7-1.2,0.7-1.8C171.1,146.4,171.1,146.3,171.1,146.3z"/>
	<path class="st0" d="M180.1,147.1c-0.4-0.6-2-1.2-2.8-1.2c-0.3,0-0.6,0.1-0.7,0.2c-0.4,0.5,0,2.3,0.8,3c0.7,0.6,1.4,0.5,2,0.3
		c0.4-0.2,0.8-0.5,0.9-0.9C180.4,148,180.4,147.5,180.1,147.1z"/>
	<path class="st0" d="M184.7,153.7c-0.2-0.3-0.7-0.4-1.5-0.5c-0.5-0.1-1.2-0.2-1.9-0.4c-1.1-0.3-6-2.9-6.5-4c0-0.1,0-1.4,0-1.4
		c0-0.2,0-0.3,0-0.5c0-0.7,0-1.3-0.1-1.7c-0.1-0.5-0.6-0.8-1.3-0.8c-0.6,0-1.2,0.3-1.2,0.8c0,0.3-0.1,1.1-0.1,1.9l-0.1,1.7
		c-0.1,0.7-2.1,3.3-2.8,3.7c-0.4,0.2-1.3,0.4-2,0.5c-0.6,0.1-1.2,0.2-1.5,0.4c-0.3,0.1-0.5,0.4-0.5,0.7c-0.1,0.4,0.1,0.9,0.5,1.2
		c0.6,0.6,1.7,0.8,2.6,0.7c0.8-0.1,1.7-0.4,2.6-1.1c0.7-0.5,2.5-2.8,3-3.6c1.1,0.9,5.3,4.3,6.1,4.5c1,0.3,2.8,0.3,3.5,0.1
		c0.6-0.2,1.2-1,1.4-1.5c0-0.1,0.1-0.3,0.1-0.4C184.8,153.9,184.8,153.8,184.7,153.7z"/>
	<path class="st0" d="M166.1,169.9c-0.1-0.4-0.4-0.5-0.6-0.6c-0.2-0.1-0.3-0.2-0.4-0.4c-0.3-0.7-0.3-2.5-0.3-3.7v-1
		c-0.1-1.2-0.9-1.4-1.6-1.4c-0.9,0-1.4,0.7-1.5,1.4c-0.1,0.5-0.3,3.8,0,4.7c0.3,1,0.5,1.6,1.1,2.4c0.5,0.7,1.7,0.7,2.1,0.7
		c0.4,0,0.7-0.2,0.9-0.6C166.1,171,166.2,170.3,166.1,169.9z"/>
	<path class="st0" d="M182.1,164.7c-0.2-0.4-0.5-0.6-1-0.7c-0.5-0.2-1.6,0.1-1.9,0.8l-0.1,0.3c-0.3,0.8-1.2,3.1-2,3.8
		c-0.4,0.3-0.5,0.8-0.5,1.3c0.1,0.5,0.3,0.9,0.7,1.1c0.5,0.3,1.7,0,2.2-0.4c0.9-0.7,2.3-3.6,2.3-3.6c0.1-0.3,0.5-1.2,0.5-1.9
		C182.2,165.1,182.2,164.9,182.1,164.7z"/>
	<path class="st0" d="M187.4,179.4c0-0.1-0.1-0.1-0.2-0.1c0,0-4.5-0.3-6.5-0.9c-1.8-0.5-6.8-5.2-7.5-5.8c0-1-0.1-9.1-0.1-10.3l0,0
		c-0.1-0.6-0.7-0.9-1.3-0.9s-1.1,0.3-1.3,0.9c0,0,0,0,0,0.1v9.8c0,0.7-1.2,3.3-1.9,4.2c-0.5,0.8-2.4,2.2-3.7,2.7
		c-0.9,0.3-2.7,0.3-3.9,0.3h-1.1c-0.3,0-0.4,0.3-0.4,0.3c-0.1,0.7,1.7,2.1,2.1,2.3c0.7,0.4,5.6-0.7,6.5-1.4c1.9-1.3,3.6-4.2,4.1-5.1
		c1.3,1.1,7.1,6,8,6.5c0.9,0.6,1.8,0.9,3,0.9c2.4,0.1,4.2-3.3,4.3-3.4v-0.1C187.5,179.5,187.5,179.5,187.4,179.4z"/>
</g>
</svg>
