<?xml version="1.0" encoding="utf-8"?>
<!-- Generator: Adobe Illustrator 21.0.0, SVG Export Plug-In . SVG Version: 6.00 Build 0)  -->
<svg version="1.1" id="レイヤー_1" xmlns="http://www.w3.org/2000/svg" xmlns:xlink="http://www.w3.org/1999/xlink" x="0px"
	 y="0px" viewBox="0 0 170.1 56.7" style="enable-background:new 0 0 170.1 56.7;" xml:space="preserve">
<style type="text/css">
	.st0{fill:#FFFFFF;}
</style>
<g>
	<path class="st0" d="M92.7,24.4c0.2,7.6-0.4,14.8,0.5,22c0.2,1.5,0.7,2.7,2.3,3.3c0.9,0.3,1.8,0.8,1.4,1.9c-0.3,1-1.3,1.2-2.2,1.2
		c-2.5,0-4.9,0.1-7.4,0c-0.9,0-1.8-0.3-2-1.4c-0.2-1,0.5-1.4,1.3-1.6c2.3-0.7,2.7-2.5,2.6-4.6C89.1,38.4,89,31.7,89,25
		c0-2-0.2-3.9-2.7-4.5c-0.9-0.2-1.4-0.7-1.2-1.6c0.2-1,1-1,1.8-1.1c6.5-1.2,8.8-0.2,12.3,5.5c3.6,5.8,7.2,11.6,11.5,17.3
		c-0.1-5.8,0-11.6-0.2-17.5c0-1.6-1.4-2.4-2.8-2.9c-0.7-0.2-1.1-0.8-0.9-1.5c0.1-0.7,0.7-1.1,1.4-1.1c2.8-0.1,5.7-0.2,8.5-0.2
		c0.8,0,1.6,0.3,1.6,1.2c0.1,0.7-0.4,1.3-1,1.4c-3.1,0.8-2.9,3.3-2.9,5.6c0,7.6,0.1,15.2,0.1,22.9c0,1.4,0.5,3.1-1.3,3.7
		c-1.9,0.7-2.8-0.9-3.6-2.2c-4.7-7.4-9.3-14.9-14-22.3C94.9,26.7,94.4,25.5,92.7,24.4z"/>
	<path class="st0" d="M81.5,20.3c0.1,10.7-7.3,18.5-17.7,18.6C54,39,45.9,31,45.7,21C45.6,10.8,53.6,2.7,63.8,2.6
		C73.8,2.5,81.4,10.1,81.5,20.3z M75.1,20.2c0-1.9-0.2-3.9-0.7-5.7c-1.7-5.6-4.7-8.3-9.7-8.5c-5.5-0.2-9.7,2.6-11.5,7.9
		c-1.6,4.8-1.7,9.7,0.4,14.4c1.7,3.8,4.4,6.6,9,7c4.8,0.4,8.2-1.5,10.5-5.7C74.7,26.6,75.2,23.5,75.1,20.2z"/>
	<path class="st0" d="M149.6,37.6c-1.3,0-2.6,0.1-3.9,0c-0.8,0-1.6-0.3-1.9-1.1c-0.3-0.9,0.2-1.5,1-1.9c2-0.9,1.8-2.4,1-3.9
		c-1.1-2-0.7-5.3-4.1-5.4c-2.4-0.1-4.9,0-7.4,0c-2.7,0.1-3.2,2.3-3.8,4.2c-0.6,1.8-1.7,3.6,0.6,5.1c2.2,1.5,1.2,2.5-0.8,2.9
		c-1,0.2-2.1,0.2-3.1,0.1c-1.7-0.1-4.1,0.8-5-1.1c-1-2,1.9-2,2.6-3.3c0.6-1.3,1.3-2.5,1.8-3.8c2.7-7.5,5.4-15.1,8.2-22.6
		c0.7-2,1-4.5,4.1-4.4c2.8,0,3,2.4,3.7,4.3c2.7,7,5.2,14.1,8,21c0.9,2.3,1.3,5.1,4,6.4c0.9,0.4,1.6,1,1.2,2.1
		c-0.4,1-1.4,1.1-2.3,1.1C152.2,37.6,150.9,37.6,149.6,37.6C149.6,37.6,149.6,37.6,149.6,37.6z M138,9.3c-1.8,2.5-2.1,4.8-2.9,6.9
		c-0.6,1.5-1.9,3.6-0.9,4.7c1.3,1.4,3.6,0.4,5.5,0.4c1.5,0,2.1-1,1.6-2.4C140.3,15.9,139.2,12.9,138,9.3z"/>
	<path class="st0" d="M9.8,21.1C9.7,8.8,21.2,0.2,32.9,3.9c0.6,0.2,1.2,0.4,1.8,0.6c1.5,0.5,3.4-2.3,4.4,0.1
		c1.2,2.9,1.9,6.1,2.7,9.3c0.2,0.6-0.2,1.3-0.9,1.5c-0.8,0.3-1.6,0.1-2-0.6c-0.7-1.1-1.2-2.3-1.9-3.3c-4.5-6.9-13.4-7.1-18.1-0.3
		c-3.7,5.3-4,11.2-1.2,16.9c3.8,7.7,11.8,9.3,19.2,3.9c0.9-0.7,1.8-1.5,2.6-2.3c0.9-0.9,1.9-1.5,3-0.4c1.1,1,0.1,1.9-0.5,2.7
		c-4.8,6.3-13.2,8.7-20.9,6.2C14.5,35.9,9.8,28.8,9.8,21.1z"/>
</g>
</svg>
