<svg xmlns="http://www.w3.org/2000/svg" xmlns:xlink="http://www.w3.org/1999/xlink" width="150.831" height="60" viewBox="0 0 150.831 60"><defs><clipPath id="a"><rect width="150.831" height="60" fill="none"/></clipPath></defs><g transform="translate(9.338 4)"><g transform="translate(-9.338 -4)" clip-path="url(#a)"><path d="M141.051,60.049a4.577,4.577,0,0,0-.353-.376c-.155-.133-.34-.234-.494-.369a2.159,2.159,0,0,1-.253-.314l-.393.146.632.48c-.46.035-.856.282-1.179-.152.14-.059.2-.16.14-.293a2.232,2.232,0,0,0-.177-.322,3.512,3.512,0,0,0-.236-.277l.039-.063.932.4c-.087-.3-.3-.408-.411-.636l.8.113a.168.168,0,0,0-.136-.234.894.894,0,0,1-.661-.514.67.67,0,0,0-.291-.243,1.077,1.077,0,0,1-.515-.494.664.664,0,0,0-.247-.233c.035.447.446.665.639,1.08l-.312-.078c-.022.05-.044.1-.056.124l-.527.127a.3.3,0,0,1-.341-.125,4.861,4.861,0,0,0-1.093-.884,3.856,3.856,0,0,1-1.006-1.132c-.019-.033-.03-.106-.012-.121.106-.088.031-.146-.011-.211a1.7,1.7,0,0,1-.165-.264c-.11-.273-.413-.263-.613-.4-.035-.024-.131.034-.213.059l-.3-.538c-.1.3.112.452.051.677l-.372-.624.107-.147c-.035-.1-.067-.155-.654-.2-.067-.333-.135-.675-.2-.993l-.4-.336a1.42,1.42,0,0,0,.1-.328,1.2,1.2,0,0,0-.053-.383,3.37,3.37,0,0,1,0-.906,3.248,3.248,0,0,0-.17-1.191c-.01-.02-.033-.043-.029-.06.112-.447-.093-.889.071-1.34.266-.736.49-1.486.772-2.216.235-.607.528-1.2.8-1.791.058-.129.119-.257.212-.458a1.325,1.325,0,0,1,.11.289c.035.431.058.865.088,1.3a.31.31,0,0,0,.037.168,4.22,4.22,0,0,1,.556,1.53,6.609,6.609,0,0,0,.195.638,2.1,2.1,0,0,0,.3.4,1.185,1.185,0,0,1,.152.18c.127.255.374.249.609.255.041,0,.089-.1.134-.148l-.009.007a1.669,1.669,0,0,1,.091.2.427.427,0,0,0,.452.329,1.367,1.367,0,0,1,.336.12c.014-.249-.232-.325-.3-.505.026,0,.055-.02.067-.011.357.259.714.515,1.064.782a1.857,1.857,0,0,1,.25.278.573.573,0,0,0,.609.246,1.162,1.162,0,0,1,.819.11c-.136.24-.361-.067-.518.121a.231.231,0,0,0,.261.108c.211-.044.423-.078.634-.118.14-.027.14-.029.152-.25a2.976,2.976,0,0,1,1.458.21l-.183.205a2.571,2.571,0,0,0,.385.066c.571.007,1.142,0,1.712.009a1.8,1.8,0,0,1,.521.078,2.188,2.188,0,0,0,1.225.035c.2-.047.4-.075.592-.112.093-.507-.386-.487-.62-.728a.922.922,0,0,1,.577-.02,1.114,1.114,0,0,1,.128.057,1.355,1.355,0,0,0,1.236-.014,1.575,1.575,0,0,1,.562-.078l.433-.048c-.055-.268-.1-.472-.374-.522-.04-.007-.059-.108-.061-.187a1.338,1.338,0,0,0,.844.2,5.826,5.826,0,0,1,1.12.165,8.116,8.116,0,0,0,2.175.289,3.48,3.48,0,0,1,.83.144.962.962,0,0,0,.822-.161c.33-.249.664-.5.981-.761a.708.708,0,0,1,.44-.2.964.964,0,0,0,.8-.436.838.838,0,0,1,.452-.331,4.968,4.968,0,0,0,.846-.494c.347-.225.685-.464,1.027-.7a.31.31,0,0,0,.085-.067,19.34,19.34,0,0,1,1.365-1.524,9.915,9.915,0,0,0,1.359-2.072,3.626,3.626,0,0,1,.473-.774,3.785,3.785,0,0,0,.4-.771,18.9,18.9,0,0,0,1.24-2.983c.246-.857.462-1.722.688-2.584a.568.568,0,0,0-.1-.624c-.152-.14-.069-.336-.065-.506.006-.3.04-.61.064-.938l.242-.019c0-.27.015-.532-.005-.788-.031-.4-.094-.793-.123-1.192a1.3,1.3,0,0,1,.067-.419.491.491,0,0,0-.062-.494l-.372.423a.7.7,0,0,1,.152-.562c.094-.144.151-.278-.024-.4-.208.1-.209.423-.514.467.027-.374.054-.731.077-1.055L162,28.548c.005.291.237.4.313.628a4.986,4.986,0,0,1-.53-.513,2.722,2.722,0,0,1-.581-1.181,3.312,3.312,0,0,1,0-.884,6.822,6.822,0,0,1,.284-1.552,3.846,3.846,0,0,1,.676-1.251.532.532,0,0,0,.59.117c.031-.089.065-.188.108-.309l.569-.112-.159-.586a.689.689,0,0,1,.558.133c.376.253.768.486,1.132.755a2.442,2.442,0,0,0,2.161.376,7.42,7.42,0,0,0,1.228-.449c.573-.263,1.13-.568,1.693-.856a.515.515,0,0,0,.16-.087,3.931,3.931,0,0,1,1.32-.742,12.088,12.088,0,0,1,1.374-.573c.506-.2,1.011-.4,1.525-.577a4.063,4.063,0,0,1,.913-.2c.488-.044.978-.046,1.467-.056.134,0,.3-.05.378.111l.006-.005-.263.014c0,.019-.006.039-.009.057l1.125.254c0,.022-.008.045-.012.068l-.8-.017c-.006.025-.012.05-.017.074.11.026.219.061.332.077.645.092,1.289.183,1.935.268a19.344,19.344,0,0,1,2.973.641c.619.183,1.222.415,1.833.623.133.046.271.077.4.121.344.115.692.219,1.025.357a.822.822,0,0,1,.512.578.754.754,0,0,0,.324.493,2.085,2.085,0,0,0-.191-.986c-.06-.119-.221-.191-.349-.265-.155-.089-.325-.157-.53-.253.2-.153.32-.176.47-.072a2.147,2.147,0,0,1,.738.862c.108.229.216.438.492.5a.154.154,0,0,1,.1.086c.1.295.262.581.089.92a.588.588,0,0,0-.063.242,4.237,4.237,0,0,1-.979,2.4c-.253.343-.506.686-.771,1.02a4.377,4.377,0,0,1-.448.479c-.452.424-.912.839-1.368,1.258a.541.541,0,0,1-.081.074c-.5.3-1.006.588-1.5.892-.3.183-.585.391-.882.579a15.982,15.982,0,0,1-1.707.985c-.494.231-.959.528-1.447.774-.411.207-.847.36-1.251.578s-.809.5-1.211.748a5.045,5.045,0,0,1-1.505.511c-.772.195-1.55.36-2.328.521a1.276,1.276,0,0,0-.816.493c-.257.336-.575.626-.859.942-.113.125-.2.274-.306.406-.143.176-.293.347-.472.557a3.153,3.153,0,0,0,.366-.032c1.309-.274,2.618-.556,3.928-.829.979-.2,1.959-.4,2.94-.592.118-.024.236-.05.353-.076l1.44-.307c.118-.025.238-.042.354-.074.311-.088.625-.146.94-.21a2.677,2.677,0,0,0,1.428-.668.485.485,0,0,1,.486-.172.327.327,0,0,0,.232-.065.557.557,0,0,1,.577-.044c.086.031.18.039.267.067a.409.409,0,0,1,.2.1,1.9,1.9,0,0,0,.7.656c.192.086.182.255.035.432a.548.548,0,0,0-.121.177.731.731,0,0,1-.54.494c-.138.044-.278.085-.414.135a2.06,2.06,0,0,0-.614.361,3.082,3.082,0,0,1-1.356.81.922.922,0,0,0-.27.1c-.824.449-1.643.906-2.468,1.352-.482.26-.98.49-1.458.756a20.781,20.781,0,0,0-2.665,1.663c-.325.253-.643.515-.959.779a4.1,4.1,0,0,0-.3.321,2.123,2.123,0,0,0,.36-.058,10.66,10.66,0,0,1,1.214-.338c.667-.169,1.327-.372,1.991-.556.256-.07.516-.123.774-.185a.971.971,0,0,0,.28-.072,1.647,1.647,0,0,1,1.02-.2c.263.018.408-.153.44-.429.023-.2.027-.4.046-.607.014-.142.017-.293.213-.334.04-.008.078-.055.108-.091.2-.239.2-.239.435-.083.046.031.1.053.184.1.028-.142.049-.25.077-.391.213.133.407-.022.613-.056s.432-.024.643-.067a1.152,1.152,0,0,1,.72.094,6.031,6.031,0,0,1,1.717.993,2.151,2.151,0,0,1,.565.782,13.325,13.325,0,0,1,.671,2.253,4.76,4.76,0,0,1,.025,1.019.4.4,0,0,1-.072.2,1.069,1.069,0,0,0-.165.617.77.77,0,0,1-.464.756.841.841,0,0,0-.234.174.761.761,0,0,1-.761.3c-.073-.018-.183.08-.272.131a3.472,3.472,0,0,1-.338.2c-.055.024-.174.01-.191-.025-.1-.21-.331-.194-.5-.281s-.364-.2-.547-.294c-.082-.044-.161-.121-.247-.124a.785.785,0,0,1-.617-.4c-.352-.477-.5-.521-1.106-.344a.917.917,0,0,1-.639.089l.419-.243-.133-.221.385-.21-1.085-1.687a11.831,11.831,0,0,1-1.914,1,5.787,5.787,0,0,1,.042,1.83,1.017,1.017,0,0,0,.873,1.062,3.379,3.379,0,0,1,1.562.735c.18.108.208.511.088.718a.5.5,0,0,0-.028.5,6.2,6.2,0,0,1-.687.708,3.2,3.2,0,0,1-.836.433,1.279,1.279,0,0,0-.534.291.48.48,0,0,1-.176.127.348.348,0,0,0-.236.428c.05.493.1.986.148,1.479a.255.255,0,0,0,.034.135,1.865,1.865,0,0,1,.291.741c.082.255.123.277.386.222a1.147,1.147,0,0,0,.278-.082,3.81,3.81,0,0,1,.793-.192c.459-.119.922-.129,1.379-.224a3.645,3.645,0,0,1,.878-.17.8.8,0,0,0,.409-.213,6.848,6.848,0,0,1,1.674-.962,3.664,3.664,0,0,1,3.211.146,14.649,14.649,0,0,1,1.617,1.033,2.035,2.035,0,0,1,.788,1.546,2.615,2.615,0,0,1-.262,1.571.809.809,0,0,0-.073.24c-.093.458-.161.921-.282,1.372a3.723,3.723,0,0,1-.378.933,8.994,8.994,0,0,1-.537.939,2.9,2.9,0,0,1-1.27,1.114,1.084,1.084,0,0,0-.28.171,7.52,7.52,0,0,1-1.33.747c-.3.15-.714.221-.808.554l-.456.221c-.2.1-.387.208-.589.284a3.443,3.443,0,0,1-.662.182.831.831,0,0,1-.588-.01.526.526,0,0,0-.378-.006,2.331,2.331,0,0,1-1.554-.091c-.453-.159-.918-.289-1.381-.419a.867.867,0,0,0-.319.008,6.059,6.059,0,0,1-2.1.016,1.7,1.7,0,0,0-.392-.011c-.716.012-1.436.058-2.149.031a13.414,13.414,0,0,1-1.579-.208,7.282,7.282,0,0,1-1.835-.5,1.162,1.162,0,0,0-.225-.039,3.632,3.632,0,0,0,2.226.942c.44.01.875.063,1.339.1v.171a8.376,8.376,0,0,0,2.266.071,5.549,5.549,0,0,1,1.559.067c.162.024.325.042.485.078a6.386,6.386,0,0,1-1.234-.029,4.83,4.83,0,0,0-1.141,0,15.519,15.519,0,0,1-3.948-.178c-.383-.064-.778-.071-1.166-.117a1.7,1.7,0,0,1-.366-.108c-.108-.039-.2-.1-.331-.008-.039.029-.152-.008-.206-.046a8.424,8.424,0,0,1-2.384-2.214,2.8,2.8,0,0,0-.217-.256c-.078.223.142.4-.039.586a.316.316,0,0,1-.261-.358c.012-.136-.063-.357.27-.364L164.838,60c-.155.337-.146.33.072.569a.646.646,0,0,1,.128.316.209.209,0,0,1-.116.159.181.181,0,0,1-.157-.093c-.231-.7-.6-1.335-.865-2.014a7.5,7.5,0,0,1-.238-.937l.306-.107c-.056-.22-.111-.433-.179-.7l-.212.277-.174-.413.236-.417.556.233c.2-.212.113-.451.01-.695a1.049,1.049,0,0,0,.622-.734.47.47,0,0,1,.559-.4.668.668,0,0,0-.075.22.258.258,0,0,0,.1.2.227.227,0,0,0,.215-.035,5.932,5.932,0,0,0,.4-.562c.058-.091.079-.205.14-.293.248-.355.5-.7.767-1.07.291.029.252.374.454.528.3-.29.571-.155.852.027a1.645,1.645,0,0,0,.465.126.723.723,0,0,1,.825-.6,4.762,4.762,0,0,0,.537-.008.985.985,0,0,1,.965.441.244.244,0,0,0,.259.13,4.166,4.166,0,0,0,1.237-.217,5.327,5.327,0,0,1,.625-.184c.261-.079.313-.144.285-.415a4.67,4.67,0,0,0-.188-1.462l-1.087-.265-.619-.146a.567.567,0,0,0,.62.146l.3.242s-.015.022-.027.02a5.225,5.225,0,0,1-2.447-1.074c-.084-.068-.188-.2-.093-.262.21-.147.12-.359.206-.578l.2.319c.162-.159.313-.3.448-.447a.283.283,0,0,0,.048-.2.467.467,0,0,1,.414-.595.506.506,0,0,0,.135-.075c-.077-.214-.169-.386,0-.588s.364-.074.545-.158c.029-.263-.154-.2-.335-.157a1.527,1.527,0,0,1,.631-.58c.105-.058.231-.078.338-.135.151-.078.293-.161.282-.377a1.19,1.19,0,0,1,.1-.357.394.394,0,0,0-.4.1,1.011,1.011,0,0,1-.464.169,9.956,9.956,0,0,1-1.344.256,12.259,12.259,0,0,1-1.885-.061,1.056,1.056,0,0,1-1.031-.969,3.314,3.314,0,0,0-.21-.613,3.725,3.725,0,0,0,.106-.446,2.389,2.389,0,0,1,.344-1.057,3.651,3.651,0,0,0,.163-.394,1.893,1.893,0,0,1,.2-.334c.162-.208.336-.406.526-.635-.363-.081-.671-.139-.973-.219-.371-.1-.737-.214-1.1-.327a.762.762,0,0,0-.364-.085c-.112.014-.234-.115-.39-.2-.148.158-.316.315-.455.494-.321.413-.628.837-.941,1.257-.022.029-.062.055-.067.086-.1.591-.685.85-.944,1.332-.074.138-.146.278-.229.411a1.766,1.766,0,0,1-.342.5c-.455.345-.71.861-1.133,1.228a10.843,10.843,0,0,1-1.7,1.96,1.11,1.11,0,0,0-.106.1,6.261,6.261,0,0,1-1.054,1.086,3.781,3.781,0,0,0-.356.412,8.275,8.275,0,0,1-.545.632c-.212.2-.335.4-.12.661l-.263.126c.016.138.026.278.05.415a.79.79,0,0,1-.077.434,1.7,1.7,0,0,0-.054.726,2.12,2.12,0,0,1-.058,1.087c-.046.105.009.248.02.4a11.826,11.826,0,0,1-1.055.8,17.627,17.627,0,0,1-2.2,1.119,2.17,2.17,0,0,1-.487.141,6.553,6.553,0,0,0-1.276.484,6.713,6.713,0,0,1-.836.24c-.771.185-1.54.381-2.315.537-.517.1-1.043.152-1.565.214q-.908.109-1.818.2a1.814,1.814,0,0,1-.46-.029,11.342,11.342,0,0,1-1.77-.325,3.527,3.527,0,0,0-1.029-.09c-.071,0-.142-.012-.21-.019-.161-.377-.429-.456-1.014-.3a9.545,9.545,0,0,0,1.1.449,9.22,9.22,0,0,0,1.162.163c-.043.122-.049.248-.114.3a2.531,2.531,0,0,1-.571.364.933.933,0,0,0-.435.238.749.749,0,0,1-.233.13l-.07-.091.187.009c-.192-.171-.346-.088-.491-.077a3.145,3.145,0,0,0-.6.083,2.957,2.957,0,0,0-.547.24c-.028.014-.02.106-.027.163Zm1.434-2.79-.334.024c.143.168.236.044.336-.025l-.025.185a5.348,5.348,0,0,0,.75.25,1.746,1.746,0,0,0,.863.007c-.154-.111-.251-.234-.373-.259-.4-.08-.81-.125-1.217-.184M177.4,30.754a.751.751,0,0,1,.682.374c.072.1.131.217.2.325.138.218.155.227.386.089.2-.119.392-.246.582-.379a9.9,9.9,0,0,0,2.023-2.056,5.741,5.741,0,0,0,.487-.725c.162-.287.121-.365-.191-.449-.692-.187-1.383-.379-2.08-.551a9.11,9.11,0,0,0-2.921-.309.78.78,0,0,0-.381.076c-.421.311-.84.629-1.23.976a10.72,10.72,0,0,1-1.587,1.29,9.16,9.16,0,0,1-2.416.974,1.258,1.258,0,0,0-.221.112c.057.186.1.368.169.536a2.327,2.327,0,0,1,.21.918,5.262,5.262,0,0,0,.289,1.206c0,.018.035.027.09.066.153-.06.331-.129.508-.2a3.054,3.054,0,0,1,.876-.332,3.574,3.574,0,0,0,.9-.219c.865-.268,1.72-.577,2.584-.844.27-.084.468-.185.482-.5.263-.027.513-.05.562-.382M138.843,55.532l-.073.08c.192.159.376.328.578.472a1.413,1.413,0,0,0,.489.256,2.139,2.139,0,0,1,.908.422.981.981,0,0,0,.536.225c.11.011.2.035.3-.052s.31-.105.294-.335c-.224-.081-.406-.278-.707-.168a.268.268,0,0,1-.328-.133,1.917,1.917,0,0,0-.342-.331l-.076.263a6.64,6.64,0,0,1-1.577-.7m33.811,7.231c0,.019-.006.038-.008.057a.475.475,0,0,0,.143.065c.271.022.543.051.816.049.713-.007,1.427-.027,2.141-.046a2.42,2.42,0,0,0,.322-.05c0-.027,0-.055,0-.083a2.221,2.221,0,0,0-1.048-.21c-.535.018-1.07.053-1.605.1-.255.021-.508.079-.762.121m-32.373-4.6c.027.034.037.062.056.069.449.157.9.315,1.349.466a.407.407,0,0,0,.21.01c.15-.034.213-.215.1-.295A4.2,4.2,0,0,1,141.46,58a2.049,2.049,0,0,0-.672-.276c-.008.33-.339.264-.507.439m2.026,1.144c.007-.032.012-.065.019-.1a3.8,3.8,0,0,0-.485-.153,2.975,2.975,0,0,1-1.242-.471l-.493.259-.04.074a7.972,7.972,0,0,1,.982.428l.205-.234a.712.712,0,0,0,1.054.195m-4.438-9.161a.267.267,0,0,0-.17-.34c-.285-.15-.635-.2-.8-.541a.667.667,0,0,0-.458-.271c.133.4.174.8.631.967l-.094-.3.895.485m29.612-8.464c-.007-.027-.014-.055-.02-.083l-.858-.385c-.011.155-.02.274-.025.353.14.026.243.039.342.065.123.033.24.088.366.11.059.01.131-.038.2-.059m-26.737,9.061c.371.343.583.359.839.086l-.839-.086m28.939-3.65c0-.033.01-.066.014-.1l-.981-.217-.027.1a1.554,1.554,0,0,0,.994.216m2.923,15.525-.974-.02c0,.024,0,.048-.005.072a1.733,1.733,0,0,0,.979-.052M162.292,24.168c-.366.052-.366.052-.454.543l.454-.543m7.952,37.891a.545.545,0,0,0,.527.155.574.574,0,0,0-.527-.155m-27.361-5.492-.554-.011a.418.418,0,0,0,.418.2c.038,0,.073-.1.137-.193m1.232.843c.321.123.379.094.363-.173l-.363.173m-8.842-2.944.053-.052c-.057-.091-.1-.2-.282-.14l.229.193M144.344,58l-.053-.088-.187.1c.023.033.059.1.067.093a1.457,1.457,0,0,0,.172-.108m23.682,3.318c-.016.024-.031.048-.046.072l.255.142.03-.048-.24-.166m1.025-14.562c.008-.02.016-.039.024-.059l-.326-.124c-.009.02-.018.041-.026.062l.328.121m-33.312,8.751c.035-.223-.089-.24-.168-.293l-.025.039.194.253m29.071.933-.089-.06a.487.487,0,0,0-.065.108c0,.012.054.056.059.052a.8.8,0,0,0,.095-.1m.383-.8-.059.008.018.149c.022-.008.061-.017.061-.022a1.2,1.2,0,0,0-.02-.135m2.46-14.544-.074-.086a.545.545,0,0,0-.092.089c-.006.01.037.069.046.066a.608.608,0,0,0,.12-.069m8.021-20.191,0,.035.257.005,0-.035-.257-.005" transform="translate(-46.005 -7.154)" fill="#1a1311"/><path d="M94.991,52.83a7.584,7.584,0,0,1-.891-2.374l-.392-.179.022-.063.342.069c-.022-.133-.041-.248-.066-.4-.2,0-.383-.009-.565,0-.165.01-.335-.105-.539.029l.342.121c-.078.17.147.113.159.214a.56.56,0,0,1-.654-.2.265.265,0,0,0-.3-.165.512.512,0,0,1-.575-.29.8.8,0,0,0-.317-.278,2.457,2.457,0,0,1-.948-.837,3.034,3.034,0,0,0-.317-.409.341.341,0,0,0-.187-.123c-.167-.014-.19-.142-.268-.26.082-.029.142-.055.206-.071a.144.144,0,0,0,.106-.223,1.239,1.239,0,0,1-.084-.536,1.233,1.233,0,0,0-.221-.648c-.077-.123-.146-.252-.214-.381a1.871,1.871,0,0,1,.225-2.153c.212-.277.446-.539.68-.8a1.669,1.669,0,0,0,.292-.428.419.419,0,0,0-.027-.437c-.12-.187-.248-.37-.385-.572-.152.077-.362.069-.386.32l-.307.052v.224a8.86,8.86,0,0,1-1.183.548c-.489.147-.983.285-1.472.436-.232.072-.458.161-.687.24s-.477.161-.653.219l-.4-.148a.414.414,0,0,1-.129-.048,11,11,0,0,1-1.961-1.9,2.769,2.769,0,0,0-.248-.269c.006.24.182.334.244.485a3.5,3.5,0,0,1,.149.5,5.765,5.765,0,0,0-.666-.939,2.206,2.206,0,0,0-.012.352c.037.259.105.514.134.774.05.453.1.908.113,1.363a4.257,4.257,0,0,0,.182,1.222.976.976,0,0,1,.037.6c-.029.093.037.212.022.313a3.839,3.839,0,0,1-.168.884,4,4,0,0,1-.709,1.3,4.068,4.068,0,0,0-.455.711,11.178,11.178,0,0,1-1.144,1.753c-.153.174-.335.321-.5.489-.138.144-.311.262-.344.489-.008.059-.095.116-.158.154a1.893,1.893,0,0,1-1.029.274A6.717,6.717,0,0,1,77.1,51.6c-.225-.059-.444-.14-.669-.2-.136-.039-.281-.053-.416-.1a2.92,2.92,0,0,1-1.392-1.1,2.622,2.622,0,0,1-.5-1.157,2.68,2.68,0,0,0-.28-.669,1.73,1.73,0,0,1-.176-.746c-.009-.383.1-.748.092-1.127,0-.087,0-.174,0-.261a1.309,1.309,0,0,1,.037-.457,1.535,1.535,0,0,0,.077-.8.923.923,0,0,1,.022-.345,5.531,5.531,0,0,0,.157-1.849c-.007-.252,0-.5,0-.757a1.522,1.522,0,0,0,0-.232c-.1-.691-.194-1.385-.321-2.072-.1-.553-.251-1.1-.383-1.643a2,2,0,0,0-.1-.273.383.383,0,0,0-.4-.276c-.359,0-.719-.034-1.078-.029a3.809,3.809,0,0,1-1.88-.457,1.677,1.677,0,0,1-.788-.9,4,4,0,0,1-.178-1.982.839.839,0,0,0,0-.2,2.813,2.813,0,0,1,.333-1.575,9.09,9.09,0,0,1,.839-1.223c.389-.534.752-1.087,1.135-1.626a10.226,10.226,0,0,1,2.147-2.168c.484-.373.923-.8,1.381-1.209a.654.654,0,0,0,.081-.084c.186-.233.184-.293-.019-.516a12.335,12.335,0,0,1-1.289-1.544c-.082-.127-.151-.262-.261-.453l.377.139.04-.039-.554-.883a1.566,1.566,0,0,0,1.04-.368,3.016,3.016,0,0,1,2.256-.293,20.144,20.144,0,0,1,1.965.645,5.313,5.313,0,0,1,.635.285.685.685,0,0,1,.242.2,7.121,7.121,0,0,1,.5.784c.17.327.3.675.45,1.012.168.382.35.759.505,1.146.126.314.19.656.338.958a11.441,11.441,0,0,1,.4,1.15,1.907,1.907,0,0,1-.071,1.476,1.066,1.066,0,0,1-.64.549,1.175,1.175,0,0,1-1.07-.134,4.072,4.072,0,0,1-.859-.537c-.129-.117-.271-.221-.394-.344a1.226,1.226,0,0,0-1.23-.244,3.933,3.933,0,0,0-1.282.608,4.248,4.248,0,0,0-.954.956,1,1,0,0,1-.155.131c-.425.348-.859.686-1.272,1.049a2.234,2.234,0,0,0-.494.6.51.51,0,0,0,.233.714,7.216,7.216,0,0,0,.685.325,7.441,7.441,0,0,1,2.375,1.551,1.509,1.509,0,0,1,.415.82,1.2,1.2,0,0,1-.312.911,1.617,1.617,0,0,1-.964.657.558.558,0,0,0-.327.3,3.372,3.372,0,0,0-.289,1.778c0,.252.012.5,0,.756a12.542,12.542,0,0,0,.111,2.733,1.659,1.659,0,0,0,.768,1.183c.3.182.59.37.889.549a.676.676,0,0,0,.889-.129,20.137,20.137,0,0,0,2.121-2.52c.38-.529.782-1.042,1.15-1.58.269-.393.5-.811.744-1.22a2.744,2.744,0,0,0,.18-.352.321.321,0,0,0-.007-.168c-.027-.132-.058-.262-.093-.392s-.121-.124-.255-.008a1.866,1.866,0,0,1-.116-.962,1.248,1.248,0,0,1,.506-1,.24.24,0,0,0,.078-.169c.012-.139,0-.28,0-.409.213-.11.455.063.656-.149l-.249-.315a4.267,4.267,0,0,1,.748-.025.424.424,0,0,0,.406-.151c.379-.391.756-.784,1.141-1.17a13.806,13.806,0,0,1,3.98-2.771A14.6,14.6,0,0,1,91.56,30.2c.056-.012.111-.03.2-.054l-.317-1.2c-.108,0-.212,0-.315,0-.787.018-1.575.067-2.361.048a5.115,5.115,0,0,1-3.791-1.85,6.613,6.613,0,0,1-.927-1.543c-.016-.032-.031-.086-.016-.11.133-.2-.006-.345-.106-.5-.025-.037-.046-.077-.091-.153l.347.056-.11-.217.581.05c-.052-.216-.238-.249-.37-.37l.277-.2-.108-.14c.014-.02.021-.041.035-.049a7.68,7.68,0,0,0,.82-.492,1.178,1.178,0,0,1,.8-.238,9.053,9.053,0,0,1,1.394.294,4.021,4.021,0,0,0,1.792.036,6.615,6.615,0,0,0,1.13-.295,1.7,1.7,0,0,0-.016-.184c-.157-.772-.325-1.541-.473-2.315-.115-.6-.2-1.207-.312-1.809-.027-.155-.02-.336-.219-.413-.03-.012-.052-.136-.027-.181a.355.355,0,0,0-.053-.406q-.484-.712-.972-1.42a1.306,1.306,0,0,0-.146-.182,4.68,4.68,0,0,1-.829-1.085c-.059-.111-.121-.233-.3-.171-.027-.108-.052-.206-.08-.315.224.024.224.024.347.313h.376c-.01-.073-.02-.137-.029-.2l.317-.219c-.008-.207-.115-.421.108-.557a1.1,1.1,0,0,0-.3-.6c-.067-.069-.123-.193-.262-.093-.011.008-.089-.076-.152-.132.283-.159.414.146.652.152l-.1-.242.306-.031-.165-.289a2.819,2.819,0,0,1,1.47-.18,1.617,1.617,0,0,1,.244.095.83.83,0,0,0,.482.04.956.956,0,0,1,.483.038.526.526,0,0,0,.523-.044.306.306,0,0,1,.4,0c.325.23.652.457.975.689.229.165.443.351.68.5a2.07,2.07,0,0,1,.671.719,13.631,13.631,0,0,1,.67,1.294,2.6,2.6,0,0,1,.293,1.055.286.286,0,0,0,.042.138,3.966,3.966,0,0,1,.407,1.418,1.759,1.759,0,0,1,.02.517,1.7,1.7,0,0,1-.15.4c-.065.161-.133.321-.2.48a.717.717,0,0,1-.112.23.271.271,0,0,0-.056.364,1.4,1.4,0,0,1,.071.259,1.2,1.2,0,0,0-.223-.142.232.232,0,0,0-.187.005.589.589,0,0,1-.379.116.6.6,0,0,0-.586.547c-.029.161-.057.321-.09.507a.9.9,0,0,0,.516-.315A1.186,1.186,0,0,1,94.7,21.3a.652.652,0,0,0,.427-.223.479.479,0,0,1,.421-.142,2.087,2.087,0,0,1,.748.192c.423.163.841.341,1.25.534a6.649,6.649,0,0,1,.955.633c.244.172.346.462.607.6.049.187.3.27.254.515-.008.042.12.1.127.159.037.291.334.514.221.842.135.178.031.4.12.6a1.243,1.243,0,0,1-.489,1.222c-.371.224-.748.44-1.11.678a7.387,7.387,0,0,1-1.609.732,7.591,7.591,0,0,0-1.024.4,5.054,5.054,0,0,1-.969.3c-.353.1-.706.2-1.076.3a1.889,1.889,0,0,1-.043.548,1.635,1.635,0,0,0-.082.507.751.751,0,0,0,.015.128,2.912,2.912,0,0,0,.75.007c.524-.005,1.049-.023,1.572,0a9.824,9.824,0,0,1,1.277.123,12.849,12.849,0,0,1,1.362.312c.711.2,1.419.41,2.118.648a9.691,9.691,0,0,1,2.08,1.166c.417.269.822.556,1.238.825a7.062,7.062,0,0,1,2.173,2.245,2.912,2.912,0,0,1,.483,1.3.827.827,0,0,0,.112.359.552.552,0,0,1,.045.5c-.126.4-.248.793-.382,1.226.018.029.095.1.09.173s-.093.135-.135.206a1.622,1.622,0,0,0-.162.309c-.307.931-.6,1.868-.914,2.8-.417,1.212-.859,2.416-1.285,3.625-.154.438-.281.886-.438,1.323-.082.226-.207.436-.306.656-.106.239-.2.483-.306.724a1.789,1.789,0,0,1-.12.264,4.867,4.867,0,0,0-.488,1.148,8.609,8.609,0,0,1-.425,1.016c-.24.517-.486,1.031-.744,1.539-.172.337-.366.662-.557.989s-.383.675-.6.992c-.281.4-.591.79-.889,1.184-.106.139-.207.282-.319.416s-.244.274-.371.406a5.431,5.431,0,0,0-.665.715c-.1.151-.256.383-.047.607.052.056.047.163.067.238a1.046,1.046,0,0,1-.477.458c-.135.065-.228.223-.365.28-.327.136-.505.428-.757.641a2.21,2.21,0,0,0-.5.571,3.86,3.86,0,0,1-.446.513c-.105.121-.2.25-.3.375a.187.187,0,0,1-.067.059c-.157.057-.349.052-.4.277-.01.048-.1.078-.17.126-.165-.187-.4-.129-.615-.165a.661.661,0,0,1-.264-.081,7.342,7.342,0,0,1-.616-.483.476.476,0,0,0-.3-.158.25.25,0,0,1-.15-.08c-.265-.293-.521-.594-.786-.886a.99.99,0,0,0-.241-.176c-.07-.063.067-.091.01-.208-.376-.76-.9-1.428-1.306-2.168a1.361,1.361,0,0,0-.423-.581.2.2,0,0,1-.071-.124,5.453,5.453,0,0,0-.531-1.11c-.134-.3-.321-.578-.457-.878-.307-.68-.621-1.358-.884-2.055-.2-.533-.329-1.094-.494-1.641-.035-.117-.087-.229-.138-.364h.364c-.037-.187-.071-.364-.1-.541a2.161,2.161,0,0,1,.662.707c.095-.029.155-.062.116-.168a1.4,1.4,0,0,0-.424-.7.749.749,0,0,1-.115-.141.153.153,0,0,1,.229.062c.169.236.33.477.5.712a1.265,1.265,0,0,0,.174.176c.035.032.081.053.114.088.3.315.6.637.9.948a3.7,3.7,0,0,0,.684.58c.4.249.761.56,1.157.816a9.675,9.675,0,0,0,.893.48c.38.193.768.372,1.145.571a.417.417,0,0,0,.441,0,2.212,2.212,0,0,0,.62-.47.837.837,0,0,1,.349-.191,3.26,3.26,0,0,1,.384-.1m.566-17.051a6.551,6.551,0,0,0-1.665-.313,12.2,12.2,0,0,0-.061,2.608c.329.13.62.234.9.359.138.062.249.186.389.244.312.131.635.238.953.355.127.046.254.092.381.14a2.6,2.6,0,0,1,.846.417.985.985,0,0,1,.334.382.948.948,0,0,0,.106.238.338.338,0,0,1,.063.323,3.634,3.634,0,0,0-.081.477c-.035.246-.065.492-.1.74-.007.005-.014.017-.021.017-.345-.016-.607.3-.964.242-.036-.006-.086.04-.12.072a.979.979,0,0,1-.558.222,6.483,6.483,0,0,1-.839.082,1.7,1.7,0,0,0-1.031.321.39.39,0,0,0-.2.41c.05.306.067.618.1.927q.113.926.236,1.85a.418.418,0,0,0,.086.21.973.973,0,0,0,.924.125,6.646,6.646,0,0,0,.735-.572A20.568,20.568,0,0,0,98.546,42.6a3.465,3.465,0,0,0,.3-.564,2.626,2.626,0,0,0,.108-.355c.059.067.1.1.116.134.1.338.364.586.481.912.041.116.094.229.127.348a6.507,6.507,0,0,0,.238.834,6.309,6.309,0,0,1,.176.673c.082.279-.05.61.208.847.022.02.018.073.02.112a2.417,2.417,0,0,1-.67,1.775,7.007,7.007,0,0,1-.989.763c-.353.272-.686.571-1.021.866-.225.2-.424.427-.658.613-.255.2-.538.373-.828.57a3.5,3.5,0,0,1,.566,1.85.36.36,0,0,0,.084-.032c.093-.069.187-.139.277-.214a6.292,6.292,0,0,0,1.4-1.661,20.539,20.539,0,0,0,1.908-3.99,9.735,9.735,0,0,0,.51-2.181c.061-.716.118-1.434.135-2.153a7.187,7.187,0,0,0-.214-1.995,1.13,1.13,0,0,0-.086-.185l-.05.014c-.012.088-.023.176-.039.291l-.586-.609c.191-.081.207-.084.162-.3a.357.357,0,0,1,.134-.359c-.081-.095-.145-.18-.22-.255-.324-.322-.649-.644-.979-.96-.2-.188-.4-.368-.609-.544a.515.515,0,0,0-.194-.1c-.106.157-.153-.04-.228-.033l-.146.117a4.9,4.9,0,0,0-2.52-1.232l.088.184Zm-7.344,2.139c.121.309.262.542.6.613a3.318,3.318,0,0,1,1.125.519c.072.048.136.11.212.153.17.1.2.088.3-.076a.772.772,0,0,1,.3-.344,1.393,1.393,0,0,0,.335-.212,1.533,1.533,0,0,1,.991-.359c.362-.021.725-.026,1.1-.039-.106-.907-.21-1.8-.315-2.691a1.747,1.747,0,0,0-.23,0,10.361,10.361,0,0,0-2.008.485,3.725,3.725,0,0,0-1.383.933,1.276,1.276,0,0,1-.242.206,2.721,2.721,0,0,0-.782.809m5.65,7.99.059-.015a23.835,23.835,0,0,0-.185-2.846,3.8,3.8,0,0,0-1.019,1.138,1.1,1.1,0,0,0-.206.648,1.445,1.445,0,0,0,1.247,1.034c.008-.1.018-.209.027-.314l.019,0,.059.352M104.9,34.479l.082-.06a.794.794,0,0,0-.109-.249,5.94,5.94,0,0,0-.672-.643c-.354-.268-.733-.5-1.108-.741-.18-.114-.374-.205-.56-.307a18.337,18.337,0,0,1,2.367,2m-4.03-3.221-.037.061c.192.137.382.278.578.41.171.116.174.112.4-.025a3.385,3.385,0,0,0-.941-.447M91.429,41.571l-.316-.157-.03.046.21.321.136-.21M89.138,17.234l-.055.043.3.479.057-.035a1.032,1.032,0,0,0-.3-.487m7.611,32.317-.04-.073-.447.191.029.065.458-.184m7.631-23.587a3.1,3.1,0,0,0,1.1-.086,2.46,2.46,0,0,1,.852-.121c.2.026.4.054.607.073a4.02,4.02,0,0,0,1.3-.129c.372-.087.41-.1.482-.472.024-.127.057-.213.2-.248a.365.365,0,0,0,.192-.148,1.775,1.775,0,0,0,.219-1.057.447.447,0,0,0-.114-.226c-.071-.092-.194-.159-.229-.26a2.445,2.445,0,0,0-.677-.894,1,1,0,0,1-.343-.553.419.419,0,0,0-.1-.17c-.1-.121-.194-.243-.3-.353a4.138,4.138,0,0,0-.527-.5,1.482,1.482,0,0,1-.462-.461c-.027-.047-.051-.115-.091-.129a.586.586,0,0,1-.293-.268.316.316,0,0,0-.347-.15c-.2.029-.4.007-.558.174-.04.043-.123.048-.189.066a3.009,3.009,0,0,0-.464.131c-.145.068-.263.193-.4.271-.228.126-.464.239-.7.348-.193.089-.4.15-.583.253-.122.069-.281.178-.306.294a1.849,1.849,0,0,0-.012.716,1.163,1.163,0,0,1-.1.76,2.735,2.735,0,0,0-.315,1.084c-.012.29-.037.579-.049.868a.506.506,0,0,0,.05.165,1.036,1.036,0,0,0,.512.576c.22.117.5.105.723.232.01.007.038-.022.053-.018.165.048.371.007.44.161l.449.064" transform="translate(-23.893 -4.4)" fill="#1a1311"/><path d="M146.754,1.746a1,1,0,0,0,.161.184c.182.128.377.24.563.366a2,2,0,0,1,.822.749c.023.051.1.075.162.114-.12.2-.179.385.037.554.038.03.017.125.028.189.031.163.066.325.1.5.157-.083.133-.228.12-.359s-.05-.24-.081-.386c.054.022.085.025.091.039a1.224,1.224,0,0,1,.023.682c0,.015-.008.037-.018.042-.185.086-.123.247-.15.383-.037.188-.09.374-.136.56a.593.593,0,0,0-.025.114c-.018.314-.029.628-.051.942a1.307,1.307,0,0,1-.055.321q-.157.479-.334.953c-.022.061-.115.105-.125.164-.035.195-.251.306-.284.466-.059.274-.236.376-.462.486-.185.091-.34.246-.523.342a6.073,6.073,0,0,1-.714.312c-.456.169-.918.323-1.377.485-.343.122-.684.25-1.029.374a8.4,8.4,0,0,1-1.846.5c-.2.024-.4.086-.594.127a1.112,1.112,0,0,1-.426.018,3.606,3.606,0,0,0-.524.005c-.158,0-.315-.025-.474-.031-.118,0-.238.012-.355,0-.434-.032-.868-.076-1.3-.1-.174-.012-.352.006-.528,0a.143.143,0,0,0-.165.136,1.136,1.136,0,0,0,.009.362c.065.257.152.507.23.761.067.218.136.436.215.685.509-.246.977-.549,1.481-.814.011.081.023.16.035.242l.165-.024.007.024-.318.151.018.046,1.19-.46-.007-.033h-.218a1.3,1.3,0,0,1,.718-.219,1.217,1.217,0,0,0,.568-.078,9.245,9.245,0,0,1,1.968-.4c.083-.012.171.025.256.021a3.6,3.6,0,0,0,.922-.2,1.229,1.229,0,0,0,.121-.053c-.146-.1-.146-.1-.368-.016l-.106-.193a1.937,1.937,0,0,1,.762.068.575.575,0,0,0-.115.035,1.007,1.007,0,0,0-.123.1c.12.033.2.059.292.079.361.083.728.151,1.083.25a.534.534,0,0,1,.406.3,2.3,2.3,0,0,1,.24.048c.145.044.276.093.313.268a.265.265,0,0,0,.2.232c.033.185.294.26.218.516-.031.1.056.24.036.377a.354.354,0,0,1-.144.257c-.157.116-.155.12-.072.314a.413.413,0,0,0-.318.3,14.647,14.647,0,0,1-.92,2.016,4.116,4.116,0,0,1-.6.779c-.129.139-.255.282-.385.419a1.378,1.378,0,0,1-.2.178c-.3.215-.6.43-.912.635-.14.093-.294.165-.441.246.054.083.133.146.127.208a.453.453,0,0,1-.124.24c-.1.112-.223.207-.336.31-.153.14-.316.274-.458.425a2.528,2.528,0,0,1-.778.515,6.285,6.285,0,0,1-.6.22.15.15,0,0,0,.21.075c.062-.022.12-.05.18-.077a8.846,8.846,0,0,1,2.646-.675c.939-.106,1.876-.089,2.815-.154a4.1,4.1,0,0,1,.453.03c.366.015.735.021,1.1.041a4.689,4.689,0,0,1,.52.067,1.074,1.074,0,0,0,.588-.088,4.462,4.462,0,0,1,.735-.253,2.364,2.364,0,0,1,1.631.29,5.729,5.729,0,0,1,2.107,1.962c.076.12.133.253.2.38l.006,0-.249-.18c.039.1.056.159.082.212.18.371.367.738.539,1.112.1.206.165.424.25.635.022.055.065.1.085.157s.063.155.037.208a.324.324,0,0,0,.007.265c.121.449.27.893.347,1.351.088.512.12,1.036.159,1.557.05.659.1,1.319.12,1.98.016.4-.012.8-.021,1.2a.2.2,0,0,1-.019.113c-.187.221-.135.484-.16.726-.1.971-.18,1.944-.268,2.915a1.017,1.017,0,0,1-.035.127l-.214-.357-.055.012a6.208,6.208,0,0,0-.123.726,3.515,3.515,0,0,1-.224.969c-.069.2-.125.4-.194.62a.347.347,0,0,0-.1.1,10.276,10.276,0,0,1-1.6,2.121c-.177.2-.322.422-.512.605a5.012,5.012,0,0,1-.628.491c-.352.245-.712.479-1.072.713-.113.073-.238.128-.357.191l-.034-.032.1-.168c-.17.076-.3.147-.441.2a1.3,1.3,0,0,1-.428.074l.752-.431a8.705,8.705,0,0,1-2.54.49,1.084,1.084,0,0,1,.231-.027,2.347,2.347,0,0,0,.78-.147c.242-.059.491-.086.731-.148a1.5,1.5,0,0,0,.364-.174.658.658,0,0,0,.152-.152.241.241,0,0,1,.248-.1c.21.027.339-.118.46-.261a.9.9,0,0,1,.141-.151.357.357,0,0,1-.161.374c-.117.079-.249.152-.289.318.162.024.225-.089.3-.176a1.759,1.759,0,0,1,.694-.53l-.087-.154a3.433,3.433,0,0,1,.321-.145c.221-.074.23-.084.118-.277.067-.113.14-.227.2-.346.017-.033,0-.082-.005-.123-.048.012-.118.009-.141.039-.084.11-.152.23-.246.377l-.262-.146c-.111.087-.24.195-.377.293s-.281.184-.423.276l.006,0c.014-.049.028-.1.049-.177a6.33,6.33,0,0,1-2.673.714c-.01.085-.016.152-.022.214a6.663,6.663,0,0,1-1.834.039,1.4,1.4,0,0,0-.991.146l1.492.133c-.087.125-.349.018-.284.283-.3-.023-.559-.043-.82-.061-.142-.01-.285-.018-.428-.025-.048,0-.1.014-.14-.005a4.559,4.559,0,0,0-.952-.261,9.425,9.425,0,0,1-2.557-1.048c-.379-.23-.745-.477-1.117-.714-.058-.037-.121-.067-.184-.1l.008.008c-.027-.046-.052-.092-.078-.138l-.006.005.228.051a1.34,1.34,0,0,0-.456-.336l.008.008-.195-.146.009.008a.907.907,0,0,0-.084-.1c-.429-.385-.86-.768-1.288-1.154a.811.811,0,0,1-.1-.143l-.006,0a4.885,4.885,0,0,1,.524.361,1.4,1.4,0,0,1,.364.34c.044.078.2.1.317.116l-.283-.269.041-.042c.093.081.183.167.28.242s.2.138.3.21c.188.135.381.264.558.411.093.075.262.076.268.238.156-.006.233.116.334.19a1.191,1.191,0,0,0,.547.189.38.38,0,0,0-.016.131.152.152,0,0,0,.079.081q.474.229.953.451c.02.009.054-.007.1-.014-.055-.133-.207-.093-.306-.21a5.212,5.212,0,0,0,1.082.32l.05-.056a.842.842,0,0,1-.09-.026c-.246-.1-.488-.21-.739-.3s-.509-.153-.76-.238a1.165,1.165,0,0,1-.235-.133,1.521,1.521,0,0,0-.129-.095,11.134,11.134,0,0,1-1.576-1.063c-.193-.141-.37-.3-.553-.456a.247.247,0,0,1-.086-.165,1.223,1.223,0,0,1,.148.079c.419.291.82.607,1.257.87a5.615,5.615,0,0,0,1.177.6,7.709,7.709,0,0,1,.816.355.182.182,0,0,1,.087.093.283.283,0,0,0,.341.208,1.242,1.242,0,0,1,.52.016c.428.047.853.105,1.279.159a.073.073,0,0,1,.024,0,2.822,2.822,0,0,0,1.111.054c.246.012.494.021.74.039a.347.347,0,0,1,.279.121.918.918,0,0,1-.52.147c-.223.026-.446.051-.669.066a2.457,2.457,0,0,1-.31-.019,4.815,4.815,0,0,0-.551-.011.409.409,0,0,0,.334.1l1.509.025c.056,0,.113,0,.169,0,.441-.033.884-.055,1.324-.1.253-.028.5-.1.762-.155-.014.038-.029.078-.044.12a.13.13,0,0,0,.046,0c.228-.054.46-.1.681-.171a1,1,0,0,0,.339-.212,1.275,1.275,0,0,1,.23-.2c.071-.039.111-.127.2-.23.3-.067.386-.4.638-.647l-.462.086.251-.366c-.136,0-.191.1-.272.167s-.152.18-.285.086c-.017-.011-.061.01-.09.019-.317.1-.632.2-.949.291-.125.037-.248.052-.325.184-.031.054-.131.073-.2.109l.05.065a10.31,10.31,0,0,1-2.55.2,9.466,9.466,0,0,1-2.017-.229,1.86,1.86,0,0,1-.3-.123c.384.061.764.155,1.153.178.6.035,1.215.024,1.824.03a.333.333,0,0,0,.12-.012.735.735,0,0,0,.121-.078c-.522-.072-1.033-.089-1.541-.133s-1.01-.117-1.514-.176l-.013.046.323.093-.007.03-.464.024a1.272,1.272,0,0,1-.565-.107,10.577,10.577,0,0,1-2.957-1.428,3.5,3.5,0,0,0-.334-.2,5.792,5.792,0,0,1-1.122-.793.53.53,0,0,0-.079-.048l-.2-.144c-.061-.076-.123-.152-.184-.229-.034-.044-.067-.089-.1-.134l.038-.037c.168.129.334.259.5.386.233.176.47.35.7.526.135.1.264.212.4.31.093.067.2.116.3.178.321.2.622.434.961.6a6.664,6.664,0,0,0,1.716.69,1.5,1.5,0,0,0,.283.053,1.191,1.191,0,0,0-.114-.067c-.335-.15-.675-.291-1-.451-.449-.216-.909-.419-1.33-.677-.535-.327-1.042-.695-1.55-1.061-.313-.225-.609-.473-.9-.722-.31-.263-.607-.54-.909-.81-.063-.056-.127-.114-.194-.165a12.837,12.837,0,0,1-1.063-.982c-.212-.2-.415-.4-.615-.613a1.035,1.035,0,0,1-.125-.212.784.784,0,0,0,.341.246c-.112-.251-.186-.312-.368-.318l.033.08a.572.572,0,0,0-.389-.14q-1.342-.05-2.686-.107a10.207,10.207,0,0,1-2.436-.312c-.052-.014-.107-.018-.174-.029.144.187.563.33,1.472.539-.267-.033-.537-.054-.8-.1a7.03,7.03,0,0,1-1.407-.33c-.277-.109-.542-.24-.808-.371a.737.737,0,0,1-.16-.157l-.085.023c-.052-.091-.1-.167-.136-.246a.092.092,0,0,1,0-.084c.087-.132,0-.2-.088-.268a1.731,1.731,0,0,1-.524-.713.37.37,0,0,1-.013-.219,1.215,1.215,0,0,0-.023-.359c-.007-.069-.069-.143.053-.191.019-.008.02-.082.017-.123-.012-.207-.042-.414-.035-.621a3.389,3.389,0,0,1,.084-.549.16.16,0,0,1,.084-.1c.142-.048.153-.152.153-.264a.852.852,0,0,0-.009-.115.374.374,0,0,1,.233-.458.161.161,0,0,0,.074-.06,3.808,3.808,0,0,1,.681-.7.2.2,0,0,0,.057-.1,1.843,1.843,0,0,1,.3-.607.771.771,0,0,1,.268-.235,1.23,1.23,0,0,0,.494-.479c.051-.1.189-.168.292-.245s.246-.157.359-.25a.229.229,0,0,0,.076-.33.8.8,0,0,1-.074-.191c-.028-.2-.139-.275-.347-.234-.035-.091-.167-.16-.021-.268-.119-.227.042-.48-.034-.711a.952.952,0,0,0-.08-.15c.112-.179.229-.364.342-.551.024-.04.034-.087.054-.129a.3.3,0,0,1,.218-.2,1.726,1.726,0,0,0,.415-.2,3.761,3.761,0,0,1,1.077-.368,1.28,1.28,0,0,1,.752.072,2.725,2.725,0,0,1,1.243,1.04c.17.251.311.523.473.781.1.161.212.317.328.467a1.948,1.948,0,0,1,.469,1.065c.022.289.116.569.133.858a2.616,2.616,0,0,1-.1,1.055c-.045.125-.076.253-.112.381a2.8,2.8,0,0,0,1.39.11l-.178.151c.019.024.026.043.038.045a8.5,8.5,0,0,0,1.244.235c.273,0,.543.031.815.053a3.435,3.435,0,0,1,.609.093h-1.119l-.007.05c.2.018.4.035.595.054.065.006.148-.025.17.076,0,.024.059.044.094.05a1.537,1.537,0,0,0,.167.011.884.884,0,0,0,.833-.4,6.948,6.948,0,0,1,.594-.665.808.808,0,0,0,.283-.526,8.824,8.824,0,0,0-.178-2.682.059.059,0,0,0-.113-.023,1.175,1.175,0,0,1-.649.227,6.011,6.011,0,0,1-.667.082.419.419,0,0,1-.35-.167l.491.12c.008-.017.015-.034.022-.051-.116-.05-.232-.1-.349-.15-.064-.026-.167-.021-.108-.14,0-.007-.041-.036-.065-.052-.35-.228-.686-.475-1.054-.675a3.938,3.938,0,0,0-.479-.278,1.073,1.073,0,0,1-.245-.189l.139-.135c-.127.01-.2-.123-.32-.027l-.188-.249c.067.037.1,0,.066-.05a1.133,1.133,0,0,0-.184-.172l-.033.03.159.2a.639.639,0,0,1-.409-.49c-.005-.028-.009-.065-.029-.081-.144-.123-.191-.312-.334-.445a3.326,3.326,0,0,1-.4-.553c-.072-.1-.148-.2-.241-.325-.045.139.1.222-.005.317l.007-.006-.161-.394a.96.96,0,0,0-.086-.207c-.074-.1-.166-.187-.143-.332,0-.027-.04-.059-.059-.089a.727.727,0,0,1-.09-.15c-.166-.557-.336-1.112-.488-1.673a19,19,0,0,1-.614-3.314c-.033-.4-.025-.8-.049-1.2a2.04,2.04,0,0,0-.09-.416c-.006-.023-.062-.031-.094-.046l0-.6a.2.2,0,0,1,.1-.2.489.489,0,0,0,.228-.347c.093-.355.2-.707.29-1.063a.854.854,0,0,1,.381-.53.272.272,0,0,0,.144-.2c.007-.054.035-.105.042-.159a1.1,1.1,0,0,1,.293-.571,4.624,4.624,0,0,0,.355-.585.627.627,0,0,0,.436-.206,4.145,4.145,0,0,1,.628-.364c.752-.423,1.541-.767,2.322-1.129a23.91,23.91,0,0,1,2.606-.949q.727-.239,1.454-.487a2.845,2.845,0,0,0,.291-.135l-.575-.441-.137.144c-.174-.082-.151-.274-.244-.421-.177.139-.3.054-.426-.059-.187-.17-.376-.339-.574-.5-.151-.118-.321-.214-.481-.321-.276-.185-.559-.365-.826-.561-.235-.171-.245-.287-.076-.528.039-.058.1-.1.061-.185-.005-.013.022-.045.038-.065a.586.586,0,0,0,.087-.1c.1-.245.159-.287.422-.29-.043-.283-.271-.528-.1-.882a.471.471,0,0,0,.059.121.127.127,0,0,0,.1.044,1.258,1.258,0,0,0,.508-.167,1.341,1.341,0,0,1,.836-.326,5.053,5.053,0,0,1,1.923.133.191.191,0,0,1,.1.061h-.269a4.541,4.541,0,0,0,1.39.436L144.566.66c.169.074.336.157.509.223a7.211,7.211,0,0,1,1.241.629c.142.088.3.161.445.242ZM142.2,36l.238.093a1.6,1.6,0,0,0,.2.087.077.077,0,0,0,.11-.075c.054.052.114.058.22.024l-.3-.17a5.159,5.159,0,0,1,.69.163.111.111,0,0,1,.071.054c.046.138.174.137.29.152a13.5,13.5,0,0,0,1.89.107.683.683,0,0,0,.392-.121,2.476,2.476,0,0,0-.66-.068,3.578,3.578,0,0,1-.757-.079c-.013,0-.022-.025-.041-.049a4.841,4.841,0,0,0,1.411.005,4.326,4.326,0,0,0-.542-.067c-.286-.02-.576-.02-.859-.057a13.026,13.026,0,0,1-2.275-.473,3.249,3.249,0,0,0-.5-.08l-.018.05c.091.036.184.07.274.107.144.059.169.156.082.31l-.135.008-.007.029L142.2,36m1.117-4.96a.174.174,0,0,0-.212.106l.208-.11.335-.048.222-.155c-.086.037-.236-.01-.222.155a.248.248,0,0,0-.331.053m-3.855,2.783a.321.321,0,0,0,.3.136l-.306-.132a.448.448,0,0,0-.334-.177.387.387,0,0,0,.338.172m5.064-3.807a.578.578,0,0,0,.137-.034c.223-.117.443-.24.664-.359a1.154,1.154,0,0,1,.111-.044l-.056-.071c-.27.152-.539.3-.809.457-.018.01-.028.037-.042.056-.266-.027-.414.184-.611.3a1.207,1.207,0,0,0,.606-.3m-5.6,4.826a.634.634,0,0,0-.375-.275,1.272,1.272,0,0,0-.19-.24c-.372-.3-.751-.586-1.13-.876a.624.624,0,0,0-.146-.052.425.425,0,0,0,.052.085c.134.125.263.259.408.371a1.207,1.207,0,0,1,.385.389c.01.018.037.027.055.04a2.46,2.46,0,0,0,.573.278.521.521,0,0,0,0,.1c.182.022.172.219.3.292a1.643,1.643,0,0,1,.172.127l.031-.03-.046-.064.095.014.02-.042-.2-.12m-1.608-2.433-.211.065c.157.1.292.183.43.264.084.049.174.081.26-.014a.337.337,0,0,0,.058.119,1.126,1.126,0,0,0,.169.1l-.111-.007-.014.035.321.169c-.016-.067-.02-.089-.025-.11.078.048.153.1.235.143.545.276,1.092.55,1.637.827a.764.764,0,0,1,.12.091c.087.025.177.044.26.077.2.079.39.165.585.248l.033-.052a.9.9,0,0,0-.168-.132c-.138-.065-.293-.1-.428-.174a.233.233,0,0,0-.282.034c-.024-.05-.032-.117-.072-.144-.12-.081-.25-.148-.378-.217-.093-.05-.189-.1-.283-.144,0-.008.008-.015.011-.023l.334.078a1.346,1.346,0,0,0,.771.332c-.151-.077-.264-.144-.386-.194s-.26-.089-.391-.133c-.017-.02-.031-.049-.054-.061-.244-.12-.489-.236-.732-.357-.053-.026-.143-.073-.138-.1.017-.092-.033-.1-.1-.11a.173.173,0,0,1-.1-.049c-.083-.127-.227-.147-.359-.192a.739.739,0,0,1-.161-.08c-.062-.041-.112-.1-.176-.136-.186-.111-.373-.219-.564-.321a2.307,2.307,0,0,0-.3-.128c-.044-.016-.1-.017-.092.059-.188-.141-.413-.069-.625-.073a.674.674,0,0,0,.617.086c.024.033.04.074.072.1.076.05.159.089.24.133Zm.466-.179c-.078-.095-.19-.1-.331-.114a13.505,13.505,0,0,0,1.942.87,16.957,16.957,0,0,0-1.6-.756l.178.016c-.125-.082-.125-.082-.187-.016M143.35,39.1,142.593,39a3.585,3.585,0,0,0,.517.2c.272.08.549.144.819.226a3.926,3.926,0,0,0,.992.155c.059,0,.138.013.179-.061-.332-.115-.7-.035-1.027-.191l.121-.054a2.031,2.031,0,0,0-.907-.254l.057.091Zm-1.9-3.35.321.1a.3.3,0,0,0-.324-.1l.029-.21c.113.01.15.152.306.08a1.166,1.166,0,0,0-.221-.112,1.744,1.744,0,0,1-.556-.274.851.851,0,0,0-.122-.068,8.96,8.96,0,0,1-1.253-.713,1.411,1.411,0,0,0-.248-.108,4.25,4.25,0,0,0,.4.394c.017.015.038.037.059.036.127,0,.2.084.275.152a4.285,4.285,0,0,0,.9.571c.149.077.291.168.439.251m2.591-4.7c-.091.027-.184.052-.274.081-.353.116-.705.235-1.06.348-.125.04-.255.063-.383.093,0,.01,0,.02.005.029l.227.01c0,.018,0,.037,0,.056-.417.039-.833.108-1.247.11-1.244.007-2.488-.013-3.732-.021a.459.459,0,0,0-.111.027.143.143,0,0,0,.1.043c.695.037,1.389.079,2.086.109.278.012.56-.008.839,0a3.778,3.778,0,0,1,.957.034l-.086.067.166.087c-.591.042-1.17.044-1.748.042-.417,0-.835-.007-1.253-.008a1.2,1.2,0,0,0-.164.022l-.007.049c.332.156.663.312.992.47a.477.477,0,0,1,.13.086.636.636,0,0,0,.5.213l-.007,0a3.38,3.38,0,0,0,.358.2c.165.069.34.115.509.172.142.048.281.1.423.146a1.419,1.419,0,0,1,.614.363.624.624,0,0,0,.38.18c-.034-.065-.059-.11-.086-.165a1.786,1.786,0,0,1,.258.048c.11.039.259.065.308.146a.406.406,0,0,0,.353.178c.2.02.4.024.6.037.067,0,.133.016.249.03-.173.087-.3-.059-.432.041a2.343,2.343,0,0,0,1.618.112c-.2-.056-.347-.09-.491-.139s-.312.114-.481-.039c.077,0,.122,0,.167,0,.531-.016,1.061-.025,1.592-.053a2.455,2.455,0,0,0,.618-.1,1.682,1.682,0,0,1,.746-.15.583.583,0,0,0,.261-.04,3.6,3.6,0,0,0,.369-.168c.018-.009.026-.038.038-.057-.03-.036-.059-.069-.107-.124l.551-.55c-.113-.039-.131-.114-.073-.2a2.054,2.054,0,0,1,.215-.289c.11-.117.234-.221.352-.332a.511.511,0,0,0,.211-.474,1.267,1.267,0,0,1,.011-.276c.091-.037.176-.064.255-.1a.283.283,0,0,0,.12-.107c.116-.226.229-.453.328-.686a2.268,2.268,0,0,0,.091-.352.186.186,0,0,0-.276.029c-.1.108-.192.215-.293.318a.447.447,0,0,1-.108.061,1.5,1.5,0,0,1,.151-.351,6.051,6.051,0,0,0,.436-.92,14.068,14.068,0,0,0,.518-2.588,11.662,11.662,0,0,0-.1-1.415,2.07,2.07,0,0,0-.086-.544c-.11-.379-.236-.754-.366-1.128a1.568,1.568,0,0,0-.157-.27l-.2.1a1.468,1.468,0,0,0-.328-.762.192.192,0,0,1-.03-.23c.093-.178-.138-.338-.014-.527.02-.029-.023-.1-.048-.148-.079-.148-.161-.294-.248-.437-.021-.034-.069-.052-.1-.076l-.175.14a1.087,1.087,0,0,1,.033-.218c.071-.17-.022-.265-.148-.343a.733.733,0,0,0-.214-.094c-.229-.057-.46-.115-.694-.155a12.955,12.955,0,0,0-3.3-.159,5.237,5.237,0,0,0-1.233.256.893.893,0,0,0-.357.179l.4.221c-.056.36.332.419.46.653-.229.1-.242.15-.13.317.133.2.258.408.37.622a.487.487,0,0,1,.051.289c-.062.375.206.532.479.757l.082-.158a1.308,1.308,0,0,0,.4.09,2.935,2.935,0,0,1,.666.033.429.429,0,0,1,.229.1c.048.042.056.126.086.2l.33.093c-.01-.06-.016-.089-.018-.106a1.465,1.465,0,0,0,.816-.243c.1.069.109.138.065.218s-.086.152-.133.227c-.094.154-.189.308-.273.443l.5.642a2.078,2.078,0,0,0,.442-.689.155.155,0,0,1,.176.159c.018.219.026.441.033.662.006.158-.007.319.012.475.04.341.1.679.146,1.019a.283.283,0,0,1-.008.175c-.025.044-.1.063-.158.1a.882.882,0,0,0-.005.112.489.489,0,0,1-.134.43.357.357,0,0,0-.065.332.737.737,0,0,1,.029.317,2.872,2.872,0,0,0-.134.8,1.717,1.717,0,0,1-.5.885c-.008.01-.028.01-.044.015l-.078-.086-.308.184c-.01.049-.022.1-.035.174l-.069-.062-1.055.78c-.018-.051-.028-.078-.041-.11l.184-.1c-.031-.134-.031-.134-.151-.15.2-.154.469-.212.616-.441-.118-.069-.2.011-.278.054-.424.223-.841.459-1.267.673-.283.141-.579.252-.87.376a.238.238,0,0,1-.069.021.309.309,0,0,1-.071-.012l.813-.394.221-.084c-.011-.018-.021-.035-.031-.053l-.186.142m.849,6.787a.978.978,0,0,0,.115.027c.291.033.583.074.876.093.236.016.477,0,.716,0,.2,0,.38-.1.587-.1.391-.008.785-.067,1.176-.112a.329.329,0,0,0,.193-.086,1.325,1.325,0,0,1,.54-.348.373.373,0,0,0,.283-.29,1.019,1.019,0,0,0,.138-.091c.049-.045.036-.08-.031-.09.052-.13.1-.26.167-.419a.661.661,0,0,0-.11.039,3.714,3.714,0,0,1-1.3.624,4.359,4.359,0,0,1-1.126.118c-.537,0-1.072-.027-1.61-.033a2.994,2.994,0,0,1-.821-.072,5.309,5.309,0,0,0-.612-.091,11.836,11.836,0,0,1-2.929-.962c-.067-.031-.136-.059-.206-.089L140.92,36c.263.14.523.283.788.421.111.057.232.095.341.154.177.095.347.2.518.3.038.023.1.059.095.088-.01.161.118.17.226.2l.4.129-.022.05a7.182,7.182,0,0,1-2.184-.85c.082.1.157.189.238.28.059.066.11.153.186.187.449.2.9.393,1.356.586a1.1,1.1,0,0,1,.153.058,2.457,2.457,0,0,0,.993.281c.234.033.475.046.713.057.182.009.363,0,.581,0l-.412-.115Zm-.576-12.213c-.027-.078-.054-.155-.082-.233-.059.121-.051.21.089.227-.042.09-.084.18-.149.321-.014-.095-.024-.131-.025-.168-.007-.205,0-.412-.022-.616-.012-.142-.062-.273-.212-.3-.066-.249-.138-.487-.19-.73s-.087-.5-.133-.767c-.046.039-.089.059-.105.089a1.148,1.148,0,0,1-.714.569.357.357,0,0,0-.183.178,8.392,8.392,0,0,0-.3.809,5.13,5.13,0,0,0-.1.549,8.547,8.547,0,0,1-.234,1.248.543.543,0,0,0-.01.156,1.817,1.817,0,0,0,.792-.26,1.132,1.132,0,0,1,.156-.064l.035.054-.38.376a2.711,2.711,0,0,0,.932-.332l.027.039c-.055.075-.11.151-.163.227.173-.05.346-.077.415-.233a.557.557,0,0,0,.193.056c.245-.023.489-.061.739-.095-.078-.181-.125-.22-.21-.15-.157.131-.3.039-.47.02l.284-.183.022.031-.14.125c.01.014.02.029.028.043l.335-.123c-.087-.123-.227-.177-.248-.355l.167.179a1.5,1.5,0,0,0-.038-.441,1.6,1.6,0,0,0-.1-.242m-4.784-7.8c.046.17.1.332.135.5a.177.177,0,0,0,.219.152c.2-.017.4-.03.6-.042a3.8,3.8,0,0,0,1.9-.681,4.833,4.833,0,0,0,.959-.813c.169-.193.338-.387.511-.577a4.1,4.1,0,0,0,.9-1.633,2.573,2.573,0,0,0,.082-1.194.319.319,0,0,0-.248-.268,4.816,4.816,0,0,0-1.725-.194,13.558,13.558,0,0,0-2.418.492,4.841,4.841,0,0,0-.624.205,6.959,6.959,0,0,0-1.568.707,3.971,3.971,0,0,0-.673.628c0,.361.311.409.523.569.076-.05.145-.092.21-.138a7.208,7.208,0,0,1,1.746-.955,3.373,3.373,0,0,1,1.85-.191,1.681,1.681,0,0,1,.285.106,1.933,1.933,0,0,0,.363.151,1.415,1.415,0,0,1,.729.428c.08.076.1.233.028.293-.185.15-.321.366-.58.426a.606.606,0,0,0-.168.094c-.271.176-.536.363-.814.53-.458.276-.925.539-1.386.811a4.02,4.02,0,0,0-.837.6m.2,2.467v-.056l-.255-.042a4.012,4.012,0,0,1-1.208-.327,1.265,1.265,0,0,0-.653-.118c.1.351.419.568.5.916,0,.007.008.012.014.018l.592.581.562-.4-.072-.134.2-.092c-.041-.072-.073-.133-.1-.19l.415-.152m6.248,16.676c-.031-.041-.038-.061-.048-.063-.4-.051-.806-.091-1.2-.152a15.129,15.129,0,0,1-1.5-.268c-.479-.123-.933-.318-1.4-.48-.046-.016-.1-.022-.169-.039.2.24.2.249.385.321.323.121.649.232.977.34a2.8,2.8,0,0,1,.3.063,3.025,3.025,0,0,0,.968.214c.245.027.49.055.735.077a3.517,3.517,0,0,0,.953-.015m-6.85-20.07c.078-.056.124-.088.168-.121a11.642,11.642,0,0,1,1.125-.844,1.751,1.751,0,0,0,.564-.5,5.937,5.937,0,0,0-2.01,1.044c.055.151.1.27.153.418m2.416,19.248.012-.024a3.368,3.368,0,0,0-.595-.4c-.3-.123-.509-.4-.866-.406-.208-.2-.54-.212-.731-.436a1.921,1.921,0,0,0-.195-.176l-.035.035a.839.839,0,0,1,.168.165,1.87,1.87,0,0,1,.063.22c.016.039.063.065.1.1a.818.818,0,0,1,.122.1,1.634,1.634,0,0,0,.958.5c.008,0,.023-.015.035-.024-.02-.033-.037-.067-.066-.116l1.031.463m-1.326-4.985v.01l.138.01a14.6,14.6,0,0,0,1.827-.055,3.871,3.871,0,0,0,1.462-.409c.062-.031.121-.069.184-.1l-.017-.05a6.862,6.862,0,0,1-1.767.473c-.608.054-1.217.083-1.827.123m5.769,5.467c0-.023.007-.046.01-.068-.157-.012-.314-.026-.473-.033s-.32,0-.48-.008-.3-.014-.455-.029-.315-.037-.472-.061a.756.756,0,0,0-.5.016,6.964,6.964,0,0,0,2.371.182m8.9-3.894a6.245,6.245,0,0,0,.132-2.027,6.03,6.03,0,0,0-.132,2.027m-14.03,1.927a5.437,5.437,0,0,0,2.31.873.522.522,0,0,0-.155-.08c-.04-.018-.1-.033-.112-.063-.034-.132-.147-.114-.246-.127a2.434,2.434,0,0,1-.485-.074c-.374-.135-.737-.3-1.105-.446l-.207-.083m-2.609-3.35c0,.02,0,.04,0,.06a14.711,14.711,0,0,0,2.314.008l-2.312-.069m.573-12.909.034.061h.515l-.2-.387-.347.326m6.3-7.132a3.63,3.63,0,0,0-1.222.052,3.212,3.212,0,0,0,1.222-.052m-.918,24.3a1.479,1.479,0,0,0-.667-.142.475.475,0,0,0,.667.142M139.34,37.22l-.027.045.7.479a1,1,0,0,0-.669-.524m10.673-.882.05.054c.1-.1.208-.189.3-.293.219-.239.217-.241.2-.337l-.556.576M139.626,18.456a.918.918,0,0,0-.253-.534c-.079.171.035.291.077.424.022.068.039.158.176.11m.619,11.369a4.356,4.356,0,0,0,1.257,0c-.038-.024-.051-.039-.063-.038l-1.194.034m2.13-1.038h-1.038a1.935,1.935,0,0,0,1.038,0m-6.26,3.651c.017-.02.035-.039.054-.057a1.806,1.806,0,0,0-.5-.358l-.034.042.477.374m5.733,4.311c-.093-.288-.158-.316-.319-.168l.319.168m2.275-1.67c-.349-.121-.436-.121-.669,0Zm.456,4.847a.738.738,0,0,0-.6-.094l.6.094m-5.558-5.45a1.916,1.916,0,0,0,.541.355c-.176-.125-.3-.324-.541-.355m16.215-.779c.038-.016.114-.029.118-.052a.4.4,0,0,0-.071-.361c-.017.15-.031.268-.048.413m-12.068-4.081c-.005-.018-.01-.037-.016-.056l-.609.149c0,.016.007.033.011.05l.614-.143m1.751.441a.63.63,0,0,0,.443-.257c-.163.081-.338.093-.443.257m-3.631,1.3c0,.015,0,.029,0,.044l.56-.049v-.04l-.562.046m.069,2.341a.328.328,0,0,0,.4.165l-.4-.165m9.161,4.953.04.03c.172-.081.172-.081.112-.229l-.153.2m2.4-1.153c.2-.035.219-.056.205-.231l-.205.231M138.186,17.691l.173-.22c-.174-.02-.174-.02-.173.22m-.438,16.061c-.148-.2-.148-.2-.321-.227l.321.227m6.082,5.818.018-.057-.225-.053c-.006.019-.01.037-.017.056l.223.054m3.307.07c0-.018,0-.037,0-.055l-.2.031c0,.016,0,.031.005.047l.2-.024M145.177,30.2c-.1-.006-.195,0-.231.127l.231-.127m-9.35,2.183c-.006.114-.006.114.135.19l-.135-.19m4.5,5.567c.012-.017.022-.034.033-.051l-.186-.094-.029.052Zm9.645,1.033c.1.03.152.007.169-.118l-.169.118m-8.535-3.618c.01-.014.02-.029.031-.043l-.169-.076-.017.029.155.09m-2.26-1.063.035-.052-.117-.065-.028.038.11.079m5.159-3.723.018.035.182-.09-.018-.037-.182.092m-2.97,5.808.025-.037-.15-.093c-.01.012-.018.025-.027.039l.151.092m-4.7-3.345.029-.029-.125-.112-.029.029.124.112m.311-16.11.034.012c.018-.043.038-.086.057-.129l-.04-.013c-.017.044-.033.087-.051.131m4.151,21.449-.025.035.134.071.017-.027-.125-.078m1.968-11.245a.218.218,0,0,1-.01-.026l-.155.058.011.031.153-.063M139.8,35.014l.032-.04a.347.347,0,0,0-.066-.045.479.479,0,0,0-.086-.016l-.009.025.129.076m.2.051c-.016.011-.025.014-.028.02s0,.019,0,.021c.038.02.077.038.116.056l.016-.032L140,35.065m9.606,3.82a.563.563,0,0,0,.368-.566c0-.179,0-.357.2-.46,0,0,0-.024-.012-.065a7.147,7.147,0,0,1-1.254.586l.479-.116c-.039.084-.048.147-.079.162a2.806,2.806,0,0,1-.9.266c-.341.036-.683.078-1.051.12l.319.05c-.035.071-.063.128-.1.2.176.019.278-.088.4-.149a.642.642,0,0,1,.189-.1c.278-.033.557-.053.829-.077-.016.067-.025.112-.04.172.278-.01.466-.259.745-.228-.05.069-.088.123-.122.17.02.022.028.034.029.033M137.827,34.8c-.032-.082-.041-.185-.1-.244-.214-.214-.441-.417-.67-.617a.2.2,0,0,0-.145-.023c-.016,0-.024.072-.037.114-.134-.067-.211-.222-.391-.163l0-.012c.085.053.05.167.1.225.127.14.208.342.451.353.021,0,.039.023.058.036.172.114.342.23.515.342.113.074.231.141.348.211l-.006.005-.067-.15-.064-.077m11.18,4.855a5.254,5.254,0,0,0,.9-.168c.04-.007.073-.069.137-.134a2.9,2.9,0,0,0-1.039.3m-12.612-5.97a2.173,2.173,0,0,1-.443-.078,2.325,2.325,0,0,1,.479.489c0,.006.029,0,.044,0l-.007,0,.022-.242,0,.012c.011-.083-.008-.185-.091-.182m1.12,1.7.787.83a3.587,3.587,0,0,0-.733-.871l-.054.041m17.778-1.039c-.021.012-.056.021-.059.035-.044.217-.083.436-.12.654,0,.012.029.029.063.058a1.2,1.2,0,0,0,.116-.747m-18.53-.607c-.135-.166-.283-.321-.43-.476a.3.3,0,0,0-.065-.063,1.47,1.47,0,0,0-.159-.066,1.842,1.842,0,0,0,.654.6m.687,1.851a2.186,2.186,0,0,0-.524-.583c-.029-.029-.1-.022-.149-.032h0a1.02,1.02,0,0,1,.134.1c.155.168.3.339.457.509l.083,0m.021.18a1.092,1.092,0,0,1,.431.366.944.944,0,0,0,.144.1l-.006,0c0-.021,0-.05-.01-.062-.191-.2-.386-.393-.58-.589l-.083,0c.033.063.052.165.1.182m-1.631-2.5.127-.046a.7.7,0,0,0-.425-.438.605.605,0,0,0,.135.219,2.065,2.065,0,0,0,.213.168c-.013.033-.028.069-.044.1Zm4.171,4.91a.3.3,0,0,1-.24-.114.179.179,0,0,0-.234-.067c.086.076.145.172.225.189a.565.565,0,0,1,.219.11c.059.042.124.076.186.114l.026-.032c-.063-.069-.127-.138-.191-.207l.008.008M154.528,36.8c-.138.146-.144.328-.217.485a.408.408,0,0,0,.217-.485m-7.664,3.762a1.652,1.652,0,0,0-.632.141.971.971,0,0,0,.632-.141m-6.938-2.518c-.024-.033-.048-.067-.073-.1-.051-.063-.1-.124-.155-.186l.008.008-.195-.146.009.008-.239-.118c-.011.015-.021.03-.031.045l.681.483Zm8.5,2.634c.061-.039.121-.08.183-.116.018-.01.048,0,.071,0,.059-.013.117-.03.174-.046-.19.047-.4-.068-.611.1.087.03.193-.065.183.068m-11.936-6.158a.908.908,0,0,0-.406-.485c.13.166.212.369.411.481Zm7.392-23.646-.317.014a.2.2,0,0,0-.2.113l.539-.1-.022-.031M138.351,35.4l-.029.04.459.366c0-.078,0-.106,0-.135l-.2-.144-.228-.127m-1.856-.882c.055.084.112.166.166.251.041.066.078.135.116.2h0a.405.405,0,0,0-.289-.449l.006,0m7.892,6.032c0,.144.044.16.339.1l-.339-.1m-7.276-5.656.275.321a.335.335,0,0,0-.275-.321m2.188,3.044-.358-.234-.033.044.345.244.046-.053m3.459-26.848c-.2-.107-.2-.107-.346.06l.346-.06m12.354,24.432c.021-.113.041-.214.059-.315-.174.236-.174.236-.059.315m.636-4.109c0,.136.008.272.013.408l.036,0-.016-.408-.033,0M145.62,40.554l-.258.016c.159.076.159.076.258-.016M135.06,19.917c.034.1.042.216.192.217-.069-.068-.045-.217-.2-.211l.007-.006m5.253,18.859-.244-.086c.029.142.117.163.244.086M136.768,34.5c.1.172.106.176.257.208l-.218-.242-.039.035m1.2.526a.346.346,0,0,0,.285.261l-.291-.255.006-.005m16.547-13.309a.233.233,0,0,0,.172.263l-.178-.259.006,0M135.846,33.276l-.212-.079c.093.18.093.18.206.072l.006.007m-.5-12.994c.029.071.06.141.089.212l.057-.023-.084-.215-.062.025m9.716,20.2-.249.025v.018h.25c0-.014,0-.028,0-.042m-7.315-3.829.183.144.027-.029c-.056-.051-.111-.1-.168-.152l-.042.037m1.066-.054-.184-.154-.025.025.172.161.038-.032m2.083,2.616.225.136c-.01-.149-.1-.155-.225-.136m-2.789-4.295c-.092-.114-.167-.159-.281-.122l.064.077.218.045m12.354,4.109a.243.243,0,0,0-.232.15l.227-.152.005,0m-1.62.6-.174.037c.1.068.1.068.174-.037m-.314.046-.152.027c0,.013.007.025.01.039l.146-.044Zm-6.586-28.473-.183.019v.011l.179-.014,0-.016M140.1,38.572l-.158-.105-.021.029.155.108a.378.378,0,0,0,.024-.033m-4.32-17.77-.186-.13c-.01.142.106.112.186.129ZM138.6,37.374l-.165-.073c-.007.013-.014.026-.023.04l.157.089.03-.056m.865.82.137.065.024-.04-.128-.078c-.01.018-.022.036-.033.054m-.12-.478-.155-.114-.035.045.161.106.029-.037M135.775,20.8c-.011.138-.011.138.119.229l-.119-.228h0m20.05,10.357c0-.043-.01-.087-.016-.13l-.035,0c0,.042,0,.086,0,.128l.05,0M138.588,37.67l-.108-.09-.026.027.11.088.024-.025m8.256,2.524-.11.037.007.027.113-.029-.01-.035M139.2,27.268l.11-.022v-.033h-.112l0,.054M150.97,39.2l.076-.1-.04-.028-.083.089.046.038M136.16,21.369l-.042.039c.016.014.031.029.048.041l.031-.031-.037-.049m-.311,12.3-.093-.088-.024.024.08.1.037-.033m.626.423c-.022.089.036.122.089.159l.038-.032-.133-.122.007,0m1.306.97L137.673,35l-.022.029.1.072.032-.038m2.945,3.995-.114.012c0,.009,0,.019,0,.028h.107c0-.014,0-.027.006-.04m-2.77-2.755c-.024-.03-.046-.061-.071-.091l-.025.02.075.088.021-.016m1.471-.017-.107-.066-.02.029.1.072.029-.035m-.417,1.052.108.067.021-.029-.1-.074-.031.037m-.746-.684.068.065.048-.044-.093-.04-.023.02m1.7-3.666.351.036a1.031,1.031,0,0,0-.274-.11c-.058-.014-.089.017-.069.078l-.007,0m-2.376-.559-.3-.142c.023.074.031.1.039.13l0-.007.04.046.222-.027m4.3-.486a.841.841,0,0,1,.33,0,1.115,1.115,0,0,0,.679.026c.186-.037.37-.086.6-.142-.218-.08-.4.069-.577-.018l.173-.118c-.055.007-.111.012-.166.021a4.236,4.236,0,0,1-1.033.162,1.67,1.67,0,0,0-.464.1c.152-.009.3-.02.455-.027m7.187-.675c.063-.167.116-.308-.025-.425-.007.138-.061.28.025.425m-3.905-.508-.667.33a1.187,1.187,0,0,0,.667-.33m-.7.348-.5.261a.7.7,0,0,0,.5-.261m.707.22-.357.182c.007.016.016.031.023.046l.353-.189Zm3.41-9.553c.005-.1.008-.157.011-.213-.094.056-.105.112-.011.213m-4.61,9.587c-.108.046-.242.046-.3.169.108-.044.249-.031.3-.169m-.585.233-.31.1.31-.1m-1.377.48h-.111V32.1l.11,0v-.017m6.416,5.3c.032-.083.059-.155.105-.275l-.732.426c.238.11.406-.156.627-.152m-5.063.153-.607-.188a.822.822,0,0,0,.607.188m5.725-.356.285-.144c.035-.064.072-.127.108-.191-.221.006-.312.161-.393.335m-4.591.621c.108.124.251.053.383.044h0l-.381-.044Zm0,0H144.3v.01l.213-.009h0m-2.24-.591.091.048.014-.023-.094-.045-.011.02m.372-1.1c-.036-.036-.108-.076-.1-.108.027-.152-.076-.153-.178-.16-.009,0-.02.018-.041.038l.152.132h-.131c.031.033.063.066.093.1h.207m-.537-.191.095.1h.152l-.247-.1m.756-4.346.184-.059-.01-.035-.185.056c0,.012.007.025.01.039m.488,7.542c.137.189.353.163.559.168a.588.588,0,0,0-.221-.1c-.113-.026-.229-.043-.345-.064l.007-.006" transform="translate(-44.097 0)" fill="#1a1311"/><path d="M227.479,70.556a3.3,3.3,0,0,0,1.186.232,3.658,3.658,0,0,0-.11-.775q-.142-.464-.5-.512a9.111,9.111,0,0,0-1.16-.057c0,.056-.005.109-.005.158a.976.976,0,0,0,.585.954" transform="translate(-78.714 -24.091)" fill="#dc000c"/><path d="M223.616,72.474a4.264,4.264,0,0,0,1.1-.163,1.218,1.218,0,0,0,.754-.754q0-.359.132-.359c.059,0,.1.05.121.148l.022.211a.791.791,0,0,0,.184.359,1.373,1.373,0,0,0,.3.28,2.936,2.936,0,0,0,1.345.28q-.016-.5-.026-.991a2.591,2.591,0,0,1-1.729-.522,2.332,2.332,0,0,1-.206-.29c-.084.123-.155.218-.211.285a2.733,2.733,0,0,1-1.777.527Z" transform="translate(-77.576 -24.517)" fill="#dc000c"/><path d="M227.185,60.664H223.2a.8.8,0,0,0-.8.8v7.82a.8.8,0,0,0,.511.745c0-.092,0-.193,0-.3a22.733,22.733,0,0,1,.106-2.67.917.917,0,0,1,.891-.862q.575-.064,1.149-.074c0-.249.046-.375.137-.375s.132.129.132.385a10.689,10.689,0,0,1,1.2.063.827.827,0,0,1,.769.812,25.86,25.86,0,0,1,.166,3.03.8.8,0,0,0,.53-.75v-7.82a.8.8,0,0,0-.8-.8m-.512,5.135a1.28,1.28,0,0,1-.243-.031,6.826,6.826,0,0,0-1.239-.09,8.392,8.392,0,0,0-1.292.09c-.137.021-.219.031-.248.031-.106,0-.158-.028-.158-.084q0-.274,1.56-.311v-1.6c-.1,0-.268.007-.5.021s-.385.016-.5.016c-.165,0-.247-.033-.247-.1q0-.148.549-.19.12,0,.7-.016v-.928q-.627.011-1.012.042c-.067,0-.12.006-.158.006-.165,0-.248-.034-.248-.1q0-.226,1.54-.227,1.518,0,1.518.227,0,.106-.237.106c-.106,0-.267-.01-.485-.029a4.66,4.66,0,0,0-.5-.024h-.153v.928c.359.007.582.014.669.021.351.028.528.089.528.185,0,.067-.083.1-.248.1q-.164,0-.474-.016c-.221-.014-.38-.021-.475-.021v1.6a7.468,7.468,0,0,1,.833.052q.68.079.68.253c0,.059-.055.089-.163.089m-.274-.617q0,.116-.084.116-.143,0-.285-.4a1.727,1.727,0,0,1-.127-.538c0-.116.031-.174.095-.174.081,0,.146.093.2.28q.058.184.122.369a1.355,1.355,0,0,1,.084.348m.944,1.26q-.142,0-.142-.359,0-1.25-.048-2.536-.011-.443-.063-1.213a.528.528,0,0,0-.517-.464,14.89,14.89,0,0,0-2.744,0,.554.554,0,0,0-.535.517,26.787,26.787,0,0,0-.116,2.953c0,.081,0,.2.005.369v.374c0,.239-.047.359-.142.359q-.111,0-.121-.359-.006-.216-.005-.827,0-1.825.11-2.921a.777.777,0,0,1,.227-.522.965.965,0,0,1,.554-.206q.664-.069,1.249-.074,0-.432.137-.432t.132.438a11.69,11.69,0,0,1,1.271.069q.711.079.769.675.042.407.069,1.35.032.991.032,2.452,0,.359-.121.359" transform="translate(-77.153 -21.046)" fill="#dc000c"/><path d="M225.489,69.491v-.047a8.82,8.82,0,0,0-1.123.057q-.706.1-.7,1.228v.058a3.236,3.236,0,0,0,1.249-.253,1.064,1.064,0,0,0,.575-1.044" transform="translate(-77.593 -24.091)" fill="#dc000c"/><path d="M227.585,73.416a2.676,2.676,0,0,1-1.782-.522,1.892,1.892,0,0,1-.211-.285,2.994,2.994,0,0,1-.211.28,2.714,2.714,0,0,1-1.8.527v.7c0,.038,0,.074,0,.109l.025,0H227.6q0-.349-.013-.813" transform="translate(-77.565 -25.189)" fill="#dc000c"/><path d="M61.344,83.539c.411.447.539.478.927.184l-.182-.344-.745.161" transform="translate(-21.281 -28.925)" fill="#dc000c"/><path d="M66.967,71.625l-.027-.1-.274.076.027.1.274-.075" transform="translate(-23.128 -24.815)" fill="#dc000c"/><path d="M43.429,54.869a1.313,1.313,0,0,1,.669-.12,1.325,1.325,0,0,0,.317-.094l-1.523-.318.578-1.377c.123-.063-.32-.272-.173-.346-.143-.064-.272-.121-.062-.178l.01-6.56C43.02,33.621,43.024,21.383,43,21.161l0,1.217.021-1.349c-.042-.1-.47-1.234-.513-1.329a4.972,4.972,0,0,0-1.187-1.593,4.347,4.347,0,0,0-2.33-1.448.635.635,0,0,1-.136-.062A.946.946,0,0,0,37.6,17c-.418-.069-.843-.155-1.273-.206a18.267,18.267,0,0,0-3.51.021,5.345,5.345,0,0,0-1.651.379c-.309.126-.688.328-1-.069-.034-.043-.218.011-.32.051a1.162,1.162,0,0,0-.241.18.821.821,0,0,0-.82-.117,1.776,1.776,0,0,1-.643.065,4.631,4.631,0,0,0-2.6.513,2.566,2.566,0,0,1-1.1.3c-.585.031-1.17.071-1.756.084-.4.008-.809-.024-1.242-.039l.505-.487a1.49,1.49,0,0,0-.991.216c-.156.091-.372.173-.438,0-.1-.252-.276-.19-.441-.217-.181-.029-.407.008-.536-.088a1.3,1.3,0,0,0-.864-.159c-.3,0-.6-.011-.9-.011-1.96,0-3.92.016-5.88-.009-1.289-.017-2.577-.088-3.865-.149a13.755,13.755,0,0,0-3.655.07,8.1,8.1,0,0,0-2.149.715l.2.47-1.118.511.4.4-.466.476-.918-.259.315.48-.381.248c.022.663.072,1.3.057,1.927C.271,24.279.2,26.253.14,28.229a1.745,1.745,0,0,0,.033.295c.041.295.1.588.123.885.04.568.055,1.137.086,1.705.075,1.387.168,2.774.227,4.161.056,1.3.073,2.609.116,3.913a73.746,73.746,0,0,1-.141,8.47A25.937,25.937,0,0,0,.49,50.612a5.942,5.942,0,0,1-.321,2.7,1.1,1.1,0,0,0,.064,1.005c.218.413.189.441-.234.771.122.229.232.434.34.639.3.566.515,1.191,1.155,1.491a.591.591,0,0,1,.114.1l.327.278,0,.842,1,0c.223.189.447.376.667.567a.479.479,0,0,1,.149.289.5.5,0,0,0,.406.456c.589.177,1.182.341,1.774.506a3.228,3.228,0,0,0,.775.191c.867.017,1.735-.006,2.6-.018a.507.507,0,0,0,.245-.045,1.889,1.889,0,0,1,1.076-.147c.144,0,.287.03.434.046.018-.483-.552-.113-.6-.492.137-.005.27-.018.4-.014.972.029,1.943.064,2.914.093,2.194.066,4.388.152,6.583.027,1.287-.073,2.573-.133,3.859-.211,1.387-.084,2.772-.194,4.159-.273,1.338-.076,2.676-.158,4.014-.178,1.473-.022,2.948.02,4.421.046.5.009,1,.049,1.5.088.184.014.353.059.4.3a.574.574,0,0,0,.8.517,2.833,2.833,0,0,0,.744-.394,2.136,2.136,0,0,1,1.053-.4c-.081.325-.478.524-.138.87.315-.293.233-.722.428-1.077l.327.2c.279-.2.541-.37.77-.573a.837.837,0,0,0,.17-.253h.01v-.02c.029-.057.059-.118.1-.18l-.1-.012,0-1.11.041-.037a.9.9,0,0,1,.635-1.093l-.626-.361c-.055-.645-.041-.617.5-.879M36.821,17.107c-.362.426-.91.479-1.589.114.594.08,1.056-.278,1.589-.114m-2.379.153.328.01c0,.014,0,.028.005.042l-.347.024.014-.076M24.281,58.5c-.117.007-.234.018-.351.024-.862.046-1.725.068-2.588.1-.451.016-.9.029-1.354.039a1.107,1.107,0,0,1-.489-.081c.479-.025.961-.027,1.437-.079l.1-.011Zm14.238.639c-.161.138-.362.067-.551.058-1.05-.051-2.1-.134-3.149-.148-.95-.013-1.9.057-2.851.074-.886.016-1.772.008-2.659.02-.217,0-.432.046-.649.065-1.415.122-2.829.269-4.246.357-1.552.1-3.107.164-4.661.193-1.035.019-2.072-.05-3.109-.083-.1,0-.2-.027-.317-.044.117-.234.317-.175.485-.18,1.2-.033,2.409-.059,3.614-.091a1.3,1.3,0,0,0,.232-.077l-1.26-.1,0-.1c.434-.03.869-.067,1.3-.088,1.019-.051,2.041-.072,3.058-.147.913-.068,1.821-.195,2.733-.289.227-.024.457-.025.686-.038l.091.148-.409.211a5.05,5.05,0,0,0,1.767-.057,16.02,16.02,0,0,0,1.744-.142l-1.435-.043c.217-.048.434-.082.651-.119l8.617.027a.855.855,0,0,1,.316.6" transform="translate(0 -5.725)" fill="#dc000c"/><path d="M32.527,81.936v.021l.545.016-.007-.021-.537-.016" transform="translate(-11.284 -28.425)" fill="#dc000c"/><path d="M7.856,27.287c.157.18.175.279.205,1.032a28.886,28.886,0,0,1-.166,3.818,7.28,7.28,0,0,1-.159,1.62c-.08.118-.18.117-.435-.005A2.639,2.639,0,0,1,6.226,32.69a1.787,1.787,0,0,1-.152-.556,14.127,14.127,0,0,1,.376-1.579c.208-.789.416-1.637.478-1.874a4.174,4.174,0,0,1,.165-.532.93.93,0,0,0,.184-.453.538.538,0,0,1,.143-.354.734.734,0,0,0,.1-.157c.02-.04.04-.059.04-.08.02-.02.217.082.295.182m9.409-5.366a2.506,2.506,0,0,1,1.488,1.306l.057.159-.082.2-.1.2.118.04a3.578,3.578,0,0,1,1.4.77c.2.18.2.18.095.337a3.5,3.5,0,0,1-1.476.972,2.745,2.745,0,0,0-.359.173,8.1,8.1,0,0,0-.208.889c.019.02.119-.019.258-.037a11.992,11.992,0,0,1,1.725-.236l.2,0,.06-.1a1.248,1.248,0,0,1,.121-.217.329.329,0,0,0,.061-.138c0-.019-.019-.039,0-.039a1.607,1.607,0,0,1,.276.1,12.318,12.318,0,0,1,1.692.793,2.206,2.206,0,0,1,.722.821l.077.159-.08.058a.934.934,0,0,1-.4.193,1.786,1.786,0,0,1-.673.012,4.758,4.758,0,0,1-1.048-.112,1.515,1.515,0,0,0-.415-.064c-.059,0-.079,0-.1.078a2.69,2.69,0,0,1-.908,1.453c-.08.058-.14.117-.141.136s.08.041.178.082.413.2.688.345l.492.244v.079c0,.158-.163.393-.282.392-.02,0-.04.02-.02.08l.038.08-.1-.041c-.2-.062-.3-.024-.6.112a1.428,1.428,0,0,1-.377.133,3.5,3.5,0,0,0-.4.074,7.372,7.372,0,0,0-.934.3c-.1.039-.18.117-.44.372a5.46,5.46,0,0,0-.621.645c.02.02.039.02.079,0a2.422,2.422,0,0,1,.615-.072,1.126,1.126,0,0,1,.906.368,1.285,1.285,0,0,1,.253.34l.077.159-.1.1a1.724,1.724,0,0,0-.426.846,4.631,4.631,0,0,0-.049.752,8.755,8.755,0,0,0,.046,1.129v.1l.177.082a3.7,3.7,0,0,0,1.1.33,1.108,1.108,0,0,0,.7-.8c.02-.059.025-.435.05-.831.028-.673.08-1.622.1-1.642s.189.775.244,1.052c.018.139.056.318.056.338s.037.159.056.258a1.68,1.68,0,0,0,.424.955,8.821,8.821,0,0,0,1.052,1.279,2.032,2.032,0,0,1,.352.4,1.253,1.253,0,0,1,.093.456l0,.138-.1.059a4.3,4.3,0,0,0-.5.39.378.378,0,0,1-.259.135,3.157,3.157,0,0,0-.577.17,4,4,0,0,1-.852.129,3.779,3.779,0,0,1-1.52-.316,4.378,4.378,0,0,1-1.67-1.05,3.694,3.694,0,0,1-1.1-2.17,6.979,6.979,0,0,1,.062-1.8c.021-.119.061-.2.042-.217s-.06.059-.14.117a1.524,1.524,0,0,1-.539.35,2.8,2.8,0,0,0-.4.47c-.724.941-1.407,1.744-2.189,2.585-.3.333-1.183,1.253-1.2,1.252s-.02-.02-.059-.04a.756.756,0,0,0-.217-.062A.455.455,0,0,1,11.5,38.3a.178.178,0,0,1-.018-.1A.524.524,0,0,0,11.4,38c-.039-.08-.114-.318-.172-.5l-.095-.337.04-.059a2.931,2.931,0,0,1,.261-.254l.18-.176-.078-.08c-.039-.04-.176-.16-.274-.261a2.839,2.839,0,0,1-.734-1.434.345.345,0,0,0-.155-.24,1.562,1.562,0,0,1-.176-.2c-.039-.059-.058-.1-.078-.1a1.721,1.721,0,0,0-.142.255,11.175,11.175,0,0,1-3.273,3.8c-.319.233-.34.232-.419.232H6.231l.2-.216A9.664,9.664,0,0,0,7.478,37c.182-.314.467-.885.609-1.219A17.414,17.414,0,0,0,8.918,32.6a16.841,16.841,0,0,0,.231-2.61c.057-1.364.039-3.186-.022-4.671l-.014-.4L8.9,24.667c-.117-.14-.214-.26-.234-.28s-.019-.059.022-.158c.041-.118.061-.138.281-.353.14-.136.3-.293.381-.351.3-.254.418-.253.949.031a3.223,3.223,0,0,1,1,.725c0,.02.018.139.017.238a.931.931,0,0,1-.165.571l-.1.118-.027,2.217-.008,2.2.165-.512c.266-.769.515-1.637.7-2.407l.062-.217-.059-.08a.327.327,0,0,1-.095-.3c.021-.1.041-.138.18-.216.1-.058.1-.058.1-.137v-.079h.1a1.252,1.252,0,0,1,.689.265c.177.1.432.263.569.364.275.182.275.182.255.241a.756.756,0,0,1-.2.393,1,1,0,0,0-.222.315c-.142.314-.447.944-.63,1.259-.161.275-.162.314-.163.354.039.059.078.08.237.082a1.886,1.886,0,0,0,.814-.188l.079-.039-.059-.08a.258.258,0,0,1-.036-.259.4.4,0,0,1,.3-.154,2.076,2.076,0,0,1,.533.125l.138.061.537-.27c.578-.289.758-.406.9-.6a.955.955,0,0,0,.227-.729c-.016-.3-.016-.3-.215-.28-.217.018-.555.072-.753.11a1.231,1.231,0,0,1-.613-.028.9.9,0,0,1-.374-.221l-.1-.1.14-.1a5.254,5.254,0,0,1,1.712-.79.609.609,0,0,0,.379-.252l.06-.1.006-.435a3.352,3.352,0,0,1,.047-.652,1.615,1.615,0,0,0,.051-.91,1.434,1.434,0,0,0-.388-.618c-.078-.06-.1-.159-.038-.139.039.02.1-.018.08-.058-.019-.08.3-.293.559-.369a.838.838,0,0,1,.573.046m-3.027,7.84c-.02,0-.04.039-.08.059a3.678,3.678,0,0,1-1.688.473h-.1l-.234-.24a1.5,1.5,0,0,0-.234-.22c-.02,0-.625.883-.847,1.237l-.161.255-.067.593-.088.613.157.18A8.426,8.426,0,0,1,12.6,35.559a1.5,1.5,0,0,0,.076.238,6.182,6.182,0,0,0,.6-.765c.724-.961,1.549-2,1.529-2.019s-.079.019-.159.057A1.214,1.214,0,0,1,14,33.2a2.425,2.425,0,0,1-1.441-.275.361.361,0,0,1-.174-.358c0-.159,0-.2.082-.217a.99.99,0,0,0,.2-.156l.14-.137.4-.094a10.473,10.473,0,0,0,1.69-.553l.2-.1-.078-.12a10.312,10.312,0,0,1-.581-1.036c-.116-.219-.173-.4-.193-.4m4.254-1.392c-.02,0-.617.21-1.371.438s-1.351.4-1.371.419c-.02,0,.039.08.117.18a9.366,9.366,0,0,1,.563.878l.136.239.119-.038a2.652,2.652,0,0,0,1.541-1.347,5.158,5.158,0,0,0,.266-.709c0-.04.02-.059,0-.059" transform="translate(-2.107 -7.577)" fill="#fff"/><path d="M40.841,21.867l.118.1a.691.691,0,0,0,.453.2,2.2,2.2,0,0,1,.944.487,3.684,3.684,0,0,1,.568.541l.078.1-.082.217a2.087,2.087,0,0,0-.165.513c.02.02.059,0,.138,0,.376-.035.911-.048,1.861-.037a6.014,6.014,0,0,1,1.562.119,4.337,4.337,0,0,1,1.159.648,7.077,7.077,0,0,1,1.761,1.664,3.326,3.326,0,0,1,.639,1.1,1.378,1.378,0,0,1-.027.633.342.342,0,0,1-.161.235,1.709,1.709,0,0,0-.342.392c-.061.1-.061.1-.043.277.035.376.052.673.062,1.406.014.514.01.831.027.97a11.017,11.017,0,0,1,.024,1.248c0,1.464.044,2.791.106,4.177a2.813,2.813,0,0,1-.072,1.048,3.366,3.366,0,0,1-.811,1.553.588.588,0,0,1-.28.215c-.06.019-.359.173-.658.308l-.557.25-.158.018-.178,0-.176-.161c-.215-.2-.723-.761-1.016-1.121-.117-.14-.448-.54-.585-.72-.195-.259-.468-.619-.565-.739a10.6,10.6,0,0,0-1.506-1.464l-.157-.121-.217,0a1.673,1.673,0,0,0-.357.055,7.323,7.323,0,0,0-.816.327c-.378.173-1.055.462-1.492.654s-.8.347-.816.367c-.02,0-.02,0-.02-.02a2.478,2.478,0,0,1,.6-.507,13.546,13.546,0,0,0,2.08-1.736l.221-.234-.058-.1a.972.972,0,0,0-.352-.34,1.492,1.492,0,0,0-.869-.15l-.554-.007-.259.135a9.475,9.475,0,0,1-1.194.579,7.451,7.451,0,0,1-1.072.3c-.179.037-.357.095-.417.114a9.053,9.053,0,0,1-1.251.281c-.02,0-.019-.059.023-.2a3.929,3.929,0,0,1,1.1-1.273,4.319,4.319,0,0,0,.763-.861,21.3,21.3,0,0,0,1.29-1.9c.1-.157.182-.295.2-.334l.04-.059-.118-.061a1.275,1.275,0,0,1-.371-.361l-.058-.1.159-.117a6.033,6.033,0,0,1,1.671-.672l.159-.038.178.042a3.916,3.916,0,0,1,1.258.689,1.5,1.5,0,0,1,.622.878c.056.239.037.258-.143.394a5.241,5.241,0,0,0-1.082,1.1l-.061.078.079.02c.04,0,.158.042.257.063a6.915,6.915,0,0,1,3.243,1.8l.274.261.057.2c.039.1.076.2.056.218a1.178,1.178,0,0,1-.238.116,4.239,4.239,0,0,1-1.886.432c-.158,0-.277,0-.257.017a8.4,8.4,0,0,0,1.178.746,1.548,1.548,0,0,0,1.364.156.625.625,0,0,0,.34-.214,1.96,1.96,0,0,0,.4-.529,1.467,1.467,0,0,0,.187-.79,33.059,33.059,0,0,0-.091-3.762c-.016-.317-.031-.673-.023-1.346a19.956,19.956,0,0,0-.074-2.079,2.125,2.125,0,0,1,.025-.376A1.441,1.441,0,0,0,46.4,26.9c-.1-.219-.174-.3-.605-.7-.215-.2-.508-.462-.626-.562l-.215-.2-.3,0a7.052,7.052,0,0,0-1.407.141,5.615,5.615,0,0,0-.834.207c-.04.019-.425.726-.627,1.1l-.162.295.236.142c.649.383,1.061.626,2.28,1.294a4.6,4.6,0,0,1,1.607,1.345c.194.28.194.3.153.4-.061.1-.121.137-.379.193a2.758,2.758,0,0,1-.911.088,2.057,2.057,0,0,1-1.2-.272,10.651,10.651,0,0,0-1.3-.748c-.138-.061-.315-.162-.394-.2a2.169,2.169,0,0,0-1.045-.329l-.277,0-.22.195A4.955,4.955,0,0,1,38.121,30.5c-.159.057-.357.135-.457.172a6.184,6.184,0,0,1-.854.267l-.218.037-.059-.04-.039-.061.522-.627c.784-.96,1.467-1.842,1.548-1.979a5.712,5.712,0,0,0,.53-1.241c.02-.059-.039-.02-.438.272-.42.312-.639.487-1.379,1.052a5.163,5.163,0,0,0-1.144,1.312l-.2.295-.063.276a7.773,7.773,0,0,0-.193,1.206c0,.2-.019,1.543-.017,2.988,0,1.881-.014,2.732-.036,2.949-.024.277-.024.3.014.4a.265.265,0,0,1,.037.18c0,.039-.04.1-.221.294-.1.118-.261.293-.342.411-.242.334-.4.391-.7.308a.965.965,0,0,1-.607-.542c-.1-.239-.326-.835-.383-.975-.192-.517-.191-.556-.172-.576a.147.147,0,0,0,.022-.1c0-.039,0-.059.02-.078s.021-.079.022-.119.04-.079.1-.138a.172.172,0,0,0,.081-.117.914.914,0,0,1,.279-.155,6.949,6.949,0,0,0,.276-1.56,15.141,15.141,0,0,0,.031-2.513c-.017-.238.014-1.168.066-2.1a1.642,1.642,0,0,0-.013-.594,4.671,4.671,0,0,0-.325-.974,1.192,1.192,0,0,1-.133-.4,1.746,1.746,0,0,0-.056-.318l-.057-.159.06-.039c.02-.019.06-.057.06-.078a.3.3,0,0,1,.08-.118l.081-.079.157.042a4.632,4.632,0,0,1,.767.386,3.678,3.678,0,0,1,.607.522l.2.18.561-.547a13.445,13.445,0,0,1,3.157-2.415c.179-.1.378-.193.438-.232l.12-.058.082-.276c.123-.355.349-.986.33-1.005s-.04-.021-.079-.041a2.434,2.434,0,0,1-.744-.682c-.136-.22-.29-.558-.25-.577a1.959,1.959,0,0,0,.34-.253.865.865,0,0,1,.637-.349.924.924,0,0,1,.515-.014c.118.041.118.041.138-.018Z" transform="translate(-11.533 -7.586)" fill="#fff"/><path d="M15.833,46.409a2.722,2.722,0,0,1,1.363.767l.148.13.039.28a8.436,8.436,0,0,1,.07,1.309l.015.515h.086c.042,0,.129-.04.193-.04a3.246,3.246,0,0,0,.924-.225,3.947,3.947,0,0,0,.6-.292.96.96,0,0,1,.538-.187l.3-.039.106.087a1.155,1.155,0,0,0,.512.2.451.451,0,0,1,.257.068,7.706,7.706,0,0,1,.935.718.533.533,0,0,1,.168.259.869.869,0,0,1-.159.748c-.13.149-.2.19-.624.207-.708.034-2.832.2-2.94.221-.043,0-.022.021.148.13a3.586,3.586,0,0,1,.783.825c.148.237.148.237.146.366a.745.745,0,0,1-.135.449,3.108,3.108,0,0,1-.778.569l-.152.084.279,0c.364,0,1.158.035,1.736.086a1.393,1.393,0,0,1,.641.136A7.009,7.009,0,0,1,23.9,56.092c.126.172.147.216.145.345a.845.845,0,0,1-.244.682,2.315,2.315,0,0,0-.351.638,2.271,2.271,0,0,0-.034,1.008,32.149,32.149,0,0,1,.091,4.8,4.824,4.824,0,0,1-.076.941A2.49,2.49,0,0,1,22.3,65.89a.784.784,0,0,0-.238.189,1.246,1.246,0,0,1-.607.55,2.57,2.57,0,0,1-.279.061c-.193.02-.236,0-.448-.176A16.731,16.731,0,0,1,18.8,64.539c-.507-.585-.719-.8-1.226-1.366l-.423-.477-.107.02a7.051,7.051,0,0,0-.838.118c-.581.121-.753.184-.946.225a.924.924,0,0,0-.388.166l-.129.084-.171-.067A4.031,4.031,0,0,1,13.3,62.22c-.063-.15-.126-.216-.361-.326-.214-.11-.276-.174-.3-.325a.373.373,0,0,0-.126-.237,2.157,2.157,0,0,1-.315-.5l-.042-.108h.065c.021,0,.044-.042.088-.148.044-.129.044-.129.13-.128.065,0,.086,0,.086-.041s.044-.064.28-.04c.064,0,.107-.02.3-.146a3.622,3.622,0,0,1,1.058-.609A5.893,5.893,0,0,0,15.4,59.03c.216-.148.238-.189.693-.548.325-.254.714-.528.908-.654.065-.043.129-.063.129-.084s-.084-.066-.169-.153a2.248,2.248,0,0,1-.773-1.66.324.324,0,0,0-.041-.171.309.309,0,0,1-.04-.151c-.02-.107-.042-.108-.342-.111a1.916,1.916,0,0,0-.645.1l-.086.041.062.151c.042.086.083.236.125.344l.061.215-.217.212A6.393,6.393,0,0,0,13.843,58.3a3.04,3.04,0,0,1-.719.914,13.643,13.643,0,0,1-1.149,1.057l-.216.169-.129,0a.408.408,0,0,1-.446-.348.6.6,0,0,1,0-.386,1.992,1.992,0,0,1,.827-.976,1.143,1.143,0,0,0,.26-.276,9.614,9.614,0,0,0,1.054-1.96l.066-.17-.15,0a1.923,1.923,0,0,0-.948.374,1.05,1.05,0,0,1-.216.083,1.681,1.681,0,0,0-.691.377,1.3,1.3,0,0,0-.414.573,1.653,1.653,0,0,1-.266.747,1.237,1.237,0,0,0-.07.449c-.05.536-.078,2.851-.042,3.387.036.558.072,1.1.11,1.458a2.578,2.578,0,0,1,.018.3,1.726,1.726,0,0,1-.366.125.765.765,0,0,1-.513-.157,3.969,3.969,0,0,1-1.227-1.3c-.21-.367-.251-.517-.143-.58a1.9,1.9,0,0,0,.112-.406,16.337,16.337,0,0,1,1.925-4.865c.066-.127.131-.213.131-.191s.04.193.08.43c.04.216.08.452.08.494.021.065.021.065.153-.191a4.524,4.524,0,0,1,1.262-1.507c.108-.084.173-.127.173-.148s-.084-.086-.19-.216a5,5,0,0,1-.8-1.167c-.1-.237-.125-.281-.189-.3-.149-.065-.168-.195-.018-.279.108-.062.26-.232.261-.3,0-.022.087-.084.2-.19.174-.148.2-.191.3-.211a.974.974,0,0,0,.367-.21c.411-.295,1-.716,1.385-1.055l.087-.063H13.73a4.046,4.046,0,0,0-1.14.286,2.309,2.309,0,0,1-.473.144,1.3,1.3,0,0,1-.792-.138,9.446,9.446,0,0,1-1.4-1.111c-.212-.217-.253-.3-.168-.3.022,0,.043-.02.065-.085l.11-.213a.356.356,0,0,1,.3-.21,3.783,3.783,0,0,1,.534.178l.49.2.172-.062a11.9,11.9,0,0,1,1.934-.4c.064,0,.429-.038.665-.056.472-.037.558-.079.667-.249a.858.858,0,0,0,.091-.406c.025-.3.017-1.371,0-1.543,0-.065-.021-.086-.106-.13a2.265,2.265,0,0,1-.317-.325c-.042-.065-.042-.065,0-.129a2.681,2.681,0,0,1,.5-.487,4.439,4.439,0,0,1,.54-.315c.173-.084.194-.084.429-.016m.145,5.576a3.539,3.539,0,0,0-.628.549,11.249,11.249,0,0,0-1.457,1.7l-.131.191.064.023a1.491,1.491,0,0,0,.748.095,1.963,1.963,0,0,0,.775-.291.386.386,0,0,1,.194-.084.431.431,0,0,0,.238-.125c.108-.127.479-.594.653-.828a.905.905,0,0,0,.177-.383,2.92,2.92,0,0,1,.266-.726l.066-.148-.042-.023c-.021-.022-.128-.023-.193-.045a1.092,1.092,0,0,0-.73.1m-.08,8.273c-.259.1-.625.229-.948.332a3.41,3.41,0,0,0-.841.376l-.065.063.041.129a.7.7,0,0,0,.444.521c.064.022.128.024.579-.035a7.227,7.227,0,0,0,.816-.14c.043-.021.328-.575.46-.809l.11-.191-.148-.131c-.191-.195-.212-.195-.449-.113m1.734-4.993c-.022,0,.02.064.062.15a.813.813,0,0,1,.057.558c-.023.128-.046.257-.046.3a1.035,1.035,0,0,0,.187.41l.064.065.151-.063c.086-.042.216-.1.28-.146l.108-.085.214.067a2.621,2.621,0,0,1,1.57,1.327l.084.172-.131.127c-.108.106-.152.148-.259.168a3.445,3.445,0,0,1-1.394.046,2.875,2.875,0,0,0-.472-.069,1.751,1.751,0,0,0-.837.139,1.734,1.734,0,0,0-.5.273,1.09,1.09,0,0,0,.49.177,3.263,3.263,0,0,1,1.045.485,2.983,2.983,0,0,1,.993,1.127c.084.129.146.3.167.324a.134.134,0,0,1,0,.128c-.044.107-.195.148-.388.146-.129,0-.15,0-.581.165a4.311,4.311,0,0,1-.474.187,2.521,2.521,0,0,0,.186.56.2.2,0,0,1,.019.193,1,1,0,0,1-.241.447l-.108.085.191.2a2.279,2.279,0,0,0,1.363.7,1.233,1.233,0,0,0,.993-.5,3.045,3.045,0,0,0,.331-.79,6.763,6.763,0,0,0,.278-1.626c.025-.342-.014-.6-.121-2.381l-.125-2-.063-.065a6.853,6.853,0,0,0-.657-.607l-.234-.174-1.113-.121c-.6-.072-1.07-.1-1.092-.1" transform="translate(-2.921 -16.083)" fill="#fff"/><path d="M41.565,48.635a4.087,4.087,0,0,1,1.965,1.073c.216.2.234.261.212.5a.548.548,0,0,1-.063.257c-.061.1-.041.1-.023.237a1.123,1.123,0,0,1-.007.515c-.02.078-.061.138-.041.138.02.02,1.6-.119,2.16-.171.2-.017.4-.014.455-.014a.239.239,0,0,0,.238-.076.41.41,0,0,1,.1-.058.365.365,0,0,0,.141-.2,2.4,2.4,0,0,1,.709.265,2.666,2.666,0,0,1,.393.243,5.041,5.041,0,0,0,.864.545l.354.183.077.219.076.2-.1.118a1.645,1.645,0,0,1-.718.426,3.1,3.1,0,0,1-.673.031c-2.059.014-4.177.067-4.969.118a23.112,23.112,0,0,0-4.5.7,11.2,11.2,0,0,0-1.193.342c.02.02.1.08.2.161a7.546,7.546,0,0,1,1.154,1.083.7.7,0,0,1-.044.4c-.02.059-.082.217-.123.355a14.743,14.743,0,0,1-1,2.8c-.081.157-.184.434-.264.571a7.111,7.111,0,0,1-.668,1.2,1.624,1.624,0,0,0-.143.315,9.69,9.69,0,0,1-.407.906,4.721,4.721,0,0,1-.685,1,4.328,4.328,0,0,1-1.281,1.172c-.239.136-1.832.868-1.832.848a2.128,2.128,0,0,1,.182-.255,14.42,14.42,0,0,0,1.394-2.3c.082-.178.428-1.024.775-1.871s.674-1.714.756-1.911a27.706,27.706,0,0,0,1.129-3.271l.042-.158-.057-.178a1.614,1.614,0,0,0-.544-.8,2.809,2.809,0,0,1-.856-1.2.9.9,0,0,1-.014-.456c.021-.059.041-.078.08-.078.059,0,.1-.018.1-.078,0-.04,0-.059.1-.018.079.021.1.021.1,0v-.08c0-.039-.019-.039.02-.039s.059,0,.02-.04c-.019-.02-.059-.04-.039-.059a1.708,1.708,0,0,1,.473.124c.079.04.236.121.335.182l.176.121.159-.018a17.2,17.2,0,0,0,2.578-.463l.317-.075.679-.447c.758-.485.858-.6.98-.839a.936.936,0,0,0,.048-.732c0-.039-.039-.08-.313-.241-.295-.163-.413-.243-.451-.323-.059-.1-.018-.159.1-.3.321-.333.461-.45.7-.506.08-.019.179-.057.239-.076.139-.058.178-.057.436-.014m-.082,5.007.217,0a2.079,2.079,0,0,1,.985.329,2.465,2.465,0,0,0,.315.182,3.381,3.381,0,0,1,.883.645.33.33,0,0,1-.044.3.263.263,0,0,0-.042.178.685.685,0,0,1-.082.2,1.379,1.379,0,0,0-.248.888l0,.119.12-.019a16.26,16.26,0,0,0,1.944-.332c.02,0,.06-.059.1-.118a1.159,1.159,0,0,1,.262-.373c.12-.118.14-.117.219-.116.138,0,.217-.057.2-.155-.019-.059-.019-.079.04-.059a1.518,1.518,0,0,1,.472.243.856.856,0,0,0,.275.161,11.527,11.527,0,0,1,1.691.892,5.736,5.736,0,0,1,.51.342.7.7,0,0,1-.262.392c-.04.04-.14.1-.22.176-.06.039-.22.176-.3.234l-.159.1-.575.111c-.317.056-.972.186-1.488.278-1.249.2-2.1.351-2.876.519l-.138.038,0,.257a2.28,2.28,0,0,1-.251,1.046l-.061.138.791.01c.436.005.871.03.93.031H44.8l.1-.1c.08-.079.1-.078.159-.058a8.918,8.918,0,0,1,2.458,1.337c.137.1.313.261.411.321a3.405,3.405,0,0,1,.938,1.041,2.452,2.452,0,0,1,.327.776.855.855,0,0,0-.18.117,3.132,3.132,0,0,1-.757.366,6.577,6.577,0,0,0-1.494.792l-.16.1.138.12a.865.865,0,0,1,.194.32,2,2,0,0,1-.477.191,1.5,1.5,0,0,1-.515.053,2.69,2.69,0,0,0-.733.089,15.941,15.941,0,0,1-2.558.345,3.829,3.829,0,0,1-.81-.03,1.389,1.389,0,0,0-.575.072.984.984,0,0,0-.419.252,1.067,1.067,0,0,1-.736.307h-.079l-.489-.462-.469-.481-.135-.3a4.419,4.419,0,0,0-1.149-1.5c-.1-.08-.235-.221-.293-.281a1.8,1.8,0,0,0-.549-.4,2.346,2.346,0,0,1-.841-.822c-.078-.139-.1-.179-.1-.258a.926.926,0,0,1,.123-.375l.04-.059.217.062c.118.04.3.083.374.123a1.461,1.461,0,0,0,.652.127,1.618,1.618,0,0,0,1.053-.324c.179-.116.458-.251.6-.328s.3-.155.359-.193.419-.292.779-.585l.66-.526.007-.515c.011-.931.1-3.363.15-4.154l0-.277-.078-.02a1.2,1.2,0,0,1-.787-.387l-.176-.18.079-.039c.12-.039.3-.175.24-.2a3.724,3.724,0,0,1,.738-.466Zm1.932,8.515a7.076,7.076,0,0,0-1.27.281c-.138.037-.417.133-.616.21s-.437.133-.536.172a5.9,5.9,0,0,0-.816.365c-.259.155-.419.272-.4.292a2.17,2.17,0,0,0,.155.24c.078.12.194.319.272.459a2.38,2.38,0,0,0,.155.259c.039.02,1.209-.084,2.358-.208a6.436,6.436,0,0,1,.773-.05,1.033,1.033,0,0,0,.735-.208,1.636,1.636,0,0,0,.3-.492c.182-.354.364-.668.505-.884l.04-.059-.1-.1a.856.856,0,0,0-.216-.161.552.552,0,0,0-.3-.083,1.966,1.966,0,0,0-.337.035,1.756,1.756,0,0,1-.554-.046.581.581,0,0,0-.158-.022" transform="translate(-11.074 -16.862)" fill="#fff"/><path d="M132.9,86.212v2.842a.828.828,0,0,1-.247.6.857.857,0,0,1-.273.185.825.825,0,0,1-.33.067.8.8,0,0,1-.327-.067.86.86,0,0,1-.27-.185.872.872,0,0,1-.186-.27.816.816,0,0,1-.067-.332V86.212h.526V89a.393.393,0,0,0,.093.289.337.337,0,0,0,.463,0,.393.393,0,0,0,.093-.289V86.212Z" transform="translate(-45.516 -29.909)" fill="#1a1311"/><path d="M135.349,89.878V86.212h.844q.927,0,.927,1.076a1.359,1.359,0,0,1-.1.551.774.774,0,0,1-.353.366l.567,1.673h-.556l-.489-1.565h-.314v1.565Zm.525-3.171v1.143h.3a.533.533,0,0,0,.221-.039.3.3,0,0,0,.129-.111.5.5,0,0,0,.057-.178,1.911,1.911,0,0,0,0-.489.484.484,0,0,0-.062-.183.415.415,0,0,0-.37-.144Z" transform="translate(-46.955 -29.909)" fill="#1a1311"/><path d="M139.132,89.878l.819-3.666h.438l.818,3.666h-.525l-.154-.788h-.716l-.155.788Zm1.3-1.282-.257-1.328h-.01L139.9,88.6Z" transform="translate(-48.267 -29.909)" fill="#1a1311"/><path d="M145.137,87.251h-.525v-.119a.558.558,0,0,0-.085-.311.315.315,0,0,0-.286-.131.332.332,0,0,0-.175.04.354.354,0,0,0-.108.1.443.443,0,0,0-.057.152.978.978,0,0,0-.016.178,1.716,1.716,0,0,0,.008.18.349.349,0,0,0,.039.129.3.3,0,0,0,.09.1.808.808,0,0,0,.163.083l.4.159a1.008,1.008,0,0,1,.283.157.675.675,0,0,1,.17.208.988.988,0,0,1,.077.281,2.769,2.769,0,0,1,.02.357,1.861,1.861,0,0,1-.046.43.894.894,0,0,1-.149.337.738.738,0,0,1-.283.227,1,1,0,0,1-.427.082.931.931,0,0,1-.356-.067.83.83,0,0,1-.283-.185.906.906,0,0,1-.188-.276.834.834,0,0,1-.069-.342v-.2h.525v.165a.429.429,0,0,0,.085.26.332.332,0,0,0,.286.116.458.458,0,0,0,.208-.039.277.277,0,0,0,.116-.11.411.411,0,0,0,.049-.173c.005-.067.008-.142.008-.224a2.135,2.135,0,0,0-.01-.236.408.408,0,0,0-.041-.15.288.288,0,0,0-.1-.093,1.255,1.255,0,0,0-.157-.077l-.376-.155a.832.832,0,0,1-.455-.368,1.261,1.261,0,0,1-.116-.574,1.332,1.332,0,0,1,.057-.392.889.889,0,0,1,.17-.319.77.77,0,0,1,.276-.214.914.914,0,0,1,.4-.08.88.88,0,0,1,.358.072.936.936,0,0,1,.281.191.8.8,0,0,1,.236.566Z" transform="translate(-49.725 -29.892)" fill="#1a1311"/><path d="M147.482,89.878V86.212h.525v1.57h.649v-1.57h.526v3.666h-.526V88.246h-.649v1.632Z" transform="translate(-51.164 -29.909)" fill="#1a1311"/><rect width="0.525" height="3.666" transform="translate(99.041 56.304)" fill="#1a1311"/><path d="M154.025,89.878V86.212h.5l.675,1.94h.01l.669-1.94h.509v3.666h-.525v-2.23h-.01l-.521,1.576h-.263l-.515-1.576h-.01v2.23Z" transform="translate(-53.434 -29.909)" fill="#1a1311"/><path d="M158.834,89.878l.819-3.666h.438l.818,3.666h-.525l-.154-.788h-.716l-.155.788Zm1.3-1.282-.257-1.328h-.01l-.257,1.328Z" transform="translate(-55.102 -29.909)" fill="#1a1311"/><path d="M163.56,89.878v-1.55l-.721-2.116h.556l.422,1.457h.01l.423-1.457h.556l-.721,2.116v1.55Z" transform="translate(-56.492 -29.909)" fill="#1a1311"/><path d="M166.679,89.878l.819-3.666h.438l.818,3.666h-.525l-.154-.788h-.716l-.155.788Zm1.3-1.282-.257-1.328h-.01l-.257,1.328Z" transform="translate(-57.824 -29.909)" fill="#1a1311"/></g></g></svg>