<?xml version="1.0" encoding="utf-8"?>
<!-- Generator: Adobe Illustrator 24.0.1, SVG Export Plug-In . SVG Version: 6.00 Build 0)  -->
<svg version="1.1" id="レイヤー_1" xmlns="http://www.w3.org/2000/svg" xmlns:xlink="http://www.w3.org/1999/xlink" x="0px"
	 y="0px" viewBox="0 0 300 164" style="enable-background:new 0 0 300 164;" xml:space="preserve">
<style type="text/css">
	.st0{fill:#FFFFFF;}
</style>
<g>
	<path class="st0" d="M167.69,158.02h-1.78l-6.08-7.6v7.6h-1.89v-10.55l1.85,0l6.06,7.52v-7.51h1.85V158.02z"/>
	<path class="st0" d="M174.7,158.02h-1.78v-10.55h1.78V158.02z"/>
	<path class="st0" d="M189.68,154.57c0,0.91-0.38,1.72-1.14,2.42c-0.9,0.84-2.14,1.26-3.72,1.26c-1.1,0-2.21-0.2-3.31-0.59
		c-0.82-0.3-1.58-0.66-2.26-1.09c-0.27-0.2-0.55-0.4-0.82-0.61l1.22-1.39c0.68,0.55,1.48,1.01,2.39,1.38
		c0.91,0.37,1.8,0.55,2.65,0.55c0.75,0,1.41-0.12,2-0.36c0.71-0.3,1.07-0.71,1.07-1.22c0-0.27-0.06-0.5-0.18-0.71
		c-0.12-0.21-0.32-0.33-0.6-0.38l-5.21-0.78c-0.76-0.12-1.4-0.45-1.91-0.98c-0.52-0.53-0.78-1.15-0.78-1.84
		c0-1.07,0.6-1.87,1.78-2.4c0.94-0.43,2.11-0.65,3.5-0.65c0.84,0,1.68,0.17,2.52,0.5c0.75,0.3,1.49,0.72,2.22,1.27l-1.33,1.3
		c-0.64-0.38-1.3-0.7-1.99-0.94c-0.82-0.29-1.59-0.43-2.31-0.43c-0.57,0-1.14,0.12-1.7,0.36c-0.56,0.24-0.84,0.52-0.84,0.82
		c0,0.34,0.16,0.62,0.49,0.84c0.32,0.22,0.7,0.35,1.13,0.39l3.56,0.42c0.98,0.12,1.78,0.39,2.4,0.79
		C189.29,153.03,189.68,153.71,189.68,154.57z"/>
	<path class="st0" d="M203.52,158.02h-1.78v-5.41h-6.13v5.41h-1.85v-10.55h1.85v3.3h6.13v-3.3h1.78V158.02z"/>
	<path class="st0" d="M210.53,158.02h-1.78v-10.55h1.78V158.02z"/>
	<path class="st0" d="M226.32,158.03l-1.94-0.01l-1.5-2.97h-5.19l-1.53,2.97l-1.94,0l5.11-10.55h1.76L226.32,158.03z M221.87,153.33
		l-1.64-3.37l-1.68,3.36L221.87,153.33z"/>
	<path class="st0" d="M238.75,158.02h-9.62l0-1.5l6.46-7.37h-6.29v-1.68h9.1v1.17l-6.59,7.65h6.94V158.02z"/>
	<path class="st0" d="M253.18,158.03l-1.94-0.01l-1.5-2.97h-5.19l-1.53,2.97l-1.94,0l5.11-10.55h1.77L253.18,158.03z M248.73,153.33
		l-1.64-3.37l-1.68,3.36L248.73,153.33z"/>
	<path class="st0" d="M267.15,154.66c0,1.09-0.28,1.89-0.84,2.39c-0.42,0.38-1.18,0.71-2.28,0.97h-7.27v-10.55h7.43
		c0.69,0,1.27,0.28,1.73,0.83c0.46,0.55,0.69,1.18,0.69,1.87c0,0.4-0.08,0.76-0.22,1.09c-0.15,0.33-0.39,0.63-0.72,0.91
		c0.5,0.25,0.86,0.6,1.11,1.03C267.04,153.63,267.15,154.12,267.15,154.66z M264.88,150.34c0-0.34-0.12-0.6-0.37-0.77
		c-0.25-0.17-0.55-0.26-0.92-0.26h-4.98v2.24h5.03c0.34,0,0.63-0.12,0.87-0.36C264.76,150.94,264.88,150.66,264.88,150.34z
		 M265.34,154.77c0-0.33-0.14-0.61-0.42-0.86c-0.28-0.24-0.63-0.38-1.07-0.43h-5.24v2.75h5.47c0.34,0,0.63-0.15,0.88-0.47
		C265.22,155.46,265.34,155.12,265.34,154.77z"/>
	<path class="st0" d="M280.89,154.54c0,1.23-0.54,2.18-1.63,2.85c-0.9,0.55-1.98,0.82-3.23,0.82c-1.26,0-2.32-0.32-3.18-0.97
		c-0.91-0.69-1.37-1.62-1.37-2.8v-7.07h1.8v7.07c0,0.69,0.28,1.2,0.84,1.53c0.48,0.29,1.15,0.43,2,0.43c0.73,0,1.39-0.16,1.97-0.48
		c0.64-0.35,0.95-0.8,0.95-1.35v-7.21h1.85V154.54z"/>
</g>
<path class="st0" d="M148.6,141.77c-0.99-0.42-2.01-0.44-3.07-0.05c-3.41,1.29-6.81,2.5-10.19,3.64c-3.38,1.14-6.81,2.24-10.3,3.3
	c-3.49,0.98-6.98,1.89-10.47,2.73c-3.49,0.83-7.02,1.55-10.58,2.16c-3.57,0.61-7.11,1.14-10.64,1.59
	c-3.53,0.45-7.11,0.76-10.76,0.91c-3.65,0.15-7.21,0.17-10.7,0.06c-3.49-0.12-7.02-0.4-10.59-0.85c-3.49-0.46-6.94-1.14-10.36-2.05
	c-0.84-0.23-1.67-0.46-2.5-0.68c-0.84-0.23-1.67-0.5-2.51-0.8c-0.84-0.31-1.65-0.61-2.45-0.91c-0.8-0.31-1.61-0.65-2.45-1.03
	c-0.84-0.38-1.62-0.76-2.33-1.14c-0.72-0.38-1.5-0.76-2.33-1.14c-1.37-0.76-2.81-1.63-4.33-2.62c-1.52-0.99-2.88-2.01-4.1-3.07
	c-0.68-0.61-1.33-1.19-1.94-1.76c-0.61-0.57-1.21-1.16-1.82-1.77c-0.61-0.61-1.18-1.21-1.71-1.82c-0.53-0.61-1.06-1.25-1.59-1.93
	c-0.46-0.69-0.93-1.37-1.42-2.05c-0.5-0.68-0.93-1.4-1.31-2.16c-1.67-2.8-3.03-5.84-4.1-9.1c-0.46-1.59-0.85-3.2-1.2-4.84
	c-0.34-1.63-0.59-3.32-0.74-5.06c-0.15-1.67-0.25-3.34-0.29-5.01c-0.04-1.67,0.02-3.34,0.17-5.01c0.15-1.74,0.34-3.45,0.57-5.12
	c0.23-1.67,0.53-3.34,0.91-5.01c0.38-1.74,0.8-3.43,1.25-5.06c0.45-1.63,0.98-3.25,1.59-4.84c0.3-0.83,0.59-1.65,0.85-2.45
	c0.27-0.8,0.59-1.61,0.97-2.45l1.03-2.28l1.02-2.39c0.76-1.59,1.54-3.15,2.33-4.67c0.8-1.52,1.65-3.03,2.56-4.55
	c0.83-1.52,1.72-2.98,2.67-4.38c0.95-1.4,1.92-2.83,2.9-4.27c1.06-1.37,2.12-2.71,3.19-4.04c1.06-1.33,2.12-2.64,3.19-3.93
	c4.55-5.16,9.52-9.79,14.91-13.89c2.66-1.97,5.42-3.79,8.31-5.46c2.88-1.67,5.84-3.11,8.88-4.33c1.44-0.68,2.92-1.25,4.44-1.71
	c0.84-0.23,1.61-0.46,2.33-0.68c0.72-0.23,1.5-0.42,2.33-0.57c0.76-0.15,1.52-0.28,2.27-0.4c0.76-0.11,1.52-0.25,2.28-0.4
	c1.44-0.23,2.96-0.34,4.55-0.34c0.76,0,1.49,0.02,2.22,0.06c0.72,0.04,1.42,0.1,2.1,0.17c0.76,0.15,1.48,0.28,2.16,0.4
	c0.68,0.11,1.37,0.25,2.05,0.4c1.29,0.38,2.56,0.8,3.81,1.25c1.25,0.45,2.48,1.02,3.7,1.71c2.43,1.29,4.67,3,6.71,5.12
	c0.99,0.91,2.05,2.05,3.19,3.41l1.59,2.05l0.69,1.02l0.45,0.46c0,0.08,0.04,0.15,0.12,0.23c0.08,0.08,0.11,0.15,0.11,0.23l0.11,0.11
	c0.91,1.14,2.05,1.71,3.41,1.71c1.14,0,2.12-0.42,2.96-1.25c0.83-0.83,1.21-1.82,1.14-2.96v-1.48l-0.23-1.59l-0.69-3.07
	c-0.3-1.06-0.63-2.09-0.97-3.07c-0.34-0.98-0.78-1.97-1.31-2.96c-0.91-1.89-2.09-3.76-3.53-5.58c-1.44-1.82-3.07-3.45-4.89-4.9
	c-0.84-0.75-1.74-1.44-2.73-2.05c-0.99-0.61-1.97-1.18-2.96-1.71c-1.9-1.06-4.02-1.9-6.37-2.51c-2.28-0.68-4.48-1.14-6.6-1.36
	c-1.14-0.15-2.26-0.25-3.36-0.29c-1.1-0.04-2.18-0.02-3.25,0.06c-1.06,0-2.12,0.04-3.19,0.11c-1.06,0.08-2.12,0.19-3.19,0.34
	c-1.06,0.15-2.1,0.33-3.13,0.51c-1.03,0.19-2.07,0.44-3.13,0.74c-1.97,0.46-3.92,1.03-5.86,1.71c-1.93,0.68-3.85,1.44-5.75,2.27
	c-3.64,1.6-7.17,3.45-10.59,5.58c-0.84,0.61-1.67,1.18-2.5,1.71c-0.84,0.53-1.67,1.1-2.5,1.71c-0.84,0.61-1.63,1.2-2.39,1.76
	c-0.76,0.57-1.52,1.16-2.28,1.76c-3.11,2.51-6.02,5.16-8.71,7.97c-2.7,2.81-5.26,5.77-7.69,8.88c-2.5,3.19-4.74,6.34-6.71,9.45
	c-2.12,3.49-4.02,6.87-5.69,10.13c-0.84,1.75-1.65,3.49-2.45,5.23c-0.8,1.75-1.54,3.53-2.22,5.35l-1.03,2.73
	c-0.38,0.99-0.68,1.86-0.91,2.62c-0.69,2.05-1.25,3.91-1.71,5.58c-0.53,1.9-0.99,3.78-1.37,5.63c-0.38,1.86-0.76,3.78-1.14,5.75
	c-0.31,1.97-0.53,3.91-0.68,5.81C2.08,96.95,2,98.88,2,100.86c0,1.97,0.06,3.93,0.17,5.86c0.12,1.94,0.36,3.89,0.74,5.86
	c0.15,0.99,0.32,1.95,0.51,2.9c0.19,0.95,0.44,1.92,0.74,2.9c0.46,2.05,1.02,3.95,1.71,5.69c0.76,1.82,1.57,3.62,2.45,5.41
	c0.87,1.78,1.88,3.51,3.01,5.18c2.2,3.41,4.71,6.45,7.51,9.1c0.68,0.68,1.38,1.34,2.1,1.99c0.72,0.65,1.5,1.27,2.33,1.88
	c0.83,0.61,1.63,1.18,2.39,1.71c0.76,0.53,1.55,1.06,2.39,1.59c0.84,0.53,1.69,1.02,2.56,1.48c0.87,0.45,1.72,0.91,2.56,1.37
	l5.24,2.39c0.91,0.38,1.82,0.7,2.73,0.97c0.91,0.26,1.82,0.55,2.73,0.85c0.91,0.3,1.82,0.59,2.73,0.86
	c0.91,0.26,1.82,0.51,2.73,0.74c1.82,0.46,3.66,0.83,5.52,1.14c1.86,0.3,3.74,0.57,5.63,0.8c3.79,0.45,7.53,0.72,11.21,0.8
	c3.68,0.08,7.42,0.04,11.21-0.11c1.9-0.08,3.76-0.19,5.58-0.34c1.82-0.15,3.68-0.34,5.57-0.57c1.82-0.23,3.64-0.45,5.47-0.68
	c1.82-0.23,3.64-0.49,5.46-0.8c3.72-0.61,7.36-1.31,10.93-2.11c3.57-0.8,7.17-1.61,10.81-2.45c3.65-0.91,7.23-1.88,10.76-2.91
	c3.53-1.02,7.08-2.06,10.64-3.13c0.07,0,0.11-0.02,0.11-0.05c0-0.04,0.04-0.06,0.11-0.06c1.06-0.38,1.8-1.06,2.22-2.05
	c0.42-0.99,0.44-2.01,0.06-3.07C150.27,142.93,149.58,142.19,148.6,141.77z"/>
<path class="st0" d="M297.93,74.86c0-0.23-0.04-0.38-0.12-0.46c0-0.23-0.04-0.38-0.11-0.45c0-0.15-0.02-0.27-0.06-0.34
	c-0.04-0.08-0.06-0.15-0.06-0.23l-0.23-0.57c-0.3-0.68-0.8-1.37-1.48-2.05c-0.61-0.61-1.18-1.03-1.71-1.25
	c-0.3-0.15-0.57-0.27-0.8-0.34c-0.23-0.08-0.45-0.15-0.69-0.23c-0.45-0.15-0.8-0.23-1.02-0.23h-1.82c-0.38,0-0.65,0.04-0.8,0.11
	c-0.38,0-0.87,0.08-1.48,0.23c-0.76,0.23-1.56,0.53-2.39,0.91c-0.76,0.3-1.42,0.63-1.99,0.97c-0.57,0.34-1.12,0.7-1.65,1.08
	c-0.61,0.38-1.14,0.76-1.59,1.14c-0.45,0.38-0.95,0.76-1.48,1.14l-2.62,2.39l-2.39,2.51c-0.38,0.45-0.76,0.89-1.14,1.31
	c-0.38,0.42-0.76,0.85-1.14,1.31c-0.76,0.84-1.5,1.69-2.22,2.56c-0.72,0.87-1.42,1.76-2.11,2.67c-1.36,1.75-2.73,3.47-4.1,5.18
	c-1.37,1.71-2.77,3.4-4.21,5.06l-2.96,3.53l0.57-1.14c1.52-3.49,2.99-6.94,4.44-10.36c1.44-3.41,2.92-6.9,4.44-10.47
	c1.44-3.49,2.85-6.96,4.21-10.41c1.36-3.45,2.73-6.96,4.1-10.53c1.37-3.57,2.67-7.09,3.93-10.59c1.25-3.49,2.52-7.06,3.81-10.7
	c0.38-0.91,0.7-1.82,0.97-2.73c0.27-0.91,0.55-1.82,0.86-2.73l0.91-2.85c0.15-0.46,0.29-0.91,0.4-1.37c0.11-0.45,0.24-0.95,0.4-1.48
	c0.15-0.38,0.3-0.87,0.46-1.48c0.07-0.23,0.13-0.47,0.17-0.74c0.04-0.27,0.13-0.55,0.28-0.85c0-0.15,0.02-0.32,0.06-0.51
	c0.04-0.19,0.06-0.36,0.06-0.51c0.08-0.15,0.11-0.38,0.11-0.68c0.08-0.23,0.12-0.61,0.12-1.14v-1.02c0-0.07-0.02-0.15-0.06-0.23
	s-0.06-0.15-0.06-0.23c0-0.23-0.04-0.42-0.11-0.57c0-0.07-0.08-0.34-0.23-0.8c-0.08-0.15-0.15-0.32-0.23-0.51
	c-0.08-0.19-0.19-0.44-0.34-0.74c-0.3-0.61-0.72-1.18-1.25-1.71c-0.91-0.76-1.9-1.36-2.96-1.82c-0.99-0.3-1.61-0.41-1.88-0.34
	c-0.27,0.08-0.48,0.08-0.63,0h-0.46l-1.71,0.34c-0.3,0.15-0.53,0.23-0.68,0.23c-0.08,0.08-0.15,0.12-0.23,0.12
	c-0.08,0.08-0.19,0.11-0.34,0.11c0,0.08-0.08,0.11-0.23,0.11c0,0.08-0.08,0.11-0.23,0.11c-0.15,0.15-0.27,0.23-0.34,0.23l-1.03,0.8
	c-0.3,0.23-0.53,0.46-0.68,0.68c-0.15,0.23-0.3,0.42-0.45,0.57l-0.34,0.57c-0.15,0.15-0.23,0.3-0.23,0.45
	c-0.16,0.23-0.31,0.57-0.46,1.03c0,0.08-0.02,0.15-0.06,0.23c-0.04,0.08-0.06,0.15-0.06,0.23c0,0.15-0.02,0.25-0.05,0.28
	c-0.04,0.04-0.06,0.1-0.06,0.17c0,0.15-0.02,0.3-0.06,0.46c-0.04,0.15-0.06,0.3-0.06,0.45c0,0.46-0.04,0.76-0.11,0.91v1.82
	l-0.12,0.45v0.34v0.11l-1.02,3.3v0.23l-0.57,1.36l-2.39,5.12c-0.83,1.75-1.67,3.45-2.5,5.12c-0.84,1.67-1.67,3.34-2.51,5.01
	c-0.84,1.75-1.69,3.43-2.56,5.06c-0.26,0.49-0.53,0.99-0.8,1.48c-0.91,1.49-13.49,22.1-19.37,31.32c-0.01,0.01-0.02,0.03-0.03,0.04
	l-0.04,0.07c-0.55,0.86-1.05,1.64-1.46,2.27l-0.43,0.62l-1.93,2.85c-0.3,0.53-0.61,1.03-0.91,1.48c-0.3,0.45-0.65,0.91-1.03,1.37
	l-2.05,2.85c-1.44,1.82-2.88,3.62-4.32,5.41c-1.44,1.78-2.92,3.55-4.44,5.29l-2.39,2.51l-2.39,2.5l-2.39,2.28
	c-0.46,0.38-0.89,0.74-1.31,1.08c-0.42,0.34-0.85,0.67-1.31,0.97c-0.38,0.38-0.8,0.72-1.25,1.03c-0.45,0.3-0.91,0.57-1.37,0.8
	c-0.83,0.61-1.63,1.02-2.39,1.25c-0.23,0.08-0.42,0.12-0.57,0.12c-0.15,0-0.3,0.04-0.45,0.11h-0.46l-0.11-0.11h-0.23
	c-0.15,0-0.24-0.02-0.29-0.06c-0.04-0.04-0.09-0.06-0.17-0.06c0-0.08-0.02-0.11-0.06-0.11c-0.04,0-0.05-0.04-0.05-0.11
	c-0.08-0.07-0.11-0.15-0.11-0.23c0-0.08-0.04-0.19-0.11-0.34c-0.15-0.3-0.23-0.61-0.23-0.91c-0.15-0.84-0.15-1.71,0-2.62
	c0-0.45,0.04-0.93,0.11-1.42c0.08-0.49,0.15-1,0.23-1.53l0.8-2.96c0.15-0.53,0.32-1.04,0.51-1.54c0.19-0.49,0.4-1,0.63-1.54
	c0.15-0.53,0.34-1.04,0.57-1.54c0.23-0.49,0.45-1.01,0.68-1.54c0.46-0.98,0.93-1.95,1.42-2.9c0.49-0.95,1.01-1.91,1.54-2.9
	c0.3-0.46,0.59-0.91,0.85-1.37c0.27-0.45,0.59-0.91,0.97-1.36c0.15-0.3,0.46-0.76,0.91-1.37c0.15-0.15,0.3-0.34,0.46-0.57
	c0.15-0.23,0.3-0.45,0.45-0.68c0.68-0.84,1.37-1.65,2.05-2.45c0.68-0.8,1.4-1.53,2.16-2.22c0.61-0.61,1.33-1.21,2.16-1.82
	c0.69-0.53,1.37-0.95,2.05-1.25c0.76-0.38,1.32-0.57,1.7-0.57c0.15,0,0.24,0.02,0.29,0.05c0.03,0.04,0.09,0.06,0.17,0.06v0.11h-0.11
	l0.11,0.11c0.3,0.08,0.59,0.11,0.85,0.11c0.27,0,0.51,0,0.74,0c2.12,0,3.91-0.72,5.35-2.16c1.44-1.44,2.16-3.23,2.16-5.35
	c-0.08-2.05-0.83-3.79-2.27-5.24c-1.44-1.44-3.19-2.16-5.23-2.16h-1.71l-1.71,0.23c-0.61,0.15-1.16,0.3-1.65,0.45
	c-0.5,0.15-0.97,0.31-1.42,0.46c-0.73,0.3-1.38,0.63-2.01,0.98c-0.01,0.01-0.02,0.01-0.03,0.01c-1.81,0.75-4.86,3.03-7.85,5.86h0
	c-3.43,2.97-8.06,7.81-10.95,15.72l-1.47,2.59c-0.99,1.75-2.01,3.45-3.07,5.12c-1.06,1.67-2.13,3.34-3.19,5.01l-3.42,4.89
	c-0.61,0.84-1.19,1.64-1.76,2.39c-0.57,0.76-1.16,1.56-1.76,2.39l-3.75,4.44c-0.61,0.76-1.25,1.48-1.94,2.16
	c-0.68,0.68-1.37,1.33-2.05,1.93c-0.19,0.17-0.39,0.34-0.59,0.5c-0.1,0.08-0.19,0.17-0.29,0.26c-0.41,0.35-0.81,0.71-1.23,1.06
	c-0.29,0.25-0.58,0.47-0.87,0.69c-7.39,5.5-6.61-4.66-6.39-6.69c3.69-2.52,8.1-5.58,11.28-8.27l0.25-0.18l1.37-1.25
	c0.46-0.46,0.87-0.93,1.25-1.42c0.38-0.49,0.76-0.97,1.14-1.42c0.11-0.14,0.2-0.3,0.3-0.44c8.11-10.1,9.85-19.68,9.37-26.05
	c0-0.12,0-0.25,0-0.37c0-0.38-0.04-0.76-0.11-1.14l-0.23-1.37l-0.34-1.48l-0.59-1.35c0-0.01-0.01-0.02-0.01-0.02l-0.2-0.45
	l-0.57-0.91c-0.08-0.15-0.17-0.32-0.29-0.51c-0.11-0.19-0.25-0.36-0.4-0.51c-0.53-0.61-1.25-1.25-2.16-1.94
	c-0.99-0.61-1.93-1.02-2.85-1.25c-0.61-0.15-1.06-0.23-1.36-0.23c-0.15-0.08-0.38-0.11-0.69-0.11h-1.25c-0.23,0-0.42,0.04-0.57,0.11
	c-0.16,0-0.33,0.02-0.51,0.06c-0.19,0.04-0.36,0.05-0.51,0.05c-1.37,0.38-2.51,0.84-3.42,1.37c-0.53,0.23-0.97,0.48-1.31,0.74
	c-0.34,0.27-0.7,0.55-1.08,0.85c-0.61,0.38-1.18,0.91-1.7,1.59c-0.53,0.53-1.01,1.04-1.42,1.53c-0.42,0.5-0.81,1.04-1.2,1.65
	l-0.54,0.79c-6.95,10.75-9.56,26.25-10.52,35c-6.6,12.07-10.89,16.93-13.21,18.87c0,0,0,0,0,0c-3.46,2.79-2.62-5.71-1.94-9.03
	c2.2-9.2,5.42-22.77,6.19-26.83l0.35-2.14c0-0.38,0.02-0.7,0.06-0.97c0.04-0.27,0.06-0.59,0.06-0.97c0.08-0.38,0.11-0.72,0.11-1.02
	c0-0.3,0-0.65,0-1.03v-1.14c0-0.53-0.04-0.95-0.11-1.25c0-0.23-0.02-0.45-0.06-0.68c-0.04-0.23-0.1-0.49-0.17-0.8l-0.34-1.14
	l-0.34-0.68c-0.15-0.3-0.3-0.53-0.45-0.68c-0.31-0.46-0.57-0.76-0.8-0.91c-0.23-0.3-0.61-0.61-1.14-0.91
	c-0.31-0.23-0.84-0.49-1.59-0.8c-0.15,0-0.29-0.02-0.4-0.06c-0.12-0.04-0.25-0.05-0.4-0.05h-0.23l-0.23-0.12h-0.68
	c-0.15,0-0.23,0.04-0.23,0.12h-0.23c-0.38,0-0.65,0.04-0.8,0.11l-1.03,0.34c-0.38,0.15-0.8,0.38-1.25,0.68l-0.8,0.57
	c-0.08,0.15-0.27,0.3-0.57,0.46l-0.8,0.91c-0.45,0.46-0.91,0.99-1.37,1.59l-1.25,1.48l-2.05,3.07c-0.38,0.45-0.7,0.93-0.97,1.42
	c-0.27,0.5-0.59,1.01-0.97,1.53c-0.61,0.99-1.22,1.97-1.82,2.96c-0.61,0.99-1.21,2.01-1.82,3.08l6.6-19.58
	c1.06-3.41,2.16-6.77,3.3-10.07c1.14-3.3,2.32-6.62,3.53-9.96c0.38-0.45,0.7-0.93,0.97-1.42c0.26-0.49,0.59-1.01,0.97-1.54
	c0.61-0.84,1.16-1.67,1.65-2.5c0.49-0.84,0.97-1.71,1.42-2.62l2.96-5.23l1.37-2.85c0.23-0.53,0.45-1.04,0.68-1.54
	c0.23-0.49,0.42-1.04,0.57-1.65l0.68-2.05c0-0.3,0.08-0.76,0.23-1.37c0-0.15,0.02-0.3,0.06-0.46c0.04-0.15,0.06-0.3,0.06-0.45v-1.14
	c0-0.23,0-0.47,0-0.74c0-0.26-0.08-0.59-0.23-0.97c-0.08-0.3-0.17-0.66-0.28-1.08c-0.11-0.41-0.33-0.85-0.63-1.31l-0.46-0.8
	l-0.57-0.68c-0.46-0.53-0.99-0.99-1.59-1.37c-0.3-0.15-0.61-0.3-0.91-0.45c-0.3-0.15-0.61-0.27-0.91-0.34
	c-0.08-0.08-0.21-0.13-0.4-0.17c-0.19-0.04-0.21-0.06-0.06-0.06h-0.34c-0.15,0-0.27-0.02-0.34-0.06c-0.08-0.04-0.15-0.06-0.23-0.06
	c-0.15-0.08-0.38-0.12-0.69-0.12h-1.37c-0.15,0-0.26,0.02-0.34,0.06c-0.08,0.04-0.19,0.06-0.34,0.06c-0.08,0-0.15,0.02-0.23,0.06
	c-0.08,0.04-0.16,0.06-0.23,0.06c-0.15,0.08-0.34,0.11-0.57,0.11l-1.37,0.68c-0.23,0.15-0.42,0.27-0.57,0.34
	c-0.15,0.08-0.31,0.19-0.46,0.34l-0.57,0.45l-0.45,0.46l-0.34,0.34l-0.57,0.68l-0.8,1.14c-0.15,0.15-0.27,0.3-0.34,0.45
	c-0.08,0.15-0.15,0.3-0.23,0.46c-0.15,0.3-0.31,0.59-0.46,0.85c-0.15,0.27-0.3,0.51-0.46,0.74l-1.36,2.96
	c-0.38,0.99-0.76,1.93-1.14,2.85c-0.38,0.91-0.76,1.86-1.14,2.84c-0.68,1.82-1.33,3.66-1.93,5.52c-0.61,1.86-1.21,3.7-1.82,5.52
	l-1.14,3.3l-1.36,2.5l-5.35,10.01l-2.73,5.01c-0.38,0.84-0.8,1.69-1.25,2.56c-0.45,0.87-0.91,1.73-1.37,2.56
	c-0.83,1.74-1.67,3.45-2.5,5.12c-0.83,1.67-1.67,3.38-2.5,5.12c-0.3,0.61-0.4,1.25-0.28,1.93c0.11,0.68,0.44,1.25,0.97,1.71
	c0.61,0.61,1.37,0.91,2.28,0.91c0.91,0,1.67-0.3,2.27-0.91l2.05-2.17l-1.59,6.6c-0.91,3.72-1.78,7.44-2.62,11.15
	c-0.84,3.72-1.67,7.44-2.5,11.16c-0.46,1.9-0.87,3.78-1.25,5.63c-0.38,1.86-0.76,3.74-1.14,5.63c-0.15,0.91-0.32,1.84-0.51,2.79
	c-0.19,0.95-0.4,1.88-0.63,2.79l-0.23,1.48l-0.23,1.37c-0.15,0.46-0.25,0.93-0.29,1.42c-0.04,0.49-0.09,0.97-0.17,1.42l-0.12,0.57
	c-0.15,0.69-0.06,1.33,0.28,1.94c0.34,0.61,0.86,1.06,1.54,1.37c0.76,0.3,1.5,0.3,2.22,0c0.72-0.31,1.24-0.88,1.54-1.71
	c1.29-1.9,2.52-3.8,3.7-5.69c1.18-1.9,2.41-3.83,3.7-5.8l7.17-11.61l7.06-11.49c0.91-1.44,1.8-2.86,2.68-4.27
	c0.87-1.4,1.8-2.83,2.79-4.27l-1.71,10.93l-1.02,6.6l-0.23,1.71l-0.12,0.91l-0.06,0.47c-0.4,3.35-0.77,9.06,1.15,13.75
	c0.87,1.99,2.18,3.58,4.05,4.46c1.02,0.48,2.06,0.73,3.14,0.72c4.53,0,9.59-4.34,15.62-13.4c0.05,0.22,0.07,0.44,0.12,0.66
	l0.57,1.93c0.15,0.38,0.3,0.7,0.46,0.97c0.15,0.27,0.3,0.59,0.45,0.97c0.23,0.38,0.46,0.72,0.69,1.02c0.23,0.3,0.49,0.64,0.8,1.02
	c0.68,0.69,1.44,1.29,2.28,1.82c0.84,0.38,1.75,0.65,2.73,0.8c0.08,0,0.13,0.02,0.17,0.06c0.04,0.04,0.1,0.06,0.17,0.06h1.02
	c0.53,0,0.95-0.04,1.25-0.11c0.38,0,0.74-0.04,1.08-0.11c0.34-0.08,0.7-0.19,1.08-0.34l1.82-0.68l1.7-0.91l1.48-1.03
	c1.82-1.21,3.53-2.66,5.12-4.32c0.83-0.76,1.59-1.52,2.27-2.28c0.68-0.76,1.37-1.55,2.05-2.39c0.68-0.83,1.37-1.65,2.05-2.45
	c0.69-0.8,1.33-1.61,1.94-2.44l3.64-4.89c0.61-0.83,1.2-1.69,1.76-2.56c0.17-0.27,0.36-0.52,0.54-0.78
	c-0.08,0.5-0.14,1.01-0.14,1.52c0,0.69,0,1.37,0,2.05c0,0.38,0,0.74,0,1.08c0,0.34,0.04,0.7,0.11,1.08c0,0.76,0.11,1.52,0.34,2.27
	c0.08,0.38,0.19,0.78,0.34,1.2c0.15,0.42,0.31,0.82,0.46,1.2c0.38,0.84,0.91,1.67,1.59,2.5c0.68,0.84,1.56,1.48,2.62,1.93
	c0.46,0.23,0.93,0.4,1.42,0.51c0.49,0.11,0.97,0.21,1.42,0.28h2.16c0.15,0,0.27-0.02,0.34-0.06c0.08-0.04,0.19-0.06,0.34-0.06
	c0.45-0.08,0.87-0.17,1.25-0.28c0.38-0.11,0.76-0.25,1.14-0.4c1.37-0.53,2.62-1.21,3.76-2.05c0.6-0.38,1.14-0.78,1.59-1.19
	c0.45-0.42,0.95-0.82,1.48-1.2c0.99-0.83,1.92-1.67,2.79-2.51c0.87-0.83,1.72-1.67,2.56-2.51l2.5-2.73l2.39-2.62
	c0.5-0.57,0.98-1.14,1.46-1.71c0.02-0.02,0.04-0.04,0.07-0.06c7.73-7.56,13.81-15.78,18.52-23.13c0.13-0.18,0.27-0.35,0.39-0.54
	c0.26-0.42,0.51-0.81,0.74-1.19l3.08-4.89l2.73-5.01c0.46-0.83,0.91-1.69,1.37-2.56c0.23-0.44,0.42-0.86,0.63-1.28
	c0.25-0.48,0.51-0.95,0.74-1.39l-3.07,9.45c-1.14,3.64-2.26,7.23-3.36,10.75c-1.1,3.53-2.18,7.11-3.25,10.76
	c-0.61,1.82-1.16,3.63-1.65,5.41c-0.5,1.78-1.01,3.59-1.54,5.41l-1.59,5.46l-0.68,2.73l-0.8,2.73l-0.11,0.68
	c-0.38,1.52,0.08,2.7,1.37,3.53c0.76,0.53,1.57,0.7,2.45,0.51c0.87-0.19,1.58-0.7,2.11-1.54l0.8-1.37l0.91-1.36
	c0.3-0.46,0.61-0.89,0.91-1.31c0.3-0.42,0.65-0.85,1.03-1.31c0.61-0.83,1.25-1.69,1.93-2.56c0.69-0.87,1.37-1.73,2.05-2.56
	c1.14-1.29,2.28-2.58,3.42-3.87c1.14-1.29,2.35-2.58,3.64-3.87v0.23l0.11,1.71v0.02c-0.99,4.71-0.8,9.83,0.75,14.56
	c2.09,6.37,8.4,17.47,27.15,20.31c0.2,0.03,0.4,0.04,0.59,0.04c1.9,0,3.57-1.39,3.86-3.33c0.32-2.14-1.14-4.13-3.28-4.45
	c-10.83-1.64-18.24-6.98-20.88-15.02c-1.88-5.71-0.99-12.35,2.04-16.72c2.68-1.75,4.95-3.24,5.82-3.84l5.46-3.76
	c2.05-1.29,3.91-2.58,5.58-3.87c0.45-0.38,0.91-0.74,1.37-1.08c0.45-0.34,0.91-0.7,1.37-1.08l2.62-2.39l1.37-1.48
	c0.45-0.45,0.91-1.02,1.37-1.71l0.8-1.25l0.34-0.91c0.15-0.3,0.23-0.49,0.23-0.57c0.15-0.3,0.23-0.57,0.23-0.79
	c0.15-0.45,0.23-0.8,0.23-1.02c0-0.23,0.02-0.46,0.06-0.68C298.02,75.54,298,75.24,297.93,74.86z M177.21,88.52
	c4.96,3.04-5.6,14.22-9.8,18.08C168.57,101.91,172.25,85.47,177.21,88.52z"/>
</svg>
