<svg xmlns="http://www.w3.org/2000/svg" viewBox="0 0 115.71 35.48"><defs><style>.cls-1{fill:#fff;}.cls-2{fill:#18933b;}.cls-3{fill:#8c4d46;}.cls-4{fill:#df803a;}.cls-5{fill:#231815;}.cls-6{fill:#006cb6;}</style></defs><title>アセット 2</title><g id="レイヤー_2" data-name="レイヤー 2"><g id="レイヤー_1-2" data-name="レイヤー 1"><path class="cls-1" d="M.21,17.74A17.53,17.53,0,1,1,17.74,35.26,17.54,17.54,0,0,1,.21,17.74Z"/><path class="cls-2" d="M34.12,17.74A16.38,16.38,0,1,1,17.74,1.36,16.39,16.39,0,0,1,34.12,17.74Z"/><path class="cls-2" d="M0,17.74A17.74,17.74,0,1,0,17.74,0,17.76,17.76,0,0,0,0,17.74Zm.39,0A17.35,17.35,0,1,1,17.74,35.08,17.37,17.37,0,0,1,.39,17.74Z"/><path class="cls-1" d="M30.12,17.74A12.38,12.38,0,1,1,17.74,5.36,12.38,12.38,0,0,1,30.12,17.74Z"/><path class="cls-1" d="M6.76,26a.15.15,0,0,1,0,.11,2.82,2.82,0,0,1-.27.65l0,0s-.09,0-.14,0a.09.09,0,0,1,0-.11A3.43,3.43,0,0,0,6.59,26l0,0A.11.11,0,0,1,6.76,26Zm1.15,1.31s0,.07,0,.11l0,0a3,3,0,0,1-.73.2A.14.14,0,0,1,7,27.57a.1.1,0,0,1,0-.14l.06,0a3,3,0,0,0,.66-.18S7.87,27.23,7.91,27.28Zm-.39-.82a.09.09,0,0,1,0,.13l-.57.49a.84.84,0,0,0-.24.36,1,1,0,0,0-.09.44,2,2,0,0,0,.11.67.1.1,0,0,1,0,.1c-.05,0-.09,0-.14,0s0,0,0-.05a3.61,3.61,0,0,1-.12-.47,1.55,1.55,0,0,1,0-.43,1.62,1.62,0,0,1,.18-.45.81.81,0,0,1-.44.12,1.31,1.31,0,0,1-.43-.08,2.07,2.07,0,0,1-.5-.22l0,0a.09.09,0,0,1,0-.13.12.12,0,0,1,.11,0,2.38,2.38,0,0,0,.65.24,1.34,1.34,0,0,0,.49,0,1,1,0,0,0,.36-.18l.57-.49A.11.11,0,0,1,7.52,26.46Z"/><path class="cls-1" d="M11.87,30.1a.06.06,0,0,1,.08,0l.49.25a0,0,0,0,1,0,.07l-.06.13-.3-.15a.14.14,0,0,0-.21.07l-.13.26-.15-.07Zm-.75-.6a1.54,1.54,0,0,1-.51.26.12.12,0,0,0-.07.07.11.11,0,0,0,.05.13h0l.08,0,0,0a.09.09,0,0,0,0,.12l.12.06-.1.21-.23-.11c-.05,0-.08,0-.12.05a.08.08,0,0,0,0,.11l.23.11-.35.71-.24-.09a.11.11,0,0,0-.14.05.1.1,0,0,0,.06.13,4,4,0,0,0,.65.2.11.11,0,0,0,.14-.05.11.11,0,0,0-.06-.14l-.23-.05.34-.68.22.11a.07.07,0,0,0,.11,0,.08.08,0,0,0,0-.12l-.23-.11.11-.21.12.06a.07.07,0,0,0,.11,0q0-.09,0-.12l-.41-.2h0a4,4,0,0,0,.38-.24s0,0,0,0,0,0,0,.06a2.39,2.39,0,0,0,.1.52l0,0a.12.12,0,0,0,.13,0,.11.11,0,0,0,0-.11,1.74,1.74,0,0,1-.13-.51c0-.07,0-.11-.07-.13A.15.15,0,0,0,11.12,29.5Zm-.87,1.08v0a1,1,0,0,1,0,.18c0,.05,0,.12-.05.2a.09.09,0,0,0,0,.12.1.1,0,0,0,.13,0l0-.12a1.12,1.12,0,0,0,0-.32.11.11,0,0,0-.05-.09A.1.1,0,0,0,10.25,30.58Zm.58.3a.35.35,0,0,1-.07.11l-.09.09-.05.05a.1.1,0,0,0,.05.12.17.17,0,0,0,.1,0l.12-.13S11,31,11,31v0a.08.08,0,0,0,0-.11A.09.09,0,0,0,10.83,30.88Zm.9-.92-.29.58a.17.17,0,0,0-.24.1l-.46.94c0,.06,0,.1,0,.13a.08.08,0,0,0,.12,0l.44-.9a.06.06,0,0,1,.09,0l.74.36a.06.06,0,0,1,0,.09l-.36.73a.07.07,0,0,1-.1,0,.66.66,0,0,1-.16-.12h0a.11.11,0,0,0-.13,0,.1.1,0,0,0,0,.12,1.38,1.38,0,0,0,.23.16A.2.2,0,0,0,12,32l.4-.81c0-.1,0-.17,0-.22l.3-.6c.05-.1,0-.17-.08-.23l-.63-.3A.15.15,0,0,0,11.73,30Zm.3.61s0,0,.07,0l.23.11-.12.26-.28-.14Zm-.67.45-.19.38a.12.12,0,0,0,.06.18l.41.2a.12.12,0,0,0,.18-.07l.18-.38a.11.11,0,0,0-.06-.17l-.41-.2A.11.11,0,0,0,11.36,31Zm0,.45a0,0,0,0,1,0,0l.13-.26s0,0,0,0l.26.13s0,0,0,.05l-.13.26s0,0,0,0Z"/><path class="cls-1" d="M17.5,32.3v-.16l.41,0v.1s0,.06,0,.06Zm0-1V31.2a.1.1,0,1,0-.19,0v.07l-.61,0s-.08,0-.08.09,0,.09.08.09l.6,0v.17l-.42,0c-.12,0-.18.05-.18.16l0,.53c0,.11.05.16.16.17l.42,0v.17l-.62,0q-.08,0-.09.09c0,.06,0,.09.08.09l.62,0V33a.1.1,0,1,0,.19,0v-.19l.59,0a.09.09,0,0,0,.09-.08c0-.07,0-.1-.08-.1l-.59,0v-.17l.42,0c.12,0,.17,0,.18-.16l0-.53a.14.14,0,0,0-.16-.17l-.42,0v-.17l.58,0a.09.09,0,0,0,.09-.08.09.09,0,0,0-.08-.1Zm-.58,1s-.06,0-.06-.06v-.11l.41,0v.16Zm0-.45s0-.06.06,0h.35V32l-.41,0Zm.95,0a.06.06,0,0,1,.05.06V32l-.41,0V31.8Zm-1.77-.55a.44.44,0,0,0,0,.1l.15.1.11.12a.12.12,0,0,0,.09,0,.11.11,0,0,0,.1-.09v-.08l-.13-.12-.15-.12-.09,0A.12.12,0,0,0,16.1,31.26ZM16,32c0,.06,0,.09.08.09h.18a.05.05,0,0,1,.06.06l0,.62a.32.32,0,0,1-.1.19.52.52,0,0,1-.19.11c-.05,0-.07,0-.08.12s0,.06.09.08l0,0a.49.49,0,0,0,.19-.1.43.43,0,0,0,.14-.16.52.52,0,0,0,.26.22,1.3,1.3,0,0,0,.39.07l1,.05c.07,0,.1,0,.11-.08s0-.11-.1-.11l-1.06,0a.87.87,0,0,1-.4-.1.32.32,0,0,1-.15-.21l0-.69a.16.16,0,0,0-.16-.18h-.26A.08.08,0,0,0,16,32Z"/><path class="cls-1" d="M23.16,31.8s-.06,0-.07,0L23,31.63l.79-.3.05.14s0,.06,0,.07Zm-1.32-1.21a1.22,1.22,0,0,1-.22.44.14.14,0,0,0,0,.09c0,.05.08.08.14.06l0,0a1.49,1.49,0,0,0,.19-.45s0,0,0,0,0,0,0,0a1.56,1.56,0,0,0,.34.18h0a.1.1,0,0,0,.07-.12.15.15,0,0,0-.08-.08,1.42,1.42,0,0,1-.36-.14.09.09,0,0,0-.11,0A.2.2,0,0,0,21.84,30.59Zm.08.49c-.05,0-.06.06-.05.12a.09.09,0,0,0,.11.05l.12-.05.08.21-.23.08a.09.09,0,0,0,0,.12.08.08,0,0,0,.11.05l.22-.08.3.78,0,0-.21.11a.1.1,0,0,0-.05.13.11.11,0,0,0,.13,0l.22-.12.21-.15a1.29,1.29,0,0,0,.16-.17.13.13,0,0,0,0-.1.12.12,0,0,0-.13,0l-.05,0-.11.12-.28-.73.16-.07a.09.09,0,0,0-.06-.16l-.17.06-.07-.2.11-.05a.09.09,0,0,0-.06-.16Zm.12.77v0l.09.15a2.17,2.17,0,0,1,.1.21.08.08,0,0,0,.11,0c.06,0,.07-.06.06-.12l-.06-.12a2.69,2.69,0,0,0-.16-.29.1.1,0,0,0-.1,0A.09.09,0,0,0,22,31.85Zm.56-.22a.93.93,0,0,1,0,.14.61.61,0,0,1,0,.14.13.13,0,0,0,0,.06.09.09,0,0,0,.11.05.16.16,0,0,0,.07-.07c0-.08,0-.14,0-.19s0-.11,0-.18h0a.09.09,0,0,0-.12-.05A.08.08,0,0,0,22.6,31.63Zm.69-1.57a1.15,1.15,0,0,1-.08.28s0,.06,0,.07.06.08.11.06a.15.15,0,0,0,.07,0,.82.82,0,0,0,.07-.28.1.1,0,0,0,0-.09.09.09,0,0,0-.11-.05A.24.24,0,0,0,23.29,30.06Zm-.89.39a.12.12,0,0,0,.05.07l.12.08a.41.41,0,0,1,.1.09h.09a.09.09,0,0,0,0-.11.16.16,0,0,0,0-.07l-.11-.1-.12-.07h-.09S22.39,30.41,22.4,30.45Zm.43-.21.15.4-.29.12a.16.16,0,0,0-.11.23l.35.9a.15.15,0,0,0,.23.1l.07,0s0,0,0,0a.54.54,0,0,1-.07.13.71.71,0,0,1-.12.13.12.12,0,0,0,0,.12.11.11,0,0,0,.12,0l.08,0,.12-.14a1,1,0,0,0,.08-.19.22.22,0,0,0,0-.08l0,0,.42-.16a.09.09,0,0,0,0,.07.33.33,0,0,0,.06.08l.16,0,.15.05a.12.12,0,0,0,.1,0,.09.09,0,0,0,.05-.12l0-.07-.17-.05-.15,0h0c.12-.05.15-.12.11-.23l-.34-.91a.17.17,0,0,0-.24-.1l-.33.13L23,30.17a.09.09,0,0,0-.12-.05C22.82,30.14,22.81,30.18,22.83,30.24Zm.06,1,.79-.3.07.19-.78.3ZM22.78,31a.06.06,0,0,1,0-.08l.69-.26s.05,0,.07,0l.05.12-.79.3Z"/><path class="cls-1" d="M28.23,29a.06.06,0,0,1-.1,0l-.34-.34a.07.07,0,0,1,0-.09l.79-.77a.06.06,0,0,1,.09,0l.34.34s0,.07,0,.1Zm-1.11-1.59.06.06-.52.52a.18.18,0,0,0,0,.29l.52.53a4.54,4.54,0,0,1,.31.36,3.37,3.37,0,0,1,.26.41c.05,0,.09.05.14,0a.11.11,0,0,0,0-.12,4.18,4.18,0,0,0-.23-.36,4.5,4.5,0,0,0-.36-.43l-.49-.5a.08.08,0,0,1,0-.11l1.23-1.19c0-.05,0-.09,0-.13a.1.1,0,0,0-.14,0l-.59.58-.06-.06a.09.09,0,0,0-.14,0A.1.1,0,0,0,27.12,27.41Zm1.34-.19a.09.09,0,0,0-.13-.13l-.63.62-.15-.15a.09.09,0,1,0-.13.13l.49.51-.29.27a.17.17,0,0,0,0,.27l.42.43a.16.16,0,0,0,.26,0l.88-.86a.18.18,0,0,0,0-.27l-.42-.42a.17.17,0,0,0-.27,0l-.46.45-.22-.22Z"/><path class="cls-1" d="M29.18,17.74A11.44,11.44,0,1,1,17.74,6.3,11.44,11.44,0,0,1,29.18,17.74Z"/><path class="cls-2" d="M6.11,17.74A11.63,11.63,0,1,0,17.74,6.1,11.64,11.64,0,0,0,6.11,17.74Zm.39,0A11.24,11.24,0,1,1,17.74,29,11.25,11.25,0,0,1,6.5,17.74Z"/><path class="cls-1" d="M27.34,13.22a7.93,7.93,0,0,0,2-1.47,1,1,0,0,1,.3,1.43,3.32,3.32,0,0,1-1,1.34l-.33.48Z"/><path class="cls-1" d="M8.09,8.83a4.57,4.57,0,0,0-.3.35c-.11.15-.92,1.57-.92,1.57l0,.28,2.33,1.14,1.47-.65.41-.93.07-1-2.36-1Z"/><path class="cls-3" d="M11.49,8.68a3.11,3.11,0,0,0-1.94-.46,2.09,2.09,0,0,0-1.47.61s2.06.06,2.68.91Z"/><path class="cls-3" d="M10.71,9.94a3.84,3.84,0,0,0-1.51-.7,5.45,5.45,0,0,0-1.41-.07,7.06,7.06,0,0,0-.92,1.58s2.15-.25,2.55.59l1.48-.05Z"/><path class="cls-3" d="M9.27,11.44a2.15,2.15,0,0,0-.91-.38c-.44,0-1.44,0-1.52,0a4.71,4.71,0,0,0,.31,2c.42,1.07,1.14.88,1.14.88L9,13.47S8.48,12.74,9.27,11.44Z"/><path class="cls-4" d="M24,9.21s-.1-1.42-.87-1.7A2.2,2.2,0,0,0,21,8a3.24,3.24,0,0,0-2-1.43,2,2,0,0,0-1.72.73s-1.2-.94-2.06-.46a1.47,1.47,0,0,0-.71,1.44s-2.44-.49-3.22.31-.72,1.24-.57,2.44v.08s-1.47-.21-2,.62a1.93,1.93,0,0,0-.12,1.66v.09a2.54,2.54,0,0,1-1.56-.15s-.62-.33-.85-.5-.76-.53-1.09-.06.31,1.76,1.67,2.58a3.76,3.76,0,0,0,2,.42,4.12,4.12,0,0,0,0,2.79v.17A3.33,3.33,0,0,0,8,21a3.44,3.44,0,0,0,2.82,3.55l.06,0a2.63,2.63,0,0,0,1.33,1.74,6.66,6.66,0,0,0,5.24.21,10.24,10.24,0,0,0,2.85.12A4.59,4.59,0,0,0,23,25.15a11.3,11.3,0,0,1-2.76,1.09c-1,.1-2.78.18-2.78.18a16.84,16.84,0,0,1-3.76-.25,4.61,4.61,0,0,1-2.77-1.6l-.07-.06A4.85,4.85,0,0,1,8.5,22a3.17,3.17,0,0,1-.12-1.89,3.42,3.42,0,0,1,.46-1.3v-.23A5.68,5.68,0,0,1,9.2,16c.52-1,.6-1.27,1-1.46A1.38,1.38,0,0,1,9.46,14c-.3-.41-.65-.79-.23-1.51s1.06-.82,2.24-.63c0,0-.75-1.71.23-2.61s3.19-.49,3.19-.49-.19-1.2.57-1.5,1.84.58,1.84.58a2.54,2.54,0,0,1,1.47-.61c.75,0,1.32.47,2.19,1.67,0,0,.7-1.56,1.93-.93A2.74,2.74,0,0,1,24,9.21Z"/><path class="cls-3" d="M27,13.16s-.53-2.53-1.83-3.26a3.08,3.08,0,0,0-3.19.19,2.81,2.81,0,0,1,1.08.13c.61.19,2.82,1.28,3.09,2.69l.82.25"/><path class="cls-4" d="M25.39,13.05a4.75,4.75,0,0,1,.76-.31c.1,0,.14.19.42.22A1.54,1.54,0,0,0,28,12.75a16.11,16.11,0,0,0,1.39-1.26s.16,0,.33.29a1.94,1.94,0,0,1-.18,1.94c-.56.72-.87,1-.87,1a3,3,0,0,1-.5.94,2.91,2.91,0,0,1-1.08.3h0v.43s1.2.8,1.2,1.59a1.88,1.88,0,0,1-.73,1.42A2.32,2.32,0,0,1,28,20.66a1.92,1.92,0,0,1-1.15,1.61,3.63,3.63,0,0,1-1.06,2.18c-.88.65-1.76.89-2.91-.35l0,0a2.35,2.35,0,0,0,1.67.51,2.73,2.73,0,0,0,2-2.53,1.43,1.43,0,0,0,.93-.91,2.19,2.19,0,0,0-.38-1.7A1.77,1.77,0,0,0,27.83,18c0-1.11-1.82-1.78-2.09-1.86v-.26a2.41,2.41,0,0,0,2-.53,8,8,0,0,0,1.61-2.09c.19-.55.45-.85-.07-1.28,0,0-.14,0-.28.25a4.32,4.32,0,0,1-1.6,1.15c-.51.11-1.35.26-1.64,0A2.34,2.34,0,0,1,25.39,13.05Z"/><path class="cls-3" d="M25.87,12.9a6.68,6.68,0,0,0-2.13-2.09,2.78,2.78,0,0,0-2.1-.4,2.74,2.74,0,0,0-1,1.55,5.88,5.88,0,0,1,1.54,0,3.75,3.75,0,0,1,2.35,2,2,2,0,0,1,.7-.78C25.63,13,25.87,12.9,25.87,12.9Z"/><path class="cls-4" d="M22,15.2s-.89.66-.68,1.36a.78.78,0,0,0,.76.65,1.13,1.13,0,0,0-.24,1.15,1,1,0,0,0,1,.5s.05.72.41.9a1,1,0,0,0,1.33-.38s-.69.38-1.05.27-.47-.34-.39-1c0,0-.78.11-.85-.47s.57-1.26.57-1.26-1,.17-1.12-.52a1.07,1.07,0,0,1,.49-1.05Z"/><path class="cls-3" d="M24.36,14.21A5.93,5.93,0,0,0,23,12.67a4.31,4.31,0,0,0-2.36-.34s-.47,2.08,1.05,2.88S24.36,14.21,24.36,14.21Z"/><path class="cls-4" d="M11.65,13.39s0,1.41,1.15,1.48,1.3-.57,1.3-.57a3.46,3.46,0,0,0,1.68.9A2.06,2.06,0,0,0,17,14.78,2.77,2.77,0,0,0,18,15a1,1,0,0,0,.95-.83c.05-.54-.26-.54-.26-.54s.12,1-.58,1-1-.08-1.18-.4a1.3,1.3,0,0,1-1,.54,2.59,2.59,0,0,1-1.87-1.25s-.58.91-1.13.86A2,2,0,0,1,11.65,13.39Z"/><path class="cls-5" d="M12.46,18.23a.91.91,0,0,0-.76.18,1.41,1.41,0,0,0-.65,1,1.09,1.09,0,0,0,.58.85,2.6,2.6,0,0,0,.89.08,6.62,6.62,0,0,0,.21-1.54A1.29,1.29,0,0,0,12.46,18.23Z"/><path class="cls-5" d="M19.33,18.87a1,1,0,0,0-.73.11c-.31.21-.66.56-.66.86s.07.91.45,1.07a1.36,1.36,0,0,0,1.08,0A2.7,2.7,0,0,0,19.33,18.87Z"/><path class="cls-6" d="M10.15,20.26l-.15.07-.14-.08a3.33,3.33,0,0,1,.27-1.94,1.62,1.62,0,0,1,1.64-.91c.4,0,1.58.4.87,3.36l-.13.09-.16-.16a7.18,7.18,0,0,0,.17-2.13,1,1,0,0,0-.88-.81,1.32,1.32,0,0,0-1.06.58C10.29,18.71,10.08,19,10.15,20.26Z"/><path class="cls-6" d="M19.39,21.52a1.54,1.54,0,0,0,.21-.45,4.41,4.41,0,0,0,.15-1.23,2.11,2.11,0,0,0-.65-1.69,1.41,1.41,0,0,0-1.65.3,2.09,2.09,0,0,0-.72,1.63l.14.84H17a3.61,3.61,0,0,1,.14-1.43,1.68,1.68,0,0,1,1-1.06.93.93,0,0,1,1,.41,5.67,5.67,0,0,1,.14,1.7c0,.26-.07.89-.07.89Z"/><path class="cls-4" d="M14.24,22.77c-.12.54-.63.69-1.23.6s-1-.48-1-.89.62-.67,1.23-.61S14.33,22.36,14.24,22.77Z"/><path class="cls-4" d="M13.35,23.35a2.84,2.84,0,0,0,1.28,1.37,1.83,1.83,0,0,0,.66.09c.37,0,.93-.12,1.85-2l0-.17a8,8,0,0,1-1.06,1.27c-.45.37-.57.4-.91.4A1.44,1.44,0,0,1,14.06,24c-.36-.38-.58-.66-.58-.66Z"/><path class="cls-4" d="M16.68,22.64s.42-.18.57-.08.12.66.12.66l-.1-.11s.12-.31-.09-.45-.44.06-.44.06Z"/><path class="cls-1" d="M5.8,13.23a1.28,1.28,0,0,0,.39,1.17,4,4,0,0,0,1.6.85,5,5,0,0,0,1.3.13s.19,0,.22-.31,0-.27-.14-.43a4.74,4.74,0,0,1-.35-.38l-.38,0a3.47,3.47,0,0,1-.79-.11,5.81,5.81,0,0,1-.88-.31A4.54,4.54,0,0,1,6,13.32C5.92,13.21,5.89,13.15,5.8,13.23Z"/><polygon class="cls-6" points="15.62 27.45 19.86 27.39 19.84 30.24 15.62 27.45"/><polygon class="cls-6" points="15.36 28.04 12.1 26.92 11.22 29.45 15.36 28.04"/><path class="cls-1" d="M4.4,18.56a.94.94,0,1,1-.94-.94A.94.94,0,0,1,4.4,18.56Z"/><path class="cls-1" d="M32.9,18.56a.94.94,0,1,1-.94-.94A.94.94,0,0,1,32.9,18.56Z"/><path class="cls-1" d="M10.9,3.38c.14,0,.3.07.28.41s-.06,1-.06,1.28a1.35,1.35,0,0,0,.13.78c.12.11.25.19.25.3a.34.34,0,0,1-.21.3c-.12,0-.29.11-.37,0a4,4,0,0,1-.13-1.18c0-.28,0-.43-.06-.78s-.21-.59-.13-.82S10.72,3.39,10.9,3.38Z"/><path class="cls-1" d="M11.78,4.36c.15-.1.44,0,.68.27a2.27,2.27,0,0,1,.41.63,1.81,1.81,0,0,1,.1.34c0,.1,0,.21-.05.24a.35.35,0,0,1-.29,0,.71.71,0,0,1-.26-.18c-.1-.09-.19-.12-.26-.24s-.14-.14-.19-.27a1.14,1.14,0,0,1-.14-.32Z"/><path class="cls-1" d="M9.88,4.63a.39.39,0,0,1,.27.26,2.56,2.56,0,0,1-.09.45,2,2,0,0,1-.21.55c-.1.13-.12.2-.27.17s-.23-.2-.29-.29a.19.19,0,0,1,0-.29.93.93,0,0,0,.28-.33c.07-.17.07-.32.12-.41S9.82,4.62,9.88,4.63Z"/><path class="cls-1" d="M18.5,3.9c.18-.06.39-.06.57-.14s.3-.32.37-.49a2.11,2.11,0,0,0,.09-.62.84.84,0,0,0-.13-.5A.45.45,0,0,0,19,2,7.2,7.2,0,0,0,18,2a.25.25,0,0,1-.29-.09.62.62,0,0,0-.36-.1,5,5,0,0,0-.66,0A1.43,1.43,0,0,0,16,2.2c-.19.16-.14.52-.14.74a3.15,3.15,0,0,0,.18.69c.05.15.15.48.22.63a4.13,4.13,0,0,0,.18.48c.07.09.16,0,.21,0s.1-.22.17-.31.15-.23.26-.26a1.66,1.66,0,0,1,.29,0,3.18,3.18,0,0,1,0,.38c0,.3,0,.57.15.56s.09-.36.09-.36l.05-2.46a.26.26,0,0,1,.14.09c.06.09.06.11.15.13a1.71,1.71,0,0,0,.47-.05c.14,0,.28,0,.36.09a2.66,2.66,0,0,1,0,.72c0,.19,0,.31-.14.34a.11.11,0,0,1-.15-.11c0-.06,0-.5,0-.6a.16.16,0,0,0-.21-.15c-.1,0,0,.79,0,.9s-.06.07-.15.05,0-.13-.05-.31S18,3,18,3s-.09.56-.08.66a3.65,3.65,0,0,0,0,.69c.06.2.1.22.32.36a.56.56,0,0,0,.57.06c.26-.07.25-.16.32-.24a.52.52,0,0,0,.14-.3c0-.08-.11,0-.28.08s-.38,0-.63,0-.2-.08-.2-.21S18.32,4,18.5,3.9Zm-1.23-.14c-.07.07,0,.14-.14.22s-.17.14-.35.13-.13,0-.23-.07-.1,0-.14-.25a2.12,2.12,0,0,1-.06-.49.19.19,0,0,1,.07-.12.46.46,0,0,1,.32.06,1.68,1.68,0,0,1,.52.26C17.3,3.59,17.33,3.7,17.27,3.76Zm.14-.59a.21.21,0,0,1-.25,0c-.1,0-.17,0-.28-.15s-.25-.27-.33-.37-.21-.24-.21-.35a.22.22,0,0,1,.07-.16.74.74,0,0,1,.4,0,.55.55,0,0,1,.37.17.62.62,0,0,1,.25.48C17.43,2.94,17.47,3.12,17.41,3.17Z"/><path class="cls-1" d="M24.66,4a.55.55,0,0,1-.35-.2c-.08-.11-.12-.26-.23-.34s-.35-.17-.45-.11a.23.23,0,0,0,0,.36c.14.13.13.15.09.21a.15.15,0,0,1-.15,0c-.09,0-.16-.06-.23-.08s-.19,0-.2,0a.23.23,0,0,0,0,.22.6.6,0,0,0,.28.13c.17,0,.18,0,.36,0s.2-.05.33-.07a1.23,1.23,0,0,1,.34,0c.08,0,.14,0,.14.09a1,1,0,0,1,0,.34,2.92,2.92,0,0,0,0,.62c0,.06-.06.14-.12.14a2.91,2.91,0,0,1-.38,0c-.14,0-.18,0-.22-.1S23.7,5,23.63,5a.21.21,0,0,0-.11.22c0,.11.06.13.26.19a1.42,1.42,0,0,0,.36,0,1,1,0,0,1,.31,0c.09,0,.15.08.15.17a.3.3,0,0,1-.1.22c-.05.06-.25.05-.4,0s-.35-.06-.45,0a.55.55,0,0,0-.29.13c-.09.06-.25.09-.22.2s.12.06.28,0l1.06,0a1.88,1.88,0,0,0,.13.44.3.3,0,0,0,.29.11c.07,0,.13-.08.13-.25s0-.36.12-.36l.4,0c.15,0,.37,0,.34-.21a.26.26,0,0,0-.28-.21A2,2,0,0,1,25,5.75c-.09,0,0-.13.09-.15a1.08,1.08,0,0,0,.29-.09c.06,0,.17-.06.14-.21s-.07-.23-.18-.19a1,1,0,0,1-.28.11c-.12,0-.21,0-.24,0s0-.38,0-.55a1.05,1.05,0,0,0-.05-.38,2.14,2.14,0,0,0,.41,0c.15,0,.47,0,.5-.18s-.19-.21-.39-.26V3.53s0-.2-.11-.23-.11.06-.17.21a2,2,0,0,1-.21.39A.32.32,0,0,1,24.66,4Z"/><rect class="cls-1" x="84.27" y="4.28" width="10.09" height="10.09"/><rect class="cls-1" x="94.77" y="4.28" width="10.09" height="10.09"/><rect class="cls-1" x="105.27" y="4.28" width="10.1" height="10.09"/><path class="cls-5" d="M86.56,6.44a5.38,5.38,0,0,0-.86,0V5.92a6.69,6.69,0,0,0,.87,0h2.52V5.89a2.87,2.87,0,0,0,0-.72h.63a3.87,3.87,0,0,0,0,.72V6h2.74a6.69,6.69,0,0,0,.87,0v.57a5.45,5.45,0,0,0-.86,0H89.62v.64H91.7a5,5,0,0,0,.74,0,6.19,6.19,0,0,0,0,.63V9.29a5.93,5.93,0,0,0,0,.61,5.5,5.5,0,0,0-.74,0h-.24v.62h.91a6.81,6.81,0,0,0,.87-.05V11a5.45,5.45,0,0,0-.86-.05h-.92v1.41c0,.48-.21.62-.92.62-.22,0-.33,0-.84,0a1.3,1.3,0,0,0-.16-.55,5.59,5.59,0,0,0,1,.08c.31,0,.37,0,.37-.22V11H86.56a5.53,5.53,0,0,0-.86.05v-.57a6.69,6.69,0,0,0,.87.05h4.37V9.86H87.21a5.35,5.35,0,0,0-.73,0c0-.23,0-.38,0-.61V7.67c0-.24,0-.39,0-.63a4.81,4.81,0,0,0,.73,0h1.88V6.44Zm.49,1.08v.7h2v-.7Zm0,1.12v.79h2V8.64Zm1.54,4a6.92,6.92,0,0,0-1.27-1.13l.4-.33A8.07,8.07,0,0,1,89,12.22Zm1-4.39h2.25v-.7H89.62Zm0,1.21h2.25V8.64H89.62Z"/><path class="cls-5" d="M97.24,12.05a5.67,5.67,0,0,0,.05,1h-.65a7.59,7.59,0,0,0,0-1V6.41c0-.42,0-.68,0-1,.23,0,.47,0,.9,0h1.26c.43,0,.64,0,.88,0,0,.23,0,.47,0,.82V7.64c0,.38,0,.57,0,.8-.19,0-.52,0-.87,0H97.24Zm0-5.34h1.93V5.93H97.24Zm0,1.26h1.93V7.15H97.24Zm6.34,4.16c0,.61-.19.76-.94.76-.28,0-.64,0-1,0a2.25,2.25,0,0,0-.15-.58,8,8,0,0,0,1.06.1c.42,0,.49,0,.49-.23V8.42h-1.69c-.37,0-.69,0-.88,0,0-.23,0-.47,0-.8V6.28c0-.3,0-.56,0-.82.24,0,.46,0,.89,0h1.36c.42,0,.67,0,.91,0a6.86,6.86,0,0,0,0,1ZM101,6.71h2V5.93h-2ZM101,8h2V7.15h-2Z"/><path class="cls-5" d="M110.68,5.73a3.12,3.12,0,0,0-.05-.6h.65a2.34,2.34,0,0,0,0,.6v.38h2.41a7.08,7.08,0,0,0,1-.05v.59a5.75,5.75,0,0,0-1-.05h-5.37c0,3.87-.19,5-1,6.35a2,2,0,0,0-.48-.41c.7-1.06.89-2.24.89-5.43,0-.54,0-.78,0-1.05a8,8,0,0,0,.91.05h2.09Zm.27,1.9a3.49,3.49,0,0,0,0-.77h.63a3.29,3.29,0,0,0-.05.78V8h2a5.35,5.35,0,0,0,.85,0v.6a4.63,4.63,0,0,0-.83-.05h-2V9.9h1.69a4.67,4.67,0,0,0,.72,0c0,.24,0,.44,0,.79V12a8.53,8.53,0,0,0,0,1h-.59v-.42h-3.74V13H109a8.46,8.46,0,0,0,0-1V10.62a5.44,5.44,0,0,0,0-.76,5,5,0,0,0,.74,0H111Zm-1.36,4.5h3.74V10.39h-3.74Z"/><rect class="cls-1" x="38.4" y="4.28" width="10.1" height="10.09"/><rect class="cls-1" x="48.9" y="4.28" width="10.1" height="10.09"/><path class="cls-5" d="M42.78,6.26a4.37,4.37,0,0,0-.07-.9h.7a4.6,4.6,0,0,0-.06.89V7h2.54a4.08,4.08,0,0,0,.66,0,3.67,3.67,0,0,0,0,.69V10a4.81,4.81,0,0,0,.06.77h-.63v-.59H43.35v2a5.12,5.12,0,0,0,.06,1h-.7a5.24,5.24,0,0,0,.07-1v-2H40.33v.59H39.7a4.81,4.81,0,0,0,.06-.77V7.66a4.86,4.86,0,0,0,0-.69,4.19,4.19,0,0,0,.65,0h2.42ZM40.33,7.53V9.69h2.45V7.53Zm5.6,2.16V7.53H43.35V9.69Z"/><path class="cls-5" d="M50.22,6.78a8.67,8.67,0,0,0,0-1.06,9.23,9.23,0,0,0,1,0h5.18a9.91,9.91,0,0,0,1,0,10.32,10.32,0,0,0,0,1.06v5.29a9.29,9.29,0,0,0,0,1.18h-.6v-.53h-6v.53h-.61a7.58,7.58,0,0,0,0-1.18Zm.56,5.45h6v-6h-6Zm1.48-4.69a5.86,5.86,0,0,0-.81,0V7a4.46,4.46,0,0,0,.81,0h3.06a5.93,5.93,0,0,0,.85,0v.55a6.25,6.25,0,0,0-.84,0H54V8.88h1.06a5,5,0,0,0,.78,0v.55a4,4,0,0,0-.78-.05H54v1.59h1.45a6.47,6.47,0,0,0,.85,0v.57a6.82,6.82,0,0,0-.85,0h-3.3a6.87,6.87,0,0,0-.86,0v-.57a6.52,6.52,0,0,0,.86,0h1.31V9.34h-.93a4.22,4.22,0,0,0-.79.05V8.84a5.19,5.19,0,0,0,.79,0h.93V7.54ZM55,9.5a4.89,4.89,0,0,1,.82,1l-.41.26a4.47,4.47,0,0,0-.77-1.07Z"/><polygon class="cls-4" points="57.87 9.02 65.76 1.14 71.85 7.24 78.13 0.96 85.82 8.66 78.14 16.34 71.81 11.23 65.64 16.74 57.87 9.02"/><path class="cls-1" d="M65.64,17,57.64,9,65.76.91,71.85,7,78.13.73l7.92,7.93-7.9,7.9-6.33-5.12L65.64,17ZM58.1,9l7.55,7.49L71.81,11l6.32,5.11,7.46-7.46L78.13,1.2,71.85,7.47l-6.09-6.1L58.1,9Z"/><path class="cls-5" d="M81.55,8.2v3.69c0,.42-.07.53-.13.6a1.46,1.46,0,0,1-.92.26,1.32,1.32,0,0,1-.27,0,5.16,5.16,0,0,0-.45-1.09l.42,0c.22,0,.26-.11.26-.34V9.15H78.07v3.49h-1V10.08c-.11.35-.15.48-.25.74-.24-.06-.4-.12-.61-.18V11a4.77,4.77,0,0,0,.82-.2,6.63,6.63,0,0,0-.12,1c-.08,0-2.38.57-2.52.59s0,.2-.16.2-.07,0-.09-.14l-.26-1.14.28-.05c.17,0,.86-.12,1-.14v-.44a9.2,9.2,0,0,0-.93.31,10.6,10.6,0,0,0-.3-1.37l.94-.29a8.45,8.45,0,0,1,.29.95V9.18H74V8.26h1.15V7.89h-.66V7.43l0,0a6.26,6.26,0,0,0-.87-.78,5.34,5.34,0,0,0,1.73-1.76l1.14.27c.1,0,.14,0,.14.09s-.1.11-.14.13a10,10,0,0,0,1,.79v-1h3.8v3Zm-5-1.29c-.17-.13-.45-.38-.81-.72a4,4,0,0,1-.64.72Zm.9,1.29V6.3s-.29.25-.34.31l-.27.3h.1v1h-.75v.37h.74v.92h-.74v1a7.85,7.85,0,0,0,.23-.85l.63.17V8.2Zm2.8,1.22V11.5h-1.1V12h-.86V9.42ZM78.81,8.2V6.58h1.41V6.11H78.48V8.2Zm.34,2.1v.39h.29V10.3Zm1.07-2.1V7.46h-.49V8.2Z"/><path class="cls-5" d="M66.46,5.05c.11,0,.15,0,.15.12a.18.18,0,0,1-.15.17v2a4.08,4.08,0,0,0,.78,2.52,4.53,4.53,0,0,0,2.56,1.71A4.46,4.46,0,0,0,69,12.7a7.19,7.19,0,0,1-1.92-1A5.89,5.89,0,0,1,65.82,10a5.06,5.06,0,0,1-3,2.68,5.75,5.75,0,0,0-.93-1.14,4.38,4.38,0,0,0,2.65-1.81,4.61,4.61,0,0,0,.58-2.51c0-1.72,0-1.91,0-2.27Zm-2,1.6c.06,0,.15,0,.15.14s0,.09-.22.13a8.51,8.51,0,0,1-1,2.63,8.59,8.59,0,0,0-1.28-.62,6.54,6.54,0,0,0,1-2.62Zm4.89.16c.06,0,.13.05.13.12s-.08.11-.25.12a9.35,9.35,0,0,1-1.29,2.16,4,4,0,0,0-1.18-.65A7.68,7.68,0,0,0,68,6.27Z"/><path class="cls-1" d="M58.48,18.14c0,.85-.07,2.6-.07,2.74,0,.68.14,1,.83,1,1.15,0,1.38-.94,1.49-1.63l.8.36a2.86,2.86,0,0,1-.76,1.55,2,2,0,0,1-1.53.53c-1.58,0-1.69-1-1.69-2,0-.41,0-2.19,0-2.56Z"/><path class="cls-1" d="M60,23.71a3.32,3.32,0,0,1,.35.61l.28,0a1,1,0,0,1,1.12,1.1,1,1,0,0,1-.39.87,1.37,1.37,0,0,1-.94.27,3.26,3.26,0,0,1-.5,0l0-.7a2,2,0,0,0,.48.06c.1,0,.65,0,.65-.47,0-.26-.13-.41-.44-.43a2.3,2.3,0,0,1,.07.26l-.72.21c0-.15,0-.18-.07-.3l-.51.17c.38,1.35.42,1.49.58,2.25l-.82.14q-.2-1.07-.48-2.1l-.7.28-.22-.75.22-.07.5-.17a6.54,6.54,0,0,0-.3-.83l.76-.19c.09.22.14.38.27.78l.48-.16a3.2,3.2,0,0,0-.29-.52Z"/><path class="cls-1" d="M60.63,28.59A4.13,4.13,0,0,1,61.75,30l-.72.41a5.29,5.29,0,0,0-.78-1.12V30H59.11v.43a4.16,4.16,0,0,1,.68,0,1.78,1.78,0,0,1,1.3.39,1.45,1.45,0,0,1,.44,1.07c0,1.47-1.7,1.48-2.16,1.48l-.16-.73c.54,0,1.47,0,1.47-.78,0-.62-.57-.71-.94-.71a3.67,3.67,0,0,0-.63.07v1.25c0,.67-.56.78-.94.78A1.1,1.1,0,0,1,57,32.1,1.43,1.43,0,0,1,57.57,31a2.66,2.66,0,0,1,.75-.41V30H57.09v-.78h1.23v-.52h.79v.52h1.06L60,29Zm-2.31,2.77a.76.76,0,0,0-.54.68.32.32,0,0,0,.32.35c.22,0,.22-.12.22-.22Z"/><path class="cls-1" d="M84.85,22.17A4.73,4.73,0,0,0,85.32,20l.79.09a6.54,6.54,0,0,1-.44,2.47Zm3.37-2.74c-.31,0-.76.22-.76.6,0,.13,0,.18.38.57a1.6,1.6,0,0,1,.47,1.08,1,1,0,0,1-1.07,1.09,2.91,2.91,0,0,1-1.07-.25l.07-.8a2.49,2.49,0,0,0,.8.2.31.31,0,0,0,.32-.33,1.12,1.12,0,0,0-.35-.68,1.31,1.31,0,0,1-.38-.87,1,1,0,0,1,.68-.94,5.17,5.17,0,0,0-1.47-.21l.17-.78a8.3,8.3,0,0,1,1.21.11,4.5,4.5,0,0,1,1.26.37Zm.61,3A6.78,6.78,0,0,0,88.35,20l.78-.2a7,7,0,0,1,.61,2.49Z"/><path class="cls-1" d="M88.78,24.71v.65A6.54,6.54,0,0,0,88,26l.1,0c.42,0,.43.36.43.52v.25c0,.24.08.24.59.24a3.1,3.1,0,0,0,.49,0l0,.73a1.29,1.29,0,0,1-.38,0,4.34,4.34,0,0,1-1.09-.11c-.26-.09-.35-.34-.35-.65v-.14c0-.14,0-.29-.2-.29a.57.57,0,0,0-.33.13c-.35.34-.43.43-1,1.05L85.78,27l.93-.82.11-.08c.75-.58.83-.64,1-.76l-1.69.06v-.72Zm.07-.16a8.74,8.74,0,0,0-2.21-.21l.07-.66H87a12,12,0,0,1,1.91.18Z"/><path class="cls-1" d="M86,28.94a11.1,11.1,0,0,0-.15,1.63A4.64,4.64,0,0,0,86,31.8c0,.15.12.4.33.4s.25-.13.33-.26a5.5,5.5,0,0,0,.32-.73l.68.4c-.16.48-.57,1.55-1.38,1.55a1.05,1.05,0,0,1-1-.76A5.66,5.66,0,0,1,85,30.48a15.29,15.29,0,0,1,.11-1.61Zm2.76,3.7c0-.1,0-.21,0-.37a5.46,5.46,0,0,0-.25-1.77,2.57,2.57,0,0,0-.67-1.08l.67-.45a3.36,3.36,0,0,1,1,2.14,7.69,7.69,0,0,1,.1,1.48Z"/><path class="cls-1" d="M113.61,18.4a5.27,5.27,0,0,1,.4.69h.27a1.29,1.29,0,0,1,1.43,1.32c0,.79-.54,1.37-1.57,1.37a2.37,2.37,0,0,1-.64-.09V20.9A1.49,1.49,0,0,0,114,21c.58,0,.83-.28.83-.61a.51.51,0,0,0-.24-.45.58.58,0,0,0-.34-.09c0,.13,0,.18.08.35l-.8.23a2.69,2.69,0,0,0-.09-.42l-.74.25c.49,1.74.54,1.94.72,2.74l-.91.16c-.11-.62-.21-1.17-.32-1.59,0-.16-.23-.86-.28-1-.43.17-.6.25-.79.34l-.28-.83.86-.28a8.11,8.11,0,0,0-.35-1l.84-.22c0,.1.06.18.29.93l.7-.22c-.17-.36-.25-.48-.32-.61Z"/><path class="cls-1" d="M113.21,29.12c-.07.18-.53,1.43-.68,1.85a1,1,0,0,1,.55-.16.79.79,0,0,1,.78.46A2,2,0,0,1,114,32v.34c0,.11,0,.43.31.43s.55-.37.64-1.61l.81.24c-.09,1.4-.52,2.21-1.53,2.21-.71,0-1.06-.42-1.06-1.14v-.41c0-.26,0-.44-.27-.44s-.62.43-.73.7a8.21,8.21,0,0,0-.33,1.32l-.89-.28c0-.05.08-.23.09-.26.59-2,.66-2.19,1.24-4l0-.12Z"/><polygon class="cls-1" points="64.19 34.84 63.86 34.84 63.86 17.07 64.19 17.07 64.19 34.84 64.19 34.84"/><polygon class="cls-1" points="92.16 34.84 91.83 34.84 91.83 17.07 92.16 17.07 92.16 34.84 92.16 34.84"/><path class="cls-1" d="M46.77,19c.61,0,1.31.33,1.22,1.84s-.24,4.18-.24,5.59,0,2.87.57,3.39,1.08.85,1.08,1.32a1.45,1.45,0,0,1-.89,1.31c-.57.19-1.27.48-1.65,0s-.61-3.95-.56-5.17-.24-1.88-.29-3.39c0-1.08-.89-2.58-.56-3.62S46,19.07,46.77,19Z"/><path class="cls-1" d="M50.62,23.35c.66-.47,1.93,0,3,1.18a9.83,9.83,0,0,1,1.83,2.72c.24.57.28,1.08.43,1.51s.09.94-.24,1a1.42,1.42,0,0,1-1.27.05,2.8,2.8,0,0,1-1.13-.75c-.42-.43-.85-.57-1.13-1.08s-.61-.62-.84-1.18-.62-1-.62-1.41Z"/><path class="cls-1" d="M42.3,24.53a1.69,1.69,0,0,1,1.17,1.12,11.17,11.17,0,0,1-.37,2,8.49,8.49,0,0,1-.94,2.4c-.43.56-.52.89-1.18.75s-1-.89-1.27-1.27a.88.88,0,0,1,.19-1.27,3.75,3.75,0,0,0,1.22-1.46c.33-.75.33-1.41.52-1.78S42.06,24.48,42.3,24.53Z"/><path class="cls-1" d="M46.77,19c.61,0,1.31.33,1.22,1.84s-.24,4.18-.24,5.59,0,2.87.57,3.39,1.08.85,1.08,1.32a1.45,1.45,0,0,1-.89,1.31c-.57.19-1.27.48-1.65,0s-.61-3.95-.56-5.17-.24-1.88-.29-3.39c0-1.08-.89-2.58-.56-3.62S46,19.07,46.77,19Z"/><path class="cls-1" d="M50.62,23.35c.66-.47,1.93,0,3,1.18a9.83,9.83,0,0,1,1.83,2.72c.24.57.28,1.08.43,1.51s.09.94-.24,1a1.42,1.42,0,0,1-1.27.05,2.8,2.8,0,0,1-1.13-.75c-.42-.43-.85-.57-1.13-1.08s-.61-.62-.84-1.18-.62-1-.62-1.41Z"/><path class="cls-1" d="M42.3,24.53a1.69,1.69,0,0,1,1.17,1.12,11.17,11.17,0,0,1-.37,2,8.49,8.49,0,0,1-.94,2.4c-.43.56-.52.89-1.18.75s-1-.89-1.27-1.27a.88.88,0,0,1,.19-1.27,3.75,3.75,0,0,0,1.22-1.46c.33-.75.33-1.41.52-1.78S42.06,24.48,42.3,24.53Z"/><path class="cls-1" d="M78.66,28.38c.84-.3,1.79-.3,2.64-.65a4,4,0,0,0,1.7-2.3,9.45,9.45,0,0,0,.45-2.89,4,4,0,0,0-.6-2.29,2.21,2.21,0,0,0-1.75-.95,31.21,31.21,0,0,0-4.79.3A1.18,1.18,0,0,1,75,19.15a3.11,3.11,0,0,0-1.65-.45,21.85,21.85,0,0,0-3.09.2,7.23,7.23,0,0,0-3.1,1.55c-.89.74-.64,2.44-.64,3.44a13.9,13.9,0,0,0,.84,3.24c.2.7.7,2.2,1,2.89a18.07,18.07,0,0,0,.85,2.25c.3.4.75.15.94-.1s.51-1,.8-1.45.7-1,1.2-1.2a7.62,7.62,0,0,1,1.35-.2,13.87,13.87,0,0,1,.1,1.8c0,1.4-.1,2.64.7,2.59.6,0,.45-1.69.45-1.69l.2-11.42a1.1,1.1,0,0,1,.64.44c.3.4.3.5.7.6a7.4,7.4,0,0,0,2.2-.25c.65-.15,1.29-.2,1.69.4a15,15,0,0,1,.1,3.39c0,.85-.15,1.4-.65,1.55a.49.49,0,0,1-.69-.5c0-.3-.1-2.34-.1-2.79a.78.78,0,0,0-1-.7c-.45.2,0,3.69,0,4.19s-.3.3-.7.25,0-.63-.25-1.45-.4-1.54-.75-1.49-.4,2.59-.35,3a17.77,17.77,0,0,0,.2,3.24c.25.9.45,1,1.5,1.65a2.57,2.57,0,0,0,2.59.3,1.89,1.89,0,0,0,1.5-1.15,2.33,2.33,0,0,0,.65-1.4c0-.35-.5.25-1.3.4s-1.74.1-2.89.2-1-.4-1-1S77.81,28.68,78.66,28.38Zm-5.74-.65c-.3.3-.1.65-.65,1a2.17,2.17,0,0,1-1.59.59c-.8,0-.61,0-1.1-.29s-.45-.25-.65-1.15a9,9,0,0,1-.25-2.3A.71.71,0,0,1,69,25a2.23,2.23,0,0,1,1.5.25c.64.24,2.19.84,2.39,1.24S73.22,27.43,72.92,27.73ZM73.57,25a1.07,1.07,0,0,1-1.15.06c-.45-.2-.8-.06-1.3-.7S70,23.09,69.58,22.59s-1-1.1-1-1.6a1,1,0,0,1,.3-.74,3.19,3.19,0,0,1,1.85-.1,2.68,2.68,0,0,1,1.74.8,2.8,2.8,0,0,1,1.15,2.19C73.67,23.89,73.87,24.74,73.57,25Z"/><path class="cls-1" d="M102.26,21.27a2.36,2.36,0,0,1-1.62-.93c-.39-.49-.59-1.18-1.06-1.55s-1.66-.81-2.11-.51a1.06,1.06,0,0,0,0,1.67c.64.59.61.7.41.95a.67.67,0,0,1-.69.18c-.41-.09-.76-.25-1.1-.34s-.87-.11-.92.09-.15.76.19,1a3,3,0,0,0,1.33.63c.78.2.8-.09,1.63-.19s.95-.25,1.54-.32a5.53,5.53,0,0,1,1.59,0c.39.1.64-.05.64.44A4.51,4.51,0,0,1,102,24a16.31,16.31,0,0,0-.15,2.87.71.71,0,0,1-.59.62,12.05,12.05,0,0,1-1.76-.08c-.64-.09-.81-.09-1-.48s-.63-.87-1-.73a1,1,0,0,0-.5,1c.09.47.26.58,1.2.88a5.62,5.62,0,0,0,1.66.16,7.42,7.42,0,0,1,1.45.22c.44.16.68.4.68.8a1.5,1.5,0,0,1-.42,1c-.26.28-1.2.25-1.88.2a19.49,19.49,0,0,0-2.11-.24,2.88,2.88,0,0,0-1.33.59c-.44.3-1.17.45-1,.94s.56.3,1.31.24,4.94-.19,4.94-.19a7.89,7.89,0,0,0,.6,2.05,1.53,1.53,0,0,0,1.34.53c.3-.05.59-.4.59-1.19s-.1-1.69.54-1.69,1.22.12,1.9.17,1.71-.07,1.55-1a1.2,1.2,0,0,0-1.29-.95,8.59,8.59,0,0,1-2.7-.3c-.44-.24.15-.59.44-.69a6.33,6.33,0,0,0,1.31-.39c.3-.2.79-.32.69-1s-.36-1.11-.85-.91a4.23,4.23,0,0,1-1.32.5c-.54,0-1,.11-1.1-.15-.44-.95.09-1.79.19-2.59a4.54,4.54,0,0,0-.25-1.76,9.83,9.83,0,0,0,1.92.19c.68,0,2.2-.17,2.29-.82s-.86-1-1.79-1.23l.06-1.48s-.06-.92-.5-1.07-.52.29-.82,1a6.76,6.76,0,0,1-1,1.8A1.33,1.33,0,0,1,102.26,21.27Z"/></g></g></svg>