<?xml version="1.0" encoding="UTF-8"?><svg id="b" xmlns="http://www.w3.org/2000/svg" viewBox="0 0 212.75 50"><g id="c"><g id="d"><path id="e" d="m21.51.05L.2,12.36C.08,12.43,0,12.56,0,12.7v3.36c.02.14.09.26.21.33l1.1.65h0s1.49.87,1.49.87l3.88,2.27v-.03l26.13,15.09c.19.11.25.35.14.54-.03.06-.08.11-.14.14l-10.92,6.3c-.12.07-.27.07-.39,0l-14.63-8.44c-.12-.07-.2-.2-.2-.34v-4.76c0-.14-.07-.27-.2-.34l-5.9-3.44c-.19-.11-.43-.05-.54.14C.02,25.1,0,25.17,0,25.24v12.06c0,.14.07.27.2.34l21.31,12.3c.12.07.27.07.39,0l21.31-12.3c.12-.07.2-.2.2-.34v-3.34c.01-.14-.06-.27-.18-.34l-1.09-.64.02-.03-3.44-1.99-1.91-1.13v.02L10.62,14.74c-.19-.11-.25-.35-.14-.54.03-.06.08-.11.14-.14l10.88-6.28c.12-.07.27-.07.39,0l14.62,8.44c.12.07.2.2.2.34v4.78c0,.14.07.27.19.34l5.9,3.44c.19.11.43.05.54-.14.04-.06.05-.13.05-.2v-12.09c0-.14-.07-.27-.2-.34L21.9.05c-.12-.07-.27-.07-.39,0" stroke-width="0"/><path id="f" d="m72.04,43.63c-2.74.08-5.46-.42-7.99-1.46-2.22-.96-4.14-2.5-5.56-4.46l.05-.29,4.66-3.22.28.04c1.93,2.59,5.04,4.03,8.26,3.82,4.24,0,6.38-1.57,6.38-4.66,0-3.5-2.85-4.8-7.77-5.86-7.39-1.56-10.98-5.17-10.98-11.06-.09-2.68.95-5.27,2.88-7.13,2.13-1.98,5.25-2.99,9.28-2.99,5.76,0,9.83,1.94,12.42,5.92l-.05.28-4.5,3.22-.29-.05c-1.64-2.59-4.58-4.05-7.63-3.81-1.51-.09-3,.33-4.25,1.18-1.01.82-1.57,2.07-1.5,3.37,0,3.02,1.99,4.53,7.62,5.76,3.91.85,6.56,1.98,8.3,3.57,1.98,1.91,3.01,4.59,2.83,7.33.06,2.73-1,5.36-2.93,7.29-2.17,2.09-5.44,3.19-9.49,3.19" stroke-width="0"/><path id="g" d="m99.39,43.16l-.2-.2V12.55l-.14-.14h-10.04l-.2-.2v-5.16l.2-.2h26.67l.2.2v5.16l-.2.2h-9.99l-.14.14v30.41l-.2.2h-5.94Z" stroke-width="0"/><path id="h" d="m140.74,43.16l-.19-.12-6.85-14.42-.13-.08h-6.53l-.14.14v14.27l-.2.2h-5.94l-.2-.2V7.04l.2-.2h12.21c8.65,0,13.41,3.87,13.41,10.9.08,2.2-.53,4.36-1.72,6.21-1.15,1.6-2.75,2.81-4.6,3.48l-.08.2,7.5,15.26-.17.28h-6.56Zm-13.84-30.62v10.33l.14.14h5.51c2.73,0,4.56-.38,5.73-1.21,1.25-.96,1.92-2.51,1.75-4.08.17-1.61-.53-3.19-1.83-4.15-1.19-.81-2.99-1.19-5.65-1.19h-5.51l-.14.15Z" stroke-width="0"/><path id="i" d="m166.08,43.63c-4.21,0-7.52-1.21-9.84-3.59-2.51-2.58-3.78-6.48-3.78-11.6V7.04l.2-.2h5.94l.2.2v21.41c0,6.65,2.24,9.62,7.27,9.62s7.27-2.97,7.27-9.62V7.04l.2-.2h5.94l.2.2v21.35c0,5.14-1.27,9.06-3.78,11.64-2.32,2.39-5.63,3.6-9.84,3.6" stroke-width="0"/><path id="j" d="m199.5,43.63c-4.22,0-7.54-1.31-9.86-3.89-2.49-2.78-3.76-6.96-3.76-12.44v-4.6c0-5.48,1.26-9.67,3.76-12.44,2.32-2.58,5.64-3.89,9.86-3.89,3.22-.15,6.38.89,8.88,2.92,2.46,2.31,4.01,5.42,4.36,8.78l-.2.23h-5.73l-.2-.16c-.92-4.23-3.18-6.21-7.11-6.21-6.52,0-7.27,6.15-7.27,10.77v4.6c0,3.72.63,6.49,1.88,8.25,1.24,1.72,3.28,2.67,5.39,2.52,4.03,0,6.16-1.86,7.11-6.21l.2-.16h5.68l.2.23c-1.17,7.77-5.61,11.7-13.19,11.7" stroke-width="0"/></g></g></svg>