<?xml version="1.0" encoding="UTF-8"?><svg id="_レイヤー_2" xmlns="http://www.w3.org/2000/svg" width="144" height="72" viewBox="0 0 14.4 7.2"><defs><style>.cls-1{fill:#221815;}.cls-2{fill:#e83131;}</style></defs><g id="_01"><rect class="cls-2" width="14.4" height="7.2"/><path class="cls-1" d="M8.16,5.55c-.06-.05-.12-.07-.25-.07h-.38v.02s.03.01.03.03v.56s0,.03-.03.03v.02h.38c.12,0,.19-.02.25-.07.07-.06.11-.15.11-.26s-.04-.2-.11-.26M8.05,5.95s-.07.05-.15.05h-.16v-.4h.16c.08,0,.12.01.15.05.03.04.05.08.05.15s-.01.11-.05.15"/><path class="cls-1" d="M11.81,5.74l.1-.17h-.01s-.01,0-.02,0c-.01,0-.02,0-.06-.03-.09-.06-.17-.08-.27-.08-.11,0-.19.03-.26.07-.08.06-.14.16-.14.27s.06.21.14.27c.07.05.15.07.26.07s.19-.03.28-.08c.02-.01.04-.02.05-.02,0,0,.01,0,.02.01h.01s-.1-.18-.1-.18h-.01v.02s-.01.03-.06.06c-.06.03-.11.05-.18.05-.08,0-.13-.01-.17-.05-.05-.04-.07-.09-.07-.16,0-.14.09-.21.24-.21.09,0,.17.04.23.09.01,0,.01.02.01.03h0s.01.02.01.02Z"/><path class="cls-1" d="M12.61,5.49s.03.01.03.03v.2h-.36v-.2s0-.03.03-.03v-.02h-.23v.02s.03.01.03.03v.56s0,.03-.03.03v.02h.23v-.02s-.03-.01-.03-.03v-.23h.36v.23s0,.03-.03.03v.02h.23v-.02s-.03-.01-.03-.03v-.56s0-.03.03-.03v-.02h-.23v.02Z"/><path class="cls-1" d="M10.73,5.49s.03.01.03.03v.56s0,.03-.03.03v.02h.23v-.02s-.03-.01-.03-.03v-.56s0-.03.03-.03v-.02h-.23v.02Z"/><path class="cls-1" d="M9.35,5.49s.03.01.03.03v.56s0,.03-.03.03v.02h.23v-.02s-.03-.01-.03-.03v-.56s0-.03.03-.03v-.02h-.23v.02Z"/><path class="cls-1" d="M13.03,5.49s.03.01.03.03v.56s0,.03-.03.03v.02h.23v-.02s-.03-.01-.03-.03v-.56s0-.03.03-.03v-.02h-.23v.02Z"/><path class="cls-1" d="M9.16,6.06l-.25-.5s-.02-.04-.02-.05c0-.01.01-.02.03-.03v-.02h-.25v.02s.03.02.03.03c0,.01,0,.02-.01.04l-.24.51s-.03.05-.05.05v.02h.24v-.02s-.03-.02-.03-.03c0,0,0-.02,0-.03l.03-.07h.3l.03.07s0,.02,0,.03c0,.02-.01.03-.03.03v.02h.27v-.02s-.04-.01-.06-.06M8.79,5.67l.09.2h-.19l.09-.2Z"/><path class="cls-1" d="M10.46,6.05l-.26-.31.22-.18s.04-.03.06-.05c0,0,.01-.01.02-.01,0,0,.01,0,.03-.01v-.02h-.29v.02s.03.01.03.02c0,0,0,.01-.03.03l-.24.2v-.22s0-.03.03-.03v-.02h-.23v.02s.03.01.03.03v.56s0,.03-.03.03v.02h.23v-.02s-.03-.01-.03-.03v-.16l.1-.08.19.23s.02.03.02.04c0,0,0,.01-.02.02v.02h.28v-.02s-.03,0-.09-.07"/><path class="cls-1" d="M1.82,5.56c.04-.05.05-.07.08-.07v-.02h-.28v.02s.03.01.03.03c0,0,0,.01-.02.04l-.11.16-.11-.16s-.02-.03-.02-.04c0-.02.01-.03.03-.03v-.02h-.28v.02s.05.02.08.07l.21.3v.23s0,.03-.03.03v.02h.23v-.02s-.03-.01-.03-.03v-.23l.21-.3Z"/><path class="cls-1" d="M3.7,5.49s.03.01.03.03v.56s0,.03-.03.03v.02h.23v-.02s-.03-.01-.03-.03v-.56s0-.03.03-.03v-.02h-.23v.02Z"/><path class="cls-1" d="M6.7,5.49s.03.01.03.03v.56s0,.03-.03.03v.02h.23v-.02s-.03-.01-.03-.03v-.56s0-.03.03-.03v-.02h-.23v.02Z"/><path class="cls-1" d="M4.7,5.48h-.56s-.03,0-.03-.03h-.02v.19h.02s.01-.03.03-.03h.19v.48s0,.03-.03.03v.02h.23v-.02s-.03-.01-.03-.03v-.48h.2s.03,0,.03.03h.02v-.19h-.02s-.01.03-.03.03"/><path class="cls-1" d="M5.55,5.55c-.07-.07-.16-.1-.28-.1s-.21.03-.28.1c-.07.06-.11.16-.11.25s.04.19.11.25c.07.07.16.1.28.1s.21-.03.28-.1c.07-.06.11-.16.11-.25,0-.1-.04-.19-.11-.26M5.27,6.02c-.13,0-.21-.08-.21-.21s.08-.21.21-.21.21.08.21.21c0,.12-.09.21-.21.21"/><path class="cls-1" d="M6.48,6.05l-.14-.18c.12-.02.18-.08.18-.19,0-.07-.03-.13-.08-.16-.04-.03-.1-.04-.19-.04h-.43v.02s.03.01.03.03v.56s0,.03-.03.03v.02h.23v-.02s-.03-.01-.03-.03v-.22h.14l.14.19s.03.04.03.04c0,0,0,.02-.02.02v.02h.26v-.02s-.04,0-.09-.08M6.32,5.73s-.04.01-.1.01h-.2v-.14h.2c.07,0,.08,0,.1.01.02.01.04.03.04.06s-.01.05-.04.06"/><path class="cls-1" d="M2.62,6.06l-.25-.5s-.02-.04-.02-.05c0-.01.01-.02.03-.03v-.02h-.25v.02s.03.02.03.03c0,0,0,.02-.01.04l-.24.51s-.03.05-.05.05v.02h.24v-.02s-.03-.02-.03-.03c0,0,0-.02,0-.03l.02-.05h.32l.02.05s0,.02,0,.03c0,.02-.01.03-.03.03v.02h.27v-.02s-.04-.01-.06-.06M2.25,5.67l.09.21h-.19l.1-.21Z"/><path class="cls-1" d="M3.46,6.05l-.26-.31.22-.18s.04-.03.06-.05c0,0,.01-.01.02-.01,0,0,.01,0,.03-.01v-.02h-.29v.02s.03.01.03.02c0,0,0,.01-.03.03l-.24.2v-.22s0-.03.03-.03v-.02h-.23v.02s.03.01.03.03v.56s0,.03-.03.03v.02h.23v-.02s-.03-.01-.03-.03v-.16l.1-.08.19.23s.02.03.02.04c0,0,0,.02-.02.02v.02h.28v-.02s-.03,0-.09-.07"/><path class="cls-1" d="M8.72,4.47c.21-.22.29-.46.33-.62.01-.04-.01-.08-.05-.08-.55-.07-1.21-.95-1.39-1.22.19-.08.39-.15.6-.17.26-.03.73.11.73-.27,0-.19-.15-.37-.27-.46-.2-.15-.45-.22-.68-.08-.15.09-.3.16-.46.23.02-.16,0-.33-.1-.46-.1-.12-.24-.2-.4-.23-.12-.02-.31-.03-.43.05-.06.04-.12.13-.11.23,0,.07.06.11.11.15.09.08.13.17.11.29,0,.06-.02.13-.04.19-.01.04-.03.1-.05.16-.05.02-.1.04-.16.06-.1.04-.21.08-.31.11-.23.07-.5.1-.74.1-.07,0-.18,0-.23.07h0c-.06.09-.01.26.03.34.14.27.43.51.75.44.09-.02.17-.05.25-.08-.16.33-.36.65-.59.85,0,0-.14.14-.33.16-.08,0-.13,0-.17,0-.03,0-.05.02-.05.05.02.13.11.39.37.52.38.19,1.02.21,1.62-1.65.14.23.29.45.43.68.12.19.24.39.37.57.1.12.23.23.38.26.18.04.35-.04.47-.17"/><path class="cls-1" d="M13.08,1.51s-.03-.02-.04-.03c-.24-.17-.45-.13-.72-.08-.18.03-.36.08-.53.12-.02-.07-.07-.15-.18-.22-.2-.13-.57-.19-.77-.02-.05.05-.1.12-.1.19,0,.08.07.13.09.2,0,.02.01.05.02.08,0,0,0,0,0,0-.22.05-.51.09-.73.1-.12,0-.13,0-.26,0-.08,0-.25-.02-.31.05-.04.04-.04.1-.03.16.02.16.14.29.27.35.19.09.43.03.63,0,.17-.03.34-.07.5-.12,0,.03,0,.13,0,.23-.01,0-.02,0-.03,0-.27.06-.65.17-.95.17-.08,0-.19-.01-.25.05-.06.05-.05.14-.03.2.03.1.1.17.18.22.16.11.45.07.63,0,.48-.19,1.13-.32,1.61-.38.16-.02.32-.03.48,0,.13.02.26.07.39.04.09-.02.15-.1.16-.19.03-.19-.22-.35-.36-.39-.18-.05-.37-.02-.55.02-.16.04-.3.07-.44.09v-.3c.14-.03.28-.05.42-.06.19-.01.39,0,.58.03.13.02.32.09.43-.03.14-.16.03-.38-.11-.49"/><path class="cls-1" d="M12.07,3.03c-1.06.21-1.72.4-1.72.4,0,0-.35-.1-.58.06-.13.09-.16.23-.12.37.02.06.05.12.08.18.03.06.05.13.07.19.04.12.07.24.12.35.05.14.12.23.25.28.13.06.29.03.42-.01.35-.1.69-.23,1.04-.33.18-.05.37-.07.56-.05.16.02.31.11.47.1.27-.01.46-.32.3-.58-.01-.04.14-.4.16-.63,0-.31-.44-.45-1.05-.33M12.15,3.75s-.02.09-.03.09c-.29.05-.2.03-.58.12-.38.09-.79.24-.8.22-.01-.02-.05-.15-.1-.26.22-.07.44-.14.67-.2.22-.06.45-.11.68-.14,0,0,0,0,.01,0,.02,0,.04,0,.05,0,.05,0,.1,0,.11,0s.01.06-.02.17"/><path class="cls-1" d="M2.4,1.49s-.02,0-.03,0h-.02s.01-.02.01-.02c.05-.09.04-.16,0-.21-.03-.03-.06-.04-.1-.04-.13,0-.26.18-.26.18h0s-.01,0-.01,0c-.1-.1-.23-.17-.37-.18-.02,0-.04,0-.05,0-.06,0-.16.02-.2.1-.05.1-.01.23.02.35,0,.03.02.05.02.07,0,.02.01.04.02.07h0s-.01.02-.01.02c-.02,0-.04,0-.07.01-.03,0-.05,0-.07-.01-.02-.01-.05-.02-.08-.02-.02,0-.04,0-.06.02,0,0-.06.04-.04.14.01.09.1.27.28.26.04,0,.08-.01.13-.04h.01s0,0,0,0c.06.22.12.45.14.54.02.08.07.11.13.11.15,0,.26-.14.22-.28-.03-.08-.1-.25-.17-.42l-.05-.12h0s.04-.03.06-.05l.06-.04v.02c.04.12.09.22.16.29.08.09.18.15.3.16.03,0,.05,0,.08,0,.15,0,.27-.11.32-.27.06-.17.05-.43-.07-.57-.07-.08-.16-.11-.28-.11M1.91,1.63h0c-.07.03-.18.08-.25.11h-.01s-.01-.03-.01-.03c-.03-.08-.06-.17-.05-.25,0-.05.04-.08.1-.08.04,0,.09.01.12.03.07.04.11.11.11.21h0ZM2.44,2.06c-.01.06-.04.11-.09.13-.02.01-.05.02-.07.02-.04,0-.08,0-.11-.03-.1-.06-.16-.18-.2-.27h0s.01-.02.01-.02c.03-.01.05-.03.07-.04.05-.02.13-.06.21-.06.07,0,.12.02.15.07.03.05.04.12.02.19"/><path class="cls-1" d="M1.46,3.99c-.21.13-.25.35-.2.5.08.24.34.28.59.28.16,0,.35-.02.51-.04.12-.02.26-.06.31-.18.06-.14-.04-.27-.18-.27-.06,0-.12.02-.17.04-.08.03-.22.07-.3.1-.11.03-.32.1-.4-.02-.13-.18.11-.33.24-.37,0,0,0,0,0,0h0s.05.06.07.07c.02.02.05.03.08.03.1,0,.21-.09.19-.2h0s.01-.01.01-.01c.21-.06.4-.13.46-.3.08-.21-.08-.47-.3-.48-.19,0-.39.16-.48.33,0,0-.03-.03-.03-.03-.05-.05-.11-.08-.17-.11-.12-.07-.41-.13-.45.04-.03.12.12.18.2.24.09.07.18.16.26.24h.01s-.02.02-.02.02c-.05.02-.13.05-.24.12M2.02,3.56s.03-.06.07-.1c.05-.05.09-.06.12-.07.09,0,.14.1.09.18-.02.03-.08.06-.18.09h0s0,0,0,0c-.02-.02-.04-.05-.05-.06-.01-.01-.03-.03-.04-.04h0s0,0,0,0Z"/><path class="cls-1" d="M4.33,3.35c-.08-.12-.22-.21-.35-.2-.12,0-.24.06-.32.16-.05.06-.07.13-.08.21-.01.1-.02.21-.03.31,0,.06-.01.15-.08.17,0,0-.02,0-.02,0-.13.01-.13-.17-.06-.34.05-.12.14-.27,0-.37-.06-.05-.14-.08-.21-.08-.05,0-.12.01-.15.05-.02.02-.02.04-.02.08,0,.05.05.07.04.12,0,.08-.03.18-.04.26-.01.08-.03.15-.03.23,0,.14.07.3.22.35.14.05.32.04.41-.09.11-.14.09-.34.09-.51,0-.1.02-.28.17-.26.14.02.16.24.16.36,0,.44-.11.77-.49.91-.02,0-.04.01-.06.01-.01,0-.02,0-.03,0-.01,0-.03,0-.03.02,0,.01,0,.02.02.03,0,0,.02,0,.03,0,.03,0,.06,0,.08,0,.03,0,.07,0,.1,0,.02,0,.05,0,.07,0,.67-.05.92-.92.6-1.42"/><path class="cls-1" d="M3.17,1.64c-.04.06-.11.16-.11.23,0,.1.12.22.42.21.1,0,.21-.02.34-.04.03.05.07.09.12.13l.04.04h-.05s-.18-.04-.37-.04c-.04,0-.07,0-.11,0-.11.01-.24.04-.33.12-.08.08-.1.21-.05.32.09.21.38.24.58.25.03,0,.06,0,.08,0,.18,0,.4-.04.41-.2,0-.05,0-.08-.03-.11-.04-.04-.1-.05-.14-.05-.12,0-.23.05-.35.05-.07,0-.15,0-.2-.05-.04-.05-.03-.12.01-.16.05-.05.13-.06.2-.06.11,0,.21.02.31.06.05.02.1.04.14.06.04.02.08.05.12.07.07.03.18.06.24,0,.05-.05.07-.11.07-.17,0-.05-.03-.09-.07-.12-.01-.01-.03-.02-.04-.03-.08-.07-.16-.14-.23-.22.03-.01.07-.02.1-.04.06-.03.14-.05.17-.11.03-.06,0-.14-.05-.16-.06-.03-.13,0-.18.02-.05.02-.09.03-.14.05-.03,0-.05.02-.08.02-.02-.03-.05-.06-.07-.1.06-.01.11-.03.16-.05.08-.03.2-.06.24-.15.04-.07-.01-.16-.09-.18-.08-.02-.16.02-.23.05-.07.03-.14.05-.21.07-.01-.03-.02-.05-.03-.08-.02-.05-.05-.11-.12-.09-.03,0-.06.03-.08.05-.04.05-.04.13-.03.2h0c-.08.02-.16.03-.24.03-.06,0-.11,0-.17-.02-.03,0-.09-.02-.1.02-.02.04.02.1.05.13.02.02.05.04.09.05M3.48,1.68s.09,0,.14-.01c.02.05.04.09.06.13-.06.02-.12.03-.17.04-.05,0-.09.01-.12.01-.06,0-.1-.01-.12-.03-.01-.02-.02-.03-.01-.06,0-.04.03-.06.06-.09.05,0,.11,0,.16,0"/></g></svg>