<?xml version="1.0" encoding="UTF-8"?>
<svg id="_レイヤー_1" data-name="レイヤー 1" xmlns="http://www.w3.org/2000/svg" viewBox="0 0 63.78 58.11">
  <defs>
    <style>
      .cls-1 {
        fill: #f8f6e5;
      }

      .cls-2 {
        fill: #3fa08a;
      }

      .cls-3 {
        fill: #fbf7e6;
      }

      .cls-4 {
        fill: #bababa;
      }

      .cls-5 {
        fill: #574357;
      }

      .cls-6 {
        fill: #838383;
      }
    </style>
  </defs>
  <path class="cls-5" d="M23.53,7.22h16.4v-1.9c0-2.02,2.34-4.39,4.31-4.69,2.93-.45,6.49,1.65,6.49,4.81v1.78l9.84.03c1.15.19,2.06,1.03,2.27,2.17l.06,44.96c-.18,1.83-1.36,2.74-3.17,2.88H3.6c-1.97-.19-2.88-1.23-3.04-3.13V10.34c.1-1.62.7-2.79,2.43-3.11h9.74c-.07-2,.26-3.9,1.8-5.29,2.7-2.45,7.17-1.5,8.6,1.81.07.17.41,1.1.41,1.19v2.27ZM20.01,4.07c-1.5-1.49-4.01-.63-4.37,1.42-.2,1.13-.2,5.26,0,6.39.48,2.75,4.53,2.61,5.01.27.21-1.01.15-5.57.03-6.72-.05-.49-.32-1.02-.67-1.37ZM45.11,3.32c-1,.08-2.07.95-2.28,1.93-.24,1.13-.17,5.06-.06,6.33.26,3.06,4.49,3.09,5.04.43.23-1.11.17-5.09.06-6.33-.12-1.37-1.35-2.47-2.76-2.36ZM3.53,19.73c-.12,11.32-.17,22.69-.13,34.04l.13.67h56.33c.1,0,.22-.3.19-.42-.02-11.43,0-22.86,0-34.28,0-3.23,0-6.46,0-9.69h-9.32v2.02c0,2.44-2.91,4.67-5.27,4.73s-5.53-2.13-5.53-4.61v-2.15h-16.4v2.39c0,1.63-2.27,3.68-3.78,4.11-4.27,1.21-7.54-2.41-7.02-6.5H3.53c-.02,3.23.03,6.46,0,9.69Z"/>
  <path class="cls-3" d="M60.05,19.73c.01,11.43-.01,22.85,0,34.28.03.13-.09.42-.19.42H3.53l-.13-.67c-.04-11.34.01-22.71.13-34.04h56.51ZM30.33,25.04c-9.63.92-14.73,12.07-9.22,19.94,5.35,7.64,17.13,7.2,21.81-.89,5.27-9.12-2.09-20.05-12.59-19.05Z"/>
  <path class="cls-4" d="M3.53,19.73c.03-3.23-.02-6.46,0-9.69h9.19c-.52,4.1,2.75,7.71,7.02,6.5,1.52-.43,3.78-2.49,3.78-4.11v-2.39h16.4v2.15c0,2.47,3.16,4.66,5.53,4.61s5.27-2.29,5.27-4.73v-2.02h9.32c0,3.23,0,6.46,0,9.69H3.53Z"/>
  <path class="cls-6" d="M20.01,4.07c.34.34.61.88.67,1.37.12,1.15.18,5.7-.03,6.72-.48,2.34-4.53,2.48-5.01-.27-.2-1.13-.2-5.26,0-6.39.36-2.05,2.88-2.91,4.37-1.42Z"/>
  <path class="cls-6" d="M45.11,3.32c1.41-.11,2.64.99,2.76,2.36.11,1.24.17,5.22-.06,6.33-.55,2.66-4.78,2.63-5.04-.43-.11-1.26-.18-5.2.06-6.33.2-.98,1.28-1.85,2.28-1.93Z"/>
  <path class="cls-2" d="M30.33,25.04c10.5-1,17.87,9.93,12.59,19.05-4.67,8.09-16.45,8.53-21.81.89-5.52-7.87-.41-19.03,9.22-19.94ZM31.2,28.35c-6.97.42-11.17,7.88-7.74,13.95,3.23,5.71,11.24,6.45,15.53,1.47,5.37-6.23.45-15.91-7.79-15.42Z"/>
  <path class="cls-1" d="M31.2,28.35c8.23-.49,13.16,9.18,7.79,15.42-4.29,4.98-12.3,4.24-15.53-1.47-3.43-6.07.77-13.53,7.74-13.95ZM30.83,30.55c-5.34.6-8.13,6.75-5.17,11.16,3.39,5.03,11.31,3.89,13.05-1.91,1.51-5.05-2.61-9.85-7.88-9.26Z"/>
  <path class="cls-2" d="M30.83,30.55c5.28-.59,9.4,4.21,7.88,9.26-1.74,5.8-9.66,6.94-13.05,1.91-2.97-4.41-.18-10.56,5.17-11.16ZM31.68,33.88c-4.83.05-5.11,7.15-.38,7.66,5.36.59,5.82-7.72.38-7.66Z"/>
  <path class="cls-3" d="M31.68,33.88c5.44-.06,4.98,8.25-.38,7.66-4.73-.52-4.44-7.61.38-7.66Z"/>
</svg>