<?xml version="1.0" encoding="UTF-8"?>
<svg id="_レイヤー_1" data-name="レイヤー 1" xmlns="http://www.w3.org/2000/svg" viewBox="0 0 63.78 58.11">
  <defs>
    <style>
      .cls-1 {
        fill: #fbf7e6;
      }

      .cls-2 {
        fill: #bababa;
      }

      .cls-3 {
        fill: #574457;
      }

      .cls-4 {
        fill: #838383;
      }

      .cls-5 {
        fill: #3fa5ab;
      }
    </style>
  </defs>
  <path class="cls-3" d="M23.74,7.22h16.43c-.13-2.14.37-4.29,2.2-5.62,2.82-2.05,6.98-.94,8.23,2.28.09.24.4,1.14.4,1.32v2.02l9.86.03c1.24.2,2.07,1.05,2.32,2.25v45.11c-.17,1.73-1.62,2.62-3.28,2.64H3.88c-1.68-.13-2.82-.93-3.05-2.64l.03-45.35c.25-1.13,1.17-1.79,2.28-2.04h9.88v-2.4c0-.07.4-1.1.47-1.25,1.81-3.77,7.33-4.07,9.51-.49.15.25.72,1.54.72,1.74v2.39ZM18.24,3.32c-1.02.06-1.94.75-2.25,1.71-.34,1.04-.36,6.17-.03,7.21.71,2.26,4.06,2.26,4.83.1.37-1.04.3-4.92.22-6.18-.11-1.57-1-2.94-2.77-2.85ZM45.49,3.33c-.96.04-1.99.75-2.3,1.66s-.26,5.48-.16,6.59c.27,3.01,4.51,3.09,5.05.55.23-1.09.17-5.22.06-6.45-.12-1.36-1.25-2.4-2.65-2.35ZM3.7,19.73c-.01,11.57,0,23.14,0,34.7h56.63c0-11.57.01-23.14,0-34.7,0-3.23,0-6.46,0-9.69h-9.34v2.27c0,1.37-1.77,3.35-2.98,3.93-3.22,1.54-7.85-.7-7.85-4.3v-1.9h-16.31c.04,1.58-.12,3.22-1.07,4.53-1.75,2.4-5.31,2.95-7.7,1.11-1.82-1.4-2.27-3.44-2.18-5.64H3.7c0,3.23,0,6.46,0,9.69Z"/>
  <path class="cls-1" d="M60.33,19.73c.01,11.57,0,23.14,0,34.7H3.7c0-11.57-.01-23.14,0-34.7h56.63ZM31.81,26.38c-10.05.18-15.6,11.83-9.18,19.53,5.39,6.46,15.8,5.6,19.93-1.69,4.54-8-1.44-18-10.75-17.84Z"/>
  <path class="cls-2" d="M3.7,19.73c0-3.23,0-6.46,0-9.69h9.21c-.09,2.2.36,4.24,2.18,5.64,2.4,1.84,5.95,1.29,7.7-1.11.95-1.31,1.11-2.95,1.07-4.53h16.31v1.9c0,3.59,4.63,5.83,7.85,4.3,1.22-.58,2.98-2.56,2.98-3.93v-2.27h9.34c0,3.23,0,6.46,0,9.69H3.7Z"/>
  <path class="cls-4" d="M18.24,3.32c1.77-.1,2.66,1.28,2.77,2.85.09,1.26.16,5.14-.22,6.18-.77,2.16-4.12,2.17-4.83-.1-.33-1.05-.32-6.18.03-7.21.32-.96,1.23-1.66,2.25-1.71Z"/>
  <path class="cls-4" d="M45.49,3.33c1.4-.05,2.53,1,2.65,2.35.11,1.23.17,5.36-.06,6.45-.55,2.54-4.78,2.45-5.05-.55-.1-1.12-.14-5.72.16-6.59s1.35-1.62,2.3-1.66Z"/>
  <path class="cls-5" d="M31.81,26.38c9.31-.17,15.28,9.84,10.75,17.84-4.13,7.29-14.55,8.15-19.93,1.69-6.42-7.7-.87-19.35,9.18-19.53ZM31.18,30.8c-10.16,1.02-8.39,16.57,2.07,15.04,9.52-1.39,7.92-16.03-2.07-15.04Z"/>
  <path class="cls-1" d="M31.18,30.8c9.98-1,11.59,13.64,2.07,15.04-10.46,1.53-12.23-14.02-2.07-15.04Z"/>
</svg>