<?xml version="1.0" encoding="UTF-8"?>
<svg id="_レイヤー_1" data-name="レイヤー 1" xmlns="http://www.w3.org/2000/svg" viewBox="0 0 63.78 58.11">
  <defs>
    <style>
      .cls-1 {
        fill: #584458;
      }

      .cls-2 {
        fill: #fbf7e6;
      }

      .cls-3 {
        fill: #bababa;
      }

      .cls-4 {
        fill: #838383;
      }

      .cls-5 {
        fill: #f0646e;
      }
    </style>
  </defs>
  <path class="cls-1" d="M23.85,7.22h16.4v-2.27c0-.09.36-1.12.43-1.29,1.48-3.26,5.9-4.14,8.57-1.72,1.53,1.39,1.86,3.29,1.8,5.28h9.74c1.73.33,2.33,1.5,2.44,3.12v43.78c-.17,1.88-1.1,2.95-3.05,3.13H4.04c-1.78-.07-3.01-1.09-3.17-2.88l.06-44.95c.22-1.17,1.09-1.97,2.27-2.17l9.84-.03v-1.9c0-3.08,3.63-5.13,6.49-4.69,1.97.3,4.31,2.67,4.31,4.69v1.9ZM18.36,3.33c-1.31.05-2.34,1.08-2.46,2.35s-.17,5.22.06,6.33c.57,2.74,4.77,2.53,5.04-.43.11-1.24.17-5.22-.06-6.33s-1.45-1.96-2.58-1.92ZM43.77,4.08c-.34.34-.61.88-.67,1.37-.14,1.29-.18,5.38.03,6.59.44,2.6,4.61,2.65,5.03-.37.16-1.15.17-5.53-.13-6.56-.53-1.82-2.94-2.35-4.27-1.03ZM3.73,19.73c-.01,11.42.01,22.85,0,34.28-.03.13.09.42.19.42h56.33c0-11.57.01-23.14,0-34.7,0-3.23,0-6.46,0-9.69h-9.19c.56,4.25-3.06,7.95-7.39,6.38-1.27-.46-3.41-2.5-3.41-3.86v-2.51h-16.4v2.15c0,2.14-2.63,4.33-4.69,4.56-2.69.31-6.11-1.86-6.11-4.69v-2.02H3.73c0,3.23,0,6.46,0,9.69Z"/>
  <path class="cls-2" d="M60.25,19.73c.01,11.57,0,23.14,0,34.7H3.92c-.1,0-.22-.3-.19-.42.02-11.43,0-22.85,0-34.28h56.51ZM41.7,47.28c.77-.71.85-1.95.22-2.77l-6.75-6.71c2.14-2.48,4.81-4.59,6.93-7.12,1.04-2.14-1.5-4.1-3.37-2.59-2.3,2.1-4.38,4.47-6.73,6.48l-.25-.12-6.72-6.61c-2.03-1.06-4.21,1.15-2.88,3.09,2.17,2.31,4.61,4.41,6.69,6.76-2.09,2.42-4.68,4.49-6.77,6.94-1.22,2.12,1.25,4.22,3.2,2.79l6.75-6.59.24.11,6.65,6.56c.84.59,2.06.47,2.81-.22Z"/>
  <path class="cls-3" d="M3.73,19.73c0-3.23,0-6.46,0-9.69h9.32v2.02c0,2.83,3.42,5,6.11,4.69,2.06-.24,4.69-2.42,4.69-4.56v-2.15h16.4v2.51c0,1.37,2.14,3.4,3.41,3.86,4.34,1.57,7.96-2.13,7.39-6.38h9.19c0,3.23,0,6.46,0,9.69H3.73Z"/>
  <path class="cls-4" d="M43.77,4.08c1.33-1.31,3.74-.78,4.27,1.03.3,1.02.29,5.41.13,6.56-.42,3.02-4.59,2.97-5.03.37-.21-1.21-.17-5.31-.03-6.59.05-.48.32-1.03.67-1.37Z"/>
  <path class="cls-4" d="M18.36,3.33c1.13-.04,2.35.81,2.58,1.92s.17,5.09.06,6.33c-.27,2.97-4.47,3.17-5.04.43-.23-1.11-.17-5.09-.06-6.33s1.15-2.31,2.46-2.35Z"/>
  <path class="cls-5" d="M41.7,47.28c-.75.69-1.97.81-2.81.22l-6.65-6.56-.24-.11-6.75,6.59c-1.95,1.43-4.42-.67-3.2-2.79,2.08-2.45,4.68-4.51,6.77-6.94-2.08-2.36-4.52-4.46-6.69-6.76-1.33-1.94.85-4.15,2.88-3.09l6.72,6.61.25.12c2.34-2.01,4.43-4.39,6.73-6.48,1.88-1.51,4.42.46,3.37,2.59-2.11,2.53-4.78,4.63-6.93,7.12l6.75,6.71c.63.82.55,2.06-.22,2.77Z"/>
</svg>