<?xml version="1.0" encoding="UTF-8"?>
<svg id="_レイヤー_1" data-name="レイヤー 1" xmlns="http://www.w3.org/2000/svg" viewBox="0 0 63.78 58.11">
  <defs>
    <style>
      .cls-1 {
        fill: #eaba65;
      }

      .cls-2 {
        fill: #fbf7e6;
      }

      .cls-3 {
        fill: #bababa;
      }

      .cls-4 {
        fill: #574357;
      }

      .cls-5 {
        fill: #838383;
      }
    </style>
  </defs>
  <path class="cls-4" d="M12.86,5.07c.28-2.16,2.45-4.28,4.66-4.48,4.09-.38,6.51,2.82,6.17,6.63h16.31c-.05-1.85.21-3.66,1.55-5.03,2.34-2.39,6.4-2.1,8.33.63.27.39.94,1.73.94,2.14v2.27h9.88c1.11.26,2.03.92,2.28,2.05l.03,45.35c-.22,1.68-1.4,2.51-3.05,2.64H3.95c-1.63,0-3.03-.87-3.29-2.52V9.5c.26-1.23,1.09-2.03,2.34-2.25l9.86-.03c.06-.68-.09-1.48,0-2.15ZM18.06,3.32c-.92.07-2.07.9-2.28,1.81-.23,1-.16,5.4-.06,6.57.25,2.77,4.15,3.02,4.95.57.31-.94.27-5.31.16-6.47-.13-1.41-1.27-2.6-2.77-2.48ZM45.32,3.32c-1.08.06-2,.77-2.31,1.78s-.27,5.02-.16,6.22c.28,3.19,4.23,3.52,5.05.92.34-1.07.29-4.83.19-6.08-.12-1.55-1.01-2.95-2.77-2.85ZM3.52,19.73c-.01,11.57,0,23.14,0,34.7h56.63c0-11.57.01-23.14,0-34.7,0-3.23,0-6.46,0-9.69h-9.33v2.51c0,.24-.72,1.63-.92,1.92-2.13,3.06-6.64,3.06-8.84.1-.97-1.31-1.11-2.94-1.07-4.53h-16.31v1.78c0,3.69-4.54,6-7.85,4.42-1.13-.54-2.98-2.55-2.98-3.81v-2.39H3.52c0,3.23,0,6.46,0,9.69Z"/>
  <path class="cls-2" d="M60.15,19.73c.01,11.57,0,23.14,0,34.7H3.52c0-11.57-.01-23.14,0-34.7h56.63ZM31.37,26.5c-.63.13-1.1.65-1.44,1.16l-10.37,18.23c-.75,1.75.24,3.06,2.07,3.15,6.63-.39,13.86.51,20.42,0,.78-.06,1.58-.25,2.03-.94.65-1.03.32-1.66-.16-2.62-3.01-6.03-7.12-11.87-10.22-17.89-.44-.82-1.39-1.28-2.33-1.09Z"/>
  <path class="cls-3" d="M3.52,19.73c0-3.23,0-6.46,0-9.69h9.33v2.39c0,1.26,1.85,3.27,2.98,3.81,3.3,1.58,7.85-.73,7.85-4.42v-1.78h16.31c-.04,1.59.1,3.22,1.07,4.53,2.2,2.97,6.71,2.96,8.84-.1.2-.28.92-1.67.92-1.92v-2.51h9.33c0,3.23,0,6.46,0,9.69H3.52Z"/>
  <path class="cls-5" d="M45.32,3.32c1.75-.1,2.64,1.3,2.77,2.85.1,1.25.15,5.01-.19,6.08-.82,2.6-4.77,2.27-5.05-.92-.11-1.21-.15-5.2.16-6.22s1.23-1.73,2.31-1.78Z"/>
  <path class="cls-5" d="M18.06,3.32c1.5-.12,2.64,1.07,2.77,2.48.11,1.15.14,5.53-.16,6.47-.8,2.44-4.7,2.19-4.95-.57-.11-1.17-.18-5.58.06-6.57.21-.9,1.37-1.73,2.28-1.81Z"/>
  <path class="cls-1" d="M31.37,26.5c.94-.19,1.89.27,2.33,1.09,3.1,6.02,7.21,11.86,10.22,17.89.48.96.82,1.59.16,2.62-.44.7-1.25.88-2.03.94-6.57.51-13.79-.39-20.42,0-1.84-.1-2.82-1.41-2.07-3.15l10.37-18.23c.33-.5.81-1.03,1.44-1.16ZM38.74,44.99l-6.91-12.26-6.91,12.26h13.82Z"/>
  <polygon class="cls-2" points="38.74 44.99 24.93 44.99 31.84 32.73 38.74 44.99"/>
</svg>