<?xml version="1.0" encoding="UTF-8"?>
<svg id="_レイヤー_2" data-name="レイヤー 2" xmlns="http://www.w3.org/2000/svg" viewBox="0 0 81.91 64.38">
  <defs>
    <style>
      .cls-1 {
        fill: #b3b3b3;
      }
    </style>
  </defs>
  <g id="_レイヤー_1-2" data-name="レイヤー 1">
    <path class="cls-1" d="M74.77,11.75c-10.61-2.98-9.39-2.58-13.49-6.67-4.99-4.7-12.19-7.34-19.2-2.5-7.01,4.85-13.15,3.6-16.42,3.26s-11.95-1.25-14.54,7.15c-2.59,8.4-5.52,9.31-8.64,13.25-3.12,3.94-3.36,12-.38,15.26s7.2,4.03,9.5,2.88c2.3-1.15,7.34-1.1,9.98,2.4,2.64,3.5,10.72,4.27,17.91.43.4-.21.79-.41,1.17-.6.79-1.83,2.06-3.42,3.52-4.41,3.54-2.39,9.99-2.98,14.06-1.28,2.59,1.07,4.27,3.01,4.75,5.45,4.35.18,8.79-1.03,9.23-5.83.72-7.87,4.32-9.55,6.91-11.33,2.59-1.78,6.24-14.5-4.37-17.47Z"/>
    <path class="cls-1" d="M52.34,56.24c4.9-1.24,8.6-2.95,7.62-8.18-.98-5.23-10.39-4.9-14.07-2.35-3.88,2.69-6.13,12.81,6.46,10.53Z"/>
    <path class="cls-1" d="M64.34,64.14c3.66-.89,6.42-2.13,5.69-5.93-.74-3.79-7.77-3.56-10.52-1.72-2.9,1.94-4.57,9.28,4.84,7.65Z"/>
  </g>
</svg>