<?xml version="1.0" encoding="UTF-8"?>
<svg id="_レイヤー_2" data-name="レイヤー 2" xmlns="http://www.w3.org/2000/svg" viewBox="0 0 12.76 16.05">
  <defs>
    <style>
      .cls-1 {
        fill: #fff;
      }
    </style>
  </defs>
  <g id="_レイヤー_1-2" data-name="レイヤー 1">
    <path class="cls-1" d="M8.56,1.02c-.26.26-.7.13-1.04.16-1,.07-2.43.72-3.31,1.21-1.1.61-3.26,2.08-3.05,3.54.02.16.22.56.35.65s.88.18.99.09c.03-.02.26-.51.31-.61.99-1.63,2.74-3.01,4.53-3.66,1.02-.37,2.7-.61,3.4.46,1.1,1.67-2.15,3.15-3.28,3.64-1.32.57-2.71,1-4.13,1.24-.13.35-.15.82.07,1.14.39.56,1.53.5,2.13.46.36-.85.95-1.54,1.68-2.1.6-.46,1.57-1.01,2.33-1.07,1.5-.12,1.78,1.42.93,2.39-.89,1.02-2.61,1.5-3.89,1.79,0,.47.18,1.18.68,1.34.25.08.17-.08.24-.25.32-.82,1.04-1.35,1.89-1.54,1.83-.39,2.71,1.67.91,2.48-.4.18-.92.23-1.28.39-.11.05.2.18.26.2.64.23,1.12,0,1.73.06.48.05.83.38.74.89-.02.11-.2.34-.16.45.06.16.8.55.96.71.39.38.05,1.06-.5.98-.31-.05-1.41-.89-1.54-1.18-.09-.2-.1-.43-.09-.65-.92.07-1.9-.11-2.53-.83-.06-.07-.27-.42-.29-.44-.05-.04-.5-.09-.63-.13-.77-.23-1.27-.88-1.45-1.65-.05-.22-.06-.44-.12-.65-1.21.06-2.76-.11-3.21-1.44-.14-.42-.11-.8-.12-1.23-1.05.06-1.82-.59-2.05-1.59C-.48,3.87,2.61,1.86,4.42.99c.93-.45,2.85-1.19,3.86-.94.44.11.61.64.29.97ZM9.77,3.45s-.14-.09-.18-.11c-1.02-.46-2.81.5-3.65,1.09-.74.52-1.47,1.22-1.96,1.99.09.08,1.78-.48,2.02-.57.85-.31,3.42-1.38,3.79-2.19.04-.09.06-.13-.01-.21ZM7.06,9.04c.06.05.71-.18.82-.22.51-.18,1.64-.69,1.88-1.2.03-.07.07-.19.06-.27-.1-.13-.76.13-.89.19-.61.28-1.29.79-1.73,1.29-.02.02-.16.19-.14.2ZM10.13,11.06s-.12-.05-.14-.05c-.4-.06-1.06.26-1.27.62.03.04.03.03.08.03.21-.03,1.17-.31,1.29-.45.03-.03.08-.09.05-.14Z"/>
  </g>
</svg>