<!--?xml version="1.0" encoding="utf-8"?-->
<!-- Generator: Adobe Illustrator 15.1.0, SVG Export Plug-In . SVG Version: 6.00 Build 0)  -->

<svg version="1.1" id="_x32_" xmlns="http://www.w3.org/2000/svg" xmlns:xlink="http://www.w3.org/1999/xlink" x="0px" y="0px" width="512px" height="512px" viewBox="0 0 512 512" style="width: 256px; height: 256px; opacity: 1;" xml:space="preserve">
<style type="text/css">

	.st0{fill:#4B4B4B;}

</style>
<g>
	<path class="st0" d="M304,309.328V360h-96v-50.672H0v117.344c0,35.344,28.656,64,64,64h384c35.344,0,64-28.656,64-64V309.328H304z" style="fill: rgb(75, 75, 75);"></path>
	<path class="st0" d="M372,69.328c0,8.844-7.406,16-16.563,16H156.578c-9.156,0-16.578-7.156-16.578-16v-32
		c0-8.828,7.422-16,16.578-16h198.859c9.156,0,16.563,7.172,16.563,16V69.328z" style="fill: rgb(75, 75, 75);"></path>
	<path class="st0" d="M180.656,185.328c0,8.844-7.156,16-16,16h-1.328c-8.828,0-16-7.156-16-16V120c0-8.844,7.172-16,16-16h1.328
		c8.844,0,16,7.156,16,16V185.328z" style="fill: rgb(75, 75, 75);"></path>
	<path class="st0" d="M364.656,185.328c0,8.844-7.156,16-16,16h-1.328c-8.828,0-16-7.156-16-16V120c0-8.844,7.172-16,16-16h1.328
		c8.844,0,16,7.156,16,16V185.328z" style="fill: rgb(75, 75, 75);"></path>
	<path class="st0" d="M448,154.672H64c-35.344,0-64,28.656-64,64v58.656h208V232h96v45.328h208v-58.656
		C512,183.328,483.344,154.672,448,154.672z" style="fill: rgb(75, 75, 75);"></path>
	<rect x="224" y="248" class="st0" width="64" height="96" style="fill: rgb(75, 75, 75);"></rect>
</g>
</svg>
